<svg width="414" height="132" viewBox="0 0 414 132" fill="none" xmlns="http://www.w3.org/2000/svg">
<path d="M0 0H414V129.657H0V0Z" fill="#F5F6F8"/>
<g style="mix-blend-mode:multiply">
<mask id="mask0_3_5691" style="mask-type:alpha" maskUnits="userSpaceOnUse" x="0" y="0" width="414" height="132">
<path d="M414 0H0V131.705H414V0Z" fill="#F5F6F8"/>
</mask>
<g mask="url(#mask0_3_5691)">
<circle cx="334.5" cy="156.5" r="59.5" stroke="#1CAEEF" stroke-width="40"/>
<path d="M-6 35C49.4182 35 94 79.5127 94 134C94 188.487 49.4182 233 -6 233C-61.4182 233 -106 188.487 -106 134C-106 79.5127 -61.4182 35 -6 35Z" stroke="#1CAEEF" stroke-width="50"/>
</g>
</g>
<path opacity="0.456267" d="M0 0H414V130.826H0V0Z" fill="#199BD5"/>
<path opacity="0.513574" d="M0 0H414V24.313H0V0Z" fill="url(#paint0_linear_3_5691)"/>
<defs>
<linearGradient id="paint0_linear_3_5691" x1="103.5" y1="6.07825" x2="103.5" y2="6.07825" gradientUnits="userSpaceOnUse">
<stop offset="1" stop-color="#1CAEEF" stop-opacity="0"/>
<stop offset="0.527094" stop-color="#1CADEE" stop-opacity="0.0509804"/>
<stop stop-color="#199BD5"/>
</linearGradient>
</defs>
</svg>
