<svg width="185" height="67" viewBox="0 0 185 67" fill="none" xmlns="http://www.w3.org/2000/svg">
<path d="M79.6552 43.3835V50.6562H78.7745V43.3835H79.6552ZM82.1454 47.375V50.6562H81.3073V45.2017H82.117V46.054H82.188C82.3159 45.777 82.51 45.5545 82.7704 45.3864C83.0308 45.2159 83.367 45.1307 83.7789 45.1307C84.1482 45.1307 84.4714 45.2064 84.7484 45.358C85.0254 45.5071 85.2408 45.7344 85.3947 46.0398C85.5486 46.3428 85.6255 46.7263 85.6255 47.1903V50.6562H84.7874V47.2472C84.7874 46.8187 84.6762 46.4848 84.4536 46.2457C84.2311 46.0043 83.9257 45.8835 83.5374 45.8835C83.2699 45.8835 83.0308 45.9415 82.8201 46.0575C82.6118 46.1735 82.4472 46.3428 82.3265 46.5653C82.2058 46.7879 82.1454 47.0578 82.1454 47.375ZM89.2166 50.7699C88.7621 50.7699 88.3608 50.6551 88.0128 50.4254C87.6648 50.1934 87.3925 49.8667 87.196 49.4453C86.9995 49.0215 86.9013 48.5208 86.9013 47.9432C86.9013 47.3703 86.9995 46.8731 87.196 46.4517C87.3925 46.0303 87.6659 45.7048 88.0163 45.4751C88.3667 45.2455 88.7715 45.1307 89.2308 45.1307C89.5859 45.1307 89.8665 45.1899 90.0724 45.3082C90.2808 45.4242 90.4394 45.5568 90.5483 45.706C90.6595 45.8527 90.746 45.9735 90.8075 46.0682H90.8785V43.3835H91.7166V50.6562H90.9069V49.8182H90.8075C90.746 49.9176 90.6584 50.0431 90.5447 50.1946C90.4311 50.3437 90.2689 50.4775 90.0582 50.5959C89.8475 50.7119 89.567 50.7699 89.2166 50.7699ZM89.3302 50.017C89.6664 50.017 89.9505 49.9295 90.1825 49.7543C90.4145 49.5767 90.5909 49.3317 90.7116 49.0192C90.8324 48.7043 90.8927 48.3409 90.8927 47.929C90.8927 47.5218 90.8335 47.1655 90.7152 46.8601C90.5968 46.5523 90.4216 46.3132 90.1896 46.1428C89.9576 45.9699 89.6711 45.8835 89.3302 45.8835C88.9751 45.8835 88.6792 45.9747 88.4424 46.157C88.2081 46.3369 88.0317 46.5819 87.9133 46.892C87.7973 47.1998 87.7393 47.5455 87.7393 47.929C87.7393 48.3172 87.7985 48.67 87.9169 48.9872C88.0376 49.3021 88.2152 49.553 88.4496 49.7401C88.6863 49.9247 88.9799 50.017 89.3302 50.017ZM96.8054 48.4261V45.2017H97.6434V50.6562H96.8054V49.733H96.7486C96.6207 50.0099 96.4219 50.2455 96.152 50.4396C95.8821 50.6314 95.5412 50.7273 95.1292 50.7273C94.7883 50.7273 94.4853 50.6527 94.2201 50.5036C93.955 50.352 93.7467 50.1248 93.5951 49.8217C93.4436 49.5163 93.3679 49.1316 93.3679 48.6676V45.2017H94.2059V48.6108C94.2059 49.0085 94.3172 49.3258 94.5398 49.5625C94.7647 49.7992 95.0511 49.9176 95.3991 49.9176C95.6075 49.9176 95.8193 49.8643 96.0348 49.7578C96.2526 49.6513 96.4349 49.4879 96.5817 49.2678C96.7308 49.0476 96.8054 48.767 96.8054 48.4261ZM103.042 46.4233L102.289 46.6364C102.242 46.5109 102.172 46.389 102.08 46.2706C101.99 46.1499 101.867 46.0504 101.71 45.9723C101.554 45.8942 101.354 45.8551 101.11 45.8551C100.776 45.8551 100.498 45.9321 100.276 46.0859C100.056 46.2375 99.9455 46.4304 99.9455 46.6648C99.9455 46.8731 100.021 47.0376 100.173 47.1584C100.324 47.2791 100.561 47.3797 100.883 47.4602L101.693 47.6591C102.18 47.7775 102.544 47.9586 102.783 48.2024C103.022 48.4439 103.141 48.7552 103.141 49.1364C103.141 49.4489 103.052 49.7282 102.872 49.9744C102.694 50.2206 102.445 50.4148 102.126 50.5568C101.806 50.6989 101.435 50.7699 101.011 50.7699C100.454 50.7699 99.994 50.6491 99.6294 50.4077C99.2648 50.1662 99.034 49.8134 98.9369 49.3494L99.7324 49.1506C99.8082 49.4441 99.9514 49.6643 100.162 49.8111C100.375 49.9579 100.653 50.0312 100.997 50.0312C101.387 50.0312 101.697 49.9484 101.927 49.7827C102.159 49.6146 102.275 49.4134 102.275 49.179C102.275 48.9896 102.209 48.831 102.076 48.7031C101.944 48.5729 101.74 48.4759 101.465 48.4119L100.556 48.1989C100.057 48.0805 99.6898 47.897 99.4554 47.6484C99.2234 47.3975 99.1074 47.0838 99.1074 46.7074C99.1074 46.3996 99.1938 46.1274 99.3666 45.8906C99.5418 45.6539 99.7797 45.468 100.08 45.3331C100.383 45.1982 100.727 45.1307 101.11 45.1307C101.65 45.1307 102.074 45.2491 102.382 45.4858C102.692 45.7225 102.912 46.035 103.042 46.4233ZM106.775 45.2017V45.9119H103.948V45.2017H106.775ZM104.772 43.8949H105.61V49.0938C105.61 49.3305 105.645 49.508 105.713 49.6264C105.784 49.7424 105.874 49.8205 105.983 49.8608C106.095 49.8987 106.212 49.9176 106.335 49.9176C106.427 49.9176 106.503 49.9129 106.562 49.9034C106.621 49.8916 106.669 49.8821 106.704 49.875L106.875 50.6278C106.818 50.6491 106.738 50.6705 106.637 50.6918C106.535 50.7154 106.406 50.7273 106.25 50.7273C106.013 50.7273 105.781 50.6764 105.554 50.5746C105.329 50.4728 105.142 50.3177 104.993 50.1094C104.846 49.901 104.772 49.6383 104.772 49.321V43.8949ZM108.036 50.6562V45.2017H108.846V46.0256H108.902C109.002 45.7557 109.182 45.5367 109.442 45.3686C109.703 45.2005 109.996 45.1165 110.323 45.1165C110.384 45.1165 110.461 45.1177 110.554 45.12C110.646 45.1224 110.716 45.1259 110.763 45.1307V45.983C110.735 45.9759 110.67 45.9652 110.568 45.951C110.468 45.9344 110.363 45.9261 110.252 45.9261C109.987 45.9261 109.75 45.9818 109.542 46.093C109.336 46.2019 109.172 46.3535 109.051 46.5476C108.933 46.7393 108.874 46.9583 108.874 47.2045V50.6562H108.036ZM111.757 50.6562V45.2017H112.595V50.6562H111.757ZM112.183 44.2926C112.019 44.2926 111.878 44.237 111.76 44.1257C111.644 44.0144 111.586 43.8807 111.586 43.7244C111.586 43.5682 111.644 43.4344 111.76 43.3232C111.878 43.2119 112.019 43.1562 112.183 43.1562C112.346 43.1562 112.486 43.2119 112.602 43.3232C112.72 43.4344 112.779 43.5682 112.779 43.7244C112.779 43.8807 112.72 44.0144 112.602 44.1257C112.486 44.237 112.346 44.2926 112.183 44.2926ZM115.735 50.7841C115.389 50.7841 115.075 50.719 114.794 50.5888C114.512 50.4562 114.288 50.2656 114.122 50.017C113.957 49.7661 113.874 49.4631 113.874 49.108C113.874 48.7955 113.935 48.5421 114.059 48.348C114.182 48.1515 114.346 47.9976 114.552 47.8864C114.758 47.7751 114.985 47.6922 115.234 47.6378C115.485 47.581 115.737 47.536 115.99 47.5028C116.322 47.4602 116.591 47.4283 116.796 47.407C117.005 47.3833 117.156 47.3442 117.251 47.2898C117.348 47.2353 117.397 47.1406 117.397 47.0057V46.9773C117.397 46.6269 117.301 46.3546 117.109 46.1605C116.92 45.9664 116.632 45.8693 116.246 45.8693C115.846 45.8693 115.532 45.9569 115.305 46.1321C115.078 46.3073 114.918 46.4943 114.826 46.6932L114.03 46.4091C114.172 46.0777 114.362 45.8196 114.598 45.6349C114.837 45.4479 115.098 45.3177 115.38 45.2443C115.664 45.1686 115.943 45.1307 116.218 45.1307C116.393 45.1307 116.594 45.152 116.821 45.1946C117.051 45.2348 117.272 45.3189 117.485 45.4467C117.701 45.5746 117.88 45.7675 118.022 46.0256C118.164 46.2836 118.235 46.6293 118.235 47.0625V50.6562H117.397V49.9176H117.354C117.297 50.036 117.203 50.1626 117.07 50.2976C116.937 50.4325 116.761 50.5473 116.541 50.642C116.321 50.7367 116.052 50.7841 115.735 50.7841ZM115.863 50.0312C116.194 50.0312 116.473 49.9661 116.701 49.8359C116.93 49.7057 117.103 49.5376 117.219 49.3317C117.337 49.1257 117.397 48.9091 117.397 48.6818V47.9148C117.361 47.9574 117.283 47.9964 117.162 48.032C117.044 48.0651 116.907 48.0947 116.75 48.1207C116.596 48.1444 116.446 48.1657 116.299 48.1847C116.155 48.2012 116.038 48.2154 115.948 48.2273C115.73 48.2557 115.526 48.3018 115.337 48.3658C115.15 48.4273 114.998 48.5208 114.882 48.6463C114.769 48.7694 114.712 48.9375 114.712 49.1506C114.712 49.4418 114.82 49.6619 115.035 49.8111C115.253 49.9579 115.529 50.0312 115.863 50.0312ZM120.602 43.3835V50.6562H119.764V43.3835H120.602ZM124.666 44.1648V43.3835H130.12V44.1648H127.833V50.6562H126.953V44.1648H124.666ZM130.8 50.6562V45.2017H131.609V46.0256H131.666C131.765 45.7557 131.945 45.5367 132.206 45.3686C132.466 45.2005 132.76 45.1165 133.086 45.1165C133.148 45.1165 133.225 45.1177 133.317 45.12C133.41 45.1224 133.479 45.1259 133.527 45.1307V45.983C133.498 45.9759 133.433 45.9652 133.331 45.951C133.232 45.9344 133.127 45.9261 133.015 45.9261C132.75 45.9261 132.514 45.9818 132.305 46.093C132.099 46.2019 131.936 46.3535 131.815 46.5476C131.697 46.7393 131.638 46.9583 131.638 47.2045V50.6562H130.8ZM136.125 50.7841C135.78 50.7841 135.466 50.719 135.184 50.5888C134.903 50.4562 134.679 50.2656 134.513 50.017C134.347 49.7661 134.265 49.4631 134.265 49.108C134.265 48.7955 134.326 48.5421 134.449 48.348C134.572 48.1515 134.737 47.9976 134.943 47.8864C135.149 47.7751 135.376 47.6922 135.625 47.6378C135.876 47.581 136.128 47.536 136.381 47.5028C136.712 47.4602 136.981 47.4283 137.187 47.407C137.395 47.3833 137.547 47.3442 137.642 47.2898C137.739 47.2353 137.787 47.1406 137.787 47.0057V46.9773C137.787 46.6269 137.691 46.3546 137.5 46.1605C137.31 45.9664 137.023 45.8693 136.637 45.8693C136.237 45.8693 135.923 45.9569 135.696 46.1321C135.468 46.3073 135.309 46.4943 135.216 46.6932L134.421 46.4091C134.563 46.0777 134.752 45.8196 134.989 45.6349C135.228 45.4479 135.488 45.3177 135.77 45.2443C136.054 45.1686 136.334 45.1307 136.608 45.1307C136.783 45.1307 136.985 45.152 137.212 45.1946C137.442 45.2348 137.663 45.3189 137.876 45.4467C138.091 45.5746 138.27 45.7675 138.412 46.0256C138.554 46.2836 138.625 46.6293 138.625 47.0625V50.6562H137.787V49.9176H137.745C137.688 50.036 137.593 50.1626 137.461 50.2976C137.328 50.4325 137.152 50.5473 136.931 50.642C136.711 50.7367 136.443 50.7841 136.125 50.7841ZM136.253 50.0312C136.585 50.0312 136.864 49.9661 137.091 49.8359C137.321 49.7057 137.494 49.5376 137.61 49.3317C137.728 49.1257 137.787 48.9091 137.787 48.6818V47.9148C137.752 47.9574 137.674 47.9964 137.553 48.032C137.435 48.0651 137.297 48.0947 137.141 48.1207C136.987 48.1444 136.837 48.1657 136.69 48.1847C136.546 48.2012 136.428 48.2154 136.338 48.2273C136.121 48.2557 135.917 48.3018 135.728 48.3658C135.541 48.4273 135.389 48.5208 135.273 48.6463C135.159 48.7694 135.103 48.9375 135.103 49.1506C135.103 49.4418 135.21 49.6619 135.426 49.8111C135.644 49.9579 135.919 50.0312 136.253 50.0312ZM142.215 50.7699C141.76 50.7699 141.359 50.6551 141.011 50.4254C140.663 50.1934 140.391 49.8667 140.194 49.4453C139.998 49.0215 139.899 48.5208 139.899 47.9432C139.899 47.3703 139.998 46.8731 140.194 46.4517C140.391 46.0303 140.664 45.7048 141.014 45.4751C141.365 45.2455 141.77 45.1307 142.229 45.1307C142.584 45.1307 142.865 45.1899 143.07 45.3082C143.279 45.4242 143.437 45.5568 143.546 45.706C143.658 45.8527 143.744 45.9735 143.806 46.0682H143.877V43.3835H144.715V50.6562H143.905V49.8182H143.806C143.744 49.9176 143.656 50.0431 143.543 50.1946C143.429 50.3437 143.267 50.4775 143.056 50.5959C142.846 50.7119 142.565 50.7699 142.215 50.7699ZM142.328 50.017C142.664 50.017 142.949 49.9295 143.181 49.7543C143.413 49.5767 143.589 49.3317 143.71 49.0192C143.83 48.7043 143.891 48.3409 143.891 47.929C143.891 47.5218 143.832 47.1655 143.713 46.8601C143.595 46.5523 143.42 46.3132 143.188 46.1428C142.956 45.9699 142.669 45.8835 142.328 45.8835C141.973 45.8835 141.677 45.9747 141.44 46.157C141.206 46.3369 141.03 46.5819 140.911 46.892C140.795 47.1998 140.737 47.5455 140.737 47.929C140.737 48.3172 140.797 48.67 140.915 48.9872C141.036 49.3021 141.213 49.553 141.448 49.7401C141.684 49.9247 141.978 50.017 142.328 50.017ZM146.366 50.6562V45.2017H147.204V50.6562H146.366ZM146.792 44.2926C146.629 44.2926 146.488 44.237 146.369 44.1257C146.253 44.0144 146.195 43.8807 146.195 43.7244C146.195 43.5682 146.253 43.4344 146.369 43.3232C146.488 43.2119 146.629 43.1562 146.792 43.1562C146.955 43.1562 147.095 43.2119 147.211 43.3232C147.329 43.4344 147.389 43.5682 147.389 43.7244C147.389 43.8807 147.329 44.0144 147.211 44.1257C147.095 44.237 146.955 44.2926 146.792 44.2926ZM149.577 47.375V50.6562H148.739V45.2017H149.549V46.054H149.62C149.747 45.777 149.942 45.5545 150.202 45.3864C150.462 45.2159 150.799 45.1307 151.211 45.1307C151.58 45.1307 151.903 45.2064 152.18 45.358C152.457 45.5071 152.672 45.7344 152.826 46.0398C152.98 46.3428 153.057 46.7263 153.057 47.1903V50.6562H152.219V47.2472C152.219 46.8187 152.108 46.4848 151.885 46.2457C151.663 46.0043 151.357 45.8835 150.969 45.8835C150.702 45.8835 150.462 45.9415 150.252 46.0575C150.043 46.1735 149.879 46.3428 149.758 46.5653C149.637 46.7879 149.577 47.0578 149.577 47.375ZM156.79 52.8153C156.385 52.8153 156.037 52.7633 155.746 52.6591C155.455 52.5573 155.212 52.4223 155.018 52.2543C154.827 52.0885 154.674 51.911 154.56 51.7216L155.228 51.2528C155.304 51.3523 155.399 51.4659 155.515 51.5938C155.631 51.724 155.79 51.8364 155.991 51.9311C156.195 52.0282 156.461 52.0767 156.79 52.0767C157.231 52.0767 157.594 51.9702 157.88 51.7571C158.167 51.544 158.31 51.2102 158.31 50.7557V49.6477H158.239C158.178 49.7472 158.09 49.8703 157.976 50.017C157.865 50.1615 157.704 50.2905 157.493 50.4041C157.285 50.5154 157.003 50.571 156.648 50.571C156.208 50.571 155.813 50.4669 155.462 50.2585C155.114 50.0502 154.838 49.7472 154.635 49.3494C154.434 48.9517 154.333 48.4687 154.333 47.9006C154.333 47.3419 154.431 46.8554 154.628 46.4411C154.824 46.0244 155.098 45.7024 155.448 45.4751C155.798 45.2455 156.203 45.1307 156.662 45.1307C157.018 45.1307 157.299 45.1899 157.508 45.3082C157.718 45.4242 157.879 45.5568 157.991 45.706C158.104 45.8527 158.192 45.9735 158.253 46.0682H158.339V45.2017H159.148V50.8125C159.148 51.2812 159.042 51.6624 158.829 51.956C158.618 52.2519 158.334 52.4685 157.976 52.6058C157.621 52.7455 157.226 52.8153 156.79 52.8153ZM156.762 49.8182C157.098 49.8182 157.382 49.7412 157.614 49.5874C157.846 49.4335 158.023 49.2121 158.143 48.9233C158.264 48.6345 158.324 48.2888 158.324 47.8864C158.324 47.4934 158.265 47.1465 158.147 46.8459C158.028 46.5452 157.853 46.3097 157.621 46.1392C157.389 45.9687 157.103 45.8835 156.762 45.8835C156.407 45.8835 156.111 45.9735 155.874 46.1534C155.64 46.3333 155.463 46.5748 155.345 46.8778C155.229 47.1809 155.171 47.517 155.171 47.8864C155.171 48.2652 155.23 48.6001 155.349 48.8913C155.469 49.1802 155.647 49.4074 155.881 49.5732C156.118 49.7365 156.411 49.8182 156.762 49.8182ZM169.461 45.6562H168.58C168.528 45.4029 168.437 45.1804 168.307 44.9886C168.179 44.7969 168.023 44.6359 167.838 44.5057C167.656 44.3731 167.453 44.2737 167.231 44.2074C167.008 44.1411 166.776 44.108 166.535 44.108C166.094 44.108 165.695 44.2192 165.338 44.4418C164.983 44.6643 164.7 44.9922 164.489 45.4254C164.281 45.8587 164.177 46.3902 164.177 47.0199C164.177 47.6496 164.281 48.1811 164.489 48.6143C164.7 49.0476 164.983 49.3755 165.338 49.598C165.695 49.8205 166.094 49.9318 166.535 49.9318C166.776 49.9318 167.008 49.8987 167.231 49.8324C167.453 49.7661 167.656 49.6679 167.838 49.5376C168.023 49.4051 168.179 49.2429 168.307 49.0511C168.437 48.857 168.528 48.6345 168.58 48.3835H169.461C169.394 48.7552 169.274 49.0878 169.099 49.3814C168.923 49.675 168.706 49.9247 168.445 50.1307C168.185 50.3343 167.892 50.4893 167.568 50.5959C167.246 50.7024 166.902 50.7557 166.535 50.7557C165.914 50.7557 165.363 50.6042 164.88 50.3011C164.397 49.9981 164.017 49.5672 163.74 49.0085C163.463 48.4498 163.324 47.7869 163.324 47.0199C163.324 46.2528 163.463 45.59 163.74 45.0312C164.017 44.4725 164.397 44.0417 164.88 43.7386C165.363 43.4356 165.914 43.2841 166.535 43.2841C166.902 43.2841 167.246 43.3374 167.568 43.4439C167.892 43.5504 168.185 43.7067 168.445 43.9126C168.706 44.1162 168.923 44.3648 169.099 44.6584C169.274 44.9496 169.394 45.2822 169.461 45.6562ZM172.986 50.7699C172.494 50.7699 172.062 50.6527 171.69 50.4183C171.321 50.1839 171.032 49.8561 170.823 49.4347C170.618 49.0133 170.515 48.5208 170.515 47.9574C170.515 47.3892 170.618 46.8932 170.823 46.4695C171.032 46.0457 171.321 45.7166 171.69 45.4822C172.062 45.2479 172.494 45.1307 172.986 45.1307C173.479 45.1307 173.909 45.2479 174.279 45.4822C174.65 45.7166 174.939 46.0457 175.145 46.4695C175.354 46.8932 175.458 47.3892 175.458 47.9574C175.458 48.5208 175.354 49.0133 175.145 49.4347C174.939 49.8561 174.65 50.1839 174.279 50.4183C173.909 50.6527 173.479 50.7699 172.986 50.7699ZM172.986 50.017C173.36 50.017 173.668 49.9212 173.909 49.7294C174.151 49.5376 174.33 49.2855 174.446 48.973C174.562 48.6605 174.62 48.322 174.62 47.9574C174.62 47.5928 174.562 47.2531 174.446 46.9382C174.33 46.6233 174.151 46.3688 173.909 46.1747C173.668 45.9806 173.36 45.8835 172.986 45.8835C172.612 45.8835 172.304 45.9806 172.063 46.1747C171.821 46.3688 171.643 46.6233 171.527 46.9382C171.411 47.2531 171.353 47.5928 171.353 47.9574C171.353 48.322 171.411 48.6605 171.527 48.973C171.643 49.2855 171.821 49.5376 172.063 49.7294C172.304 49.9212 172.612 50.017 172.986 50.017ZM177.348 50.7131C177.173 50.7131 177.022 50.6503 176.897 50.5249C176.771 50.3994 176.709 50.2491 176.709 50.0739C176.709 49.8987 176.771 49.7483 176.897 49.6229C177.022 49.4974 177.173 49.4347 177.348 49.4347C177.523 49.4347 177.673 49.4974 177.799 49.6229C177.924 49.7483 177.987 49.8987 177.987 50.0739C177.987 50.1899 177.957 50.2964 177.898 50.3935C177.841 50.4905 177.764 50.5687 177.667 50.6278C177.573 50.6847 177.466 50.7131 177.348 50.7131Z" fill="#0FAEEF"/>
<path d="M116.808 16.3647C114.953 15.2945 113.035 14.7549 111.047 14.7549H110.809C109.522 14.7549 108.221 14.9964 106.913 15.4636C105.821 15.8838 104.822 16.4405 103.917 17.1206C103.698 17.3085 103.451 17.5053 103.18 17.7362C102.646 18.2604 102.282 18.6482 102.086 18.8921C101.644 19.4255 101.283 19.9409 100.991 20.4331C99.9436 22.2837 99.4177 24.1852 99.4177 26.1511V26.3919C99.4177 27.7924 99.6923 29.1962 100.252 30.6055C101.249 32.9855 102.849 34.8413 105.047 36.1742C106.913 37.2493 108.835 37.7796 110.809 37.7796H111.047C112.454 37.7796 113.859 37.502 115.264 36.943C117.647 35.9443 119.502 34.3457 120.835 32.1485C121.906 30.2938 122.442 28.3763 122.442 26.3919V26.1511C122.442 24.7439 122.161 23.3421 121.602 21.931C120.607 19.5449 119.005 17.6963 116.808 16.3647ZM117.681 29.7958C117.493 30.1655 117.203 30.6014 116.808 31.1018C116.65 31.3184 116.339 31.6352 115.872 32.0493C114.394 33.2778 112.748 33.8829 110.931 33.8829C109.71 33.8829 108.548 33.6018 107.443 33.0357C107.078 32.8617 106.63 32.567 106.089 32.1485C105.888 32.0015 105.573 31.6912 105.143 31.215C103.917 29.7365 103.309 28.0819 103.309 26.262C103.309 25.5638 103.417 24.8404 103.628 24.0945C103.809 23.5122 103.993 23.0689 104.16 22.7667C104.334 22.4072 104.633 21.9576 105.062 21.4184C105.172 21.254 105.474 20.9487 105.977 20.4859C107.462 19.2618 109.114 18.6482 110.931 18.6482C112.298 18.6482 113.593 19.0019 114.829 19.7107C115.118 19.8972 115.435 20.1268 115.781 20.4027C115.938 20.5101 116.249 20.8185 116.709 21.3239C117.938 22.8004 118.547 24.4505 118.547 26.262C118.547 27.4868 118.262 28.6624 117.681 29.7958Z" fill="#0FAEEF"/>
<path d="M141.344 14.7549C140.723 14.7549 140.085 14.9575 139.432 15.3507C139.182 15.4735 138.845 15.7713 138.42 16.2658C134.89 21.2025 133.062 23.7469 132.947 23.8949L128.457 17.6533C127.899 16.8259 127.443 16.2218 127.092 15.834C126.287 15.1181 125.436 14.7549 124.543 14.7549H124.291C123.529 14.7549 122.814 15.0008 122.132 15.4977L130.999 27.8701V37.7551C130.999 37.7704 131.013 37.7796 131.03 37.7796H131.14C131.926 37.7796 132.699 37.502 133.447 36.943C134.41 36.1033 134.892 35.108 134.892 33.9422V27.8514C134.991 27.7351 137.947 23.6187 143.758 15.4977C143.083 15.0008 142.366 14.7549 141.602 14.7549H141.344Z" fill="#0FAEEF"/>
<path d="M161.648 19.0596C161.426 18.6885 161.069 18.2363 160.572 17.6858C160.154 17.2782 159.831 16.9859 159.592 16.8C159.172 16.4787 158.777 16.2079 158.398 15.9937C156.867 15.1393 155.287 14.7109 153.651 14.7109H153.447C152.008 14.7109 150.593 15.0435 149.201 15.7236C148.886 15.8842 148.539 16.0913 148.151 16.3351C147.743 16.6052 147.305 16.9606 146.832 17.3948C146.296 17.929 145.957 18.3065 145.82 18.5354C145.463 18.9853 145.169 19.4365 144.936 19.8963C144.181 21.3503 143.805 22.8332 143.805 24.3493V37.7626C143.805 37.7626 143.811 37.78 143.826 37.78H143.902C144.438 37.78 144.988 37.6457 145.558 37.3796C146.313 36.9918 146.887 36.4256 147.28 35.6726C147.569 35.15 147.715 34.5105 147.715 33.7632V28.1908H159.383V33.7776C159.383 34.313 159.457 34.7916 159.607 35.2036C159.949 36.1037 160.517 36.7882 161.301 37.2357C161.94 37.6003 162.573 37.78 163.196 37.78H163.277C163.287 37.78 163.293 37.777 163.293 37.777V24.3493C163.293 23.3725 163.127 22.383 162.788 21.3711C162.505 20.5105 162.121 19.7383 161.648 19.0596ZM147.715 24.2937C147.715 23.8793 147.79 23.3827 147.941 22.8008C148.083 22.3591 148.214 22.0372 148.343 21.8206C148.465 21.5662 148.674 21.2374 148.97 20.8451C149.123 20.6142 149.416 20.3049 149.86 19.9232C150.963 19.0596 152.19 18.62 153.54 18.62C154.873 18.62 156.079 19.0333 157.165 19.8557C157.472 20.1047 157.771 20.399 158.059 20.7387C158.28 21.0177 158.471 21.3022 158.642 21.5805C158.815 21.9011 158.973 22.2698 159.126 22.6876C159.29 23.3118 159.383 23.8452 159.383 24.2937H147.715Z" fill="#0FAEEF"/>
<path d="M184.354 35.622C184.256 35.4463 184.037 35.1943 183.68 34.8553C182.909 34.211 182.07 33.8835 181.166 33.8835H173.831C173.276 33.8835 172.829 33.8413 172.492 33.7355C172.236 33.6707 171.983 33.5687 171.722 33.4562C170.783 32.9603 170.11 32.2324 169.712 31.2685C169.521 30.8122 169.424 30.2143 169.424 29.4673V18.5551C169.424 17.8163 169.198 17.099 168.746 16.4125C168.629 16.2225 168.389 15.9633 168.024 15.6242C167.267 15.0352 166.46 14.7412 165.592 14.7412H165.543C165.533 14.7412 165.529 14.7477 165.529 14.7477V29.8654C165.529 31.2027 165.896 32.5271 166.638 33.8413C166.809 34.1189 167.028 34.4276 167.297 34.7754C167.513 35.0643 167.885 35.4446 168.406 35.916C168.805 36.2359 169.171 36.4965 169.504 36.6844C170.799 37.4177 172.116 37.7803 173.442 37.7803H184.964C184.991 37.7803 185 37.7772 185 37.7772V37.7223C185 37.0037 184.783 36.3052 184.354 35.622Z" fill="#0FAEEF"/>
<path d="M94.3009 28.7112C94.7065 28.5151 95.2601 28.0782 95.9527 27.4018C97.3113 25.8701 97.9832 24.1923 97.9832 22.3847V22.0913C97.9832 20.7704 97.5903 19.4733 96.8085 18.1847C96.274 17.3787 95.6001 16.6843 94.7825 16.1079C93.4537 15.2119 92.072 14.7549 90.6504 14.7549H78.5768C78.5577 14.7549 78.541 14.7648 78.541 14.7893V37.7551C78.541 37.7704 78.5577 37.7796 78.5768 37.7796H78.6276C79.5591 37.7796 80.4087 37.4372 81.1836 36.754C82.0224 35.9443 82.4429 35.017 82.4429 33.9671V25.175V18.6482H90.0819C90.5024 18.6482 90.8258 18.6704 91.0625 18.699C91.7194 18.8269 92.2664 19.0619 92.6846 19.4068C93.627 20.1871 94.0895 21.1387 94.0895 22.2551C94.0895 22.6306 94.0179 23.0474 93.8678 23.5122C93.5213 24.369 92.9657 25.0024 92.1925 25.4246C91.732 25.7169 91.0243 25.8629 90.0819 25.8629H88.3223C86.9154 25.8629 85.7639 27.0041 85.7639 28.4179C85.7639 29.0052 85.9709 29.5458 86.2984 29.9769L92.5939 36.6694C93.4053 37.4106 94.2733 37.7796 95.184 37.7796H95.4565C95.6803 37.7796 95.8999 37.7561 96.1178 37.7015C96.9668 37.4856 97.5879 37.1555 97.9832 36.6998C93.7136 32.1588 91.527 29.8337 91.4172 29.7095C91.6856 29.7095 92.2453 29.5649 93.0905 29.2992C93.5127 29.1403 93.9142 28.9414 94.3009 28.7112Z" fill="#0FAEEF"/>
<path d="M33.9882 0.5C15.7105 0.5 0.841064 15.3677 0.841064 33.6413C0.841064 51.919 15.7105 66.7823 33.9882 66.7823C52.2632 66.7823 67.1298 51.919 67.1298 33.6413C67.1298 15.3677 52.2632 0.5 33.9882 0.5ZM33.9356 62.7607C17.9639 62.7607 5.01306 49.8119 5.01306 33.8361C5.01306 25.1858 8.81431 17.4353 14.8312 12.1329L31.6409 12.1289C33.1427 12.1329 34.5717 12.4198 35.8654 12.9884C37.17 13.5648 38.3171 14.3366 39.2721 15.2974C40.2301 16.2528 41.0023 17.3984 41.5774 18.7013C42.1494 20.0005 42.4369 21.4221 42.4369 22.9279C42.4369 24.433 42.1494 25.857 41.5774 27.1521C41.0051 28.4567 40.2301 29.6016 39.2721 30.5594C38.3171 31.5151 37.17 32.289 35.8654 32.8715C34.5731 33.436 33.1464 33.7235 31.6409 33.7235H28.6081C28.5092 33.7273 28.4157 33.7378 28.3455 33.7487C27.8942 33.8098 27.4938 34.0022 27.1647 34.3327C26.8383 34.6635 26.6432 35.0673 26.5872 35.5141C26.5415 35.7365 26.5415 35.9603 26.5831 36.1492C26.6326 36.5244 26.7823 36.8706 26.9853 37.0909L40.663 61.9663C38.5019 62.4773 36.2536 62.7607 33.9356 62.7607ZM44.7892 60.2913L32.2688 37.5121C34.17 37.4538 35.9565 37.0588 37.5718 36.3436C39.3706 35.5595 40.9703 34.4732 42.3226 33.1188C43.675 31.7661 44.7609 30.1665 45.5461 28.3741C46.3367 26.5664 46.7398 24.6008 46.7398 22.5343C46.7398 20.4725 46.3367 18.5076 45.5461 16.7006C44.7555 14.9035 43.6736 13.3195 42.3172 11.9846C40.9634 10.6547 39.3706 9.58139 37.5718 8.79522C35.8828 8.05645 34.023 7.66183 32.1181 7.62568L21.0278 7.61852C24.9368 5.64508 29.3533 4.52329 34.0322 4.52329C50.0053 4.52329 62.9606 17.4718 62.9606 33.4466C62.9606 45.6167 55.4348 56.0228 44.7892 60.2913Z" fill="#0FAEEF"/>
</svg>
