<svg width="236" height="93" viewBox="0 0 236 93" fill="none" xmlns="http://www.w3.org/2000/svg">
<path d="M65.3015 45.0114C67.226 45.5897 69.1284 46.2298 70.9855 47.0039C75.0614 48.7037 78.8458 50.8953 82.3726 53.5598C84.8737 55.4497 87.1561 57.5706 89.2755 59.8607C91.7239 62.5059 93.8355 65.4156 95.6597 68.53C98.3566 73.1364 100.284 78.048 101.447 83.2526C101.896 85.261 102.249 87.2878 102.411 89.349C102.506 90.5619 102.639 91.7697 102.614 92.9886H51.3081C51.2738 91.9368 51.2526 90.8835 51.2396 89.833C51.1549 83.1962 51.2123 76.5588 51.1318 69.9211C51.0369 62.063 51.1031 54.2035 51.0013 46.3455C50.9874 45.2728 50.9842 44.2001 50.9758 43.1279L50.9856 43.1385C52.2924 43.144 53.5988 43.084 54.9037 43.2371C56.1425 43.382 57.3943 43.4305 58.6271 43.6101C60.8793 43.9377 63.1001 44.4324 65.3015 45.0114Z" fill="#0070BC"/>
<path d="M50.9758 43.1279C50.9841 44.2001 50.9874 45.2728 51.0012 46.3455C51.103 54.2035 51.0369 62.063 51.1317 69.9211C51.2123 76.5588 51.1549 83.1962 51.2396 89.833C51.2525 90.8835 51.2738 91.9368 51.308 92.9886H0.00170065C-0.0233238 90.4694 0.276603 87.9788 0.70922 85.5058C1.64678 80.1526 3.41131 75.0799 5.97033 70.2843C7.6997 67.0437 9.75707 64.0279 12.1412 61.2323C15.561 57.222 19.4833 53.7917 23.9434 50.9805C28.3692 48.1914 33.1124 46.1302 38.1713 44.7971C41.3722 43.9539 44.624 43.4329 47.9299 43.2153C48.9466 43.1482 49.9601 43.1464 50.9758 43.1279Z" fill="#5AC6E9"/>
<path d="M235.988 86.215C235.988 88.3248 235.976 90.4349 236 92.5442C236.004 92.9255 235.925 92.9996 235.544 92.9991C222.07 92.9866 208.596 92.9888 195.121 92.9888C195.143 91.6783 195.029 90.3766 194.907 89.0735C194.764 87.5533 194.554 86.0447 194.282 84.5436C193.697 81.3076 192.791 78.1612 191.575 75.107C191.079 73.8599 190.615 72.5943 189.899 71.4466C189.893 71.3347 189.888 71.2227 189.882 71.1111C190.446 70.3295 190.785 69.4252 191.254 68.591C193.813 64.0425 196.916 59.9244 200.718 56.3334C202.437 54.7092 204.232 53.189 206.142 51.7929C209.487 49.3481 213.105 47.4073 216.913 45.8062C218.461 45.1556 220.059 44.6401 221.656 44.125L221.773 44.1305C221.837 44.4281 222.037 44.6562 222.192 44.9024C225.87 50.7387 228.826 56.9234 231.105 63.4302C232.655 67.8552 233.857 72.3745 234.692 76.9919C235.095 79.2209 235.429 81.4575 235.682 83.7088C235.776 84.544 235.767 85.3946 235.988 86.215Z" fill="#009BDE"/>
<path d="M189.882 71.1114C189.888 71.2229 189.893 71.3349 189.899 71.4468C189.542 71.6824 189.506 72.0975 189.35 72.4423C187.29 76.98 185.957 81.7192 185.33 86.6665C185.064 88.7693 184.867 90.8693 184.904 92.9891H143.704C143.715 92.2844 143.727 91.5796 143.738 90.8748C143.893 90.4606 143.809 90.0363 143.789 89.6148C143.781 89.3338 143.69 89.0557 143.76 88.7716C143.89 88.7346 143.926 88.6369 143.923 88.5161C143.893 87.3527 144.05 86.2023 144.136 85.0459C144.306 82.79 144.584 80.5461 144.966 78.3221C145.48 75.335 146.112 72.3701 146.897 69.4357C148.287 64.2366 150.121 59.2014 152.39 54.3286C153.894 51.0971 155.571 47.9508 157.464 44.9244C157.649 44.6296 157.839 44.5389 158.194 44.6408C160.79 45.3839 163.303 46.3474 165.742 47.4955C168.3 48.6987 170.728 50.1304 173.055 51.7394C175.426 53.379 177.626 55.2226 179.701 57.2139C181.138 58.5928 182.455 60.0894 183.707 61.6406C185.552 63.9257 187.186 66.351 188.644 68.9008C189.063 69.6342 189.331 70.4524 189.882 71.1114Z" fill="#005CAB"/>
<path d="M235.988 86.2153C235.767 85.3948 235.776 84.5443 235.682 83.709C235.429 81.4578 235.095 79.2212 234.692 76.9921C233.856 72.3747 232.655 67.8554 231.105 63.4305C228.826 56.9237 225.87 50.739 222.192 44.9026C222.037 44.6565 221.837 44.4283 221.773 44.1308C226.379 42.7846 231.071 42.0433 235.88 42.1196C235.882 44.4288 235.883 46.7375 235.889 49.0467C235.889 49.2244 235.829 49.4201 235.988 49.5705V86.2153Z" fill="#93D9F8"/>
<path d="M184.904 92.9885C184.867 90.8687 185.064 88.7687 185.33 86.6659C185.957 81.7185 187.29 76.9795 189.35 72.4417C189.506 72.0969 189.542 71.6818 189.899 71.4463C190.615 72.594 191.079 73.8596 191.575 75.1067C192.791 78.1609 193.697 81.3071 194.282 84.5432C194.554 86.0444 194.764 87.553 194.907 89.0732C195.029 90.3763 195.143 91.678 195.121 92.9885H184.904Z" fill="#0070BC"/>
<path d="M235.988 49.5702C235.829 49.4198 235.889 49.2241 235.889 49.0464C235.883 46.7372 235.882 44.4286 235.88 42.1198C235.879 28.4032 235.786 14.6876 235.653 0.971466L235.988 0.932617V49.5702Z" fill="#13A2E0"/>
<path d="M189.882 71.1108C189.331 70.4518 189.063 69.6337 188.644 68.9002C187.186 66.3504 185.552 63.9251 183.707 61.64C182.455 60.0889 181.138 58.5923 179.701 57.2133C177.626 55.222 175.426 53.3784 173.055 51.7388C170.728 50.1299 168.3 48.6981 165.742 47.4949C163.303 46.3468 160.79 45.3834 158.194 44.6401C157.838 44.5384 157.649 44.629 157.464 44.9238C155.571 47.9503 153.894 51.0966 152.39 54.328C150.121 59.2008 148.287 64.2361 146.897 69.4352C146.112 72.3695 145.48 75.3344 144.966 78.3215C144.584 80.5455 144.306 82.7894 144.136 85.0453C144.05 86.2018 143.893 87.3522 143.923 88.5156C143.926 88.6364 143.89 88.734 143.76 88.7715C143.748 88.6433 143.726 88.5151 143.724 88.387C143.663 82.8043 143.701 77.221 143.628 71.6379C143.526 63.8363 143.538 56.0333 143.5 48.2311C143.492 46.345 143.481 44.4583 143.472 42.5721L143.489 42.5832C145.465 42.5522 147.431 42.6721 149.395 42.8984C152.07 43.2061 154.715 43.6591 157.306 44.3949C157.635 44.4884 157.797 44.4264 157.979 44.1362C161.174 39.038 164.852 34.3073 168.978 29.9337C171.286 27.4872 173.734 25.1822 176.3 23.0002C179.216 20.5222 182.269 18.2353 185.453 16.1195C186.772 15.2426 188.128 14.418 189.467 13.5698L189.675 13.4971C189.73 13.7507 189.961 13.8256 190.146 13.927C191.392 14.6105 192.587 15.3796 193.781 16.1473C198.504 19.1825 202.925 22.6143 207.017 26.4548C209.508 28.7931 211.886 31.2517 214.095 33.8612C215.665 35.715 217.191 37.6072 218.602 39.5873C219.66 41.0723 220.72 42.5569 221.656 44.1246C220.059 44.6397 218.461 45.1552 216.913 45.8058C213.105 47.407 209.487 49.3478 206.142 51.7925C204.232 53.1887 202.437 54.7089 200.718 56.3331C196.916 59.9241 193.813 64.0422 191.254 68.5906C190.785 69.425 190.446 70.3292 189.882 71.1108Z" fill="#0070BC"/>
<path d="M65.3014 45.0112C63.1001 44.4324 60.8793 43.9377 58.6271 43.61C57.3943 43.4305 56.1425 43.3819 54.9037 43.237C53.5988 43.0838 52.2924 43.144 50.9856 43.1385C50.9777 39.3647 51.0184 35.5904 50.9513 31.8175C50.8343 25.2714 50.9291 18.7243 50.8356 12.1786C50.7898 8.97959 50.7963 5.78147 50.7556 2.58287C50.7496 2.10301 50.8704 1.94059 51.3706 1.9517C55.7112 2.0507 60.0371 2.29319 64.343 2.90403C74.3215 4.31962 83.8071 7.29099 92.8119 11.8056C94.1807 12.4919 95.5569 13.1675 96.8448 14.0033C96.8517 14.225 96.7004 14.3142 96.5325 14.4137C93.4565 16.2379 90.4962 18.238 87.6623 20.4175C85.753 21.8859 83.8945 23.419 82.099 25.0317C80.2985 26.6495 78.5474 28.3168 76.881 30.0679C74.6611 32.4016 72.5579 34.8384 70.5944 37.3975C68.9456 39.5466 67.3741 41.7469 65.9016 44.0187C65.6916 44.343 65.5009 44.6804 65.3014 45.0112Z" fill="#13A2E0"/>
<path d="M189.467 13.5699C188.128 14.4181 186.772 15.2427 185.453 16.1197C182.269 18.2354 179.216 20.5223 176.3 23.0004C173.734 25.1823 171.286 27.4873 168.977 29.9339C164.852 34.3074 161.174 39.0382 157.979 44.1363C157.797 44.4265 157.635 44.4886 157.306 44.3951C154.715 43.6593 152.07 43.2062 149.395 42.8985C147.431 42.6722 145.465 42.5524 143.489 42.5829C143.424 40.9049 143.435 39.2247 143.4 37.5467C143.265 30.8941 143.431 24.2392 143.285 17.5843C143.167 12.2228 143.26 6.85668 143.259 1.49236C146.031 1.44145 148.795 1.57292 151.559 1.79778C155.593 2.12541 159.581 2.73442 163.534 3.58818C169.033 4.77513 174.37 6.47575 179.558 8.64659C182.782 9.99504 185.918 11.524 188.961 13.2422C189.135 13.3408 189.298 13.4602 189.467 13.5699Z" fill="#13A2E0"/>
<path d="M221.656 44.125C220.72 42.5572 219.66 41.0726 218.602 39.5877C217.191 37.6075 215.665 35.7153 214.095 33.8615C211.886 31.252 209.508 28.7934 207.017 26.4551C202.925 22.6146 198.504 19.1829 193.781 16.1477C192.587 15.3799 191.392 14.6108 190.146 13.9273C189.961 13.826 189.73 13.751 189.675 13.4974C199.04 8.03736 209.063 4.35145 219.724 2.41023C223.27 1.76417 226.844 1.3246 230.447 1.13624C232.181 1.04603 233.914 0.909984 235.653 0.971507C235.786 14.6876 235.879 28.4033 235.88 42.1199C231.071 42.043 226.379 42.7844 221.773 44.1306L221.656 44.125Z" fill="#008BCF"/>
<path d="M143.259 1.49262C143.26 6.8569 143.167 12.223 143.285 17.5845C143.43 24.2394 143.265 30.8943 143.4 37.5469C143.435 39.2249 143.424 40.9052 143.489 42.5831L143.472 42.5725C142.033 42.5656 140.601 42.6641 139.167 42.7863C137.221 42.9519 135.295 43.2402 133.386 43.634C132.036 43.9126 130.7 44.2588 129.358 44.5744C129.122 44.5776 129.066 44.3754 128.969 44.2264C127.027 41.2217 124.905 38.347 122.636 35.5839C121.515 34.2179 120.338 32.8958 119.135 31.5977C118.004 30.3779 116.857 29.1738 115.652 28.029C113.168 25.6684 110.597 23.4083 107.88 21.3116C104.796 18.9316 101.573 16.7645 98.2445 14.7488C97.8831 14.5299 97.4796 14.3795 97.1719 14.0754C99.5852 12.5965 102.103 11.3156 104.666 10.1179C111.539 6.90546 118.699 4.57733 126.151 3.15021C129.886 2.43479 133.648 1.92621 137.447 1.68884C139.384 1.56803 141.318 1.46207 143.259 1.49262Z" fill="#17BCF3"/>
<path d="M129.358 44.5745C130.7 44.2589 132.036 43.9128 133.386 43.6342C135.295 43.2404 137.221 42.9521 139.167 42.7864C140.601 42.6643 142.033 42.5657 143.472 42.5726C143.481 44.4588 143.492 46.3455 143.5 48.2317C143.538 56.0338 143.526 63.8368 143.628 71.6384C143.701 77.2215 143.663 82.8047 143.724 88.3874C143.726 88.5156 143.747 88.6438 143.759 88.772C143.69 89.0556 143.781 89.3338 143.789 89.6147C143.757 89.6276 143.729 89.6466 143.704 89.6716C143.462 89.0172 143.565 88.3217 143.521 87.6535C143.303 84.2647 142.838 80.9088 142.241 77.5728C141.641 74.2146 140.815 70.9068 139.827 67.6388C138.129 62.0182 135.905 56.6145 133.174 51.4187C132.074 49.3247 130.895 47.2757 129.625 45.2798C129.488 45.0646 129.304 44.8633 129.358 44.5745Z" fill="#93D9F8"/>
<path d="M143.704 89.6712C143.728 89.6462 143.757 89.6272 143.789 89.6143C143.808 90.0358 143.893 90.4601 143.738 90.8743C143.727 90.4731 143.715 90.0719 143.704 89.6712Z" fill="#0070BC"/>
<path d="M129.357 44.6847C129.357 44.6486 129.35 44.6143 129.357 44.575C129.121 44.5782 129.065 44.376 128.969 44.2271C127.027 41.2224 124.905 38.3477 122.636 35.5846C121.515 34.2185 120.338 32.8964 119.135 31.5984C118.004 30.3785 116.857 29.1745 115.652 28.0296C113.167 25.6691 110.597 23.409 107.88 21.3122C104.796 18.9323 101.573 16.7651 98.2444 14.7494C97.8831 14.5305 97.4796 14.3801 97.1718 14.0761C97.0626 14.052 96.9539 14.028 96.8447 14.0039C96.8516 14.226 96.7003 14.3153 96.5323 14.4148C93.4563 16.239 90.4961 18.239 87.6622 20.4182C85.7528 21.887 83.8944 23.4201 82.0989 25.0328C80.2983 26.6506 78.5472 28.3179 76.8808 30.069C74.661 32.4026 72.5577 34.8395 70.5943 37.3986C68.9455 39.5476 67.3739 41.748 65.9014 44.0198C65.6913 44.3441 65.5007 44.6815 65.3013 45.0123C67.2259 45.5908 69.1283 46.2308 70.9853 47.005C75.0613 48.7047 78.8457 50.8963 82.3724 53.5609C84.8736 55.4507 87.1559 57.5715 89.2753 59.8618C91.7238 62.5069 93.8353 65.4167 95.6595 68.531C96.4203 69.8304 97.113 71.1567 97.7512 72.5043C103.681 59.1862 115.214 48.9161 129.357 44.6847Z" fill="#009BDE"/>
<path d="M102.411 89.3499C102.506 90.5628 102.639 91.7706 102.614 92.989H143.703C143.715 92.2847 143.727 91.58 143.738 90.8751C143.727 90.4739 143.715 90.0728 143.704 89.672C143.461 89.0176 143.565 88.3221 143.521 87.6539C143.303 84.2651 142.838 80.9092 142.241 77.5732C141.64 74.215 140.814 70.9072 139.827 67.6392C138.129 62.0186 135.905 56.6149 133.174 51.4191C132.074 49.3251 130.895 47.276 129.625 45.2802C129.506 45.0941 129.362 44.915 129.357 44.6846C115.214 48.9161 103.681 59.186 97.7512 72.5042C99.3764 75.9341 100.612 79.5167 101.447 83.2535C101.896 85.262 102.249 87.2888 102.411 89.3499Z" fill="#13A2E0"/>
</svg>
