<svg width="236" height="93" viewBox="0 0 236 93" fill="none" xmlns="http://www.w3.org/2000/svg">
<path d="M170.699 45.0123C168.774 45.5907 166.872 46.2308 165.015 47.0049C160.939 48.7047 157.154 50.8962 153.628 53.5608C151.127 55.4507 148.844 57.5715 146.725 59.8617C144.276 62.5068 142.165 65.4166 140.341 68.531C137.644 73.1373 135.717 78.049 134.553 83.2536C134.104 85.262 133.751 87.2888 133.589 89.35C133.494 90.5629 133.361 91.7707 133.386 92.9896H184.692C184.727 91.9377 184.748 90.8845 184.761 89.834C184.845 83.1971 184.788 76.5598 184.869 69.9221C184.963 62.064 184.897 54.2045 184.999 46.3464C185.013 45.2737 185.016 44.201 185.024 43.1289L185.015 43.1395C183.708 43.145 182.402 43.085 181.097 43.238C179.858 43.3829 178.606 43.4315 177.373 43.6111C175.121 43.9387 172.9 44.4333 170.699 45.0123Z" fill="#0070BC"/>
<path d="M185.024 43.1289C185.016 44.201 185.013 45.2737 184.999 46.3464C184.897 54.2045 184.963 62.064 184.868 69.9221C184.788 76.5598 184.845 83.1971 184.761 89.834C184.748 90.8845 184.726 91.9377 184.692 92.9896H235.998C236.023 90.4703 235.724 87.9797 235.291 85.5068C234.353 80.1536 232.589 75.0809 230.03 70.2853C228.3 67.0447 226.243 64.0289 223.859 61.2333C220.439 57.223 216.517 53.7927 212.057 50.9814C207.631 48.1924 202.888 46.1312 197.829 44.798C194.628 43.9549 191.376 43.4338 188.07 43.2163C187.053 43.1492 186.04 43.1473 185.024 43.1289Z" fill="#5AC6E9"/>
<path d="M0.0117194 86.216C0.0117194 88.3257 0.0242316 90.4359 0.000153253 92.5452C-0.00402765 92.9265 0.0755774 93.0005 0.455964 93.0001C13.9301 92.9875 27.4046 92.9898 40.8792 92.9898C40.8574 91.6793 40.9708 90.3776 41.0934 89.0745C41.236 87.5543 41.4461 86.0457 41.7177 84.5446C42.3036 81.3085 43.2092 78.1622 44.4253 75.108C44.9214 73.8609 45.3851 72.5953 46.1014 71.4476C46.107 71.3356 46.1125 71.2237 46.1181 71.1121C45.554 70.3305 45.2152 69.4262 44.746 68.592C42.1874 64.0435 39.0841 59.9254 35.2826 56.3344C33.5635 54.7101 31.7684 53.19 29.8582 51.7939C26.5134 49.3491 22.8951 47.4083 19.087 45.8072C17.5396 45.1566 15.9412 44.6411 14.3442 44.126L14.2272 44.1315C14.1628 44.4291 13.9634 44.6572 13.8084 44.9034C10.1304 50.7397 7.17383 56.9244 4.8952 63.4312C3.34543 67.8561 2.14365 72.3754 1.30838 76.9929C0.904847 79.2219 0.57074 81.4584 0.318055 83.7098C0.224122 84.545 0.233384 85.3956 0.0117194 86.216Z" fill="#009BDE"/>
<path d="M46.118 71.1124C46.1124 71.2239 46.1069 71.3359 46.1013 71.4478C46.4581 71.6834 46.4942 72.0985 46.6501 72.4432C48.7099 76.981 50.0431 81.7202 50.6696 86.6675C50.9357 88.7703 51.1329 90.8702 51.0959 92.9901H92.2965C92.2849 92.2853 92.2733 91.5806 92.2622 90.8758C92.1072 90.4616 92.1915 90.0373 92.2109 89.6157C92.2192 89.3348 92.3104 89.0567 92.2405 88.7726C92.1105 88.7355 92.0744 88.6379 92.0771 88.5171C92.1072 87.3537 91.9503 86.2033 91.8638 85.0469C91.6945 82.791 91.4159 80.5471 91.0336 78.3231C90.52 75.3359 89.8883 72.371 89.1035 69.4367C87.7129 64.2376 85.879 59.2024 83.6105 54.3295C82.1061 51.0981 80.4291 47.9518 78.5359 44.9254C78.3513 44.6306 78.1616 44.5399 77.8057 44.6417C75.2101 45.3849 72.6969 46.3483 70.2577 47.4965C67.7005 48.6997 65.2724 50.1314 62.9452 51.7404C60.5745 53.38 58.3736 55.2236 56.2991 57.2149C54.8622 58.5938 53.5452 60.0904 52.293 61.6415C50.448 63.9267 48.8145 66.352 47.3563 68.9018C46.937 69.6352 46.6686 70.4534 46.118 71.1124Z" fill="#005CAB"/>
<path d="M0.0117188 86.2163C0.233368 85.3958 0.224121 84.5453 0.318054 83.71C0.570724 81.4587 0.904831 79.2222 1.30835 76.9931C2.14363 72.3757 3.34541 67.8564 4.89519 63.4315C7.1738 56.9247 10.1304 50.7399 13.8083 44.9036C13.9634 44.6575 14.1628 44.4293 14.2271 44.1318C9.62132 42.7856 4.92897 42.0442 0.119995 42.1206C0.117676 44.4298 0.11676 46.7385 0.111206 49.0477C0.110748 49.2253 0.171356 49.4211 0.0117188 49.5715V86.2163Z" fill="#93D9F8"/>
<path d="M51.0959 92.9895C51.1329 90.8696 50.9358 88.7697 50.6697 86.6669C50.0432 81.7195 48.7099 76.9805 46.6502 72.4426C46.4943 72.0979 46.4582 71.6828 46.1014 71.4473C45.385 72.595 44.9213 73.8605 44.4253 75.1077C43.2091 78.1619 42.3035 81.3081 41.7177 84.5442C41.4461 86.0454 41.2359 87.554 41.0934 89.0742C40.9708 90.3773 40.8574 91.679 40.8792 92.9895H51.0959Z" fill="#0070BC"/>
<path d="M0.0117188 49.5712C0.171364 49.4208 0.110756 49.2251 0.111206 49.0474C0.11676 46.7382 0.117691 44.4295 0.120003 42.1208C0.120926 28.4042 0.214409 14.6886 0.347221 0.972443L0.0117188 0.933594V49.5712Z" fill="#13A2E0"/>
<path d="M46.118 71.1118C46.6687 70.4528 46.9371 69.6346 47.3564 68.9012C48.8145 66.3514 50.4481 63.9261 52.2931 61.641C53.5453 60.0898 54.8623 58.5933 56.2992 57.2143C58.3737 55.223 60.5746 53.3794 62.9453 51.7398C65.2725 50.1309 67.7006 48.699 70.2578 47.4959C72.697 46.3478 75.2102 45.3843 77.8058 44.6411C78.1617 44.5394 78.3514 44.63 78.536 44.9248C80.4292 47.9512 82.1062 51.0975 83.6106 54.329C85.8791 59.2018 87.713 64.2371 89.1036 69.4362C89.8884 72.3705 90.5201 75.3354 91.0337 78.3224C91.416 80.5464 91.6945 82.7904 91.8639 85.0463C91.9504 86.2028 92.1073 87.3531 92.0772 88.5165C92.0745 88.6373 92.1106 88.735 92.2406 88.7725C92.2526 88.6443 92.2744 88.5161 92.2758 88.3879C92.3373 82.8052 92.2994 77.222 92.372 71.6389C92.4738 63.8373 92.4623 56.0342 92.4997 48.2321C92.5085 46.3459 92.5187 44.4593 92.528 42.5731L92.5113 42.5842C90.5353 42.5532 88.5691 42.673 86.6047 42.8994C83.93 43.207 81.2853 43.6601 78.6938 44.3959C78.3653 44.4894 78.2029 44.4274 78.021 44.1372C74.8257 39.039 71.1486 34.3082 67.0226 29.9347C64.7144 27.4882 62.2664 25.1832 59.7 23.0012C56.7846 20.5232 53.7314 18.2363 50.5476 16.1205C49.2278 15.2436 47.8724 14.4189 46.5336 13.5707L46.3253 13.498C46.2703 13.7516 46.0394 13.8266 45.8543 13.928C44.6081 14.6115 43.4132 15.3806 42.2193 16.1483C37.496 19.1835 33.0753 22.6153 28.9831 26.4557C26.4921 28.7941 24.1144 31.2527 21.9048 33.8622C20.3351 35.7159 18.8089 37.6082 17.3979 39.5883C16.3401 41.0733 15.2799 42.5579 14.3442 44.1256C15.9412 44.6407 17.5396 45.1562 19.087 45.8068C22.8951 47.408 26.5134 49.3488 29.8582 51.7935C31.7684 53.1897 33.5635 54.7098 35.2826 56.334C39.0842 59.925 42.1874 64.0432 44.746 68.5916C45.2152 69.426 45.554 70.3301 46.118 71.1118Z" fill="#0070BC"/>
<path d="M170.699 45.0122C172.9 44.4333 175.121 43.9386 177.373 43.611C178.606 43.4314 179.858 43.3829 181.097 43.238C182.402 43.0848 183.708 43.145 185.015 43.1394C185.023 39.3656 184.982 35.5914 185.049 31.8185C185.166 25.2724 185.071 18.7253 185.165 12.1796C185.21 8.98057 185.204 5.78245 185.245 2.58384C185.251 2.10398 185.13 1.94157 184.63 1.95268C180.289 2.05168 175.963 2.29417 171.657 2.90501C161.679 4.3206 152.193 7.29197 143.188 11.8066C141.82 12.4929 140.443 13.1685 139.156 14.0043C139.149 14.2259 139.3 14.3152 139.468 14.4147C142.544 16.2389 145.504 18.2389 148.338 20.4185C150.247 21.8869 152.106 23.42 153.901 25.0327C155.702 26.6505 157.453 28.3178 159.119 30.0688C161.339 32.4026 163.442 34.8394 165.406 37.3985C167.055 39.5475 168.626 41.7479 170.099 44.0196C170.309 44.344 170.499 44.6814 170.699 45.0122Z" fill="#13A2E0"/>
<path d="M46.5337 13.5708C47.8725 14.4191 49.2279 15.2437 50.5476 16.1207C53.7314 18.2364 56.7847 20.5233 59.7 23.0014C62.2665 25.1833 64.7145 27.4883 67.0227 29.9349C71.1487 34.3083 74.8257 39.0392 78.0211 44.1373C78.203 44.4275 78.3654 44.4895 78.6939 44.396C81.2854 43.6603 83.93 43.2072 86.6048 42.8995C88.5692 42.6731 90.5354 42.5533 92.5114 42.5838C92.5757 40.9059 92.5655 39.2256 92.5998 37.5477C92.7349 30.8951 92.5697 24.2402 92.7155 17.5853C92.833 12.2237 92.7404 6.85765 92.7409 1.49333C89.969 1.44243 87.205 1.5739 84.4414 1.79875C80.4075 2.12639 76.4195 2.7354 72.4662 3.58916C66.9667 4.77611 61.6298 6.47673 56.4418 8.64757C53.2182 9.99602 50.0826 11.525 47.0395 13.2432C46.865 13.3418 46.7021 13.4612 46.5337 13.5708Z" fill="#13A2E0"/>
<path d="M14.3443 44.126C15.2801 42.5582 16.3402 41.0736 17.3981 39.5886C18.809 37.6085 20.3352 35.7163 21.9049 33.8625C24.1145 31.253 26.4922 28.7944 28.9832 26.4561C33.0754 22.6156 37.4961 19.1838 42.2195 16.1486C43.4134 15.3809 44.6082 14.6118 45.8544 13.9283C46.0395 13.827 46.2704 13.752 46.3255 13.4984C36.9602 8.03834 26.9373 4.35243 16.2759 2.4112C12.7303 1.76515 9.15637 1.32557 5.5538 1.13722C3.81894 1.04701 2.08636 0.91096 0.347336 0.972484C0.214523 14.6886 0.121063 28.4042 0.120117 42.1209C4.92911 42.044 9.62146 42.7854 14.2273 44.1315L14.3443 44.126Z" fill="#008BCF"/>
<path d="M92.7408 1.49359C92.7403 6.85788 92.8329 12.224 92.7153 17.5855C92.5695 24.2404 92.7347 30.8953 92.5996 37.5479C92.5654 39.2259 92.5756 40.9062 92.5112 42.5841L92.5279 42.5735C93.9671 42.5665 95.3993 42.6651 96.8334 42.7873C98.7788 42.9529 100.705 43.2412 102.614 43.635C103.964 43.9136 105.3 44.2597 106.642 44.5753C106.878 44.5786 106.934 44.3763 107.031 44.2274C108.973 41.2227 111.095 38.348 113.364 35.5849C114.485 34.2188 115.662 32.8968 116.865 31.5987C117.996 30.3789 119.143 29.1748 120.348 28.0299C122.832 25.6694 125.403 23.4093 128.12 21.3125C131.204 18.9326 134.427 16.7655 137.755 14.7497C138.117 14.5309 138.52 14.3804 138.828 14.0764C136.415 12.5974 133.897 11.3165 131.334 10.1189C124.461 6.90644 117.301 4.57831 109.849 3.15119C106.114 2.43576 102.352 1.92719 98.553 1.68982C96.6163 1.569 94.6815 1.46304 92.7408 1.49359Z" fill="#17BCF3"/>
<path d="M106.642 44.5755C105.3 44.2599 103.964 43.9137 102.614 43.6352C100.705 43.2414 98.7788 42.953 96.8334 42.7874C95.3993 42.6653 93.9671 42.5667 92.5279 42.5736C92.5186 44.4598 92.5085 46.3465 92.4997 48.2326C92.4622 56.0348 92.4738 63.8378 92.372 71.6394C92.2993 77.2225 92.3372 82.8057 92.2757 88.3884C92.2743 88.5166 92.2526 88.6448 92.2406 88.773C92.3104 89.0566 92.2193 89.3348 92.2109 89.6156C92.2428 89.6286 92.2715 89.6476 92.2956 89.6726C92.5385 89.0182 92.4354 88.3227 92.4789 87.6545C92.6973 84.2657 93.1619 80.9098 93.7588 77.5738C94.3595 74.2155 95.1855 70.9078 96.173 67.6398C97.8714 62.0191 100.095 56.6155 102.826 51.4197C103.926 49.3257 105.105 47.2766 106.375 45.2807C106.512 45.0655 106.696 44.8642 106.642 44.5755Z" fill="#93D9F8"/>
<path d="M92.2956 89.6722C92.2716 89.6472 92.2429 89.6282 92.211 89.6152C92.1915 90.0368 92.1073 90.4611 92.2623 90.8753C92.2734 90.4741 92.2845 90.0729 92.2956 89.6722Z" fill="#0070BC"/>
<path d="M106.643 44.6847C106.643 44.6486 106.65 44.6143 106.643 44.575C106.879 44.5782 106.935 44.376 107.031 44.2271C108.973 41.2224 111.095 38.3477 113.364 35.5846C114.485 34.2185 115.662 32.8964 116.865 31.5984C117.996 30.3785 119.143 29.1745 120.348 28.0296C122.833 25.6691 125.403 23.409 128.12 21.3122C131.204 18.9323 134.427 16.7651 137.756 14.7494C138.117 14.5305 138.521 14.3801 138.828 14.0761C138.937 14.052 139.046 14.028 139.155 14.0039C139.148 14.226 139.3 14.3153 139.468 14.4148C142.544 16.239 145.504 18.239 148.338 20.4182C150.247 21.887 152.106 23.4201 153.901 25.0328C155.702 26.6506 157.453 28.3179 159.119 30.069C161.339 32.4026 163.442 34.8395 165.406 37.3986C167.055 39.5476 168.626 41.748 170.099 44.0198C170.309 44.3441 170.499 44.6815 170.699 45.0123C168.774 45.5908 166.872 46.2308 165.015 47.005C160.939 48.7047 157.154 50.8963 153.628 53.5609C151.126 55.4507 148.844 57.5715 146.725 59.8618C144.276 62.5069 142.165 65.4167 140.341 68.531C139.58 69.8304 138.887 71.1567 138.249 72.5043C132.319 59.1862 120.786 48.9161 106.643 44.6847Z" fill="#009BDE"/>
<path d="M133.589 89.3499C133.494 90.5628 133.361 91.7706 133.386 92.989H92.2967C92.2851 92.2847 92.2735 91.58 92.262 90.8751C92.2735 90.4739 92.2847 90.0728 92.2957 89.672C92.5387 89.0176 92.4355 88.3221 92.479 87.6539C92.6974 84.2651 93.162 80.9092 93.759 77.5732C94.3596 74.215 95.1857 70.9072 96.1732 67.6392C97.8715 62.0186 100.096 56.6149 102.826 51.4191C103.926 49.3251 105.105 47.276 106.376 45.2802C106.494 45.0941 106.638 44.915 106.643 44.6846C120.786 48.9161 132.319 59.186 138.249 72.5042C136.624 75.9341 135.388 79.5167 134.553 83.2535C134.104 85.262 133.751 87.2888 133.589 89.3499Z" fill="#13A2E0"/>
</svg>
