<svg width="107" height="107" viewBox="0 0 107 107" fill="none" xmlns="http://www.w3.org/2000/svg">
<path d="M72.8683 91.9228C72.0207 91.9228 71.3015 91.2571 71.0353 90.2265L62.5016 57.1925C59.9629 57.3932 57.1763 57.5083 55.6152 57.5727C55.0252 57.5966 54.6011 57.6138 54.4199 57.6269C54.3088 57.6348 54.1999 57.6405 54.0922 57.6451L54.0341 57.6479L54.009 57.6485L54.0477 59.5226C54.0489 59.5956 54.0415 59.6674 54.0249 59.7369L54.4393 89.2342C54.4513 90.1216 54.1702 90.9435 53.6869 91.4332C53.3718 91.7535 52.9882 91.9228 52.5783 91.9228C51.5957 91.9228 50.8348 90.9663 50.7293 89.5961L48.3047 58.2014C47.8658 58.2003 47.407 58.1923 46.9282 58.1826C46.605 58.1758 46.2778 58.1695 45.9564 58.1661C45.8777 58.1917 45.7951 58.2066 45.709 58.2077C43.1293 58.2447 41.0638 58.2042 39.2871 58.0806L30.1442 90.324C29.8688 91.2947 29.1718 91.9228 28.3675 91.9228C27.8711 91.9228 27.4077 91.6868 27.0606 91.2582C26.5487 90.6261 26.3447 89.6252 26.5402 88.7081L33.283 57.0506C33.2317 57.0336 33.181 57.017 33.1308 56.9999L33.0573 56.9754L32.2131 56.6517C32.0872 56.5981 31.9897 56.5559 31.8934 56.5119C31.7965 56.4675 31.7019 56.4236 31.6095 56.3781L31.4522 56.2988C31.3582 56.2503 31.2796 56.2093 31.202 56.1671L31.0367 56.0765C30.9387 56.0213 30.8418 55.9636 30.746 55.9049L30.6719 55.8611C30.5409 55.7796 30.4183 55.6941 30.298 55.6023L30.2918 55.5977C30.2764 55.5869 30.261 55.5755 30.2456 55.563C30.1841 55.5151 30.1231 55.4649 30.0621 55.4131C29.9789 55.3396 29.9253 55.2928 29.8728 55.2432L29.817 55.1885L29.6962 55.0699L29.6471 55.0187L29.1467 54.4321L29.1097 54.3831L28.481 53.4205C28.4787 53.417 28.4542 53.3737 28.4519 53.3703L28.0683 52.6248L28.0427 52.5695L27.9218 52.3027C27.9195 52.2981 27.8968 52.2474 27.895 52.2435L27.7394 51.8695L27.7183 51.8166L27.3103 50.6743L27.2886 50.6054L27.2709 50.5495L27.1159 50.0285L27.9167 49.7167L27.0931 49.9476L27.019 49.6757C26.9546 49.4312 26.9021 49.2197 26.852 49.0066C26.8509 49.0026 26.8366 48.9399 26.8355 48.9353L26.1629 44.359L26.0768 42.4365L26.9312 42.3607L26.0763 42.3766L26.0728 42.0917C26.0677 41.1911 26.0979 40.315 26.1623 39.4692C26.1623 39.4623 26.164 39.4555 26.1646 39.4487L26.1879 39.1665C26.1891 39.1523 26.1931 39.1135 26.1948 39.0993L26.2843 38.2455C26.2849 38.2392 26.2917 38.1856 26.2928 38.1793L26.3669 37.6339C26.3675 37.6287 26.376 37.5723 26.3766 37.5672L26.4633 37.0366L26.4678 37.0149L26.4696 37.0012L26.4946 36.8593C27.2059 33.0131 29.7406 29.8121 33.4501 28.0725C35.2853 27.2113 37.8559 26.5484 39.8907 26.0674L40.7109 25.8764C40.9252 25.8269 41.1555 25.767 41.3972 25.6986C41.9552 25.5407 42.5742 25.3361 43.2365 25.091L43.5938 25.8707L43.3459 25.0505C45.7056 24.1643 48.8695 22.6498 50.7219 21.0391C50.7801 20.9849 50.8565 20.9097 50.926 20.8356C51.0702 20.6829 51.2224 20.5364 51.3831 20.395C51.456 20.3221 51.541 20.2525 51.6589 20.1641C51.8636 19.9971 52.1161 19.8159 52.3829 19.6432L52.4034 19.6296C56.9745 16.7055 65.6729 16.5996 69.1976 16.6907C70.9252 16.7352 74.2853 16.8709 77.3876 17.2835L77.4019 17.2852C77.9439 17.3576 78.47 17.4368 78.9704 17.5246C80.8986 17.8272 82.3943 18.1949 83.3792 18.9986C83.5336 19.116 83.6807 19.2584 83.7993 19.409C83.8049 19.4152 83.8107 19.4221 83.8152 19.4278C84.2575 19.9533 84.4416 20.5819 84.3333 21.2294C84.1657 22.2343 83.3028 23.2164 81.7684 24.15C81.708 24.2041 81.6459 24.26 81.5843 24.317L81.4298 24.4618C81.2566 24.6276 81.0964 24.7889 80.9374 24.9616C80.7692 25.1463 80.6142 25.3287 80.4638 25.5236C80.4033 25.6034 80.3543 25.669 80.3059 25.7363C80.2323 25.8394 80.1571 25.95 80.0836 26.064L79.92 26.333L79.8915 26.3831L79.8311 26.4914C79.8282 26.496 79.8014 26.5456 79.7986 26.5501C79.7399 26.6596 79.6755 26.7884 79.6139 26.9218L79.3341 27.6154L78.4996 27.4108L79.3101 27.6833L79.2423 27.8924L78.4021 27.722L79.2217 27.9631L79.0656 28.5827L78.2101 28.4949L79.0485 28.6636L79.0035 28.8967C79.0012 28.9144 78.9978 28.932 78.9938 28.948C78.7299 30.4721 78.5333 32.4374 78.3252 34.5178C78.2135 35.6361 78.0978 36.7937 77.9638 37.9554C77.3745 43.0846 76.3981 48.6657 73.6252 51.1708C72.8438 51.8764 71.8685 52.4748 70.7212 52.9525C70.3695 53.9687 69.7488 55.164 68.6682 55.9489C68.6727 56.0081 68.6721 56.0674 68.6659 56.1256L74.7498 88.7628C74.9207 89.6828 74.7059 90.6409 74.1884 91.2639C73.8355 91.6885 73.3664 91.9228 72.8683 91.9228ZM63.1502 55.4256C63.5367 55.4256 63.8792 55.6867 63.9772 56.0668L72.6904 89.7984C72.7435 90.002 72.8198 90.1205 72.8705 90.1786C72.9982 90.0339 73.1669 89.6058 73.0683 89.0763L66.9383 56.1911C66.9325 56.1586 66.9286 56.1261 66.9263 56.0936C66.847 55.9905 66.7918 55.8685 66.7667 55.7346C66.6903 55.3305 66.9126 54.9291 67.2951 54.7798L67.4045 54.7314C68.4686 54.1323 68.9924 52.8038 69.2108 52.0656C69.2866 51.8091 69.4775 51.6033 69.7266 51.5082C70.8431 51.0836 71.7688 50.5432 72.4784 49.902C74.8296 47.7783 75.7124 42.5722 76.2653 37.7598C76.3976 36.6068 76.5127 35.4577 76.6238 34.348C76.8347 32.2408 77.0331 30.2504 77.3152 28.6289C77.3158 28.6209 77.3169 28.6135 77.3186 28.6061C77.3358 28.5115 77.3534 28.4185 77.3717 28.3262L77.6891 27.1389C77.6908 27.1344 77.7062 27.0882 77.708 27.0842L78.0625 26.2025C78.1383 26.0383 78.2186 25.8782 78.3018 25.7237L78.3349 25.6633L78.413 25.5241L78.4421 25.4729L78.6438 25.1418C78.7327 25.0032 78.8245 24.8681 78.9174 24.7382C78.9772 24.6561 79.0343 24.5786 79.0924 24.5028C79.289 24.2463 79.4749 24.028 79.6618 23.8228C79.863 23.604 80.0494 23.4159 80.2347 23.2392L80.4256 23.0602C80.5156 22.977 80.6046 22.8961 80.6929 22.8185C80.7322 22.7837 80.7744 22.7524 80.8194 22.7256C82.3977 21.7789 82.6171 21.1257 82.6467 20.9478C82.6639 20.8447 82.6599 20.7136 82.5009 20.5209C82.4877 20.5061 82.4746 20.4913 82.4632 20.4754C82.4416 20.4474 82.3988 20.4013 82.319 20.3397C81.5678 19.7281 80.0648 19.4272 78.6905 19.2112C78.1941 19.1246 77.688 19.0481 77.1664 18.9786L77.1574 18.9775C74.1348 18.5763 70.846 18.4434 69.1543 18.4001C66.5273 18.3334 57.6152 18.326 53.3256 21.071L53.3124 21.0784C53.0953 21.2186 52.8924 21.3651 52.7077 21.5144C52.6473 21.56 52.6137 21.5857 52.5903 21.6056C52.571 21.6256 52.5516 21.6449 52.531 21.6626C52.4039 21.7732 52.2842 21.8878 52.1719 22.0063C52.0796 22.1049 51.9765 22.2064 51.867 22.309C49.8202 24.089 46.4454 25.7129 43.9626 26.6453C43.9603 26.6459 43.8896 26.6727 43.8868 26.6738L43.5334 25.893L43.8298 26.6943C43.1259 26.9554 42.4642 27.1737 41.8628 27.3441C41.5932 27.4205 41.3362 27.4872 41.0957 27.5425L40.284 27.7317C38.4823 28.1574 35.8889 28.8169 34.1756 29.6206C32.66 30.3313 29.0413 32.4893 28.1772 37.1647L28.1612 37.2531L28.1601 37.2525C28.1584 37.268 28.1561 37.2833 28.1538 37.2982C28.1509 37.3158 28.1475 37.3329 28.1441 37.3494L28.0655 37.835L28.0569 37.8932L27.9885 38.3999C27.9879 38.4056 27.9811 38.4592 27.98 38.4643L27.8688 39.5935L27.8671 39.6094C27.8061 40.4056 27.7776 41.2315 27.7828 42.0643L27.7862 42.3453L26.9318 42.4194L27.7867 42.4023L28.4274 48.2154C28.4285 48.22 28.4496 48.3192 28.4508 48.3237L28.5186 48.6252C28.563 48.8139 28.6121 49.0094 28.6628 49.2032L28.7397 49.4865L27.9383 49.7937L28.7603 49.5588L28.9039 50.0428L28.1191 50.3962L28.9335 50.1357L29.08 50.5751L29.1165 50.6789L29.4693 51.5748C29.4716 51.5794 29.5103 51.6672 29.5126 51.6718L30.4742 53.3532L29.8278 53.9158L30.5089 53.3988L30.6138 53.5316L30.6657 53.5949L30.729 53.6684L30.7922 53.7408L30.8509 53.8029L30.8982 53.8525L30.986 53.9408L31.0293 53.983C31.0829 54.0343 31.1177 54.0646 31.1519 54.0942C31.2163 54.15 31.2585 54.1848 31.3012 54.2178L31.3046 54.2207C31.3172 54.2304 31.3297 54.2401 31.3394 54.2486C31.4112 54.3011 31.4905 54.3569 31.5714 54.4071L31.6409 54.4481C31.7173 54.4948 31.7971 54.5422 31.8786 54.5878L32.0154 54.663C32.082 54.6995 32.1459 54.7331 32.2115 54.7662L32.3591 54.8414C32.4423 54.8819 32.5238 54.9195 32.6053 54.9571C32.6868 54.9947 32.7718 55.0312 32.8566 55.0677L33.6153 55.3589L33.4044 56.1899L33.6786 55.38C33.8598 55.4415 34.0445 55.4991 34.2314 55.5538L34.0907 56.4037L34.3232 55.5812L34.5073 55.6319C34.945 55.751 35.2135 56.1917 35.1189 56.6357L28.2119 89.0643C28.1082 89.5522 28.2473 89.9797 28.3664 90.1541C28.4074 90.0954 28.4587 89.9997 28.4986 89.8578L37.8326 56.9407C37.9442 56.5462 38.3136 56.2914 38.7286 56.3222C40.5382 56.4777 42.6607 56.5354 45.3904 56.5017C45.4776 56.4703 45.5551 56.4424 45.6679 56.4538C46.0938 56.4555 46.5309 56.4641 46.9629 56.4726C47.7273 56.4886 48.4512 56.5034 49.0582 56.4772C49.5232 56.4487 49.912 56.8055 49.9473 57.2655L52.4336 89.4651C52.4541 89.73 52.5162 89.9307 52.5777 90.0629C52.6553 89.8971 52.7345 89.6246 52.7293 89.2581L52.3121 59.5671C52.311 59.4981 52.319 59.4297 52.3338 59.3636L52.2814 56.8073C52.2763 56.553 52.384 56.3096 52.5766 56.1432C52.7516 55.9916 52.9756 55.9192 53.2087 55.938C53.2926 55.9409 53.3552 55.9431 53.4191 55.9443C53.6094 55.9471 53.7838 55.946 53.9673 55.9386C54.111 55.9329 54.2033 55.9278 54.2985 55.9209C54.4901 55.9078 54.9306 55.8896 55.5451 55.8639C57.2413 55.7944 60.399 55.6639 63.075 55.4284C63.1 55.4268 63.1252 55.4256 63.1502 55.4256Z" fill="black"/>
<path d="M41.8319 53.8174C40.4839 53.8174 39.1382 53.7051 37.809 53.3843C31.5131 51.8636 30.7915 45.8286 30.8662 40.7411C30.9038 38.1717 31.5593 36.0992 32.8149 34.5802C33.9811 33.1712 35.7485 32.1516 38.2183 31.4636C39.0299 31.2373 39.8507 31.0384 40.6452 30.8469C42.13 30.4884 43.5333 30.1493 44.92 29.6363L45.0494 29.5873L45.0659 29.581L45.0734 29.5786L45.0779 29.577C46.8819 28.9039 48.7599 28.0204 50.6585 26.9522C51.6423 26.3982 52.5269 25.6721 53.4639 24.9032C54.7811 23.8219 56.1439 22.7036 57.8334 22.0721C60.1497 21.2058 62.8742 20.8017 66.1532 20.841C66.6252 20.8467 67.0037 21.2337 66.9979 21.7056C66.9923 22.1748 66.6104 22.5509 66.143 22.5509H66.1327C63.0811 22.5139 60.5481 22.8827 58.4324 23.6737C57.0092 24.2062 55.8139 25.1865 54.5486 26.225C53.5962 27.0064 52.6112 27.8152 51.4969 28.4422C49.5214 29.5537 47.5624 30.4747 45.6758 31.1792C45.6667 31.1827 45.6587 31.1855 45.6496 31.1883L45.5607 31.222L45.5589 31.2225L45.5162 31.2384C44.0326 31.7879 42.5141 32.1544 41.0465 32.5089C40.2667 32.6976 39.4603 32.8919 38.6765 33.1103C36.5551 33.7019 35.0686 34.5392 34.1327 35.67C32.885 37.1787 32.5977 39.274 32.5761 40.7656C32.5704 41.164 32.5709 41.5499 32.5772 41.9244C32.6091 42.0093 32.6279 42.1021 32.6302 42.1979L32.6319 42.2589C32.6325 42.2669 32.6325 42.2743 32.6325 42.2823V42.2914C32.6325 42.378 32.62 42.4624 32.5954 42.5417C32.8104 48.0556 34.5379 50.8348 38.2109 51.7222C40.8595 52.3612 43.7299 52.0711 46.5062 51.7912C47.8132 51.6595 49.164 51.5227 50.4824 51.4834C52.3639 51.427 54.096 51.35 55.7786 51.248C56.4722 51.2058 57.1887 51.1904 57.9473 51.1745C60.3412 51.1238 62.8172 51.0708 64.6668 50.1673C69.5497 47.7809 71.0128 41.0232 71.45 37.2073C71.576 36.1112 71.6854 35.0203 71.7909 33.9646L71.8006 33.8734C72.0206 31.6642 72.2292 29.5833 72.5421 27.785L72.5529 27.7223C72.5734 27.6054 72.5979 27.4778 72.6321 27.3108L72.7387 26.8377L72.7439 26.8133C72.7672 26.7163 72.8584 26.3709 72.8584 26.3709L72.9394 26.0865C72.9536 26.0369 72.9724 25.9884 72.9952 25.9417C73.3343 25.26 75.079 21.8111 76.1625 20.8626C76.5176 20.552 77.0574 20.588 77.3686 20.9436C77.6798 21.2987 77.6439 21.839 77.2883 22.1496C76.6545 22.7042 75.2968 25.1625 74.5615 26.6331L74.5073 26.8229C74.5073 26.8229 74.4652 26.9848 74.4338 27.1056L74.4299 27.1209L74.3044 27.667C74.2765 27.8026 74.2543 27.9167 74.2349 28.0267C73.9237 29.8153 73.7191 31.866 73.5019 34.037L73.4922 34.1357C73.3856 35.1986 73.2756 36.2976 73.1491 37.4022C72.566 42.4875 70.7512 49.0969 65.4174 51.7034C63.2298 52.7727 60.4427 52.8319 57.9838 52.8838C57.2422 52.8998 56.5418 52.9146 55.8823 52.9544C54.1826 53.0583 52.4329 53.1358 50.5337 53.1927C49.2757 53.2303 48.0138 53.3575 46.6784 53.4925C45.0824 53.6538 43.4563 53.8174 41.8319 53.8174Z" fill="black"/>
<path d="M41.8327 48.9707C40.7218 48.9707 39.7779 48.8733 38.9469 48.672C37.5293 48.33 35.995 47.5685 35.7459 42.8321C35.7436 42.7882 35.7447 42.7437 35.7493 42.6998C35.763 42.5659 35.7698 42.4291 35.7698 42.2917L35.7665 42.1065C35.7618 41.9383 35.7459 41.7651 35.7197 41.5986C35.7134 41.5565 35.7094 41.5137 35.7094 41.4715C35.7083 41.2584 35.7094 41.0389 35.7128 40.8116C35.7248 40.0027 35.8497 38.5185 36.5507 37.6704C37.0574 37.0583 38.056 36.5407 39.5197 36.1326C40.2453 35.9302 40.9845 35.7518 41.7671 35.562C43.3397 35.1825 44.9464 34.7949 46.6027 34.1822L46.7691 34.12L46.7737 34.1183C50.4102 32.7629 54.1504 30.633 57.5884 27.9574C59.5759 26.4099 62.8413 26.2429 64.1528 26.2429C64.6247 26.2429 65.0078 26.626 65.0078 27.0979C65.0078 27.5704 64.6247 27.9529 64.1528 27.9529C62.3277 27.9529 59.9208 28.3086 58.6383 29.3066C55.0646 32.0875 51.1683 34.3053 47.37 35.7205L47.3688 35.7176C47.2947 35.7467 47.1978 35.7849 47.1978 35.7849C45.4451 36.4336 43.7888 36.833 42.1872 37.2201C41.4012 37.4099 40.6762 37.5854 39.9791 37.7798C38.3706 38.2278 37.9391 38.6747 37.8691 38.7596C37.6736 38.9956 37.4399 39.6818 37.4228 40.8371C37.4199 41.031 37.4182 41.2185 37.4194 41.4015C37.4501 41.6181 37.4695 41.8403 37.4758 42.0637L37.4798 42.2917C37.4798 42.4644 37.4718 42.636 37.457 42.8053C37.6673 46.6047 38.6385 46.839 39.3481 47.01C40.0469 47.1787 40.8591 47.2608 41.8327 47.2608C43.1265 47.2608 44.5326 47.1189 46.0209 46.969C47.4115 46.8288 48.8485 46.6834 50.3372 46.6389C52.1703 46.5836 53.8539 46.5089 55.4853 46.4104C56.2673 46.3625 57.0589 46.3454 57.8244 46.3289C59.4511 46.2946 61.649 46.2479 62.5392 45.8125C65.5321 44.3499 66.431 38.4341 66.6351 36.6552C66.757 35.59 66.8636 34.5293 66.9662 33.5022L66.9776 33.3876C67.2027 31.1356 67.4142 29.0193 67.7448 27.0848C67.7505 27.0495 67.759 27.0147 67.7688 26.9805C67.824 26.7993 69.1247 22.5324 70.2048 20.6674C70.4408 20.2583 70.9651 20.1209 71.3733 20.3557C71.782 20.5928 71.9211 21.1154 71.6845 21.5241C70.7617 23.1173 69.5704 26.9412 69.4211 27.4268C69.1059 29.2884 68.899 31.3579 68.6801 33.5471L68.6705 33.6504C68.5639 34.7077 68.4568 35.7763 68.3342 36.8502C67.9689 40.029 66.8282 45.6198 63.2893 47.3491C62.0616 47.9493 59.8416 47.9961 57.8831 48.0382C57.1119 48.0548 56.3373 48.0713 55.5884 48.1168C53.9406 48.2172 52.2392 48.2924 50.3885 48.3483C48.9602 48.3904 47.5534 48.5329 46.193 48.6703C44.6603 48.8247 43.2126 48.9707 41.8327 48.9707Z" fill="black"/>
<path d="M41.8326 44.1234C41.7084 44.1234 41.5892 44.1223 41.4741 44.1188C41.0443 44.108 40.6898 43.7797 40.6454 43.3528C40.6306 43.2109 40.6169 43.0535 40.6043 42.8797C40.6014 42.8438 40.6014 42.8078 40.6032 42.7725C40.6124 42.6123 40.6169 42.4516 40.6169 42.2915L40.6124 42.0019C40.6083 41.8629 40.601 41.7203 40.5912 41.5813C40.561 41.1709 40.8277 40.797 41.225 40.6916C41.7522 40.5525 42.3165 40.4157 42.9065 40.2732C44.5309 39.8811 46.3639 39.4382 48.2852 38.7275L48.4227 38.6762C49.1647 38.3051 59.8802 32.9536 62.6909 31.548C62.9695 31.409 63.3018 31.4323 63.5589 31.609C63.8154 31.7857 63.955 32.0884 63.9237 32.3984L63.8456 33.1821C63.7435 34.2012 63.6381 35.2483 63.5179 36.2994C63.1365 39.6263 62.2081 41.9341 61.4574 42.7458C61.3292 42.8848 61.1581 42.9772 60.9713 43.0085C60.1801 43.1413 58.619 43.1738 57.7799 43.1921C56.9666 43.2091 56.1349 43.2274 55.2943 43.2786C53.7 43.3756 52.0477 43.4485 50.2432 43.5033C48.6478 43.5505 47.1573 43.701 45.7164 43.8464C44.2926 43.99 42.9663 44.1234 41.8326 44.1234ZM42.3257 42.1752C42.3262 42.2237 42.3268 42.2676 42.3268 42.2915C42.3268 42.3291 42.3268 42.3673 42.3262 42.4049C43.2724 42.3741 44.3719 42.2636 45.5249 42.1472C47.0154 41.9968 48.5361 41.8429 50.1924 41.7939C51.9788 41.7403 53.614 41.6674 55.1905 41.5716C56.0643 41.5186 56.9135 41.5003 57.7343 41.4827C58.3767 41.469 59.6016 41.4428 60.3585 41.3647C60.7244 40.7685 61.4756 39.1013 61.8193 36.105C61.9088 35.3212 61.9904 34.5404 62.0678 33.771C57.9612 35.8228 49.1459 40.2259 49.1459 40.2259C49.1192 40.2396 49.0912 40.2516 49.0628 40.2624L48.8809 40.3302C46.8633 41.0768 44.9783 41.5323 43.3151 41.9335C42.9743 42.0162 42.6436 42.096 42.3257 42.1752Z" fill="black"/>
<path d="M53.349 106.699C23.9321 106.699 0 82.7659 0 53.349C0 23.9321 23.9321 0 53.349 0C82.7659 0 106.698 23.9321 106.698 53.349C106.698 82.7659 82.7659 106.699 53.349 106.699ZM53.349 1.70993C24.8754 1.70993 1.70993 24.8748 1.70993 53.349C1.70993 81.8232 24.8754 104.989 53.349 104.989C81.8232 104.989 104.988 81.8232 104.988 53.349C104.988 24.8748 81.8232 1.70993 53.349 1.70993Z" fill="black"/>
<path d="M88.9651 86.7762C88.8357 86.7762 88.7051 86.7465 88.582 86.685C79.2607 82.0026 73.4697 72.6191 73.4697 62.1943C73.4697 47.685 84.806 35.674 99.2776 34.8486C99.7404 34.8264 100.153 35.1827 100.18 35.6535C100.207 36.1248 99.8459 36.5289 99.3745 36.5557C85.8074 37.3292 75.1797 48.5913 75.1797 62.1943C75.1797 71.9682 80.6093 80.7669 89.3493 85.1568C89.771 85.3689 89.9415 85.883 89.73 86.3048C89.5795 86.6034 89.278 86.7762 88.9651 86.7762Z" fill="black"/>
<path d="M93.3307 83.548C93.2201 83.548 93.1073 83.5263 92.9984 83.4801C84.4626 79.8699 78.9463 71.5483 78.9463 62.2805C78.9463 49.8414 89.061 39.522 101.493 39.2775C101.937 39.2689 102.356 39.6428 102.365 40.1153C102.374 40.5873 101.999 40.9777 101.527 40.9869C90.0192 41.2137 80.6562 50.7653 80.6562 62.2805C80.6562 70.8603 85.7621 78.563 93.6642 81.9058C94.0996 82.0894 94.3026 82.591 94.119 83.0259C93.9811 83.3525 93.6642 83.548 93.3307 83.548Z" fill="black"/>
<path d="M86.4075 19.7297C85.9048 19.7297 85.397 19.7075 84.8994 19.6647C84.4285 19.6237 84.0809 19.2094 84.1214 18.7391C84.1618 18.2683 84.5796 17.9212 85.0464 17.9611C86.3038 18.0694 87.5959 18.0255 88.8385 17.834C89.3024 17.7593 89.7419 18.0819 89.8136 18.5481C89.8855 19.015 89.5663 19.4516 89.0989 19.524C88.2155 19.6602 87.3098 19.7297 86.4075 19.7297Z" fill="black"/>
<path d="M75.963 16.0667C75.776 16.0667 75.5874 16.0051 75.43 15.8797C72.457 13.5035 70.3026 10.1355 69.3627 6.39591C69.2481 5.93821 69.5263 5.4737 69.9839 5.35859C70.4404 5.24174 70.9067 5.52156 71.0219 5.97984C71.8699 9.35807 73.8147 12.3995 76.4976 14.5437C76.8664 14.8384 76.9262 15.3764 76.6315 15.7452C76.4628 15.9566 76.2143 16.0667 75.963 16.0667Z" fill="black"/>
<path d="M86.4077 28.4538C84.6344 28.4538 82.8602 28.2742 81.1098 27.9141C80.6469 27.8183 80.3494 27.3664 80.4452 26.904C80.5398 26.4418 80.9912 26.1449 81.4546 26.2389C85.8098 27.1366 90.332 26.8334 94.5298 25.3617C94.9755 25.2056 95.4628 25.4409 95.6196 25.8861C95.7752 26.3318 95.5409 26.8197 95.0952 26.9759C92.2921 27.958 89.3533 28.4538 86.4077 28.4538Z" fill="black"/>
<path d="M64.3223 15.6009C64.0242 15.6009 63.7346 15.4447 63.5773 15.1666C61.6707 11.7997 60.5012 7.97519 60.1951 4.10733C60.158 3.63708 60.5092 3.22504 60.9799 3.18796C61.4411 3.14581 61.8629 3.50201 61.8999 3.97281C62.1866 7.59329 63.2804 11.1722 65.0655 14.3241C65.2986 14.7351 65.1539 15.2566 64.7429 15.4892C64.6101 15.5649 64.4653 15.6009 64.3223 15.6009Z" fill="black"/>
<path d="M86.3832 32.8116C84.382 32.8116 82.3774 32.6156 80.3961 32.2206C79.9328 32.1282 79.6324 31.6779 79.7247 31.2151C79.8165 30.7518 80.2719 30.4531 80.7301 30.5437C86.1181 31.617 91.689 31.1359 96.8427 29.1502C97.2816 28.9809 97.7781 29.1985 97.9479 29.6397C98.1178 30.0803 97.8983 30.5751 97.4572 30.7449C93.8966 32.118 90.1455 32.8116 86.3832 32.8116Z" fill="black"/>
<path d="M59.6514 16.1874C59.3363 16.1874 59.033 16.0119 58.8843 15.7098C57.0079 11.9018 55.9523 7.82021 55.7471 3.57903C55.7243 3.10708 56.0874 2.70638 56.5599 2.68362C57.0289 2.65108 57.432 3.02444 57.4548 3.49584C57.6491 7.50216 58.646 11.3569 60.4181 14.954C60.6267 15.3775 60.4528 15.8904 60.0288 16.0991C59.9079 16.1589 59.7785 16.1874 59.6514 16.1874Z" fill="black"/>
<path d="M84.7134 15.2489C84.6741 15.2489 84.6342 15.2467 84.5943 15.241C82.7789 14.988 81.0616 14.3712 79.4879 13.4074C77.5882 12.2441 76.0048 10.6003 74.9082 8.65264C74.6762 8.24114 74.8221 7.71959 75.2331 7.48821C75.6445 7.25682 76.1655 7.40099 76.3975 7.81365C77.3516 9.50768 78.7292 10.9377 80.3805 11.9494C81.753 12.7895 83.2497 13.327 84.8303 13.547C85.2976 13.6126 85.6243 14.0446 85.5587 14.512C85.4994 14.9401 85.1329 15.2489 84.7134 15.2489Z" fill="black"/>
<path d="M86.4083 24.0911C85.8959 24.0911 85.3766 24.0729 84.8654 24.0364C84.394 24.0033 84.0389 23.5947 84.0725 23.1238C84.1062 22.6525 84.5195 22.2934 84.9857 22.331C87.3875 22.4998 89.8013 22.2404 92.0864 21.5713C92.5378 21.4373 93.0143 21.6984 93.1471 22.1515C93.2794 22.6046 93.02 23.08 92.5668 23.2122C90.5748 23.7953 88.5024 24.0911 86.4083 24.0911Z" fill="black"/>
<path d="M69.6839 15.832C69.4263 15.832 69.1715 15.7163 69.0033 15.4957C66.6482 12.4065 65.1423 8.7222 64.6476 4.84064C64.5878 4.37214 64.9195 3.9441 65.388 3.8848C65.8554 3.82554 66.2846 4.15613 66.3445 4.62458C66.8004 8.20807 68.1906 11.6085 70.3627 14.459C70.6495 14.8346 70.5771 15.3709 70.2015 15.657C70.047 15.7751 69.8646 15.832 69.6839 15.832Z" fill="black"/>
<path d="M96.0613 79.1751C95.9496 79.1751 95.8361 79.1529 95.7267 79.1062C88.6425 76.0875 84.0645 69.3807 84.0645 62.0195C84.0645 52.2096 92.1433 44.0043 102.457 43.3397C102.936 43.3089 103.335 43.6668 103.366 44.1377C103.395 44.6096 103.038 45.016 102.567 45.0462C93.151 45.6533 85.7744 53.1091 85.7744 62.0195C85.7744 68.6945 89.9443 74.7834 96.397 77.533C96.8319 77.7183 97.0337 78.2204 96.8484 78.6547C96.7099 78.9796 96.3935 79.1751 96.0613 79.1751Z" fill="black"/>
<path d="M98.6943 73.9699C98.5929 73.9699 98.4897 73.9517 98.3889 73.9135C93.324 71.9773 90.0513 67.3765 90.0513 62.1931C90.0513 55.2286 96.0211 49.5625 103.359 49.5625C103.831 49.5625 104.214 49.9449 104.214 50.4174C104.214 50.89 103.831 51.2724 103.359 51.2724C96.9639 51.2724 91.7612 56.1713 91.7612 62.1931C91.7612 66.6617 94.6031 70.635 98.9998 72.3164C99.441 72.4846 99.6622 72.9787 99.4935 73.4199C99.3629 73.7607 99.0386 73.9699 98.6943 73.9699Z" fill="black"/>
<path d="M4.30408 47.6244C3.93191 47.6244 3.58993 47.3799 3.4822 47.0042C3.35282 46.5505 3.61556 46.0769 4.06983 45.9469C13.7811 43.1688 20.9809 34.9196 22.4116 24.9303C22.4783 24.4623 22.9137 24.1374 23.3794 24.2052C23.8468 24.2719 24.1711 24.7051 24.1038 25.1725C22.5775 35.8282 14.8982 44.6279 4.53948 47.5913C4.46085 47.6135 4.38219 47.6244 4.30408 47.6244Z" fill="black"/>
<path d="M5.59042 40.1334C5.27124 40.1334 4.96515 39.9544 4.8181 39.6472C4.61461 39.2209 4.79474 38.7108 5.22107 38.5067C11.2155 35.6426 15.3484 29.7684 16.0073 23.1773C16.054 22.7076 16.469 22.3633 16.9431 22.4118C17.4128 22.4591 17.7554 22.878 17.7081 23.3477C16.991 30.5293 12.4882 36.929 5.95804 40.0502C5.83949 40.1067 5.71351 40.1334 5.59042 40.1334Z" fill="black"/>
<path d="M100.176 69.5952C100.066 69.5952 99.9524 69.5735 99.8442 69.5274C97.1254 68.3783 95.3687 65.7285 95.3687 62.7772C95.3687 58.7372 98.6558 55.4502 102.696 55.4502C103.168 55.4502 103.551 55.8326 103.551 56.3051C103.551 56.7776 103.168 57.1601 102.696 57.1601C99.5984 57.1601 97.0786 59.6799 97.0786 62.7772C97.0786 65.0399 98.426 67.0714 100.51 67.9531C100.945 68.1366 101.148 68.6382 100.965 69.0731C100.827 69.3991 100.51 69.5952 100.176 69.5952Z" fill="black"/>
<path d="M15.3147 85.7228C15.036 85.7228 14.7624 85.5866 14.5983 85.3358C14.3401 84.9403 14.4512 84.4108 14.8462 84.152C25.8723 76.9435 29.633 62.1857 23.4083 50.5554C21.8238 47.5955 19.7223 45.0192 17.1603 42.8978C16.7972 42.5962 16.7465 42.0571 17.0474 41.6934C17.3489 41.3304 17.887 41.2785 18.2518 41.5806C20.9842 43.8446 23.2265 46.5924 24.9159 49.7483C28.1688 55.8254 29.0112 62.8458 27.2893 69.515C25.5777 76.1444 21.491 81.8509 15.7826 85.5831C15.6379 85.6778 15.4755 85.7228 15.3147 85.7228Z" fill="black"/>
<path d="M12.3951 82.1688C12.1244 82.1688 11.8576 82.0405 11.6918 81.8011C11.4228 81.4124 11.5196 80.8801 11.9084 80.6111C20.7988 74.4559 23.6498 62.6135 18.5389 53.0648C17.045 50.2742 15.0113 47.9088 12.4937 46.0347C12.1147 45.7525 12.0361 45.2168 12.3182 44.8383C12.6003 44.4599 13.1367 44.3817 13.5145 44.6628C16.2356 46.6884 18.4334 49.2437 20.0465 52.2571C25.5672 62.5731 22.4871 75.3667 12.8813 82.0171C12.7331 82.1198 12.5633 82.1688 12.3951 82.1688Z" fill="black"/>
<path d="M10.0756 78.5384C9.83106 78.5384 9.58827 78.434 9.41899 78.2317C9.11631 77.8698 9.16419 77.3306 9.52613 77.0279C15.9435 71.6599 17.8871 62.6942 14.1492 55.7098C12.7009 53.0035 10.5093 50.7646 7.81053 49.2354C7.39958 49.0023 7.25535 48.4808 7.48847 48.0698C7.72105 47.6595 8.24427 47.5158 8.65351 47.7472C11.6339 49.4366 14.0557 51.9109 15.6568 54.9027C19.7748 62.5979 17.6585 72.4539 10.6239 78.3388C10.4632 78.4728 10.2688 78.5384 10.0756 78.5384Z" fill="black"/>
<path d="M7.00377 73.0053C6.77922 73.0053 6.55405 72.917 6.38593 72.7414C6.0599 72.4005 6.07129 71.8591 6.41271 71.5325C10.0794 68.0254 11.0563 62.6175 8.78949 58.382C7.55095 56.0668 5.46827 54.3032 2.92505 53.4159C2.47933 53.2603 2.24393 52.7729 2.39954 52.3272C2.55513 51.8814 3.04418 51.6466 3.48819 51.8017C6.43779 52.8305 8.85563 54.8812 10.2965 57.575C12.9253 62.4847 11.8138 68.7322 7.59485 72.7682C7.42899 72.9266 7.21637 73.0053 7.00377 73.0053Z" fill="black"/>
<path d="M4.85801 66.3424C4.75029 66.3424 4.64029 66.3218 4.53425 66.2785C4.09767 66.099 3.88849 65.5997 4.06802 65.1625C4.70811 63.6042 4.61976 61.8595 3.82579 60.3753C3.55676 59.8738 3.21707 59.4178 2.81466 59.0216C2.47838 58.6905 2.47381 58.149 2.80554 57.8127C3.13612 57.4764 3.67817 57.4718 4.01445 57.8036C4.53996 58.3211 4.98341 58.915 5.33339 59.5688C6.36902 61.5045 6.48414 63.7798 5.64972 65.8123C5.51404 66.1423 5.19485 66.3424 4.85801 66.3424Z" fill="black"/>
<path d="M31.8031 24.3789C26.3119 24.3789 20.843 22.7448 16.2029 19.5444C15.8142 19.2765 15.7161 18.7442 15.984 18.3554C16.2518 17.9662 16.7848 17.8693 17.1735 18.1371C24.6151 23.2687 34.3297 24.1076 42.5282 20.327C47.3474 18.1052 51.3002 14.5155 53.9597 9.94662C54.1979 9.53741 54.7223 9.4006 55.1293 9.63772C55.5373 9.87482 55.6753 10.3986 55.4382 10.8062C52.6003 15.6811 48.3842 19.5097 43.2442 21.8802C39.6129 23.5542 35.7023 24.3789 31.8031 24.3789Z" fill="black"/>
<path d="M31.3857 19.0062C27.6392 19.0062 23.9036 18.0759 20.4684 16.2258C20.0529 16.0018 19.8967 15.4832 20.1212 15.0671C20.3447 14.6515 20.8651 14.4965 21.2789 14.72C27.2374 17.9295 34.1751 18.1483 40.3137 15.3173C45.3136 13.0123 49.1814 8.92275 51.2031 3.80321C51.377 3.36376 51.8745 3.14779 52.3123 3.32213C52.7517 3.49544 52.9672 3.9919 52.7939 4.43074C50.6092 9.96178 46.4313 14.3797 41.0291 16.8705C37.9381 18.296 34.6579 19.0062 31.3857 19.0062Z" fill="black"/>
<path d="M31.1508 13.9756C29.0111 13.9756 26.8532 13.596 24.7609 12.8345C24.3174 12.6726 24.0889 12.1818 24.2507 11.7385C24.412 11.2944 24.9028 11.0664 25.3468 11.2277C29.5298 12.7513 34.0002 12.5917 37.9341 10.778C40.9601 9.38271 43.4629 7.10338 45.1717 4.18792C45.411 3.77987 45.9343 3.64361 46.3412 3.88189C46.7488 4.12069 46.8856 4.64452 46.6467 5.05205C44.7607 8.27126 41.9958 10.7883 38.65 12.3312C36.2761 13.4256 33.7266 13.9756 31.1508 13.9756Z" fill="black"/>
<path d="M32.796 8.58284C32.3766 8.58284 32.01 8.27397 31.9507 7.84596C31.8852 7.37853 32.2118 6.94643 32.6792 6.88097C33.6829 6.74132 34.6598 6.45403 35.5843 6.02824C36.3316 5.6834 37.0366 5.25078 37.6796 4.74181C38.0489 4.45003 38.5869 4.511 38.8799 4.88149C39.1735 5.25194 39.1102 5.78996 38.7403 6.08299C37.9913 6.67522 37.1706 7.17958 36.3002 7.58086C35.2235 8.07732 34.0847 8.41191 32.9151 8.57488C32.8753 8.58055 32.8354 8.58284 32.796 8.58284Z" fill="black"/>
<path d="M53.349 106.699C23.9321 106.699 0 82.7659 0 53.349C0 23.9321 23.9321 0 53.349 0C82.7659 0 106.698 23.9321 106.698 53.349C106.698 82.7659 82.7659 106.699 53.349 106.699ZM53.349 1.70993C24.8754 1.70993 1.70993 24.8748 1.70993 53.349C1.70993 81.8232 24.8754 104.989 53.349 104.989C81.8232 104.989 104.988 81.8232 104.988 53.349C104.988 24.8748 81.8232 1.70993 53.349 1.70993Z" fill="black"/>
<path d="M19.0245 89.985C18.8917 89.985 18.756 89.9537 18.63 89.8882C18.2111 89.6698 18.0487 89.1535 18.2669 88.7345C20.3702 84.6957 23.191 81.1333 26.6484 78.1478C27.0064 77.8395 27.5461 77.8799 27.8545 78.2362C28.1629 78.5936 28.1235 79.1333 27.7661 79.4422C24.4729 82.2858 21.7871 85.6777 19.7831 89.5245C19.6303 89.8169 19.3328 89.985 19.0245 89.985Z" fill="black"/>
<path d="M36.4663 73.8996C36.1323 73.8996 35.8154 73.7029 35.678 73.3764C35.4939 72.9414 35.6986 72.4399 36.1334 72.2563C39.7853 70.7174 43.6514 69.8038 47.6247 69.541C48.0761 69.5096 48.5025 69.8658 48.5338 70.3378C48.5651 70.8086 48.2083 71.2162 47.7369 71.2469C43.9541 71.4971 40.2737 72.3669 36.798 73.8324C36.6891 73.8779 36.5769 73.8996 36.4663 73.8996Z" fill="black"/>
<path d="M65.1497 74.6122C65.0248 74.6122 64.8989 74.5848 64.7792 74.5273C61.8552 73.1194 58.7488 72.1408 55.5462 71.6187C55.0805 71.5423 54.7635 71.1029 54.84 70.6372C54.9163 70.1715 55.3529 69.8558 55.8215 69.931C59.186 70.4798 62.4491 71.5075 65.5207 72.9866C65.9465 73.1913 66.1255 73.7025 65.9203 74.1283C65.7732 74.4338 65.4671 74.6122 65.1497 74.6122Z" fill="black"/>
<path d="M82.9189 94.3561C82.5672 94.3561 82.2383 94.1378 82.1129 93.7884C80.4264 89.061 77.646 84.6791 74.0734 81.1167C73.7394 80.7833 73.7383 80.2418 74.0717 79.9078C74.4046 79.5733 74.946 79.5721 75.2812 79.9061C79.0322 83.6469 81.9516 88.2483 83.7242 93.2133C83.8827 93.6584 83.6507 94.1475 83.2056 94.3059C83.1109 94.3401 83.014 94.3561 82.9189 94.3561Z" fill="black"/>
<path d="M79.1985 97.0058C78.8343 97.0058 78.4969 96.7716 78.3829 96.4051C77.6738 94.1349 76.6873 91.9468 75.4498 89.9023C75.2053 89.4981 75.3347 88.9726 75.7388 88.7281C76.1412 88.4836 76.6678 88.613 76.9124 89.0171C78.2216 91.1796 79.2652 93.4943 80.0147 95.8961C80.1555 96.347 79.9041 96.8263 79.4533 96.9671C79.3684 96.9933 79.2829 97.0058 79.1985 97.0058Z" fill="black"/>
<path d="M66.9183 80.644C66.7553 80.644 66.5906 80.5973 66.4447 80.5005C63.1902 78.3322 59.6039 76.8503 55.7856 76.0962C55.3228 76.005 55.0213 75.5548 55.1124 75.0919C55.2048 74.6285 55.6534 74.3305 56.1173 74.4188C60.1567 75.2168 63.9504 76.7842 67.3931 79.0772C67.7864 79.3394 67.8924 79.87 67.6302 80.2627C67.4655 80.5101 67.1948 80.644 66.9183 80.644Z" fill="black"/>
<path d="M34.8459 79.5738C34.5496 79.5738 34.2617 79.42 34.1038 79.1446C33.869 78.7354 34.0098 78.2128 34.4196 77.9773C38.581 75.5874 43.1186 74.2138 47.9086 73.8946C48.3703 73.8622 48.787 74.2189 48.8183 74.6909C48.8496 75.1617 48.4934 75.5692 48.022 75.6006C43.4947 75.9027 39.2045 77.2011 35.2711 79.4605C35.1372 79.5373 34.9907 79.5738 34.8459 79.5738Z" fill="black"/>
<path d="M22.2895 93.2506C22.1687 93.2506 22.0462 93.2249 21.9293 93.1708C21.5013 92.9719 21.3154 92.4629 21.5144 92.0349C22.375 90.1858 23.4221 88.4109 24.627 86.7597C24.9051 86.3778 25.4403 86.2941 25.8217 86.5728C26.2035 86.8515 26.2868 87.3861 26.0086 87.7674C24.8687 89.3292 23.8786 91.0078 23.0653 92.7564C22.9199 93.0677 22.6116 93.2506 22.2895 93.2506Z" fill="black"/>
<path d="M75.2288 98.9627C74.8561 98.9627 74.5134 98.7165 74.4069 98.3403C74.0421 97.0511 73.5691 95.78 73.0002 94.5619C72.8007 94.1339 72.986 93.6255 73.4134 93.4254C73.8398 93.2254 74.3493 93.41 74.5499 93.8386C75.157 95.1393 75.6626 96.4976 76.0524 97.8746C76.1806 98.3289 75.9162 98.8014 75.4625 98.9302C75.3844 98.9519 75.3063 98.9627 75.2288 98.9627Z" fill="black"/>
<path d="M68.5951 87.6391C68.3751 87.6391 68.1557 87.5547 67.9881 87.3865C64.721 84.0978 60.6348 81.7688 56.1725 80.6517C55.7143 80.5371 55.4361 80.0726 55.5507 79.6144C55.6652 79.1572 56.1286 78.8768 56.5875 78.9931C61.3525 80.186 65.7139 82.6717 69.2015 86.181C69.5344 86.5162 69.5321 87.0577 69.1976 87.3905C69.0306 87.5564 68.8129 87.6391 68.5951 87.6391Z" fill="black"/>
<path d="M25.8818 95.9064C25.7706 95.9064 25.6578 95.8848 25.5489 95.8386C25.1146 95.6545 24.9111 95.1529 25.0952 94.718C28.9881 85.5289 37.5571 79.2404 47.4581 78.3062C47.9295 78.2583 48.345 78.6066 48.3895 79.0768C48.4339 79.547 48.0886 79.9642 47.6183 80.0081C38.3442 80.8836 30.3168 86.7754 26.6695 95.3849C26.5315 95.7109 26.2152 95.9064 25.8818 95.9064Z" fill="black"/>
<path d="M71.1471 100.577C70.7674 100.577 70.4209 100.322 70.3206 99.9377C68.475 92.8768 62.9799 87.1993 55.98 85.1212C55.5275 84.9867 55.2692 84.5107 55.4038 84.0582C55.5383 83.605 56.0148 83.3474 56.4662 83.482C64.0372 85.7293 69.9792 91.8691 71.9747 99.5051C72.0943 99.9622 71.8208 100.43 71.3637 100.549C71.2913 100.568 71.2189 100.577 71.1471 100.577Z" fill="black"/>
<path d="M29.867 97.6827C29.757 97.6827 29.6453 97.661 29.537 97.616C29.1021 97.4336 28.8969 96.9326 29.0793 96.4971C32.327 88.746 39.5235 83.4402 47.8605 82.6502C48.3211 82.6006 48.7474 82.9506 48.7924 83.4208C48.8369 83.8905 48.4915 84.3077 48.0218 84.3527C40.3141 85.0828 33.6596 89.9897 30.6564 97.1577C30.519 97.4855 30.2016 97.6827 29.867 97.6827Z" fill="black"/>
<path d="M67.005 101.993C66.6191 101.993 66.2691 101.73 66.1745 101.338C64.8983 96.0548 61.1046 91.7201 56.0256 89.744C55.5856 89.573 55.3678 89.0777 55.5388 88.6377C55.7098 88.1971 56.2062 87.9805 56.6457 88.151C62.2457 90.3294 66.4293 95.1098 67.8366 100.937C67.9472 101.396 67.665 101.858 67.2062 101.969C67.1383 101.985 67.0711 101.993 67.005 101.993Z" fill="black"/>
<path d="M34.0039 99.104C33.8894 99.104 33.7731 99.0806 33.6614 99.0316C33.2288 98.8424 33.0321 98.338 33.2214 97.9054C35.9453 91.6915 41.8234 87.5005 48.5622 86.9687C49.0256 86.9305 49.4446 87.2827 49.4822 87.7535C49.5192 88.2243 49.1681 88.6359 48.6973 88.6729C42.5872 89.1557 37.2574 92.9562 34.7876 98.5916C34.6469 98.9125 34.3334 99.104 34.0039 99.104Z" fill="black"/>
<path d="M62.8243 103.276C62.431 103.276 62.0776 103.004 61.9898 102.605C61.1149 98.6272 58.326 95.3516 54.53 93.8434C54.0906 93.669 53.8763 93.172 54.0512 92.7331C54.2256 92.2937 54.7238 92.0794 55.161 92.2544C59.4859 93.9728 62.663 97.7044 63.6599 102.237C63.7608 102.699 63.4695 103.155 63.0084 103.256C62.9468 103.27 62.8847 103.276 62.8243 103.276Z" fill="black"/>
<path d="M37.7644 101.428C37.6623 101.428 37.5598 101.41 37.4594 101.371C37.0177 101.203 36.7971 100.708 36.9659 100.268C39.0212 94.8873 44.2666 91.2725 50.0177 91.2725C50.4896 91.2725 50.8726 91.6549 50.8726 92.1275C50.8726 92.6 50.4896 92.9824 50.0177 92.9824C44.9706 92.9824 40.3675 96.1554 38.5629 100.878C38.4329 101.219 38.1081 101.428 37.7644 101.428Z" fill="black"/>
<path d="M58.5208 104.03C58.1349 104.03 57.7855 103.768 57.6904 103.377C56.828 99.8252 53.6732 97.3447 50.018 97.3447C46.8386 97.3447 43.9825 99.2416 42.7422 102.177C42.5587 102.612 42.0571 102.816 41.6216 102.632C41.1873 102.448 40.9833 101.946 41.1674 101.511C42.6755 97.9415 46.1501 95.6348 50.018 95.6348C54.4648 95.6348 58.3031 98.6528 59.3524 102.973C59.4635 103.433 59.182 103.895 58.7226 104.006C58.6553 104.022 58.5875 104.03 58.5208 104.03Z" fill="black"/>
<path d="M53.9271 104.103C53.6164 104.103 53.3166 103.933 53.1656 103.637C52.5563 102.446 51.3503 101.707 50.0182 101.707C48.803 101.707 47.687 102.323 47.0333 103.354C46.7796 103.753 46.2507 103.871 45.8528 103.618C45.4544 103.364 45.3364 102.837 45.5889 102.438C46.559 100.91 48.2148 99.9971 50.0182 99.9971C51.9954 99.9971 53.7846 101.093 54.6874 102.858C54.9029 103.278 54.7365 103.794 54.3164 104.009C54.1916 104.072 54.0587 104.103 53.9271 104.103Z" fill="black"/>
</svg>
