<svg width="107" height="107" viewBox="0 0 107 107" fill="none" xmlns="http://www.w3.org/2000/svg">
<path d="M7.78566 71.8786C7.40773 71.8786 7.0624 71.6261 6.96035 71.243C5.46242 65.6163 4.38747 60.3434 4.00893 52.9013C3.985 52.4299 4.34816 52.0281 4.81948 52.0042C5.29836 51.9791 5.69277 52.3433 5.71669 52.8141C6.08767 60.1075 7.14272 65.2806 8.6122 70.8036C8.73415 71.2596 8.46279 71.7281 8.00624 71.8495C7.93264 71.8694 7.85866 71.8786 7.78566 71.8786Z" fill="black"/>
<path d="M53.3496 106.698C23.9321 106.698 0 82.766 0 53.3491C0 23.9321 23.9321 0 53.3496 0C82.7659 0 106.698 23.9321 106.698 53.3491C106.698 82.766 82.7659 106.698 53.3496 106.698ZM53.3496 1.70993C24.8754 1.70993 1.70984 24.8748 1.70984 53.3491C1.70984 81.8227 24.8754 104.988 53.3496 104.988C81.8232 104.988 104.988 81.8227 104.988 53.3491C104.988 24.8748 81.8232 1.70993 53.3496 1.70993Z" fill="black"/>
<path d="M53.3496 106.698C23.9321 106.698 0 82.766 0 53.3491C0 23.9321 23.9321 0 53.3496 0C82.7659 0 106.698 23.9321 106.698 53.3491C106.698 82.766 82.7659 106.698 53.3496 106.698ZM53.3496 1.70993C24.8754 1.70993 1.70984 24.8748 1.70984 53.3491C1.70984 81.8227 24.8754 104.988 53.3496 104.988C81.8232 104.988 104.988 81.8227 104.988 53.3491C104.988 24.8748 81.8232 1.70993 53.3496 1.70993Z" fill="black"/>
<path d="M53.4052 96.6632C53.322 96.6632 53.2388 96.6626 53.1562 96.662C50.834 96.6416 48.4772 96.3582 45.9516 95.7945C42.6059 95.0473 39.405 93.7529 36.4371 91.9461C33.8066 90.3456 31.6157 88.5958 29.7376 86.5974C27.8801 84.6213 26.4113 82.672 25.2468 80.6383C23.5464 77.6688 22.4487 75.0988 21.7922 72.5499C20.7587 68.5321 20.4339 64.9544 20.7986 61.6115C20.9993 59.7796 21.4565 57.9927 21.9472 56.1711C22.5627 53.8878 23.5198 51.5474 24.9584 48.8053C26.4681 45.9269 27.7079 43.7678 28.9772 41.8038C31.0081 38.6598 33.1808 35.542 35.2817 32.5268L35.7809 31.8104C36.5311 30.7343 37.3177 29.6633 38.0786 28.6271C38.8777 27.5402 39.7037 26.4155 40.4804 25.2927C43.0431 21.5896 45.5384 17.9651 47.9067 14.3304C49.3858 12.0585 50.5201 9.58542 51.5534 7.24789C51.7796 6.73776 52.0207 6.23453 52.2881 5.67819C52.4174 5.40866 52.5524 5.12704 52.695 4.82553C52.837 4.52399 53.1528 4.34048 53.4747 4.33594C53.8076 4.33817 54.1091 4.53366 54.2465 4.83688C54.3497 5.0643 54.45 5.27524 54.5463 5.47763C54.7491 5.90448 54.9406 6.30804 55.0997 6.73383C56.6159 10.7938 58.3981 14.3287 60.5469 17.5416C62.8029 20.9147 64.9193 23.9971 67.0168 26.9661C67.9128 28.2338 68.8572 29.5054 69.7702 30.7348C70.7838 32.0994 71.832 33.51 72.8254 34.9316C74.5928 37.4611 76.6596 40.4671 78.5886 43.5849C79.9598 45.801 81.306 48.2382 82.7054 51.0362C84.0927 53.8108 85.0695 56.6527 85.6096 59.4821C86.1526 62.3268 86.1891 65.2668 85.72 68.47C85.3893 70.7174 84.8651 72.9021 84.1589 74.9625C83.3619 77.2926 82.2369 79.5634 80.8152 81.7116C78.6956 84.9154 76.399 87.4587 73.7949 89.4872C71.3765 91.3704 69.0339 92.8022 66.632 93.864C64.779 94.683 62.8229 95.3289 60.816 95.7832C58.2066 96.3747 55.7791 96.6632 53.4052 96.6632ZM53.4507 7.21085C53.335 7.45651 53.2245 7.69702 53.1175 7.9393C52.0549 10.3412 50.8882 12.8849 49.339 15.2635C46.9599 18.9171 44.456 22.5523 41.8867 26.2657C41.0959 27.4085 40.2628 28.5427 39.4567 29.64C38.7015 30.667 37.9213 31.7289 37.1838 32.7878L36.6844 33.5043C34.5921 36.5081 32.4285 39.6128 30.413 42.7317C29.1733 44.6508 27.9581 46.7688 26.4722 49.5998C25.093 52.228 24.1797 54.4572 23.5978 56.6156C23.1253 58.37 22.6859 60.0868 22.499 61.7979C22.1563 64.9316 22.467 68.3092 23.4492 72.1236C24.0652 74.5197 25.1082 76.9558 26.7303 79.7891C27.8277 81.7048 29.2189 83.5492 30.983 85.4261C32.7545 87.311 34.829 88.9662 37.3262 90.4858C40.134 92.1946 43.1617 93.4195 46.3244 94.1256C48.7309 94.6626 50.9702 94.9327 53.1703 94.9521C55.485 94.9726 57.8675 94.6979 60.4387 94.1154C62.3372 93.6851 64.1887 93.0746 65.9406 92.3C68.2131 91.2957 70.4378 89.9341 72.744 88.1381C75.2005 86.2258 77.3737 83.8148 79.3892 80.7683C80.731 78.7409 81.7911 76.6013 82.5411 74.4085C83.2127 72.4467 83.7132 70.3651 84.0276 68.222C84.4683 65.2108 84.437 62.4567 83.9296 59.803C83.419 57.1275 82.4929 54.4355 81.1761 51.8011C79.8002 49.0493 78.478 46.6565 77.1343 44.4849C75.2272 41.4025 73.1776 38.421 71.4245 35.9114C70.4453 34.5098 69.4044 33.1093 68.3979 31.7545C67.4789 30.5171 66.5283 29.2375 65.6209 27.9528C63.5143 24.9718 61.39 21.8774 59.1254 18.4923C56.9022 15.1683 55.061 11.5176 53.4975 7.33228C53.4827 7.29181 53.4673 7.25134 53.4507 7.21085Z" fill="black"/>
<path d="M17.4995 87.83C17.1609 87.83 16.8412 87.6282 16.7067 87.2959C13.4259 79.1932 9.86356 69.6187 8.31437 60.0461C7.12492 52.7002 6.32804 46.6157 6.02994 38.9918C6.01176 38.5198 6.3787 38.1226 6.85062 38.1037C7.31864 38.0941 7.72001 38.4531 7.73869 38.9251C8.03336 46.4624 8.82279 52.4905 10.0021 59.773C11.5245 69.1782 15.0463 78.6392 18.2918 86.6541C18.4684 87.0919 18.2576 87.5906 17.8199 87.7673C17.715 87.8101 17.6061 87.83 17.4995 87.83Z" fill="black"/>
<path d="M13.5166 26.7989C13.3298 26.7989 13.141 26.7373 12.9825 26.6114C12.6143 26.3167 12.5545 25.7786 12.8498 25.4099C12.8844 25.3654 16.4548 20.8985 20.867 15.0136C21.1508 14.6362 21.6872 14.5598 22.064 14.8425C22.4419 15.1258 22.5188 15.6616 22.2355 16.0395C17.8062 21.9467 14.2204 26.4335 14.1845 26.478C14.0159 26.6889 13.7674 26.7989 13.5166 26.7989Z" fill="black"/>
<path d="M53.3496 106.698C23.9321 106.698 0 82.766 0 53.3491C0 23.9321 23.9321 0 53.3496 0C82.7659 0 106.698 23.9321 106.698 53.3491C106.698 82.766 82.7659 106.698 53.3496 106.698ZM53.3496 1.70993C24.8754 1.70993 1.70984 24.8748 1.70984 53.3491C1.70984 81.8227 24.8754 104.988 53.3496 104.988C81.8232 104.988 104.988 81.8227 104.988 53.3491C104.988 24.8748 81.8232 1.70993 53.3496 1.70993Z" fill="black"/>
<path d="M53.398 91.8161L53.1991 91.815H53.1968C51.218 91.7979 49.1945 91.5522 47.0092 91.0638C44.1827 90.4328 41.4736 89.3373 38.9572 87.8058C36.7052 86.4356 34.8449 84.9548 33.2694 83.2785C31.6735 81.58 30.4253 79.9287 29.4534 78.2302C27.9738 75.646 27.0311 73.4567 26.4867 71.3415C25.601 67.9005 25.3171 64.89 25.6174 62.1381C25.7805 60.6505 26.188 59.0637 26.6274 57.4324C27.1478 55.5019 27.9817 53.4763 29.2505 51.0578C30.6919 48.3111 31.8626 46.269 33.0483 44.4342C35.0409 41.3489 37.1886 38.2682 39.2655 35.289L39.7586 34.581C40.4653 33.5659 41.1909 32.5787 41.9583 31.5334C42.8057 30.3809 43.6515 29.2295 44.467 28.0508C47.0502 24.3181 49.5678 20.6623 51.9685 16.9763C52.1641 16.6753 52.3544 16.371 52.5402 16.0654C52.6952 15.8095 52.9728 15.6533 53.2715 15.6533L53.2919 15.6539C53.598 15.6607 53.8768 15.8318 54.0228 16.1008C54.7918 17.5177 55.6312 18.9096 56.518 20.2371C58.8036 23.6518 60.9429 26.7678 63.0585 29.7631C63.9865 31.0763 64.9463 32.3695 65.8754 33.6201C66.9172 35.0222 67.8988 36.3434 68.8528 37.7079C70.5805 40.181 72.5982 43.1158 74.4666 46.1349C75.7605 48.2256 77.0371 50.5374 78.3709 53.2038C79.5574 55.5783 80.3915 57.9962 80.8493 60.3912C81.2886 62.6967 81.313 65.1094 80.9237 67.7672C80.6343 69.7444 80.1924 71.5849 79.5735 73.3928C78.9096 75.333 77.9674 77.2322 76.7726 79.0373C74.9498 81.7937 73.0012 83.9613 70.8165 85.6633C68.7167 87.2997 66.7063 88.532 64.6727 89.4308C63.1047 90.1239 61.4473 90.671 59.7457 91.0558C57.4911 91.5676 55.4144 91.8161 53.398 91.8161ZM53.2111 90.1051L53.4026 90.1062C55.2852 90.1062 57.2385 89.8714 59.3678 89.3881C60.962 89.0278 62.514 88.516 63.9813 87.8668C65.8855 87.0255 67.7774 85.8633 69.7654 84.3147C71.8019 82.7279 73.6276 80.6931 75.3466 78.0934C76.4608 76.4097 77.3388 74.6417 77.9559 72.8394C78.54 71.1323 78.9575 69.3916 79.2315 67.5193C79.5935 65.053 79.5725 62.8267 79.1687 60.7121C78.7407 58.4709 77.9576 56.2024 76.8411 53.9687C75.5313 51.3491 74.2786 49.0812 73.0132 47.035C71.1659 44.0511 69.1652 41.1409 67.4512 38.6877C66.5114 37.3431 65.5368 36.0316 64.5053 34.6426C63.5681 33.3812 62.6013 32.0794 61.6621 30.7497C59.5377 27.7425 57.3901 24.6151 55.0966 21.1872C54.4452 20.2125 53.8187 19.2048 53.2264 18.1778C50.8656 21.792 48.4005 25.3714 45.8727 29.0238C45.0433 30.2224 44.1902 31.3835 43.3649 32.5069C42.5754 33.5819 41.8566 34.5611 41.1613 35.5585L40.6682 36.2665C38.6003 39.2337 36.4613 42.3025 34.4845 45.3627C33.3286 47.1518 32.1813 49.1536 30.7649 51.8524C29.5549 54.1568 28.7654 56.0713 28.2782 57.8776C27.8574 59.4411 27.4664 60.9578 27.3178 62.3239C27.0391 64.8672 27.3092 67.6777 28.1431 70.9152C28.6481 72.8788 29.5355 74.9329 30.9371 77.381C31.8423 78.9615 33.0125 80.5078 34.5154 82.1072C35.9841 83.6701 37.7273 85.0563 39.8457 86.3449C42.2019 87.779 44.7373 88.805 47.3815 89.3949C49.4482 89.8566 51.3552 90.0891 53.2111 90.1051Z" fill="black"/>
<path d="M53.4114 86.9695L53.2261 86.9684C51.6013 86.9547 49.9141 86.7473 48.0656 86.334C45.7545 85.8182 43.5384 84.9205 41.4769 83.666C39.6027 82.5255 38.0734 81.3125 36.8012 79.9589C35.4704 78.5436 34.4427 77.1904 33.6595 75.8226C32.4022 73.6253 31.6141 71.8179 31.1807 70.1337C30.4432 67.269 30.1998 64.826 30.4352 62.6647C30.4866 62.1951 30.9066 61.8564 31.3785 61.9078C31.8476 61.9585 32.1867 62.3809 32.1354 62.85C31.9222 64.8027 32.1514 67.0461 32.8365 69.7079C33.2309 71.2394 33.9639 72.9122 35.1433 74.9727C35.8592 76.2227 36.8093 77.4709 38.0472 78.7881C39.2122 80.0284 40.6247 81.1456 42.3664 82.2057C44.2668 83.3627 46.3101 84.1904 48.4385 84.6652C50.1682 85.0516 51.738 85.246 53.2388 85.2585L53.4166 85.2596C54.928 85.2585 56.5269 85.0629 58.2978 84.6611C59.5866 84.3699 60.8394 83.9566 62.0219 83.4334C63.5565 82.7563 65.1148 81.7936 66.7869 80.4906C68.4017 79.2327 69.8798 77.5741 71.3048 75.4196C72.1915 74.0779 72.8868 72.6815 73.3702 71.2702C73.8559 69.8498 74.2042 68.3924 74.4355 66.8158C74.7176 64.895 74.7084 63.1959 74.4077 61.6216C74.0628 59.8177 73.4234 57.9721 72.5057 56.1368C71.2642 53.6552 70.082 51.512 68.8913 49.5861C67.101 46.6935 65.15 43.8572 63.4772 41.4639C62.5828 40.1838 61.6265 38.8968 60.6142 37.534L60.5447 37.4399C59.6624 36.2515 58.6621 34.9047 57.7022 33.5464C56.2044 31.4261 54.7116 29.2705 53.1606 26.9866C52.0726 28.5785 50.972 30.1738 49.8587 31.7823C48.9868 33.042 48.1097 34.2356 47.2614 35.3897C46.5107 36.4123 45.804 37.3738 45.137 38.3303L44.644 39.0381C44.3741 39.4257 43.8415 39.5197 43.454 39.2513C43.0671 38.9811 42.9717 38.4482 43.2414 38.0612L43.7343 37.3527C44.4133 36.3787 45.1257 35.4091 45.8797 34.382C46.725 33.2324 47.5949 32.0491 48.4527 30.8094C49.8052 28.8544 51.1412 26.9188 52.4544 24.9848C52.6141 24.7506 52.8784 24.6104 53.1619 24.6104C53.4451 24.6104 53.7114 24.7518 53.8709 24.9866C55.6718 27.6517 57.3819 30.1295 59.0987 32.5598C60.0471 33.9016 61.0406 35.2398 61.9172 36.4208L61.9866 36.5142C63.0069 37.8874 63.9703 39.184 64.8788 40.4847C66.5648 42.8969 68.5322 45.7576 70.3453 48.6866C71.5639 50.657 72.7706 52.8434 74.0353 55.3724C75.0233 57.348 75.7133 59.3428 76.0872 61.3008C76.4247 63.066 76.4372 64.9514 76.1273 67.0638C75.881 68.7457 75.5081 70.3029 74.9874 71.8236C74.4577 73.3728 73.6978 74.8998 72.7302 76.3629C71.2015 78.6747 69.601 80.4661 67.8381 81.8398C66.0535 83.2299 64.3771 84.2628 62.7134 84.9974C61.4299 85.5651 60.0722 86.0131 58.6757 86.3289C56.7795 86.7592 55.0582 86.9684 53.4114 86.9695Z" fill="black"/>
<path d="M34.299 54.563C34.1645 54.563 34.0289 54.5316 33.9017 54.465C33.4838 54.2455 33.3231 53.7286 33.5425 53.3107C34.9127 50.6991 36.0156 48.7732 37.1197 47.0649C37.3762 46.6677 37.9062 46.5548 38.3019 46.8108C38.6985 47.0672 38.812 47.5962 38.556 47.9929C37.4811 49.6561 36.4016 51.541 35.0563 54.1053C34.9031 54.3966 34.6061 54.563 34.299 54.563Z" fill="black"/>
<path d="M53.4242 82.122L53.2561 82.1208H53.255C51.9873 82.1106 50.6361 81.9413 49.1238 81.6033C47.3301 81.2032 45.6054 80.5038 43.997 79.5251C42.5017 78.6155 41.3032 77.6716 40.3342 76.6395C39.2643 75.5012 38.4573 74.4461 37.8664 73.4134C36.8296 71.6031 36.1974 70.1771 35.8748 68.9248C35.2854 66.6352 35.083 64.7595 35.2548 63.1898C35.3488 62.3285 35.7305 60.9087 35.9835 59.9688C36.3181 58.7291 36.9054 57.3338 37.8344 55.5634C39.1316 53.0898 40.1671 51.2801 41.1911 49.695C43.0895 46.7556 45.1852 43.7485 47.2127 40.8399L47.7108 40.124C48.3435 39.2155 49.0264 38.2864 49.7484 37.3026C50.6354 36.0966 51.5263 34.8842 52.4383 33.567C52.5979 33.3373 52.8696 33.1852 53.1496 33.1846H53.1513C53.4306 33.1846 53.703 33.3066 53.8626 33.5363C54.2883 34.1467 54.7141 34.7526 55.1405 35.3562C56.1283 36.7543 57.1467 38.1251 58.0452 39.3352L58.098 39.4064C59.1138 40.7744 60.0469 42.03 60.9058 43.26C62.5593 45.6266 64.4835 48.4246 66.2237 51.2362C67.3649 53.0812 68.5023 55.1428 69.7006 57.539C70.4889 59.1167 71.036 60.6875 71.3273 62.2088C71.5603 63.4337 71.5622 64.7914 71.3318 66.36C71.1299 67.7427 70.8256 69.0165 70.4022 70.2534C70.0055 71.4121 69.4292 72.5681 68.6884 73.6881C67.4542 75.5542 66.2014 76.9694 64.8598 78.0153C63.3938 79.1575 62.0509 79.9914 60.7553 80.5637C59.7572 81.0049 58.6977 81.3542 57.6062 81.601C56.069 81.9493 54.7017 82.1197 53.4242 82.122ZM53.2692 80.4109L53.4289 80.412C54.5705 80.4098 55.8159 80.2536 57.2289 79.9333C58.2127 79.7104 59.1668 79.3963 60.064 78.9997C61.23 78.4844 62.4545 77.7212 63.8087 76.6667C65.0022 75.7365 66.1314 74.4541 67.2621 72.7453C67.9223 71.7462 68.4341 70.7213 68.7846 69.6994C69.1732 68.5635 69.4531 67.3899 69.64 66.112C69.8419 64.735 69.8443 63.563 69.6469 62.5297C69.3859 61.1623 68.8889 59.7408 68.1708 58.304C66.996 55.9539 65.8841 53.9368 64.7702 52.1362C63.0518 49.3599 61.1435 46.5864 59.5042 44.2392C58.6594 43.0297 57.7338 41.7838 56.7536 40.4643L56.6815 40.3674C55.7686 39.1374 54.7432 37.7574 53.7434 36.3423C53.5491 36.0675 53.3548 35.7916 53.161 35.5152C52.4757 36.4796 51.8056 37.3922 51.1513 38.2819C50.4109 39.2896 49.7349 40.2107 49.114 41.1015L48.616 41.8174C46.5966 44.714 44.5093 47.7086 42.6267 50.6229C41.6321 52.1624 40.6216 53.9311 39.3482 56.358C38.4789 58.0144 37.9358 59.2991 37.6382 60.4003C37.4246 61.1937 37.0341 62.6448 36.9544 63.3755C36.805 64.7366 36.9937 66.4124 37.5311 68.4985C37.814 69.5985 38.3919 70.8901 39.3499 72.5641C39.8738 73.4789 40.6034 74.429 41.5797 75.4681C42.4426 76.3864 43.5238 77.2356 44.8861 78.0643C46.3344 78.9461 47.8853 79.5753 49.4966 79.9344C50.8897 80.2456 52.1237 80.4018 53.2692 80.4109Z" fill="black"/>
<path d="M53.4367 77.2745L53.2893 77.2733C52.3704 77.2659 51.3524 77.1343 50.1794 76.8721C48.9033 76.5871 47.6716 76.0866 46.5179 75.3845C45.3996 74.7039 44.5321 74.0285 43.8658 73.32C43.0593 72.4616 42.4729 71.7047 42.0722 71.0048C41.2684 69.601 40.7771 68.5248 40.5692 67.7161C40.1342 66.0278 39.9672 64.682 40.0726 63.716C40.129 63.2492 40.4168 62.148 40.6615 61.2394C40.8996 60.356 41.3768 59.2434 42.1257 57.8156C43.354 55.4741 44.3219 53.7808 45.2623 52.3245C47.1084 49.4661 49.1768 46.4977 51.1774 43.6273L51.6894 42.8937C51.9338 42.5414 52.1915 42.1795 52.4593 41.8095C52.619 41.5884 52.8748 41.4562 53.1478 41.4551H53.1524C53.4232 41.4551 53.679 41.5833 53.8398 41.8022L54.2039 42.2918C55.1917 43.6216 56.1163 44.8669 56.9326 46.0354C58.5461 48.3443 60.4218 51.0705 62.1021 53.7864C63.1663 55.5067 64.2334 57.4434 65.3653 59.7062C65.9552 60.8872 66.3592 62.0351 66.5656 63.1181C66.6944 63.7929 66.6848 64.6467 66.5361 65.6562C66.3769 66.742 66.1417 67.7325 65.8167 68.6827C65.5529 69.4533 65.1583 70.2376 64.6449 71.0145C63.706 72.4337 62.8021 73.4728 61.8798 74.1915C60.733 75.0858 59.7243 75.7196 58.7963 76.13C58.0827 76.4452 57.3219 76.6954 56.5352 76.8732C55.3588 77.14 54.3453 77.2711 53.4367 77.2745ZM53.3028 75.5634L53.4403 75.5646C54.212 75.5617 55.1044 75.4443 56.1579 75.2061C56.8374 75.0522 57.4921 74.8367 58.1049 74.5655C58.9028 74.2132 59.7939 73.6495 60.8293 72.843C61.6022 72.24 62.3836 71.3337 63.2186 70.0717C63.6523 69.4157 63.9819 68.7619 64.1992 68.1287C64.4897 67.2794 64.7008 66.3892 64.8443 65.4082C64.9633 64.5994 64.9777 63.9188 64.8859 63.439C64.7086 62.5093 64.3552 61.5113 63.8355 60.4706C62.7274 58.2545 61.6851 56.3622 60.6481 54.6864C58.9895 52.0059 57.1302 49.3042 55.531 47.0151C54.8195 45.9955 54.0166 44.9091 53.1666 43.7635C53.1417 43.7993 53.1165 43.8353 53.0914 43.8712L52.5888 44.5934C50.5886 47.4632 48.5288 50.419 46.6986 53.2524C45.7872 54.6636 44.8438 56.316 43.6396 58.6101C42.9493 59.9257 42.5173 60.9237 42.3183 61.6612C41.9045 63.1996 41.7929 63.7325 41.7712 63.912C41.7255 64.3293 41.7221 65.3387 42.2248 67.2897C42.3394 67.7365 42.6643 68.5961 43.5564 70.1555C43.8897 70.7375 44.3981 71.3895 45.1113 72.1493C45.671 72.7438 46.4216 73.324 47.4071 73.9243C48.4006 74.529 49.4583 74.9593 50.5522 75.2038C51.6062 75.4392 52.5061 75.5572 53.3028 75.5634Z" fill="black"/>
<path d="M53.4465 72.4283L53.3286 72.4271C52.7661 72.4225 52.062 72.3268 51.2373 72.1427C50.4775 71.9729 49.7377 71.6708 49.0389 71.245C48.3072 70.7999 47.7543 70.3809 47.3974 69.9996C46.7276 69.2871 46.4186 68.8426 46.2779 68.5952C45.4869 67.2136 45.2972 66.6254 45.2668 66.5216C44.9653 65.3509 44.9026 64.6949 44.8918 64.4053C44.8888 64.3324 44.8958 64.2589 44.9117 64.1876C44.9653 63.9471 45.0838 63.4557 45.3466 62.4828C45.423 62.1972 45.6653 61.5036 46.4175 60.0678C47.5751 57.862 48.4747 56.2855 49.3335 54.9551C50.229 53.569 51.2402 52.0585 52.5163 50.2015C52.6753 49.9702 52.9387 49.8316 53.2197 49.8311C53.5002 49.8311 53.7639 49.969 53.9236 50.1998C55.5993 52.6223 56.8884 54.5721 57.9807 56.3373C58.9643 57.9276 59.9619 59.7383 61.03 61.8746C61.4001 62.6139 61.6633 63.3337 61.791 63.9562C61.8013 64.0063 61.8064 64.0565 61.8081 64.1078C61.8108 64.2309 61.8064 64.5039 61.7407 64.9507C61.6257 65.7396 61.4585 66.4464 61.2312 67.1116C61.1411 67.3754 60.9582 67.8023 60.6008 68.3427C59.8113 69.5362 59.2414 70.1028 58.9016 70.3678C58.0818 71.0062 57.3879 71.4536 56.8371 71.697C56.4087 71.8862 55.9475 72.0373 55.4658 72.1461C54.664 72.3274 53.9846 72.4225 53.4465 72.4283ZM46.9157 66.0702C46.9169 66.0702 47.0817 66.5581 47.7627 67.7477C47.8123 67.8342 48.0203 68.166 48.6438 68.8295C48.7864 68.9811 49.1409 69.3054 49.9286 69.7842C50.4678 70.113 51.0327 70.345 51.6101 70.4738C52.3169 70.6317 52.8999 70.7137 53.3423 70.7172H53.345L53.447 70.7183C53.8467 70.7137 54.4045 70.6334 55.0893 70.4784C55.4626 70.394 55.8181 70.2777 56.1455 70.133C56.383 70.0281 56.9211 69.7431 57.8501 69.0193C57.9726 68.924 58.4321 68.5234 59.1745 67.3994C59.446 66.989 59.5664 66.696 59.6138 66.5581C59.8069 65.9938 59.9492 65.3868 60.0486 64.704C60.0845 64.4589 60.0952 64.301 60.0976 64.2173C59.9927 63.7561 59.7873 63.213 59.5007 62.6395C58.456 60.55 57.4831 58.7831 56.5266 57.2368C55.6079 55.7525 54.5454 54.1309 53.2224 52.197C52.2776 53.5844 51.4858 54.7744 50.7693 55.883C49.94 57.1683 49.0646 58.7039 47.9319 60.8623C47.1922 62.2736 47.0235 62.8305 46.9972 62.9285C46.7737 63.7567 46.6615 64.2109 46.6067 64.4446C46.625 64.6732 46.6895 65.1907 46.9157 66.0702Z" fill="black"/>
<path d="M53.3981 67.5812C53.3821 67.5812 53.366 67.5806 53.3506 67.5795C53.2378 67.5755 52.9146 67.551 52.2946 67.413C52.0488 67.3578 51.8039 67.254 51.5609 67.1058C51.2276 66.903 51.0424 66.765 50.9614 66.7018C50.9273 66.6744 50.8947 66.6442 50.8651 66.6116C50.661 66.3917 50.5447 66.2492 50.4917 66.1813C50.4649 66.1477 50.4411 66.1118 50.4199 66.0748C50.1612 65.6171 50.0147 65.3213 49.9406 65.1651C49.9143 65.1098 49.8938 65.0516 49.8808 64.9918L49.839 64.8106C49.8117 64.68 49.814 64.5444 49.8482 64.415L50.0027 63.8325C50.0101 63.8046 50.0193 63.7766 50.0294 63.7499C50.0847 63.6045 50.2621 63.1747 50.7105 62.3203C51.3883 61.0265 51.9724 59.9635 52.4948 59.0703C52.6463 58.811 52.9231 58.6503 53.2237 58.6475H53.2327C53.5298 58.6475 53.8056 58.8019 53.9617 59.0555C54.8373 60.4839 55.7309 62.1157 56.6948 64.0428C56.7323 64.1186 56.7649 64.1865 56.7935 64.2491C56.8679 64.4144 56.8891 64.5997 56.8521 64.7769C56.8048 65.0055 56.7494 65.2163 56.688 65.413C56.6686 65.4734 56.6428 65.531 56.611 65.5863C56.6024 65.6011 56.5692 65.6524 56.5596 65.6672C56.2427 66.1465 56.025 66.4099 55.9236 66.5245C55.8871 66.5661 55.846 66.6037 55.8023 66.6373C55.2002 67.0973 54.9022 67.2512 54.8709 67.2671C54.8504 67.2769 54.8297 67.2865 54.8092 67.2945C54.7783 67.3071 54.6212 67.3692 54.3954 67.4199C53.8815 67.5356 53.5895 67.5692 53.4618 67.5783C53.4408 67.5801 53.4191 67.5812 53.3981 67.5812ZM52.07 65.3965C52.1316 65.4416 52.2523 65.5253 52.4513 65.6461C52.5625 65.714 52.6359 65.7368 52.6697 65.7447C53.081 65.8365 53.3057 65.8622 53.3815 65.8685C53.4686 65.8588 53.6721 65.8297 54.0187 65.7516C54.0656 65.7413 54.1052 65.7299 54.1333 65.7208C54.2 65.6808 54.387 65.5635 54.693 65.3327C54.7655 65.2449 54.8994 65.0727 55.0897 64.7895C55.0978 64.761 55.1056 64.733 55.1131 64.704C54.4644 63.409 53.8483 62.2537 53.2486 61.2072C52.9323 61.7789 52.5927 62.4116 52.2245 63.1149C51.8495 63.8296 51.6915 64.1978 51.6419 64.321L51.5685 64.6008C51.6373 64.7376 51.7365 64.9268 51.8744 65.1725C51.916 65.2227 51.9798 65.2973 52.07 65.3965Z" fill="black"/>
<path d="M96.3019 75.5113C95.8448 75.5113 95.4655 75.1494 95.4481 74.6889C94.7366 55.9903 82.9136 40.7253 72.4826 27.2574C66.1735 19.1112 60.7247 12.0761 58.757 5.52884C58.6214 5.07682 58.8774 4.60031 59.3299 4.46402C59.7791 4.32846 60.2584 4.58438 60.3946 5.0369C62.2709 11.2804 67.6293 18.1987 73.8345 26.2103C83.8986 39.2046 96.4244 55.377 97.1568 74.6239C97.1744 75.0959 96.8068 75.4925 96.3349 75.5108L96.3019 75.5113Z" fill="black"/>
<path d="M101.327 67.0046C100.91 67.0046 100.545 66.699 100.482 66.2739C98.0691 49.7845 87.3958 36.0037 77.9793 23.8456C73.3487 17.8677 68.976 12.2215 66.301 7.04612C66.0845 6.62656 66.2487 6.11082 66.6686 5.89423C67.0858 5.67817 67.6033 5.84116 67.8205 6.2613C70.4232 11.2981 74.7498 16.8844 79.3306 22.7985C88.8766 35.1231 99.6959 49.0925 102.175 66.0259C102.243 66.4933 101.919 66.9276 101.452 66.996C101.41 67.0023 101.369 67.0046 101.327 67.0046Z" fill="black"/>
<path d="M101.791 47.4313C101.469 47.4313 101.161 47.2495 101.016 46.9394C96.4141 37.1393 89.5408 28.2648 83.4763 20.4345C80.8174 17.0016 78.3059 13.759 76.1281 10.6395C75.8585 10.2526 75.9531 9.71959 76.3408 9.44884C76.7272 9.1787 77.2606 9.2733 77.5309 9.66082C79.6843 12.7461 82.1831 15.9717 84.8276 19.3875C90.9463 27.2873 97.8818 36.2416 102.563 46.2127C102.765 46.6402 102.581 47.1492 102.154 47.3498C102.036 47.4051 101.913 47.4313 101.791 47.4313Z" fill="black"/>
<path d="M49.8764 101.649C49.4337 101.649 49.0592 101.307 49.025 100.859C48.9891 100.388 49.3414 99.977 49.8127 99.9411C66.0649 98.6968 77.9028 92.8974 84.0454 83.1691C88.6616 75.8597 88.481 68.8781 88.4786 68.8085C88.4626 68.3366 88.8319 67.941 89.3045 67.9251C89.7637 67.9137 90.1719 68.2785 90.1873 68.7504C90.1982 69.0565 90.3852 76.3322 85.4913 84.0821C77.3516 96.9727 61.6671 100.749 49.9426 101.646C49.9205 101.648 49.8989 101.649 49.8764 101.649Z" fill="black"/>
<path d="M42.2588 100.214C42.204 100.214 42.1487 100.208 42.094 100.197C27.1527 97.2788 17.7014 84.9719 14.0017 63.6172C12.8373 56.8967 12.0575 50.5056 11.3035 44.3242C10.6627 39.0713 10.0575 34.1097 9.24755 29.1167C9.17174 28.6505 9.48803 28.211 9.95421 28.1358C10.4182 28.0617 10.8601 28.3763 10.9353 28.8425C11.7508 33.8692 12.3585 38.8473 13.0015 44.1173C13.7526 50.2775 14.5295 56.647 15.686 63.326C19.2523 83.91 28.2477 95.7507 42.4211 98.5191C42.8845 98.6097 43.1868 99.0588 43.0965 99.5222C43.017 99.9298 42.6594 100.214 42.2588 100.214Z" fill="black"/>
<path d="M18.0653 52.7018C17.9182 52.7018 17.7695 52.6642 17.6333 52.5844C17.2264 52.3456 17.0896 51.8218 17.3285 51.4143C17.4578 51.1943 30.3073 29.2981 36.0806 21.5168C37.8139 19.1805 42.2739 12.941 46.2477 5.48121C46.47 5.06394 46.9876 4.9072 47.4042 5.12894C47.8208 5.35068 47.9786 5.86875 47.7571 6.28541C43.7296 13.8467 39.2097 20.1683 37.4542 22.5354C31.735 30.2437 18.9323 52.0601 18.8036 52.2795C18.6444 52.5508 18.3589 52.7018 18.0653 52.7018Z" fill="black"/>
<path d="M16.55 43.8565C16.4 43.8565 16.2484 43.8172 16.111 43.7346C15.7058 43.4912 15.574 42.9663 15.8176 42.5616C16.3447 41.6827 28.8009 20.9487 34.5822 13.6599C35.8846 12.0166 37.2731 9.97098 38.7083 7.57938C38.9517 7.17356 39.4776 7.04362 39.8813 7.28587C40.2866 7.52921 40.4177 8.05415 40.1741 8.45945C38.7009 10.9137 37.2708 13.0209 35.9216 14.7223C30.2094 21.9245 17.4123 43.2267 17.2834 43.4416C17.1232 43.7084 16.84 43.8565 16.55 43.8565Z" fill="black"/>
<path d="M14.275 33.9996C14.088 33.9996 13.8993 33.9387 13.7409 33.8121C13.3726 33.5175 13.3127 32.9794 13.6081 32.6106C13.7044 32.4904 23.3238 20.4462 30.6937 9.58593C30.9586 9.19604 31.4904 9.09289 31.8808 9.35852C32.2712 9.62353 32.3733 10.1553 32.1084 10.5463C24.7003 21.463 15.0399 33.5579 14.943 33.6787C14.7741 33.8896 14.5257 33.9996 14.275 33.9996Z" fill="black"/>
<path d="M83.5214 92.884C83.2745 92.884 83.029 92.7774 82.8602 92.5711C82.5609 92.2063 82.6132 91.6676 82.9784 91.3678C87.05 88.0255 89.9569 80.9544 90.2733 79.6908C90.3872 79.2325 90.8513 78.9538 91.3094 79.0689C91.7679 79.1835 92.0465 79.6474 91.932 80.1057C91.5239 81.7375 88.52 89.0309 84.0634 92.6896C83.9045 92.8201 83.7124 92.884 83.5214 92.884Z" fill="black"/>
</svg>
