<svg width="107" height="107" viewBox="0 0 107 107" fill="none" xmlns="http://www.w3.org/2000/svg">
<path d="M53.23 106.46C23.8787 106.46 0 82.5814 0 53.23C0 23.8787 23.8787 0 53.23 0C82.5813 0 106.46 23.8787 106.46 53.23C106.46 82.5814 82.5813 106.46 53.23 106.46ZM53.23 1.70612C24.8193 1.70612 1.70609 24.8193 1.70609 53.23C1.70609 81.6402 24.8193 104.754 53.23 104.754C81.6401 104.754 104.754 81.6402 104.754 53.23C104.754 24.8193 81.6401 1.70612 53.23 1.70612Z" fill="black"/>
<path d="M48.198 5.5144C47.7959 5.5144 47.4376 5.22891 47.3603 4.81888L47.2255 4.10231C47.1379 3.63938 47.4422 3.19354 47.9056 3.10597C48.3697 3.01785 48.815 3.32323 48.902 3.78609L49.0374 4.50324C49.1244 4.96619 48.8201 5.412 48.3566 5.49967C48.3037 5.50932 48.2503 5.5144 48.198 5.5144Z" fill="black"/>
<path d="M53.1765 99.7176C44.6619 99.7176 36.5647 96.9673 29.9427 91.7478C22.2248 85.6649 17.2373 76.9325 15.8986 67.1588C14.3517 55.8689 18.2905 45.4838 22.0991 35.4411L22.5883 34.1502C22.7071 33.8368 22.8641 33.5667 23.0631 33.2254C23.1644 33.052 23.2809 32.8524 23.4146 32.6078C23.5784 32.3092 23.9025 32.1346 24.2431 32.1682C24.5821 32.2001 24.8699 32.431 24.9745 32.7551C25.0996 33.1435 25.2151 33.491 25.3214 33.8129C25.5352 34.4573 25.715 35.0004 25.872 35.5497C26.4327 37.5106 26.99 39.4721 27.5479 41.4341C28.6996 45.4878 29.891 49.6797 31.0932 53.7926C31.4652 55.0659 31.9661 56.1328 32.5263 56.8846C32.2084 55.2411 31.8763 53.6003 31.5448 51.9591C30.9266 48.9029 30.2879 45.7432 29.7494 42.6136C28.5499 35.6379 29.8546 28.1856 33.4232 21.6296C37.0765 14.9172 42.7265 9.92231 49.3337 7.56442C50.7993 7.04123 52.0538 6.85641 53.4864 6.74039C53.7338 6.71932 53.9709 6.80693 54.1472 6.97644C54.3235 7.14644 54.4185 7.38358 54.4077 7.62815C54.3992 7.80902 54.3958 7.96994 54.3923 8.11832C54.3849 8.42943 54.3782 8.69787 54.3406 8.98282C54.0875 10.8913 54.1063 12.8266 54.3969 14.7358C54.468 15.2016 54.1479 15.6366 53.682 15.7071C53.2196 15.7805 52.7818 15.4586 52.7101 14.9922C52.3951 12.9239 52.3746 10.8265 52.6492 8.75874C52.6589 8.68767 52.6652 8.61368 52.6703 8.53521C51.7377 8.64726 50.8806 8.82354 49.907 9.17102C37.3466 13.6541 29.0584 28.5263 31.431 42.3241C31.965 45.4298 32.6014 48.577 33.2167 51.6207C33.5693 53.3638 33.9219 55.1074 34.258 56.8528C34.3837 57.5045 34.3501 58.2831 34.1682 58.9365C34.1011 59.1776 33.931 59.3767 33.7036 59.4819C33.476 59.5871 33.2144 59.5871 32.987 59.4813C30.9646 58.5424 29.9063 55.8138 29.4553 54.2709C28.2514 50.1523 27.0594 45.957 25.9066 41.8999C25.3493 39.9396 24.792 37.9787 24.2318 36.0189C24.159 35.7642 24.0811 35.5116 23.9964 35.2483L23.6944 36.0462C19.9614 45.8893 16.1011 56.068 17.5888 66.9273C18.8672 76.2609 23.6295 84.5998 30.9987 90.4079C38.641 96.4316 48.3505 99.0079 58.3443 97.6617C75.8706 95.301 89.1367 80.1519 89.2027 62.4226C89.2219 57.1599 88.299 51.6019 86.3796 45.4304C85.7443 43.3876 84.9931 41.3334 84.2635 39.3447C83.9211 42.9423 82.8735 46.4574 81.1362 49.831C78.9705 54.0354 75.994 57.6956 72.2889 60.7103C72.0318 60.9196 71.677 60.9616 71.3778 60.816C71.0798 60.6716 70.8921 60.3674 70.8973 60.0358C70.9092 59.2914 71.1498 58.6999 71.3437 58.2245C71.5393 57.7457 71.7514 57.2708 71.9641 56.7965C72.4112 55.7967 72.8337 54.8526 73.0987 53.8699C75.4969 44.9618 71.6075 35.7186 63.4199 30.8693C63.0031 30.6219 62.5925 30.3603 62.1989 30.0913C59.8212 28.4666 57.8046 26.4226 56.2048 24.017C55.9438 23.6246 56.0501 23.0952 56.4425 22.8341C56.8349 22.5725 57.3639 22.6794 57.6254 23.0724C59.1029 25.2943 60.966 27.1824 63.1618 28.6832C63.5251 28.9312 63.9045 29.1728 64.2901 29.4009C73.1436 34.6455 77.3457 44.657 74.7457 54.3141C74.4761 55.3156 74.0677 56.2676 73.6572 57.1895C76.0639 54.7998 78.0623 52.0722 79.6194 49.0496C81.7338 44.9447 82.762 40.6231 82.6768 36.2043C82.6683 35.7658 82.993 35.3928 83.428 35.3405L83.9023 35.2841C84.2988 35.2358 84.6735 35.4701 84.8078 35.8455C85.1398 36.7804 85.4816 37.7125 85.8234 38.6441C86.5735 40.688 87.3486 42.8013 88.009 44.9237C89.9806 51.2636 90.9292 56.9898 90.9087 62.4289C90.8394 81.005 76.938 96.8792 58.5723 99.3531C56.7621 99.5971 54.9599 99.7176 53.1765 99.7176Z" fill="black"/>
<path d="M71.7494 65.7391C70.8946 65.7391 70.0364 65.5417 69.267 65.1687C67.2862 64.2075 66.0276 62.1636 66.0612 59.9621C66.0868 58.3079 66.5935 57.0652 66.8659 56.3981C67.0815 55.8698 67.3146 55.346 67.5483 54.8234C67.9157 54.0028 68.2626 53.2282 68.4281 52.614C68.5504 52.159 69.0173 51.8889 69.4734 52.0123C69.929 52.1346 70.198 52.6027 70.0757 53.0575C69.8755 53.802 69.5018 54.6368 69.106 55.5206C68.8797 56.0256 68.6539 56.5318 68.4458 57.0425C68.1836 57.6845 67.7878 58.6547 67.7673 59.9884C67.7434 61.5301 68.6249 62.9604 70.012 63.6332C71.3808 64.2974 73.0853 64.0978 74.2642 63.1389C74.6298 62.8415 75.1667 62.8967 75.4641 63.2624C75.7616 63.6274 75.7064 64.1649 75.3413 64.4623C74.329 65.2853 73.0534 65.7391 71.7494 65.7391Z" fill="black"/>
<path d="M37.4026 68.3444C37.0802 68.3444 36.7714 68.1608 36.6276 67.8491C36.4302 67.4214 36.6167 66.9142 37.0444 66.7168C39.3994 65.6289 41.1493 63.5713 41.8442 61.0713C42.3544 59.2361 42.4385 57.2041 42.0814 55.3496C41.7402 53.5786 41.383 51.8122 41.0264 50.0459C40.9332 49.5841 41.2318 49.1342 41.6935 49.041C42.1559 48.946 42.6057 49.2468 42.6984 49.7086C43.0567 51.4796 43.4144 53.2511 43.7568 55.0266C44.1623 57.1353 44.0673 59.4442 43.4878 61.5285C42.6586 64.512 40.5709 66.9676 37.7598 68.2654C37.6438 68.3194 37.5221 68.3444 37.4026 68.3444Z" fill="black"/>
<path d="M29.598 76.3805C29.2994 76.3805 29.0099 76.2241 28.8535 75.9454C27.1093 72.842 25.9754 69.444 25.4823 65.8464L25.4601 65.6792C25.4152 65.3289 25.5898 64.9876 25.9002 64.8193C26.2102 64.6516 26.5918 64.6926 26.8602 64.9211C27.7088 65.6457 28.642 66.2474 29.6338 66.708C30.7905 67.2437 32.0747 67.5275 33.3475 67.5275C33.8189 67.5275 34.2005 67.9091 34.2005 68.3805C34.2005 68.852 33.8189 69.2336 33.3475 69.2336C31.8284 69.2336 30.2958 68.8952 28.9156 68.2554C28.4288 68.0291 27.9544 67.7737 27.4955 67.4905C28.0551 70.1833 29.0083 72.7386 30.3407 75.1094C30.5716 75.5201 30.4255 76.0404 30.0148 76.2713C29.8829 76.3452 29.739 76.3805 29.598 76.3805Z" fill="black"/>
<path d="M29.2435 27.3074C29.0098 27.3074 28.7778 27.2118 28.6088 27.0253L19.5256 16.9366C19.2105 16.5868 19.2389 16.0471 19.5887 15.732C19.939 15.4164 20.4775 15.4448 20.7938 15.7952L29.8771 25.8834C30.1921 26.2337 30.1637 26.7728 29.814 27.0884C29.6507 27.2352 29.4466 27.3074 29.2435 27.3074Z" fill="black"/>
<path d="M102.653 53.9473H92.2832C91.8118 53.9473 91.4302 53.5657 91.4302 53.0943C91.4302 52.6228 91.8118 52.2412 92.2832 52.2412H102.653C103.124 52.2412 103.506 52.6228 103.506 53.0943C103.506 53.5657 103.124 53.9473 102.653 53.9473Z" fill="black"/>
<path d="M92.235 49.7896C91.8017 49.7896 91.4308 49.4608 91.3871 49.0206C91.3404 48.5515 91.6828 48.1335 92.152 48.0874L102.297 47.0808C102.765 47.0381 103.184 47.3766 103.23 47.8457C103.276 48.3143 102.935 48.7324 102.465 48.779L92.3203 49.785C92.2913 49.7878 92.2629 49.7896 92.235 49.7896Z" fill="black"/>
<path d="M91.2311 45.8698C90.8364 45.8698 90.4827 45.5952 90.3974 45.1937C90.299 44.733 90.5936 44.2803 91.0542 44.1819L101.395 41.9839C101.86 41.885 102.309 42.1807 102.407 42.6413C102.505 43.102 102.211 43.5552 101.75 43.653L91.4091 45.8511C91.3494 45.8635 91.2897 45.8698 91.2311 45.8698Z" fill="black"/>
<path d="M90.3134 41.9C89.954 41.9 89.6196 41.6708 89.5025 41.3097C89.3568 40.8622 89.6019 40.381 90.0501 40.2349L99.9694 37.012C100.416 36.8681 100.899 37.1121 101.044 37.5602C101.19 38.0078 100.945 38.4895 100.497 38.6351L90.5773 41.8579C90.4897 41.8864 90.401 41.9 90.3134 41.9Z" fill="black"/>
<path d="M88.8991 38.0685C88.5721 38.0685 88.2605 37.8803 88.1194 37.5624C87.9277 37.1319 88.1212 36.628 88.5516 36.4364L98.0331 32.2148C98.4641 32.0227 98.968 32.2166 99.1591 32.6471C99.3507 33.077 99.1574 33.5815 98.7268 33.7731L89.2454 37.9946C89.1328 38.0447 89.0151 38.0685 88.8991 38.0685Z" fill="black"/>
<path d="M87.6164 34.0947C87.3213 34.0947 87.0347 33.9417 86.8765 33.6676C86.6411 33.2598 86.781 32.7383 87.1887 32.5029L95.6044 27.6439C96.0133 27.4078 96.5343 27.5483 96.7697 27.9561C97.0051 28.3639 96.8652 28.8859 96.4575 29.1213L88.0418 33.9798C87.9076 34.0577 87.7609 34.0947 87.6164 34.0947Z" fill="black"/>
<path d="M43.3932 7.67697C42.9991 7.67697 42.6448 7.40231 42.5601 7.00135L42.1194 4.92896C42.0215 4.46777 42.3155 4.01505 42.7762 3.91676C43.2368 3.81719 43.6901 4.11291 43.7885 4.5741L44.2287 6.64649C44.3265 7.10713 44.0325 7.56041 43.5719 7.65821C43.5115 7.67075 43.4524 7.67697 43.3932 7.67697Z" fill="black"/>
<path d="M39.323 11.1488C38.963 11.1488 38.6286 10.9197 38.5115 10.5591L37.146 6.3564C37.0004 5.90824 37.2455 5.42714 37.6937 5.28098C38.1418 5.13595 38.6235 5.38107 38.7691 5.82919L40.1345 10.0319C40.2801 10.4801 40.035 10.9612 39.5869 11.1073C39.4993 11.1352 39.41 11.1488 39.323 11.1488Z" fill="black"/>
<path d="M53.1392 94.8853C36.5899 94.8853 22.9434 82.9488 20.6902 66.5031C19.9269 60.9315 20.5667 55.2336 22.7648 48.0287C22.8745 47.6699 23.2061 47.4248 23.5809 47.4248H23.5883C23.9665 47.4282 24.2975 47.6802 24.401 48.0435C25.0766 50.4087 25.7613 52.7905 26.4511 55.1495C27.1837 57.6563 28.6839 60.9343 31.6701 62.3214C32.7257 62.8111 33.9597 62.8122 35.0164 62.3243C36.0804 61.8329 36.8709 60.9036 37.1843 59.7747C37.4987 58.6453 37.5511 57.3975 37.3322 56.2607C37.2434 55.7984 37.5465 55.3514 38.0089 55.2621C38.4729 55.1733 38.9188 55.4765 39.0075 55.9388C39.2754 57.3287 39.2111 58.8534 38.8284 60.2314C38.3797 61.8442 37.2514 63.1716 35.7318 63.8733C34.223 64.5701 32.4612 64.5689 30.9518 63.8688C27.385 62.2128 25.6453 58.4736 24.8133 55.6283C24.4026 54.2219 23.9932 52.807 23.586 51.392C22.125 57.0285 21.7553 61.7078 22.3809 66.2716C24.5164 81.8632 37.4527 93.1792 53.1392 93.1792C54.6406 93.1792 56.1744 93.0752 57.6997 92.8698C72.8454 90.8293 84.3098 77.7326 84.3667 62.4061C84.3781 59.3397 84.0368 56.1999 83.3226 52.807C83.2253 52.3464 83.5205 51.8937 83.9817 51.7964C84.4412 51.6992 84.8945 51.9949 84.9917 52.4555C85.7316 55.9673 86.0847 59.2242 86.0728 62.4124C86.0125 78.5863 73.9128 92.4075 57.9271 94.5606C56.3274 94.7767 54.7163 94.8853 53.1392 94.8853Z" fill="black"/>
<path d="M71.75 70.5743C70.1684 70.5743 68.5806 70.2098 67.1577 69.5193C63.4919 67.7421 61.1636 63.9614 61.2261 59.8872C61.266 57.3241 62.024 55.465 62.3886 54.571C62.6246 53.9926 62.8788 53.4188 63.1353 52.8461C63.3457 52.3758 63.6937 51.6001 63.7586 51.3567C65.0148 46.6905 62.8987 41.8019 58.4924 39.1921C57.9004 38.8418 57.3112 38.4665 56.7414 38.0769C51.7658 34.6761 47.7604 29.7443 45.3479 24.0817C41.656 28.7491 39.984 34.9872 40.9638 40.6849C41.044 41.1496 40.7323 41.5909 40.2677 41.6706C39.8048 41.749 39.3624 41.4385 39.2822 40.9744C38.1397 34.328 40.3235 27.01 44.9823 21.8769C45.1819 21.6562 45.4839 21.5561 45.7745 21.6118C46.0668 21.6681 46.3085 21.8723 46.4126 22.1504C48.6191 28.0438 52.6291 33.1997 57.7036 36.6682C58.2439 37.0373 58.8017 37.3927 59.3614 37.7243C64.4347 40.7287 66.8637 46.3857 65.4061 51.8002C65.3129 52.1472 65.0529 52.7386 64.6953 53.5365C64.4439 54.099 64.197 54.6551 63.9684 55.2148C63.6432 56.0121 62.967 57.671 62.9323 59.9134C62.8799 63.3268 64.8306 66.495 67.9022 67.9845C69.0947 68.5628 70.4255 68.8682 71.75 68.8682C72.2209 68.8682 72.6031 69.2503 72.6031 69.7213C72.6031 70.1927 72.2209 70.5743 71.75 70.5743Z" fill="black"/>
<path d="M53.1388 90.0493C47.8004 90.0493 42.6354 88.5741 38.203 85.7835C37.8043 85.5321 37.6843 85.0055 37.9357 84.6068C38.1871 84.2082 38.7125 84.0888 39.1123 84.3395C44.3382 87.6301 50.6229 88.9432 57.0532 88.0765C67.9626 86.607 76.67 78.4006 78.9505 67.7522C78.7657 67.9075 78.5797 68.061 78.3932 68.2134C78.027 68.5103 77.4907 68.4546 77.1932 68.09C76.8958 67.7243 76.9509 67.1869 77.3166 66.8895C78.1003 66.252 78.8703 65.5792 79.6057 64.8899C79.8673 64.6448 80.2551 64.5891 80.5747 64.7511C80.8949 64.9132 81.0792 65.2585 81.036 65.615C79.5158 78.156 69.7472 88.0884 57.2813 89.7673C55.8942 89.9544 54.5003 90.0493 53.1388 90.0493Z" fill="black"/>
<path d="M53.1387 85.2136C44.7099 85.2136 37.2224 80.883 33.1079 73.6298C32.9611 73.3699 32.9599 73.0519 33.1056 72.7915C33.2512 72.5316 33.5224 72.3661 33.821 72.3559C35.6425 72.2939 37.4084 71.8736 39.0707 71.1064C42.7178 69.4225 45.4271 66.2361 46.503 62.3649C47.2094 59.8245 47.3249 57.0077 46.8295 54.4338C46.4854 52.6475 46.1261 50.8669 45.766 49.0869C45.1683 46.1318 44.5513 43.0796 44.0479 40.1554C43.6106 37.6093 43.8125 34.8408 44.6315 32.1492C44.7685 31.6987 45.244 31.444 45.6955 31.581C46.1465 31.7187 46.4007 32.1952 46.2636 32.6456C45.5215 35.0842 45.3367 37.5809 45.7297 39.8659C46.2284 42.7657 46.8431 45.8054 47.4375 48.745C47.7991 50.5342 48.1597 52.3199 48.5048 54.1108C49.0492 56.9389 48.9223 60.0321 48.1471 62.8221C46.9364 67.1767 43.8888 70.7606 39.7856 72.6556C38.3507 73.3175 36.8465 73.7504 35.2979 73.9471C39.2202 79.9583 45.7934 83.5076 53.1387 83.5076C54.2078 83.5076 55.3077 83.4325 56.4082 83.2846C61.8785 82.5476 66.8319 79.6774 70.2145 75.3331C68.4255 75.1516 66.6636 74.6552 65.0473 73.8715C59.697 71.277 56.2989 65.7589 56.39 59.8125C56.444 56.3395 57.4722 53.819 57.9106 52.743C58.1672 52.1157 58.4423 51.4925 58.7239 50.8634C58.828 50.6309 59.0276 50.1873 59.1294 49.9382C59.7197 47.4456 58.4788 44.8056 56.0277 43.3537C55.3436 42.9489 54.6656 42.5166 54.0116 42.0702C53.6232 41.8046 53.5231 41.2734 53.7893 40.8844C54.0549 40.496 54.5854 40.3954 54.975 40.6615C55.5978 41.0875 56.2449 41.4992 56.8967 41.8859C60.02 43.7359 61.5771 47.1595 60.7718 50.4057C60.7622 50.4432 60.7502 50.4796 60.736 50.5154C60.637 50.7651 60.401 51.2934 60.2811 51.5607C60.0075 52.172 59.7396 52.7777 59.4905 53.3874C59.0879 54.3746 58.145 56.6869 58.0961 59.8387C58.0147 65.1242 61.0357 70.0298 65.7918 72.3365C67.6383 73.2317 69.6982 73.7048 71.7495 73.7048H71.8257C72.1407 73.7048 72.4296 73.8783 72.5781 74.1558C72.7265 74.4339 72.71 74.77 72.5349 75.0322C68.8946 80.4798 63.0995 84.1041 56.6356 84.9754C55.4601 85.1335 54.2835 85.2136 53.1387 85.2136Z" fill="black"/>
<path d="M60.0891 21.6818C60.0299 21.6818 59.9708 21.6756 59.9105 21.6631C59.4499 21.5653 59.1558 21.112 59.2536 20.6514L62.671 4.5741C62.7688 4.11291 63.2204 3.81719 63.6827 3.91676C64.1433 4.01505 64.4379 4.46777 64.3396 4.92896L60.9228 21.0062C60.8375 21.4072 60.4831 21.6818 60.0891 21.6818Z" fill="black"/>
<path d="M57.1795 16.3848C57.1494 16.3848 57.1198 16.3836 57.0891 16.3802C56.621 16.3313 56.281 15.911 56.3299 15.443L57.548 3.85454C57.5975 3.38589 58.0218 3.04757 58.4852 3.09531C58.9538 3.14476 59.294 3.56448 59.2445 4.03313L58.0269 15.621C57.9808 16.0595 57.6106 16.3848 57.1795 16.3848Z" fill="black"/>
<path d="M24.1793 93.9319C24.0076 93.9319 23.8347 93.8801 23.6846 93.7727C23.3007 93.4986 23.2125 92.9657 23.4861 92.5829L25.149 90.2564C25.4225 89.8737 25.9554 89.7843 26.3393 90.0585C26.7226 90.3326 26.8113 90.8654 26.5372 91.2482L24.8743 93.5747C24.7077 93.8074 24.4455 93.9319 24.1793 93.9319Z" fill="black"/>
<path d="M28.5179 96.7479C28.3762 96.7479 28.2318 96.7126 28.0993 96.6375C27.6893 96.4061 27.5443 95.8857 27.7757 95.4757L28.8824 93.5154C29.1139 93.1053 29.6342 92.9592 30.0448 93.1918C30.4548 93.4232 30.5999 93.9436 30.3684 94.3536L29.2618 96.314C29.1048 96.5915 28.8159 96.7479 28.5179 96.7479Z" fill="black"/>
<path d="M33.1268 99.097C33.0107 99.097 32.893 99.0731 32.7804 99.0231C32.3499 98.832 32.1565 98.3281 32.3476 97.897L32.9738 96.4884C33.1654 96.0579 33.6687 95.8657 34.0998 96.0556C34.5303 96.2467 34.7242 96.7506 34.5325 97.1816L33.9064 98.5903C33.7654 98.9082 33.4532 99.097 33.1268 99.097Z" fill="black"/>
<path d="M37.9575 100.953C37.8704 100.953 37.7829 100.94 37.6953 100.911C37.2471 100.767 37.0009 100.286 37.1453 99.8375L37.6384 98.3083C37.7834 97.8596 38.2629 97.6134 38.7121 97.7584C39.1608 97.9028 39.4071 98.3834 39.2626 98.8321L38.7696 100.361C38.6524 100.722 38.318 100.953 37.9575 100.953Z" fill="black"/>
<path d="M42.9548 102.291C42.8985 102.291 42.8417 102.285 42.7842 102.274C42.3224 102.18 42.0244 101.73 42.1177 101.268L42.3418 100.165C42.4361 99.7033 42.8888 99.4087 43.3478 99.4985C43.8096 99.5924 44.1076 100.043 44.0143 100.505L43.7902 101.607C43.7078 102.012 43.3524 102.291 42.9548 102.291Z" fill="black"/>
<path d="M48.0639 103.1C48.0441 103.1 48.0236 103.1 48.0031 103.098C47.5334 103.065 47.1791 102.657 47.2127 102.187L47.307 100.842C47.3406 100.372 47.7426 100.01 48.2181 100.051C48.6878 100.085 49.0422 100.492 49.0086 100.962L48.9142 102.307C48.8823 102.757 48.5081 103.1 48.0639 103.1Z" fill="black"/>
<path d="M53.2285 103.371C52.7809 103.371 52.4055 103.023 52.3783 102.57L52.3185 101.585C52.2895 101.114 52.6479 100.71 53.1181 100.682C53.5834 100.651 53.9934 101.011 54.0212 101.481L54.0809 102.467C54.1094 102.937 53.7511 103.341 53.2814 103.37C53.2637 103.371 53.2461 103.371 53.2285 103.371Z" fill="black"/>
<path d="M58.3945 103.1C57.9567 103.1 57.5836 102.765 57.5455 102.32L57.4573 101.29C57.4169 100.821 57.765 100.407 58.2347 100.367C58.7078 100.329 59.1168 100.675 59.1571 101.145L59.2453 102.174C59.2857 102.644 58.9376 103.057 58.4685 103.097C58.4434 103.099 58.4189 103.1 58.3945 103.1Z" fill="black"/>
<path d="M63.5047 102.29C63.0993 102.29 62.7399 102 62.6665 101.587L62.3855 100.011C62.3025 99.547 62.6119 99.104 63.0754 99.0216C63.5377 98.9374 63.9825 99.2479 64.0649 99.7114L64.3459 101.288C64.4283 101.752 64.1195 102.195 63.6554 102.277C63.6049 102.287 63.5548 102.29 63.5047 102.29Z" fill="black"/>
<path d="M28.4833 31.6652C28.2797 31.6652 28.0755 31.5929 27.9123 31.4462L15.932 20.6585C15.5822 20.3434 15.5537 19.8043 15.8689 19.4539C16.1845 19.1042 16.7237 19.0757 17.0739 19.3908L29.0542 30.1785C29.404 30.4936 29.4324 31.0333 29.1173 31.383C28.9485 31.5701 28.7164 31.6652 28.4833 31.6652Z" fill="black"/>
<path d="M19.0293 38.7219C18.9133 38.7219 18.7956 38.698 18.683 38.6479L7.7338 33.773C7.30331 33.5814 7.10989 33.0769 7.30154 32.647C7.49325 32.217 7.99768 32.0226 8.42756 32.2148L19.3762 37.0897C19.8068 37.2807 20.0007 37.7852 19.809 38.2158C19.6674 38.5331 19.3558 38.7219 19.0293 38.7219Z" fill="black"/>
<path d="M37.4004 53.0716C37.0028 53.0716 36.6468 52.7924 36.5655 52.3875L36.2851 51.001C35.6749 47.9834 35.0436 44.863 34.516 41.7925C32.5988 30.6454 38.4809 18.408 48.1983 13.3279C48.4497 13.1959 48.7499 13.1982 48.9996 13.3336C49.2493 13.4689 49.4153 13.7197 49.4427 14.0018C50.1609 21.4819 54.2698 28.4622 60.4323 32.6745C60.8872 32.985 61.3553 33.283 61.8244 33.5606C62.2299 33.8012 62.3641 34.3243 62.1242 34.7299C61.8842 35.1353 61.3609 35.2684 60.9554 35.029C60.4545 34.7327 59.9546 34.4142 59.47 34.0827C53.249 29.831 48.99 22.9372 47.8997 15.4508C39.4647 20.5208 34.4733 31.4786 36.1976 41.5037C36.7207 44.5491 37.3498 47.657 37.9577 50.6632L38.2375 52.0497C38.3308 52.5115 38.0322 52.9613 37.5704 53.0546C37.5135 53.0665 37.4561 53.0716 37.4004 53.0716Z" fill="black"/>
<path d="M53.1392 80.376C48.9308 80.376 45.0135 79.0367 41.8112 76.5036C41.5848 76.3245 41.4643 76.043 41.491 75.7553C41.5177 75.4675 41.6883 75.2133 41.9442 75.0791C46.4415 72.719 49.8014 68.5566 51.1629 63.659C51.3529 62.9765 51.5121 62.2656 51.6361 61.5456C51.7089 61.1231 52.0831 60.8137 52.513 60.8388C52.9413 60.8563 53.2899 61.1902 53.3268 61.6174C53.8597 67.8014 57.4221 73.2751 62.8566 76.2597C63.1233 76.4064 63.2916 76.6845 63.2985 76.9888C63.3053 77.293 63.1489 77.5779 62.889 77.7366C60.7655 79.0276 58.4446 79.8505 55.9901 80.1809C55.0261 80.3106 54.0673 80.376 53.1392 80.376ZM43.9091 75.923C47.2787 78.1791 51.3568 79.081 55.7626 78.4901C57.5022 78.2559 59.1691 77.7474 60.7336 76.9757C56.6265 74.3039 53.6618 70.2593 52.3316 65.5988C50.7739 69.8794 47.7905 73.5385 43.9091 75.923ZM52.7689 56.9579C52.7525 56.9579 52.736 56.9574 52.7195 56.9568C52.2895 56.9318 51.9455 56.5905 51.917 56.1611C51.8579 55.2632 51.7442 54.3738 51.5792 53.5184C51.2317 51.7167 50.8694 49.9219 50.5072 48.1277L50.489 48.0402C50.2689 46.9493 50.0454 45.8455 49.827 44.7427C49.7594 44.3975 49.9095 44.0455 50.2064 43.8567C50.5032 43.6679 50.8854 43.681 51.1692 43.8897C51.5235 44.1496 51.8823 44.4044 52.2458 44.6523C52.9543 45.1369 53.6896 45.6055 54.4324 46.0457C55.5578 46.7116 56.2119 47.7847 56.1396 48.8454C56.1334 48.9444 56.1089 49.0416 56.0691 49.132L55.8678 49.5819C55.5715 50.2438 55.2826 50.899 55.013 51.5587C54.6917 52.348 54.0212 53.991 53.6072 56.2584C53.5327 56.665 53.1778 56.9579 52.7689 56.9579ZM51.9159 46.4847C51.9977 46.8919 52.0796 47.298 52.1616 47.7023L52.1792 47.7893C52.4612 49.1843 52.7428 50.5788 53.0175 51.9772C53.1796 51.5365 53.3251 51.1799 53.4337 50.9144C53.7101 50.237 54.0064 49.5642 54.3107 48.8847L54.4341 48.6088C54.396 48.2818 54.1264 47.8467 53.5629 47.5135C53.0072 47.1842 52.4556 46.8396 51.9159 46.4847Z" fill="black"/>
<path d="M77.4601 46.0743C77.1002 46.0743 76.7664 45.8451 76.6487 45.4851C76.5036 45.0369 76.7487 44.5553 77.1963 44.4097L79.0924 43.7938C79.5411 43.6488 80.0222 43.8927 80.1672 44.3409C80.3128 44.7895 80.0677 45.2707 79.6201 45.4163L77.724 46.0328C77.6365 46.0606 77.5478 46.0743 77.4601 46.0743Z" fill="black"/>
<path d="M77.6135 43.0911C77.2865 43.0911 76.9749 42.9023 76.8338 42.585C76.6421 42.1544 76.8355 41.6506 77.266 41.459L80.1545 40.1725C80.5861 39.9809 81.0899 40.1748 81.2805 40.6053C81.4721 41.0353 81.2788 41.5397 80.8482 41.7313L77.9599 43.0172C77.8466 43.0672 77.729 43.0911 77.6135 43.0911Z" fill="black"/>
<path d="M76.8629 40.3026C76.5683 40.3026 76.2817 40.1497 76.1236 39.8755C75.8882 39.4678 76.028 38.9463 76.4359 38.7109L80.9866 36.0835C81.3955 35.8474 81.9164 35.9874 82.1519 36.3956C82.3873 36.8034 82.2474 37.3255 81.8396 37.5609L77.2889 40.1877C77.1547 40.2657 77.008 40.3026 76.8629 40.3026Z" fill="black"/>
<path d="M76.0803 37.3467C75.8171 37.3467 75.5566 37.2251 75.3899 36.9953C75.1124 36.6142 75.1972 36.0808 75.5782 35.8038L92.712 23.3555C93.0942 23.0786 93.6271 23.1627 93.9034 23.5437C94.181 23.9253 94.0963 24.4588 93.7152 24.7352L76.5813 37.1841C76.4295 37.2939 76.2544 37.3467 76.0803 37.3467Z" fill="black"/>
<path d="M74.582 34.7221C74.3489 34.7221 74.1162 34.6272 73.9479 34.44C73.6328 34.0903 73.6613 33.5506 74.011 33.2355L89.3865 19.391C89.7374 19.0754 90.2759 19.1044 90.5916 19.4541C90.9066 19.8045 90.8782 20.3436 90.5285 20.6587L75.153 34.5032C74.9892 34.6499 74.7856 34.7221 74.582 34.7221Z" fill="black"/>
<path d="M72.5087 32.537C72.3057 32.537 72.1015 32.4648 71.9383 32.3181C71.5885 32.003 71.5601 31.4634 71.8752 31.113L85.6662 15.7967C85.9818 15.4469 86.5203 15.4185 86.8713 15.7336C87.221 16.0487 87.2495 16.5883 86.9344 16.9381L73.1428 32.2549C72.9745 32.442 72.7419 32.537 72.5087 32.537Z" fill="black"/>
<path d="M70.2882 30.4678C70.1142 30.4678 69.939 30.415 69.7877 30.3052C69.4067 30.0283 69.322 29.4948 69.599 29.1138L81.5895 12.6095C81.8659 12.2284 82.3993 12.1437 82.7815 12.4212C83.1625 12.6976 83.2467 13.2311 82.9697 13.6126L70.9792 30.1164C70.812 30.3461 70.5521 30.4678 70.2882 30.4678Z" fill="black"/>
<path d="M68.003 28.3589C67.8579 28.3589 67.7117 28.322 67.577 28.244C67.1692 28.0086 67.0292 27.4871 67.2647 27.0788L77.2022 9.86701C77.4382 9.45923 77.9592 9.31931 78.3675 9.55475C78.7753 9.79018 78.9152 10.3123 78.6797 10.72L68.7422 27.9318C68.5841 28.2054 68.2975 28.3589 68.003 28.3589Z" fill="black"/>
<path d="M65.483 26.4248C65.3675 26.4248 65.2493 26.401 65.1366 26.3509C64.7061 26.1593 64.5127 25.6548 64.7044 25.2243L72.5525 7.59794C72.7441 7.16799 73.2469 6.97406 73.6785 7.16574C74.109 7.35736 74.3024 7.86123 74.1107 8.29179L66.2627 25.9187C66.1216 26.236 65.81 26.4248 65.483 26.4248Z" fill="black"/>
<path d="M62.8126 24.4571C62.7255 24.4571 62.6362 24.4434 62.5486 24.4149C62.1005 24.2694 61.8554 23.7882 62.001 23.3401L67.6909 5.82919C67.8364 5.38107 68.3193 5.13595 68.7657 5.28098C69.2139 5.42714 69.4589 5.90824 69.3134 6.3564L63.6241 23.8673C63.5069 24.2278 63.1725 24.4571 62.8126 24.4571Z" fill="black"/>
<path d="M35.8133 14.8295C35.4863 14.8295 35.1746 14.6413 35.0336 14.3234L32.3476 8.29179C32.1565 7.86123 32.3499 7.35736 32.7799 7.16574C33.2115 6.97406 33.7148 7.16799 33.9064 7.59794L36.5918 13.6296C36.7835 14.0596 36.5896 14.564 36.1597 14.7556C36.0471 14.8057 35.9288 14.8295 35.8133 14.8295Z" fill="black"/>
<path d="M33.1551 19.1761C32.8605 19.1761 32.5738 19.0225 32.4157 18.7489L27.7802 10.72C27.5442 10.3123 27.6841 9.79018 28.0924 9.55475C28.5007 9.31931 29.0223 9.45923 29.2571 9.86701L33.8933 17.8959C34.1286 18.3037 33.9888 18.8258 33.581 19.0612C33.4468 19.1392 33.3001 19.1761 33.1551 19.1761Z" fill="black"/>
<path d="M30.737 22.9893C30.4738 22.9893 30.2133 22.8675 30.0467 22.6378L23.4901 13.6141C23.2131 13.2326 23.2978 12.6991 23.6788 12.4227C24.0605 12.1458 24.594 12.2305 24.8703 12.611L31.4263 21.6346C31.7039 22.0162 31.6191 22.5496 31.2381 22.8266C31.0862 22.9363 30.9111 22.9893 30.737 22.9893Z" fill="black"/>
<path d="M22.0881 31.3221C21.9141 31.3221 21.7388 31.2692 21.5876 31.1588L12.7438 24.7336C12.3627 24.4573 12.2779 23.9238 12.5555 23.5422C12.8324 23.1606 13.3647 23.0764 13.7469 23.354L22.5902 29.7786C22.9712 30.0556 23.056 30.589 22.7791 30.9706C22.6119 31.2003 22.352 31.3221 22.0881 31.3221Z" fill="black"/>
<path d="M20.5294 35.0677C20.3844 35.0677 20.2382 35.0307 20.1034 34.9534L10.0021 29.1213C9.59379 28.8859 9.4539 28.3639 9.68988 27.9561C9.92477 27.5483 10.4474 27.4078 10.8552 27.6439L20.9564 33.4759C21.3648 33.7114 21.5047 34.2334 21.2687 34.6412C21.1111 34.9147 20.824 35.0677 20.5294 35.0677Z" fill="black"/>
<path d="M18.0414 42.5159C17.9538 42.5159 17.8651 42.5022 17.7775 42.4738L5.96272 38.6351C5.5145 38.4895 5.26944 38.0078 5.41505 37.5602C5.5606 37.1121 6.04286 36.8681 6.48986 37.012L18.3047 40.8513C18.7529 40.9969 18.998 41.478 18.853 41.9261C18.7352 42.2867 18.4014 42.5159 18.0414 42.5159Z" fill="black"/>
<path d="M16.726 46.1884C16.6674 46.1884 16.6077 46.1821 16.548 46.169L4.71042 43.6531C4.24978 43.5552 3.95521 43.1021 4.05362 42.6413C4.15143 42.1801 4.60184 41.8849 5.06534 41.984L16.9029 44.5005C17.3635 44.5983 17.6575 45.0515 17.5597 45.5122C17.4744 45.9131 17.1207 46.1884 16.726 46.1884Z" fill="black"/>
<path d="M15.6652 49.9993C15.6351 49.9993 15.6049 49.9982 15.5748 49.9947L3.98802 48.7772C3.52001 48.7277 3.17995 48.308 3.22879 47.8394C3.2783 47.3708 3.70374 47.0295 4.16669 47.0802L15.7528 48.2983C16.2214 48.3472 16.5615 48.7669 16.512 49.2356C16.4659 49.6734 16.0957 49.9993 15.6652 49.9993Z" fill="black"/>
<path d="M3.80766 53.9481C3.33673 53.9481 2.95459 53.5664 2.95459 53.0956C2.95398 52.6247 3.33557 52.2425 3.80705 52.2419L14.5271 52.2334C14.998 52.2334 15.3802 52.615 15.3807 53.0859C15.3807 53.5568 14.9991 53.9389 14.5282 53.9395L3.80766 53.9481Z" fill="black"/>
<path d="M4.07745 59.1141C3.64744 59.1141 3.27779 58.7899 3.23059 58.3525C3.17998 57.8839 3.51895 57.4636 3.98702 57.413L13.6794 56.3672C14.1435 56.3172 14.5683 56.6556 14.6188 57.1242C14.6695 57.5922 14.3306 58.013 13.8625 58.0636L4.17008 59.1089C4.1389 59.1123 4.10808 59.1141 4.07745 59.1141Z" fill="black"/>
<path d="M4.88594 64.2237C4.49351 64.2237 4.14035 63.9507 4.05333 63.552C3.95333 63.0914 4.24504 62.637 4.70562 62.5369L13.4313 60.6369C13.8908 60.5368 14.3464 60.8279 14.4464 61.2886C14.5465 61.7493 14.2548 62.2036 13.7941 62.3037L5.06851 64.2038C5.00707 64.2174 4.94623 64.2237 4.88594 64.2237Z" fill="black"/>
<path d="M6.22604 69.2194C5.86723 69.2194 5.53283 68.9908 5.41566 68.6308C5.26889 68.1826 5.51346 67.7016 5.96162 67.5554L13.4741 65.1032C13.9217 64.9564 14.404 65.2009 14.5501 65.6491C14.6964 66.0972 14.4517 66.5789 14.0036 66.7245L6.49107 69.1768C6.40289 69.2057 6.31362 69.2194 6.22604 69.2194Z" fill="black"/>
<path d="M8.07985 74.0508C7.75569 74.0508 7.44632 73.8654 7.30296 73.5515C7.1079 73.1227 7.29669 72.6165 7.72554 72.4215L13.6054 69.7418C14.0341 69.545 14.5397 69.7349 14.7354 70.1638C14.9304 70.5926 14.7417 71.0987 14.3128 71.2937L8.433 73.9741C8.3187 74.0263 8.19812 74.0508 8.07985 74.0508Z" fill="black"/>
<path d="M10.4294 78.6585C10.133 78.6585 9.84472 78.5039 9.68724 78.228C9.45399 77.8186 9.59674 77.2977 10.0057 77.0644L15.2707 74.0617C15.6796 73.828 16.2006 73.9701 16.4343 74.3802C16.6675 74.7897 16.5253 75.3106 16.1158 75.5438L10.8514 78.546C10.7177 78.6222 10.5726 78.6585 10.4294 78.6585Z" fill="black"/>
<path d="M13.2458 82.997C12.9848 82.997 12.7266 82.8776 12.5594 82.6512C12.2791 82.2725 12.3593 81.7379 12.738 81.4581L16.8241 78.4349C17.2023 78.155 17.7369 78.2341 18.0172 78.6135C18.2977 78.9922 18.2174 79.5268 17.8387 79.8065L13.7525 82.8298C13.6001 82.9424 13.4221 82.997 13.2458 82.997Z" fill="black"/>
<path d="M16.5017 87.0183C16.268 87.0183 16.0354 86.9228 15.8671 86.7351C15.552 86.3848 15.581 85.8456 15.9313 85.5306L19.0001 82.7741C19.3509 82.459 19.89 82.4886 20.2045 82.8383C20.5196 83.1892 20.4906 83.7284 20.1403 84.0434L17.0716 86.7999C16.9089 86.9461 16.7047 87.0183 16.5017 87.0183Z" fill="black"/>
<path d="M20.1591 90.6752C19.9606 90.6752 19.761 90.6064 19.5995 90.4654C19.244 90.156 19.2071 89.6169 19.5164 89.262L21.7003 86.7557C22.0103 86.4003 22.5488 86.3633 22.9042 86.6727C23.2591 86.9821 23.296 87.5212 22.9867 87.8761L20.8029 90.3824C20.6339 90.5763 20.3974 90.6752 20.1591 90.6752Z" fill="black"/>
<path d="M68.5015 100.953C68.1438 100.953 67.8105 100.726 67.6917 100.368L67.1423 98.7125C66.9938 98.2656 67.2362 97.7827 67.6831 97.6343C68.1301 97.4864 68.613 97.7281 68.7614 98.1751L69.3113 99.8306C69.4592 100.278 69.2175 100.76 68.7699 100.909C68.6812 100.938 68.5902 100.953 68.5015 100.953Z" fill="black"/>
<path d="M73.3318 99.0974C73.0026 99.0974 72.6886 98.9058 72.5487 98.5844L71.7719 96.797C71.5836 96.3654 71.7816 95.8626 72.2138 95.675C72.6466 95.4861 73.1487 95.6846 73.3364 96.1168L74.1132 97.9043C74.3015 98.3359 74.1035 98.8387 73.6714 99.0263C73.5604 99.0747 73.4456 99.0974 73.3318 99.0974Z" fill="black"/>
<path d="M77.9417 96.7496C77.6442 96.7496 77.3559 96.5937 77.1989 96.3167L75.9097 94.0414C75.6777 93.6313 75.8215 93.111 76.2316 92.879C76.6417 92.6458 77.1619 92.7908 77.3939 93.2008L78.6833 95.4762C78.9153 95.8857 78.7715 96.4066 78.3614 96.6387C78.2289 96.7137 78.0844 96.7496 77.9417 96.7496Z" fill="black"/>
<path d="M82.2806 93.9317C82.0104 93.9317 81.7437 93.8032 81.5782 93.5638L79.8591 91.0802C79.5911 90.6924 79.6879 90.1612 80.0751 89.8933C80.4624 89.6244 80.9942 89.7216 81.262 90.1095L82.9812 92.593C83.2496 92.9802 83.1524 93.5115 82.7651 93.7799C82.6173 93.8823 82.4483 93.9317 82.2806 93.9317Z" fill="black"/>
<path d="M86.3007 90.6771C86.0665 90.6771 85.8332 90.5816 85.6644 90.3928L83.1399 87.5714C82.8254 87.2199 82.8555 86.6809 83.207 86.3669C83.5579 86.0524 84.0976 86.0826 84.4109 86.434L86.936 89.2554C87.2505 89.6062 87.2203 90.1459 86.8688 90.4599C86.7062 90.6055 86.5032 90.6771 86.3007 90.6771Z" fill="black"/>
<path d="M89.9575 87.0185C89.7516 87.0185 89.5463 86.9446 89.3825 86.795L86.2257 83.9123C85.8776 83.5944 85.8531 83.0552 86.1711 82.7072C86.4896 82.3597 87.0281 82.3352 87.3762 82.6526L90.533 85.5359C90.8805 85.8532 90.9049 86.3929 90.5876 86.741C90.4193 86.9247 90.189 87.0185 89.9575 87.0185Z" fill="black"/>
<path d="M93.2131 82.9993C93.0368 82.9993 92.8588 82.9448 92.7064 82.8321L88.5321 79.7458C88.1533 79.466 88.0731 78.932 88.353 78.5532C88.6332 78.1739 89.1673 78.0943 89.546 78.3741L93.7203 81.4604C94.0997 81.7402 94.1799 82.2743 93.8995 82.653C93.7323 82.8793 93.474 82.9993 93.2131 82.9993Z" fill="black"/>
<path d="M96.0309 78.6605C95.8836 78.6605 95.7341 78.6224 95.5981 78.5422L90.56 75.5713C90.1545 75.3319 90.0197 74.8087 90.2591 74.4027C90.4986 73.9977 91.0207 73.8624 91.4273 74.1018L96.4648 77.0727C96.8709 77.3121 97.0057 77.8348 96.7663 78.2408C96.607 78.5104 96.3227 78.6605 96.0309 78.6605Z" fill="black"/>
<path d="M98.3791 74.0493C98.2614 74.0493 98.1426 74.0248 98.0288 73.9736L91.7452 71.1358C91.3158 70.9419 91.1254 70.4368 91.3187 70.0074C91.5126 69.5781 92.0182 69.3864 92.4476 69.5809L98.7306 72.4188C99.16 72.6127 99.3511 73.1177 99.1571 73.5471C99.015 73.8627 98.7039 74.0493 98.3791 74.0493Z" fill="black"/>
<path d="M100.235 69.2204C100.147 69.2204 100.059 69.2067 99.971 69.1783L92.4607 66.7386C92.0126 66.5924 91.7675 66.1113 91.9131 65.6637C92.0587 65.2156 92.5404 64.9716 92.9879 65.1155L100.498 67.5558C100.946 67.7014 101.191 68.1825 101.046 68.6306C100.929 68.9913 100.594 69.2204 100.235 69.2204Z" fill="black"/>
<path d="M101.574 64.2233C101.515 64.2233 101.455 64.2171 101.396 64.2046L92.827 62.383C92.3663 62.2852 92.0723 61.8319 92.1702 61.3713C92.2679 60.9101 92.7189 60.6155 93.1818 60.7145L101.75 62.5354C102.211 62.6338 102.505 63.0865 102.407 63.5471C102.322 63.9487 101.968 64.2233 101.574 64.2233Z" fill="black"/>
<path d="M102.383 59.1129C102.353 59.1129 102.323 59.1118 102.293 59.1084L92.7571 58.1057C92.2885 58.0568 91.9484 57.6365 91.998 57.1685C92.0474 56.6993 92.4739 56.3587 92.9357 56.4093L102.471 57.4113C102.94 57.4608 103.28 57.8805 103.23 58.3491C103.184 58.787 102.814 59.1129 102.383 59.1129Z" fill="black"/>
</svg>
