<svg width="107" height="107" viewBox="0 0 107 107" fill="none" xmlns="http://www.w3.org/2000/svg">
<path d="M53.2311 106.461C23.8788 106.461 0 82.5818 0 53.2309C0 23.8794 23.8788 0 53.2311 0C82.5819 0 106.461 23.8794 106.461 53.2309C106.461 82.5818 82.5819 106.461 53.2311 106.461ZM53.2311 1.70613C24.8202 1.70613 1.70605 24.8201 1.70605 53.2309C1.70605 81.6412 24.8202 104.755 53.2311 104.755C81.6412 104.755 104.755 81.6412 104.755 53.2309C104.755 24.8201 81.6412 1.70613 53.2311 1.70613Z" fill="black"/>
<path d="M38.9958 101.422C38.8799 101.422 38.7628 101.399 38.6518 101.35L38.5381 101.3C38.1339 101.122 37.9323 100.664 38.0741 100.246L51.374 61.0024H30.2817C29.9654 61.0024 29.674 60.8273 29.5271 60.5463C29.379 60.266 29.3996 59.927 29.5787 59.666L66.9073 5.38693C67.143 5.04458 67.5904 4.92001 67.9693 5.09631L68.0299 5.1242C68.4292 5.30447 68.6273 5.7583 68.4878 6.17346L55.3769 45.2129H76.4789C76.7949 45.2129 77.0862 45.3886 77.2332 45.669C77.3812 45.9493 77.3606 46.2888 77.1817 46.5499L39.6994 101.052C39.5356 101.29 39.2699 101.422 38.9958 101.422ZM31.9041 59.2963H52.5636C52.8381 59.2963 53.0965 59.4288 53.2568 59.6523C53.4172 59.8758 53.4598 60.163 53.3716 60.4235L41.5205 95.3938L74.8562 46.919H54.1906C53.9164 46.919 53.6587 46.787 53.4984 46.5641C53.3375 46.3412 53.295 46.0545 53.3819 45.7946L65.0186 11.1445L31.9041 59.2963Z" fill="black"/>
<path d="M54.5089 70.3292C54.3798 70.3292 54.2498 70.3003 54.1273 70.2388C53.7463 70.0483 53.5648 69.6058 53.7013 69.2026L56.3361 61.4273C56.7469 60.2142 56.5472 58.8693 55.801 57.8279C55.0549 56.7872 53.8445 56.1656 52.564 56.1656C52.0931 56.1656 51.7109 55.784 51.7109 55.3126C51.7109 54.8417 52.0931 54.4595 52.564 54.4595C54.3936 54.4595 56.1224 55.3473 57.1874 56.8338C58.2533 58.321 58.5393 60.2427 57.9523 61.9749L57.2903 63.9267L66.5797 50.4183C66.8475 50.0304 67.3782 49.932 67.766 50.1993C68.1544 50.466 68.2528 50.9972 67.9861 51.3851L55.2123 69.9602C55.0482 70.1984 54.782 70.3292 54.5089 70.3292Z" fill="black"/>
<path d="M39.4763 56.1661C39.3097 56.1661 39.1411 56.1178 38.9942 56.016C38.6056 55.7493 38.5074 55.2181 38.7741 54.8297L51.4909 36.3382C51.732 35.9879 52.1955 35.869 52.5746 36.0584C52.9558 36.2483 53.1383 36.6902 53.0025 37.0934L50.4154 44.7982C50.0082 46.0102 50.2106 47.3534 50.9574 48.3919C51.2322 48.7741 51.145 49.3075 50.763 49.5822C50.3802 49.8569 49.848 49.771 49.5722 49.3877C48.5058 47.9051 48.2162 45.9863 48.798 44.2551L49.4469 42.321L40.1804 55.7965C40.0149 56.037 39.7476 56.1661 39.4763 56.1661Z" fill="black"/>
<path d="M91.4039 22.0008H88.7611C88.4859 22.0008 88.2273 21.8671 88.0675 21.643C87.9065 21.4184 87.8652 21.1307 87.9543 20.8701L88.7801 18.4702C88.9331 18.0249 89.4182 17.7884 89.8645 17.9408C90.3099 18.0943 90.5467 18.5794 90.3935 19.0253L89.9575 20.2946H91.4039C91.875 20.2946 92.2571 20.6762 92.2571 21.1477C92.2571 21.6186 91.875 22.0008 91.4039 22.0008Z" fill="black"/>
<path d="M94.4297 26.8358H81.983C81.7079 26.8358 81.449 26.7028 81.2892 26.4787C81.1282 26.2541 81.0865 25.9663 81.1765 25.7058L84.7367 15.3577C84.8903 14.9124 85.3745 14.6758 85.8206 14.8288C86.2665 14.9818 86.5031 15.4674 86.3495 15.9127L83.1791 25.1297H94.4297C94.9006 25.1297 95.2828 25.5119 95.2828 25.9828C95.2828 26.4543 94.9006 26.8358 94.4297 26.8358Z" fill="black"/>
<path d="M96.6298 31.6726H75.2054C74.9301 31.6726 74.6713 31.5395 74.5118 31.3149C74.3514 31.0908 74.3091 30.803 74.3988 30.5426L80.8321 11.8418C80.9864 11.3965 81.469 11.1605 81.9162 11.3129C82.3614 11.4659 82.5981 11.9516 82.4451 12.3969L76.4013 29.9665H96.6298C97.1006 29.9665 97.483 30.3486 97.483 30.8195C97.483 31.291 97.1006 31.6726 96.6298 31.6726Z" fill="black"/>
<path d="M98.9044 36.5089H68.4272C68.1522 36.5089 67.8933 36.3757 67.7335 36.1511C67.5732 35.927 67.5311 35.6387 67.6216 35.3783L76.259 10.2682C76.4126 9.82228 76.8967 9.58627 77.3431 9.73869C77.7883 9.89225 78.0248 10.3779 77.8721 10.8232L69.6233 34.8027H98.9044C99.3752 34.8027 99.7575 35.1849 99.7575 35.6558C99.7575 36.1272 99.3752 36.5089 98.9044 36.5089Z" fill="black"/>
<path d="M100.611 41.3459H61.6501C61.3743 41.3459 61.1155 41.2128 60.9558 40.9882C60.7954 40.7641 60.7533 40.4758 60.8437 40.2153L71.6859 8.69591C71.8396 8.25002 72.3237 8.01399 72.77 8.16643C73.2152 8.31996 73.4521 8.80504 73.2991 9.25095L62.8457 39.6398H100.611C101.081 39.6398 101.464 40.0219 101.464 40.4928C101.464 40.9643 101.081 41.3459 100.611 41.3459Z" fill="black"/>
<path d="M45.5111 101.422C45.3426 101.422 45.1726 101.372 45.024 101.269C44.6375 101 44.5421 100.469 44.8109 100.082L82.3823 46.0571C82.5416 45.8279 82.8032 45.6914 83.0826 45.6914H101.554C102.025 45.6914 102.407 46.073 102.407 46.5445C102.407 47.0154 102.025 47.3975 101.554 47.3975H83.5285L46.2115 101.056C46.0461 101.294 45.7805 101.422 45.5111 101.422Z" fill="black"/>
<path d="M51.8372 102.849C51.6695 102.849 51.5006 102.799 51.352 102.697C50.9648 102.429 50.868 101.898 51.1358 101.51L85.9118 51.2283C86.071 50.998 86.3332 50.8604 86.613 50.8604H101.555C102.026 50.8604 102.408 51.2425 102.408 51.7134C102.408 52.1849 102.026 52.5665 101.555 52.5665H87.0599L52.5389 102.481C52.3735 102.72 52.1072 102.849 51.8372 102.849Z" fill="black"/>
<path d="M59.2534 101.422C59.0852 101.422 58.9159 101.373 58.7673 101.27C58.38 101.002 58.2852 100.47 58.5529 100.083L88.8125 56.5225C88.9718 56.2933 89.2335 56.1562 89.5132 56.1562H102.341C102.811 56.1562 103.194 56.5384 103.194 57.0093C103.194 57.4808 102.811 57.8623 102.341 57.8623H89.9592L59.9543 101.056C59.7887 101.295 59.5232 101.422 59.2534 101.422Z" fill="black"/>
<path d="M65.6835 101.422C65.5148 101.422 65.3455 101.373 65.1967 101.269C64.8097 101 64.7149 100.469 64.9846 100.082L91.9008 61.4389C92.0599 61.2097 92.3215 61.0732 92.6002 61.0732H102.373C102.844 61.0732 103.226 61.4554 103.226 61.9263C103.226 62.3978 102.844 62.7793 102.373 62.7793H93.0462L66.3841 101.057C66.2186 101.295 65.9529 101.422 65.6835 101.422Z" fill="black"/>
<path d="M73.953 98.7623C73.7857 98.7623 73.6174 98.7134 73.4701 98.6116C73.0816 98.3449 72.984 97.8137 73.2513 97.4253L94.7358 66.2324C94.8955 66.0015 95.1578 65.8633 95.4387 65.8633H100.82C101.291 65.8633 101.673 66.2454 101.673 66.7163C101.673 67.1878 101.291 67.5694 100.82 67.5694H95.8869L74.6565 98.3932C74.4909 98.6338 74.2241 98.7623 73.953 98.7623Z" fill="black"/>
<path d="M84.0282 93.2898C83.861 93.2898 83.6918 93.2408 83.5443 93.1385C83.1565 92.8706 83.0592 92.3395 83.327 91.9522L97.4349 71.5271C97.5946 71.2968 97.8569 71.1592 98.1373 71.1592H99.4733C99.9441 71.1592 100.326 71.5407 100.326 72.0122C100.326 72.4837 99.9441 72.8653 99.4733 72.8653H98.585L84.7305 92.9218C84.5652 93.1612 84.2992 93.2898 84.0282 93.2898Z" fill="black"/>
<path d="M17.2313 87.5051C17.139 87.5051 17.0458 87.4897 16.9537 87.4584C16.5083 87.3049 16.2719 86.8198 16.4241 86.3739L16.861 85.1046H15.4142C14.9434 85.1046 14.561 84.723 14.561 84.2515C14.561 83.7806 14.9434 83.3984 15.4142 83.3984H18.0565C18.3323 83.3984 18.5909 83.5321 18.7506 83.7562C18.9113 83.9808 18.9526 84.2686 18.8634 84.529L18.0382 86.929C17.9165 87.2827 17.5854 87.5051 17.2313 87.5051Z" fill="black"/>
<path d="M21.2753 90.6172C21.1832 90.6172 21.0901 90.6024 20.9978 90.5705C20.5525 90.4176 20.316 89.9319 20.4689 89.4866L23.6395 80.2696H12.3883C11.9174 80.2696 11.5352 79.8874 11.5352 79.4165C11.5352 78.9451 11.9174 78.5635 12.3883 78.5635H24.835C25.1108 78.5635 25.3696 78.6966 25.5293 78.9206C25.6897 79.1453 25.7312 79.433 25.6414 79.6935L22.0818 90.0417C21.9601 90.3954 21.6296 90.6172 21.2753 90.6172Z" fill="black"/>
<path d="M25.1798 94.1329C25.087 94.1329 24.9939 94.1181 24.9017 94.0863C24.4564 93.9333 24.2197 93.4476 24.3734 93.0023L30.417 75.4327H9.05066C8.57983 75.4327 8.19775 75.0505 8.19775 74.5796C8.19775 74.1082 8.57983 73.7266 9.05066 73.7266H31.6123C31.8877 73.7266 32.147 73.8596 32.3069 74.0843C32.467 74.3083 32.5087 74.5961 32.4189 74.8566L25.9863 93.5573C25.8644 93.9111 25.5341 94.1329 25.1798 94.1329Z" fill="black"/>
<path d="M29.7529 95.7074C29.6603 95.7074 29.567 95.6921 29.475 95.6607C29.0295 95.5072 28.793 95.0215 28.9465 94.5763L37.1951 70.5967H7.34473C6.8739 70.5967 6.4917 70.2146 6.4917 69.7437C6.4917 69.2722 6.8739 68.8906 7.34473 68.8906H38.3905C38.6656 68.8906 38.9252 69.0237 39.0848 69.2484C39.2452 69.4724 39.2866 69.7608 39.1968 70.0212L30.5594 95.1313C30.4376 95.485 30.1073 95.7074 29.7529 95.7074Z" fill="black"/>
<path d="M34.3264 97.2804C34.2336 97.2804 34.1404 97.265 34.0482 97.2338C33.603 97.0802 33.3666 96.5951 33.52 96.1492L43.9728 65.7598H5.63855C5.16772 65.7598 4.78564 65.3782 4.78564 64.9068C4.78564 64.4359 5.16772 64.0537 5.63855 64.0537H45.1687C45.444 64.0537 45.7028 64.1874 45.8633 64.4114C46.0237 64.6361 46.0651 64.9239 45.9752 65.1843L35.1328 96.7043C35.0112 97.0581 34.6805 97.2804 34.3264 97.2804Z" fill="black"/>
<path d="M23.7358 59.7087H4.69495C4.22412 59.7087 3.8418 59.3271 3.8418 58.8556C3.8418 58.3847 4.22412 58.0026 4.69495 58.0026H23.2896L60.6073 4.34397C60.8759 3.95669 61.4082 3.86117 61.7944 4.1307C62.181 4.39973 62.2765 4.93087 62.0074 5.31818L24.4362 59.343C24.2769 59.5722 24.015 59.7087 23.7358 59.7087Z" fill="black"/>
<path d="M20.2054 54.5397H4.12598C3.65515 54.5397 3.27295 54.1576 3.27295 53.6867C3.27295 53.2152 3.65515 52.8336 4.12598 52.8336H19.7579L54.2797 2.91941C54.5475 2.53155 55.0789 2.43601 55.4659 2.70273C55.8531 2.97117 55.9504 3.50234 55.6821 3.88964L20.9069 54.1718C20.7477 54.4021 20.4855 54.5397 20.2054 54.5397Z" fill="black"/>
<path d="M17.3055 49.2444H3.90857C3.43774 49.2444 3.05566 48.8622 3.05566 48.3913C3.05566 47.9198 3.43774 47.5382 3.90857 47.5382H16.8599L46.8636 4.34387C47.1326 3.95657 47.6637 3.86162 48.0505 4.13003C48.4377 4.39902 48.5333 4.93019 48.2649 5.31749L18.0063 48.8781C17.8464 49.1073 17.5848 49.2444 17.3055 49.2444Z" fill="black"/>
<path d="M14.2179 44.3267H4.4458C3.97437 44.3267 3.59277 43.9451 3.59277 43.4736C3.59277 43.0027 3.97437 42.6205 4.4458 42.6205H13.7726L40.4347 4.34319C40.7031 3.95648 41.2344 3.86151 41.6222 4.13049C42.0084 4.40006 42.1033 4.93181 41.8342 5.31854L14.9178 43.9615C14.7583 44.1902 14.4966 44.3267 14.2179 44.3267Z" fill="black"/>
<path d="M11.3801 39.5362H5.99951C5.52856 39.5362 5.14648 39.1546 5.14648 38.6831C5.14648 38.2116 5.52856 37.83 5.99951 37.83H10.9319L32.1628 7.00616C32.4302 6.61773 32.9613 6.51994 33.3492 6.78779C33.7372 7.05505 33.835 7.58625 33.5682 7.9741L12.0824 39.1671C11.9232 39.398 11.6604 39.5362 11.3801 39.5362Z" fill="black"/>
<path d="M8.68103 34.2409H7.34521C6.87427 34.2409 6.49219 33.8592 6.49219 33.3878C6.49219 32.9163 6.87427 32.5347 7.34521 32.5347H8.24768L22.1014 13.5968C22.3796 13.2163 22.9124 13.1333 23.2935 13.412C23.6738 13.6901 23.7571 14.2235 23.4781 14.604L9.36975 33.8917C9.20886 34.1112 8.953 34.2409 8.68103 34.2409Z" fill="black"/>
</svg>
