<svg width="28" height="25" viewBox="0 0 28 25" fill="none" xmlns="http://www.w3.org/2000/svg">
<path d="M6.2891 11.3915C7.41984 11.3915 8.47953 11.3915 9.53934 11.3915C10.0334 11.3914 10.3714 11.5841 10.5219 11.9722C10.6897 12.4054 10.5567 12.7612 10.236 13.0801C8.83512 14.4736 7.4412 15.874 6.04313 17.2704C5.559 17.7539 5.03849 17.7623 4.56266 17.2878C3.14957 15.8789 1.73746 14.469 0.330725 13.054C-0.216272 12.5041 -0.0629517 11.6968 0.629797 11.4459C0.744665 11.4042 0.876135 11.3947 1.00016 11.3943C2.02201 11.3903 3.04398 11.392 4.06583 11.392C4.17191 11.392 4.27775 11.392 4.37992 11.392C4.48844 10.781 4.54923 10.1787 4.70524 9.60224C5.99869 4.82232 9.06046 1.8097 13.8849 0.731481C18.0287 -0.19459 23.0564 1.51597 25.6781 5.12853C26.8849 6.79128 27.6211 8.63566 27.8849 10.6702C28.2345 13.3667 27.7942 15.9253 26.4616 18.2999C24.8731 21.1305 22.4504 22.9075 19.3244 23.7001C18.3518 23.9468 17.337 24.0351 16.3374 24.1638C15.7913 24.2341 15.3355 23.8362 15.2765 23.3071C15.2213 22.8115 15.6071 22.3621 16.1519 22.2916C17.0264 22.1783 17.9353 22.1823 18.7704 21.9355C22.7506 20.7585 25.264 18.126 25.9952 14.0279C26.599 10.6427 25.6354 7.62407 23.1839 5.16988C21.6132 3.59736 19.6571 2.75809 17.4547 2.50004C14.9693 2.20875 12.6549 2.70246 10.5663 4.09723C8.44425 5.51436 7.17911 7.53444 6.56815 9.98563C6.45597 10.4356 6.38627 10.8963 6.2891 11.3915Z" fill="white"/>
<path d="M15.2726 9.9074C15.2728 9.10928 15.2657 8.31112 15.2754 7.51315C15.2815 7.0137 15.6192 6.63275 16.0925 6.55624C16.4985 6.49063 16.9419 6.74282 17.0881 7.15444C17.1481 7.32345 17.1618 7.51586 17.1627 7.69784C17.1688 8.93386 17.1754 10.17 17.1588 11.4058C17.155 11.6846 17.2362 11.8369 17.4813 11.9771C19.1924 12.9566 20.8924 13.9554 22.5995 14.9422C22.8847 15.1071 23.0959 15.318 23.1459 15.6524C23.204 16.0417 23.0842 16.3677 22.7511 16.5905C22.4219 16.8108 22.0771 16.8147 21.7336 16.6158C20.9099 16.1385 20.0868 15.6601 19.2637 15.1816C18.1295 14.5226 16.9992 13.8567 15.8598 13.207C15.453 12.9751 15.265 12.6482 15.2701 12.1848C15.2784 11.4257 15.2724 10.6665 15.2726 9.9074Z" fill="white"/>
</svg>
