<svg width="28" height="24" viewBox="0 0 28 24" fill="none" xmlns="http://www.w3.org/2000/svg">
<path d="M13.3399 19.9207C13.6599 20.9128 13.596 21.8294 13.0286 22.6797C12.6436 23.2566 12.1116 23.6427 11.457 23.848C10.1216 24.2669 8.68781 23.6577 8.01337 22.4198C7.40009 21.2942 7.48316 19.5939 9.06964 18.5032C8.30829 15.3205 7.55109 12.156 6.79425 8.99133C6.28681 6.86961 5.77478 4.74894 5.27643 2.62504C5.16382 2.14448 4.8888 1.93472 4.4029 1.93968C3.44953 1.94941 2.49591 1.94531 1.54242 1.9414C0.905337 1.93882 0.485781 1.56262 0.500369 1.01881C0.514712 0.487679 0.9173 0.137887 1.5343 0.135125C2.5354 0.130639 3.53668 0.12835 4.53791 0.135125C5.71088 0.143136 6.67859 0.892602 6.98322 2.02648C7.11438 2.51496 7.26569 3.00268 7.33783 3.50089C7.39734 3.91183 7.58008 3.99644 7.96564 3.99577C14.0206 3.98423 20.0755 3.98794 26.1305 3.98852C26.2893 3.98852 26.4493 3.98002 26.6069 3.99529C27.2477 4.05749 27.615 4.53356 27.4677 5.15673C26.6498 8.61836 25.8242 12.0783 24.9932 15.5369C24.8681 16.0579 24.5462 16.2624 23.9236 16.2626C19.601 16.2639 15.2783 16.2632 10.9556 16.2632C10.784 16.2632 10.6123 16.2632 10.3799 16.2632C10.4951 16.7116 10.5676 17.1168 10.7057 17.4982C10.8569 17.9155 11.2052 18.0927 11.6439 18.0929C12.5179 18.0935 13.392 18.0945 14.2661 18.0945C16.9996 18.0945 19.733 18.0889 22.4664 18.0958C24.2205 18.1002 25.5624 19.328 25.5745 20.9646C25.5835 22.1806 25.0289 23.1123 23.9441 23.6596C22.8545 24.2093 21.7707 24.0888 20.8201 23.3333C19.8517 22.5635 19.5339 21.5236 19.7892 20.3119C19.8118 20.2051 19.8347 20.0983 19.8552 19.9911C19.8577 19.9774 19.8465 19.961 19.8337 19.9207H13.3399ZM14.3356 5.80537C14.4326 6.96958 14.5254 8.08219 14.6179 9.19241H18.7303C18.8221 8.053 18.9119 6.94145 19.0035 5.80537H14.3356ZM12.8069 9.22093C12.7079 8.04337 12.6136 6.92121 12.5198 5.80586H7.97882C7.95935 5.85545 7.93292 5.88798 7.93866 5.91306C8.17627 6.94373 8.41187 7.97497 8.66523 9.00182C8.68695 9.09007 8.82813 9.21072 8.91492 9.21159C10.196 9.22512 11.4772 9.22093 12.8069 9.22093ZM25.4373 5.8193H20.8163C20.724 6.95423 20.6342 8.05682 20.5393 9.22265C21.5611 9.22265 22.5565 9.22265 23.5519 9.22265C24.6389 9.22265 24.6429 9.2236 24.8894 8.19322C25.0759 7.4139 25.2502 6.63162 25.4373 5.8193ZM18.5813 11.0538H14.7642C14.853 12.2031 14.939 13.3178 15.0248 14.4303H18.3168C18.4053 13.2996 18.4917 12.1966 18.5813 11.0538ZM13.2064 14.4454C13.1277 13.354 13.0576 12.3132 12.9686 11.2741C12.961 11.1861 12.8277 11.0385 12.7512 11.0374C11.5672 11.0223 10.3829 11.0269 9.13489 11.0269C9.42145 12.2181 9.69171 13.342 9.95716 14.4454H13.2064ZM20.1248 14.4597C20.7551 14.4597 21.3077 14.4667 21.8602 14.4577C22.3634 14.4494 22.9979 14.6011 23.3308 14.354C23.6379 14.1263 23.6304 13.4643 23.745 12.9895C23.8986 12.3533 24.0365 11.7133 24.1885 11.0422H20.3997C20.3097 12.1618 20.2202 13.2747 20.1248 14.4597ZM22.6396 22.1675C23.247 22.1666 23.7597 21.6657 23.7715 21.0619C23.7836 20.4459 23.2499 19.8991 22.6364 19.8989C22.029 19.8987 21.4774 20.4619 21.4959 21.0638C21.5142 21.66 22.0411 22.1686 22.6396 22.1675ZM10.5896 22.1678C11.2075 22.1725 11.7509 21.6324 11.7408 21.0237C11.7309 20.4302 11.2052 19.9081 10.6088 19.8996C9.99958 19.8909 9.45417 20.44 9.46277 21.0533C9.47132 21.656 9.98413 22.1632 10.5896 22.1678Z" fill="#1B3E69"/>
</svg>
