<svg width="24" height="35" viewBox="0 0 24 35" fill="none" xmlns="http://www.w3.org/2000/svg">
<path d="M19.8671 26.7951C20.1417 26.7951 20.3468 26.7996 20.5517 26.7941C21.0848 26.7801 21.3177 26.5478 21.3378 26.0107C21.3436 25.856 21.3386 25.7009 21.3386 25.5459C21.3386 18.1078 21.3386 10.6695 21.3384 3.2314C21.3384 3.12813 21.3407 3.02429 21.3312 2.92178C21.2963 2.54974 21.0788 2.31662 20.7105 2.26294C20.5988 2.24664 20.4838 2.2514 20.3703 2.2514C14.7296 2.25098 9.08907 2.25086 3.44843 2.25247C3.29458 2.25252 3.1377 2.25618 2.98764 2.28569C2.67498 2.34712 2.4881 2.56209 2.45338 2.88063C2.44118 2.99318 2.44173 3.10744 2.44173 3.22092C2.44124 10.7624 2.44111 18.3039 2.44136 25.8453C2.44136 26.6009 2.63847 26.7956 3.40052 26.7957C5.45637 26.7959 7.51217 26.7954 9.56802 26.796C9.94645 26.7961 9.95314 26.7997 9.85031 27.1553C9.73575 27.5512 9.61749 27.9469 9.47729 28.3342C9.44642 28.4194 9.31643 28.5257 9.2317 28.5261C7.18631 28.5347 5.14031 28.5593 3.09567 28.5181C1.66016 28.4892 0.715391 27.467 0.690039 26.0247C0.6808 25.498 0.687926 24.971 0.687926 24.4441C0.687872 17.3572 0.688429 10.2702 0.687124 3.1833C0.686995 2.32456 0.934813 1.57869 1.63425 1.0303C2.09052 0.672593 2.61678 0.511185 3.1894 0.510941C8.99528 0.508698 14.8013 0.503678 20.6071 0.514542C22.0593 0.517258 23.0574 1.56245 23.084 3.04953C23.0925 3.52458 23.0855 3.99994 23.0855 4.47513C23.0854 11.593 23.0904 18.711 23.0731 25.8289C23.072 26.2898 22.9779 26.7858 22.7896 27.2035C22.3946 28.0796 21.6492 28.5003 20.6887 28.5215C20.6146 28.5231 20.4939 28.469 20.4709 28.4106C20.2673 27.8962 20.0809 27.375 19.8671 26.7951Z" fill="white"/>
<path d="M21.3271 32.9044C20.5581 32.4622 19.8661 32.0643 19.1381 31.6458C18.8398 32.621 18.5551 33.5513 18.2705 34.4816C18.2478 34.4854 18.225 34.4892 18.2023 34.493C17.3532 32.2637 16.5042 30.0345 15.6625 27.8246C15.1969 27.8538 14.7503 27.8819 14.2423 27.9138C13.73 29.5408 13.1997 31.2248 12.6694 32.9088C12.6464 32.9077 12.6233 32.9066 12.6002 32.9055C12.2877 32.0005 11.9752 31.0956 11.6494 30.1523C10.8952 30.6611 10.1743 31.1475 9.37609 31.6861C9.4692 31.3583 9.5325 31.115 9.60748 30.8753C10.0261 29.5366 10.4444 28.198 10.8713 26.8621C10.9371 26.6559 10.9053 26.5454 10.7198 26.4019C10.1158 25.9348 9.78131 25.3073 9.80862 24.531C9.8225 24.1367 9.72451 23.8127 9.46249 23.5137C8.56918 22.4942 8.65627 21.103 9.67083 20.2035C9.85839 20.0372 9.86404 19.8614 9.83242 19.6491C9.68591 18.6656 10.0227 17.8811 10.8369 17.3183C11.3704 16.9495 11.9731 16.8265 12.6074 16.9805C12.8229 17.0328 12.9363 16.9844 13.0687 16.8179C13.963 15.6943 15.469 15.532 16.4899 16.5283C16.8592 16.8888 17.2463 17.0455 17.6978 17.2136C18.5042 17.514 19.0196 18.1247 19.1366 18.9998C19.1839 19.3545 19.3173 19.5973 19.6122 19.8119C20.6435 20.5624 20.781 22.0821 20.0126 23.1324C19.7616 23.4754 19.6178 23.9536 19.5814 24.3833C19.5293 24.9989 19.4324 25.5701 19.0189 26.043C18.8723 26.2108 18.8777 26.3507 18.9515 26.5452C19.7233 28.5793 20.4859 30.6168 21.2505 32.6537C21.271 32.7083 21.2849 32.7654 21.3271 32.9044ZM18.9788 22.0026C19.0166 19.7005 17.1004 17.711 14.8082 17.6725C12.3872 17.6319 10.4318 19.5069 10.3939 21.9053C10.3565 24.2801 12.262 26.2723 14.6487 26.2707C17.1431 26.2689 18.9446 24.3096 18.9788 22.0026Z" fill="white"/>
<path d="M11.2289 10.3245C13.0247 10.3245 14.8206 10.3235 16.6165 10.3254C16.9403 10.3257 17.2496 10.3502 17.4745 10.6479C17.8235 11.1098 17.6139 11.7634 17.0505 11.9007C16.892 11.9393 16.7243 11.9545 16.5607 11.9546C12.9897 11.9576 9.41852 11.9574 5.84744 11.9566C5.21611 11.9565 4.88635 11.7353 4.80093 11.2621C4.72737 10.8544 5.00363 10.4382 5.41075 10.3635C5.57185 10.3338 5.73884 10.3262 5.90317 10.326C7.67842 10.3234 9.45366 10.3244 11.2289 10.3245Z" fill="white"/>
<path d="M11.2392 6.13599C13.045 6.13599 14.8509 6.13623 16.6568 6.13574C16.9874 6.13568 17.2892 6.18694 17.4945 6.49321C17.8226 6.98288 17.5893 7.59035 17.0116 7.71703C16.8921 7.74319 16.7668 7.75349 16.6442 7.75354C13.0222 7.75546 9.40007 7.75558 5.77799 7.75461C5.24286 7.75447 4.94801 7.57416 4.82552 7.18291C4.68923 6.74759 4.9446 6.28239 5.39206 6.17621C5.54033 6.14101 5.6987 6.13771 5.85248 6.13753C7.64801 6.13506 9.44359 6.13593 11.2392 6.13599Z" fill="white"/>
</svg>
