<svg width="20" height="14" viewBox="0 0 20 14" fill="none" xmlns="http://www.w3.org/2000/svg">
<path d="M4.73499 10.4286C7.33679 7.19574 9.84601 4.07785 12.4079 0.894531C12.9081 1.28671 13.3408 1.62582 13.8304 2.00967C10.8402 5.73178 7.90222 9.38861 5.02258 12.9731C3.45172 11.3928 1.91754 9.84955 0.296875 8.21918C0.533447 7.96725 0.904236 7.5722 1.36066 7.08591C2.49445 8.20914 3.57428 9.27878 4.73499 10.4286Z" fill="#3DB657"/>
<path d="M18.0465 0.879883C18.5398 1.27759 18.9702 1.62463 19.4541 2.01474C16.4663 5.73337 13.5266 9.3923 10.5839 13.0549C9.81989 12.2442 9.10168 11.482 8.31641 10.6487C8.5683 10.3367 8.91199 9.91071 9.28705 9.44598C9.67535 9.77835 9.99939 10.0556 10.3903 10.3903C12.9453 7.21655 15.4735 4.07596 18.0465 0.879883Z" fill="#3DB657"/>
</svg>
