<svg width="26" height="32" viewBox="0 0 26 32" fill="none" xmlns="http://www.w3.org/2000/svg">
<path d="M3.44482 31.4275C1.54541 31.4275 0 29.8824 0 27.9831V3.44495C0 1.54535 1.54541 0 3.44482 0H17.0393C17.6113 0 18.1689 0.235168 18.5695 0.645142L24.6229 6.8501C25.0149 7.25183 25.2305 7.78198 25.2305 8.34296V27.9831C25.2305 29.8824 23.6849 31.4275 21.7856 31.4275H3.44482ZM3.44482 1.11316C2.15918 1.11316 1.11304 2.15912 1.11304 3.44495V27.9831C1.11304 29.2686 2.15918 30.3145 3.44482 30.3145H21.7856C23.0713 30.3145 24.1174 29.2686 24.1174 27.9831V8.45441H19.7539C18.2107 8.45441 16.9551 7.1991 16.9551 5.65588V1.11316H3.44482Z" fill="#696969"/>
<path d="M12.6154 24.3012C12.55 24.3012 12.4883 24.2748 12.4416 24.2274L7.24334 18.9349C7.1303 18.8196 7.17351 18.686 7.18963 18.6479C7.20476 18.6117 7.26616 18.4933 7.41717 18.4933H8.73308C9.17229 18.4933 9.52971 18.1316 9.52971 17.6872V10.5388C9.52971 10.3967 9.64104 10.2812 9.77788 10.2812H15.4531C15.59 10.2812 15.7013 10.3967 15.7013 10.5388V17.6872C15.7013 18.1316 16.0586 18.4933 16.4977 18.4933H17.8138C17.9645 18.4933 18.0261 18.6117 18.0412 18.6481C18.0573 18.6862 18.1006 18.8198 17.9875 18.9349L12.7894 24.2274C12.7426 24.2748 12.6808 24.3012 12.6154 24.3012Z" fill="#696969"/>
</svg>
