<svg width="25" height="23" viewBox="0 0 25 23" fill="none" xmlns="http://www.w3.org/2000/svg">
<g clip-path="url(#clip0_1_792)">
<path d="M0 1.5C0 0.671573 0.671573 0 1.5 0H23.5C24.3284 0 25 0.671573 25 1.5C25 2.32843 24.3284 3 23.5 3H1.5C0.671573 3 0 2.32843 0 1.5Z" fill="#0FAEEF"/>
<path d="M0 11.5C0 10.6716 0.671573 10 1.5 10H23.5C24.3284 10 25 10.6716 25 11.5C25 12.3284 24.3284 13 23.5 13H1.5C0.671573 13 0 12.3284 0 11.5Z" fill="#0FAEEF"/>
<path d="M0 21.5C0 20.6716 0.671573 20 1.5 20H23.5C24.3284 20 25 20.6716 25 21.5C25 22.3284 24.3284 23 23.5 23H1.5C0.671573 23 0 22.3284 0 21.5Z" fill="#0FAEEF"/>
</g>
<defs>
<clipPath id="clip0_1_792">
<rect width="25" height="23" fill="white"/>
</clipPath>
</defs>
</svg>
