<svg width="28" height="29" viewBox="0 0 28 29" fill="none" xmlns="http://www.w3.org/2000/svg">
<path d="M26.8696 9.43731C25.3803 5.83255 22.8379 3.24664 19.2336 1.74078C17.6218 1.06726 15.9324 0.712583 14.1714 0.738645C13.258 0.79968 12.3381 0.794248 11.428 0.98187C8.72947 1.53772 6.37449 2.75372 4.41868 4.68353C1.5554 7.50912 0.156472 10.9722 0.133034 14.9879C0.127663 15.9365 0.219704 16.8823 0.419167 17.8142C1.16184 21.2898 2.93797 24.1139 5.7888 26.2357C7.82615 27.7524 10.1199 28.6298 12.6628 28.8506C14.2351 28.9872 15.7829 28.8806 17.3113 28.4881C20.1567 27.7571 22.5359 26.2698 24.4443 24.0426C26.55 21.5853 27.6838 18.7235 27.8821 15.4987C28.01 13.4051 27.6697 11.374 26.8696 9.43731ZM18.6872 8.67196C18.6865 8.72195 18.6445 8.77151 18.6059 8.85525C18.4646 8.87832 18.3039 8.91995 18.1413 8.92776C17.779 8.94559 17.4153 8.93863 17.0534 8.95578C16.2405 8.99423 15.7217 9.53338 15.6203 10.2336C15.6086 10.3165 15.5796 10.3983 15.5776 10.4807C15.5696 11.0948 15.562 11.7087 15.5627 12.3228C15.563 12.4927 15.7107 12.6354 15.8889 12.6399C16.3911 12.6519 16.8938 12.6578 17.3962 12.6583C18.6662 12.6596 18.5637 12.5872 18.3603 13.7807C18.2807 14.2481 18.2224 14.7191 18.1491 15.1879C18.1282 15.3253 18.0945 15.4615 18.06 15.5963C18.021 15.7492 17.9194 15.8392 17.7656 15.8427C17.3191 15.8524 16.8723 15.852 16.426 15.8607C16.2036 15.8649 15.9809 15.8772 15.759 15.8924C15.6601 15.899 15.5527 16.0142 15.5466 16.1172C15.5332 16.3677 15.5198 16.6184 15.518 16.869C15.5049 18.7121 15.4949 20.5553 15.4834 22.3984C15.4814 22.6496 15.4824 22.9012 15.4734 23.1523C15.4597 23.5243 15.3806 23.6171 15.0415 23.6202C14.2041 23.6283 13.3662 23.6315 12.5288 23.6256C12.1123 23.6225 12.0249 23.5337 12.0171 23.1468C12.0107 22.8397 12.0151 22.5324 12.019 22.2254C12.0388 20.4381 12.0613 18.651 12.0796 16.864C12.0823 16.6133 12.0727 16.3621 12.0525 16.1124C12.0432 15.9962 11.9619 15.9046 11.8423 15.886C11.7051 15.8649 11.5644 15.8603 11.4255 15.8599C10.9787 15.858 10.5324 15.8661 10.0854 15.8606C9.89231 15.8582 9.69969 15.8318 9.49021 15.8149C9.44798 15.6982 9.37913 15.5961 9.38011 15.4942C9.3845 14.6568 9.39939 13.8194 9.41844 12.9822C9.4221 12.7905 9.54221 12.6758 9.73704 12.6715C10.2954 12.6594 10.8545 12.6587 11.4121 12.6486C12.0747 12.6367 12.1142 12.5948 12.1296 11.9293C12.1465 11.2038 12.1611 10.478 12.1804 9.75238C12.1941 9.21484 12.3337 8.70004 12.5344 8.2095C12.9768 7.12942 13.7893 6.44668 14.9087 6.14706C15.2834 6.04696 15.6775 6.00107 16.0652 5.97757C16.8491 5.93033 17.6255 6.04428 18.4004 6.15097C18.5793 6.17563 18.6999 6.30862 18.7002 6.49447C18.7016 7.2203 18.6958 7.94626 18.6872 8.67196Z" fill="white"/>
</svg>
