<svg width="29" height="27" viewBox="0 0 29 27" fill="none" xmlns="http://www.w3.org/2000/svg">
<path d="M14.7694 25.7474C14.1581 25.1814 13.568 24.6145 12.9562 24.0722C11.256 22.5657 9.54765 21.0682 7.84092 19.5689C6.705 18.5709 5.56895 17.5732 4.5431 16.4588C3.62547 15.4618 2.83702 14.3784 2.31574 13.1167C1.96534 12.2687 1.74848 11.3866 1.62943 10.4782C1.5229 9.66538 1.47715 8.84891 1.51097 8.0308C1.6287 5.18552 3.38096 2.77763 5.99983 1.91434C8.82014 0.98484 11.3019 1.63786 13.4294 3.68577C13.9195 4.15763 14.3283 4.69779 14.6878 5.27494C14.7093 5.30967 14.732 5.34367 14.7671 5.3978C14.8042 5.33994 14.8342 5.29374 14.8635 5.24717C15.6621 3.98246 16.6904 2.96085 18.0296 2.27256C19.1965 1.67289 20.4366 1.43247 21.7442 1.53464C23.2118 1.64921 24.5249 2.15525 25.6503 3.10905C26.9029 4.17045 27.6455 5.52732 27.9289 7.14078C28.0724 7.95731 28.0424 8.77878 27.991 9.59934C27.936 10.4789 27.7967 11.3454 27.546 12.1925C27.1594 13.4985 26.4971 14.6543 25.6415 15.7058C24.7622 16.7866 23.756 17.7422 22.7152 18.6615C21.1547 20.0395 19.5745 21.3951 18.0181 22.7777C16.9529 23.7239 15.9137 24.6996 14.8629 25.6621C14.833 25.6896 14.8029 25.7168 14.7694 25.7474Z" stroke="#696969" stroke-width="1.5"/>
</svg>
