<svg width="58" height="59" viewBox="0 0 58 59" fill="none" xmlns="http://www.w3.org/2000/svg">
<path d="M39.8256 50.1583C39.372 50.1583 38.9871 49.802 38.8446 49.2505L34.2772 31.5699C32.9185 31.6773 31.427 31.7389 30.5914 31.7734C30.2757 31.7862 30.0486 31.7954 29.9517 31.8024C29.8922 31.8066 29.8339 31.8097 29.7762 31.8122L29.7451 31.8137L29.7317 31.814L29.7525 32.8171C29.7531 32.856 29.7491 32.8945 29.7403 32.9317L29.962 48.7193C29.9684 49.1943 29.818 49.6342 29.5594 49.8963C29.3906 50.0677 29.1854 50.1583 28.966 50.1583C28.4401 50.1583 28.0328 49.6464 27.9764 48.9131L26.6786 32.1099C26.4438 32.1092 26.1982 32.105 25.9419 32.0998C25.7689 32.0962 25.5938 32.0928 25.4218 32.091C25.3797 32.1047 25.3354 32.1127 25.2894 32.1132C23.9087 32.133 22.8032 32.1113 21.8522 32.0452L16.9587 49.3027C16.8113 49.8222 16.4382 50.1583 16.0078 50.1583C15.7421 50.1583 15.4941 50.032 15.3083 49.8027C15.0344 49.4643 14.9252 48.9287 15.0298 48.4378L18.6387 31.494C18.6112 31.4848 18.584 31.4759 18.5572 31.4668L18.5179 31.4537L18.0661 31.2804C17.9987 31.2518 17.9465 31.2291 17.8949 31.2057C17.8431 31.1818 17.7924 31.1584 17.743 31.134L17.6588 31.0916C17.6085 31.0656 17.5664 31.0437 17.5248 31.0211L17.4364 30.9726C17.3839 30.943 17.3321 30.9122 17.2808 30.8808L17.2411 30.8573C17.171 30.8137 17.1054 30.768 17.0411 30.7188L17.0377 30.7164C17.0294 30.7106 17.0212 30.7045 17.013 30.6977C16.98 30.6721 16.9474 30.6453 16.9148 30.6175C16.8702 30.5781 16.8415 30.5531 16.8135 30.5266L16.7836 30.4974L16.7189 30.4339L16.6927 30.4064L16.4249 30.0925L16.405 30.0663L16.0685 29.551C16.0673 29.5492 16.0542 29.526 16.0529 29.5242L15.8477 29.1251L15.8339 29.0956L15.7692 28.9528C15.768 28.9503 15.7559 28.9231 15.7549 28.9211L15.6716 28.7209L15.6603 28.6926L15.4419 28.0812L15.4304 28.0443L15.4208 28.0144L15.3379 27.7356L15.7665 27.5687L15.3257 27.6922L15.286 27.5468C15.2515 27.4158 15.2235 27.3027 15.1966 27.1886C15.196 27.1864 15.1884 27.1529 15.1878 27.1505L14.8278 24.7011L14.7817 23.6721L15.239 23.6316L14.7814 23.6401L14.7796 23.4876C14.7768 23.0056 14.793 22.5367 14.8275 22.084C14.8275 22.0803 14.8284 22.0766 14.8287 22.073L14.8412 21.922C14.8419 21.9144 14.844 21.8936 14.8449 21.886L14.8928 21.429C14.8931 21.4257 14.8967 21.397 14.8973 21.3936L14.9371 21.1017C14.9373 21.0989 14.9419 21.0687 14.9422 21.066L14.9886 20.7819L14.991 20.7704L14.9919 20.7631L15.0054 20.6871C15.3861 18.6285 16.7427 16.9153 18.7281 15.9842C19.7104 15.5233 21.0862 15.1685 22.1753 14.911L22.6143 14.8089C22.729 14.7823 22.8523 14.7503 22.9816 14.7137C23.2802 14.6292 23.6115 14.5196 23.966 14.3884L24.1573 14.8057L24.0246 14.3667C25.2876 13.8924 26.981 13.0819 27.9724 12.2198C28.0035 12.1908 28.0444 12.1505 28.0816 12.1109C28.1588 12.0291 28.2403 11.9507 28.3263 11.875C28.3653 11.836 28.4108 11.7988 28.4739 11.7515C28.5835 11.6621 28.7186 11.5651 28.8614 11.4727L28.8723 11.4653C31.319 9.90035 35.9745 9.84367 37.8611 9.89244C38.7857 9.91622 40.584 9.98885 42.2446 10.2097L42.2522 10.2106C42.5423 10.2494 42.8239 10.2918 43.0917 10.3388C44.1237 10.5007 44.9242 10.6975 45.4514 11.1277C45.534 11.1905 45.6128 11.2667 45.6762 11.3473C45.6792 11.3506 45.6824 11.3543 45.6847 11.3574C45.9214 11.6386 46.02 11.9751 45.9621 12.3217C45.8724 12.8595 45.4105 13.3851 44.5893 13.8848C44.5569 13.9138 44.5236 13.9437 44.4907 13.9742L44.408 14.0517C44.3153 14.1404 44.2296 14.2268 44.1445 14.3192C44.0545 14.418 43.9715 14.5156 43.891 14.62C43.8586 14.6627 43.8324 14.6978 43.8065 14.7338C43.7671 14.789 43.7268 14.8482 43.6875 14.9092L43.6 15.0532L43.5847 15.08L43.5524 15.138C43.5508 15.1404 43.5365 15.167 43.5349 15.1694C43.5035 15.228 43.4691 15.2969 43.4361 15.3683L43.2863 15.7395L42.8397 15.6301L43.2735 15.7759L43.2372 15.8878L42.7876 15.7966L43.2263 15.9256L43.1426 16.2572L42.6847 16.2103L43.1335 16.3006L43.1094 16.4254C43.1082 16.4348 43.1063 16.4443 43.1042 16.4528C42.963 17.2685 42.8578 18.3204 42.7464 19.4339C42.6866 20.0324 42.6246 20.652 42.553 21.2738C42.2375 24.019 41.715 27.0062 40.2308 28.3469C39.8126 28.7246 39.2906 29.0449 38.6765 29.3006C38.4883 29.8445 38.1561 30.4842 37.5777 30.9043C37.5801 30.936 37.5798 30.9677 37.5765 30.9989L40.8327 48.4671C40.9242 48.9595 40.8092 49.4722 40.5322 49.8057C40.3434 50.033 40.0923 50.1583 39.8256 50.1583ZM34.6244 30.6242C34.8311 30.6242 35.0146 30.7639 35.0669 30.9674L39.7305 49.0213C39.7589 49.1303 39.7998 49.1937 39.8269 49.2248C39.8953 49.1474 39.9855 48.9183 39.9328 48.6348L36.6518 31.0339C36.6487 31.0166 36.6466 30.9992 36.6454 30.9818C36.603 30.9266 36.5734 30.8613 36.56 30.7896C36.5191 30.5733 36.6381 30.3585 36.8428 30.2786L36.9014 30.2527C37.4709 29.932 37.7512 29.2209 37.8681 28.8259C37.9087 28.6886 38.0109 28.5784 38.1442 28.5275C38.7418 28.3003 39.2372 28.011 39.6171 27.6679C40.8754 26.5312 41.348 23.7447 41.6439 21.1691C41.7147 20.5519 41.7763 19.937 41.8358 19.343C41.9486 18.2151 42.0548 17.1499 42.2058 16.2819C42.2061 16.2777 42.2067 16.2737 42.2076 16.2698C42.2168 16.2191 42.2263 16.1694 42.236 16.12L42.4059 15.4845C42.4068 15.4821 42.415 15.4574 42.416 15.4552L42.6057 14.9833C42.6463 14.8954 42.6893 14.8097 42.7339 14.7271L42.7516 14.6947L42.7933 14.6203L42.8089 14.5928L42.9169 14.4156C42.9645 14.3415 43.0136 14.2692 43.0633 14.1996C43.0954 14.1557 43.1259 14.1142 43.157 14.0737C43.2622 13.9364 43.3617 13.8195 43.4618 13.7097C43.5694 13.5926 43.6692 13.4919 43.7684 13.3973L43.8705 13.3015C43.9187 13.257 43.9663 13.2137 44.0136 13.1722C44.0346 13.1536 44.0572 13.1367 44.0813 13.1225C44.9261 12.6158 45.0435 12.2662 45.0593 12.1709C45.0685 12.1158 45.0664 12.0456 44.9813 11.9425C44.9743 11.9345 44.9672 11.9266 44.9611 11.9181C44.9495 11.9031 44.9267 11.8784 44.8839 11.8455C44.4819 11.5181 43.6774 11.357 42.9419 11.2414C42.6762 11.1951 42.4053 11.1541 42.1262 11.117L42.1213 11.1163C40.5035 10.9016 38.7433 10.8305 37.8379 10.8073C36.4318 10.7717 31.6618 10.7677 29.3659 12.2369L29.3589 12.2408C29.2427 12.3158 29.1341 12.3942 29.0353 12.4742C29.0029 12.4986 28.9849 12.5123 28.9724 12.523C28.9621 12.5336 28.9517 12.5441 28.9407 12.5535C28.8726 12.6127 28.8086 12.674 28.7485 12.7374C28.6991 12.7902 28.6439 12.8445 28.5853 12.8994C27.4898 13.8522 25.6835 14.7213 24.3547 15.2204C24.3534 15.2206 24.3156 15.235 24.3141 15.2356L24.125 14.8176L24.2836 15.2466C23.9069 15.3863 23.5527 15.5032 23.2308 15.5944C23.0865 15.6352 22.949 15.6709 22.8202 15.7005L22.3858 15.8018C21.4215 16.0297 20.0334 16.3826 19.1165 16.8128C18.3052 17.1932 16.3684 18.3482 15.9059 20.8506L15.8973 20.8979C15.8964 20.9061 15.8946 20.914 15.8934 20.922C15.8918 20.9315 15.89 20.9406 15.8882 20.9494L15.8461 21.2093L15.8415 21.2405L15.8049 21.5117C15.8046 21.5147 15.801 21.5434 15.8003 21.5462L15.7409 22.1505L15.7399 22.159C15.7073 22.5852 15.6921 23.0272 15.6948 23.4729L15.6966 23.6233L15.2394 23.663L15.697 23.6539L16.0398 26.7652C16.0405 26.7676 16.0518 26.8207 16.0524 26.8231L16.0887 26.9845C16.1124 27.0854 16.1387 27.1901 16.1658 27.2938L16.207 27.4455L15.7781 27.6099L16.218 27.4842L16.2949 27.7432L15.8748 27.9324L16.3107 27.793L16.3892 28.0282L16.4086 28.0837L16.5975 28.5632C16.5987 28.5656 16.6194 28.6126 16.6207 28.6151L17.1353 29.515L16.7894 29.8161L17.1539 29.5394L17.2101 29.6105L17.2378 29.6444L17.2717 29.6837L17.3055 29.7225L17.337 29.7557L17.3623 29.7822L17.4092 29.8295L17.4324 29.8521C17.4611 29.8796 17.4797 29.8957 17.498 29.9116C17.5325 29.9415 17.5551 29.9601 17.5779 29.9778L17.5798 29.9793C17.5865 29.9845 17.5933 29.9897 17.5984 29.9943C17.6368 30.0223 17.6793 30.0522 17.7225 30.0791L17.7598 30.1011C17.8007 30.1261 17.8434 30.1514 17.887 30.1758L17.9602 30.2161C17.9959 30.2356 18.03 30.2536 18.0651 30.2713L18.1442 30.3115C18.1887 30.3332 18.2323 30.3533 18.2759 30.3735C18.3196 30.3936 18.365 30.4132 18.4105 30.4327L18.8166 30.5885L18.7036 31.0333L18.8504 30.5998C18.9474 30.6327 19.0463 30.6636 19.1463 30.6928L19.071 31.1478L19.1954 30.7075L19.294 30.7346C19.5283 30.7984 19.6719 31.0342 19.6213 31.2719L15.9245 48.6284C15.869 48.8895 15.9434 49.1184 16.0072 49.2117C16.0292 49.1803 16.0566 49.1291 16.0779 49.0531L21.0737 31.4351C21.1334 31.224 21.3312 31.0876 21.5533 31.1041C22.5218 31.1873 23.6579 31.2182 25.1189 31.2002C25.1655 31.1834 25.207 31.1685 25.2674 31.1745C25.4953 31.1755 25.7293 31.18 25.9605 31.1846C26.3696 31.1932 26.7571 31.2011 27.0819 31.1871C27.3308 31.1718 27.5389 31.3627 27.5579 31.609L28.8885 48.8429C28.8995 48.9848 28.9327 49.0921 28.9657 49.1629C29.0072 49.0741 29.0496 48.9283 29.0468 48.7322L28.8235 32.8408C28.8229 32.8039 28.8272 32.7673 28.8351 32.7319L28.8071 31.3637C28.8043 31.2276 28.862 31.0973 28.9651 31.0083C29.0588 30.9272 29.1786 30.8884 29.3034 30.8985C29.3483 30.9 29.3818 30.9012 29.416 30.9018C29.5179 30.9034 29.6112 30.9028 29.7094 30.8988C29.7863 30.8957 29.8357 30.893 29.8867 30.8893C29.9892 30.8823 30.225 30.8725 30.5539 30.8588C31.4618 30.8216 33.1518 30.7518 34.584 30.6257C34.5975 30.6248 34.6109 30.6242 34.6244 30.6242Z" fill="black"/>
<path d="M23.2145 29.764C22.493 29.764 21.7728 29.7039 21.0613 29.5321C17.6916 28.7182 17.3054 25.4882 17.3454 22.7652C17.3655 21.39 17.7163 20.2807 18.3884 19.4677C19.0125 18.7136 19.9585 18.1679 21.2803 17.7997C21.7148 17.6786 22.1541 17.5721 22.5793 17.4696C23.374 17.2777 24.1251 17.0962 24.8672 16.8216L24.9366 16.7954L24.9454 16.792L24.9494 16.7908L24.9517 16.7899C25.9174 16.4297 26.9225 15.9568 27.9387 15.3851C28.4652 15.0886 28.9387 14.6999 29.4402 14.2884C30.1452 13.7097 30.8746 13.1112 31.7789 12.7731C33.0186 12.3095 34.4768 12.0931 36.2318 12.1142C36.4845 12.1173 36.687 12.3244 36.684 12.577C36.6809 12.8281 36.4765 13.0294 36.2263 13.0294H36.2209C34.5875 13.0096 33.2318 13.207 32.0994 13.6303C31.3377 13.9154 30.698 14.44 30.0207 14.9958C29.511 15.4141 28.9838 15.847 28.3874 16.1825C27.3301 16.7774 26.2816 17.2704 25.2718 17.6474C25.2669 17.6492 25.2626 17.6508 25.2578 17.6523L25.2102 17.6703L25.1864 17.6791C24.3923 17.9733 23.5796 18.1694 22.7941 18.3591C22.3767 18.4602 21.9451 18.5642 21.5257 18.681C20.3902 18.9977 19.5946 19.4458 19.0937 20.0511C18.4259 20.8585 18.2722 21.9799 18.2606 22.7784C18.2575 22.9916 18.2578 23.1981 18.2611 23.3985C18.2782 23.4439 18.2883 23.4937 18.2895 23.5449L18.2905 23.5776C18.2907 23.5818 18.2907 23.5858 18.2907 23.5901V23.595C18.2907 23.6413 18.284 23.6865 18.2709 23.7289C18.3859 26.6801 19.3105 28.1676 21.2764 28.6426C22.6941 28.9845 24.2303 28.8293 25.7163 28.6795C26.4158 28.609 27.1388 28.5358 27.8444 28.5147C28.8514 28.4845 29.7785 28.4434 30.679 28.3887C31.0503 28.3661 31.4338 28.3579 31.8398 28.3494C33.1211 28.3222 34.4463 28.2939 35.4362 27.8103C38.0497 26.5331 38.8329 22.9162 39.0668 20.8738C39.1342 20.2871 39.1928 19.7033 39.2492 19.1383L39.2544 19.0895C39.3722 17.907 39.4839 16.7933 39.6513 15.8308L39.6571 15.7972C39.6681 15.7347 39.6812 15.6664 39.6995 15.577L39.7566 15.3238L39.7593 15.3107C39.7718 15.2588 39.8206 15.0739 39.8206 15.0739L39.8639 14.9218C39.8715 14.8952 39.8816 14.8693 39.8939 14.8442C40.0753 14.4794 41.0091 12.6334 41.5891 12.1258C41.7791 11.9595 42.0681 11.9788 42.2346 12.169C42.4011 12.3592 42.3819 12.6484 42.1916 12.8146C41.8524 13.1114 41.1257 14.4272 40.7321 15.2143L40.7032 15.3159C40.7032 15.3159 40.6806 15.4025 40.6638 15.4671L40.6617 15.4754L40.5945 15.7676C40.5796 15.8402 40.5677 15.9013 40.5574 15.9602C40.3908 16.9174 40.2813 18.0151 40.165 19.177L40.1598 19.2298C40.1028 19.7987 40.0439 20.3869 39.9762 20.9782C39.6641 23.6999 38.6928 27.2374 35.838 28.6325C34.6671 29.2048 33.1754 29.2365 31.8593 29.2642C31.4625 29.2728 31.0876 29.2808 30.7346 29.3021C29.8249 29.3576 28.8884 29.3991 27.8718 29.4296C27.1986 29.4497 26.5232 29.5177 25.8084 29.5901C24.9542 29.6764 24.0839 29.764 23.2145 29.764Z" fill="black"/>
<path d="M23.215 27.1697C22.6205 27.1697 22.1153 27.1175 21.6705 27.0098C20.9118 26.8268 20.0906 26.4192 19.9572 23.8841C19.956 23.8606 19.9566 23.8369 19.9591 23.8133C19.9664 23.7417 19.9701 23.6685 19.9701 23.5949L19.9682 23.4958C19.9657 23.4058 19.9572 23.3131 19.9432 23.2239C19.9398 23.2015 19.9377 23.1785 19.9377 23.1559C19.9372 23.0419 19.9377 22.9244 19.9395 22.8027C19.9459 22.3697 20.0128 21.5754 20.388 21.1216C20.6592 20.7938 21.1937 20.5168 21.9771 20.2984C22.3654 20.1901 22.7611 20.0946 23.18 19.9931C24.0217 19.7899 24.8816 19.5825 25.7681 19.2545L25.8572 19.2212L25.8596 19.2203C27.8059 18.4949 29.8078 17.3549 31.6479 15.9229C32.7117 15.0947 34.4594 15.0053 35.1613 15.0053C35.4139 15.0053 35.6189 15.2102 35.6189 15.4629C35.6189 15.7157 35.4139 15.9205 35.1613 15.9205C34.1845 15.9205 32.8963 16.1108 32.2098 16.645C30.2971 18.1334 28.2117 19.3204 26.1787 20.0779L26.1781 20.0763C26.1384 20.0919 26.0866 20.1124 26.0866 20.1124C25.1485 20.4595 24.262 20.6733 23.4048 20.8804C22.9841 20.9821 22.5961 21.0761 22.223 21.18C21.3621 21.4198 21.1311 21.659 21.0936 21.7045C20.989 21.8307 20.8639 22.198 20.8548 22.8164C20.8532 22.9202 20.8523 23.0205 20.8529 23.1184C20.8694 23.2344 20.8798 23.3533 20.8831 23.4729L20.8852 23.5949C20.8852 23.6873 20.881 23.7792 20.873 23.8698C20.9856 25.9034 21.5055 26.0287 21.8853 26.1203C22.2593 26.2106 22.694 26.2545 23.215 26.2545C23.9076 26.2545 24.6601 26.1786 25.4567 26.0983C26.201 26.0232 26.9701 25.9455 27.7669 25.9216C28.748 25.8921 29.6491 25.8521 30.5222 25.7993C30.9408 25.7737 31.3645 25.7646 31.7743 25.7557C32.6448 25.7374 33.8212 25.7123 34.2977 25.4793C35.8996 24.6965 36.3807 21.5302 36.49 20.5782C36.5551 20.0081 36.6122 19.4402 36.6671 18.8906L36.6733 18.8293C36.7937 17.6239 36.9069 16.4912 37.0838 15.4558C37.0869 15.4369 37.0914 15.4183 37.0967 15.4C37.1262 15.3031 37.8224 13.0193 38.4005 12.0211C38.5268 11.8021 38.8074 11.7286 39.0259 11.8542C39.2446 11.9812 39.3191 12.2609 39.1925 12.4797C38.6986 13.3323 38.061 15.379 37.981 15.6389C37.8123 16.6353 37.7016 17.7429 37.5844 18.9146L37.5793 18.9699C37.5222 19.5357 37.4649 20.1077 37.3993 20.6825C37.2037 22.3838 36.5933 25.3762 34.6991 26.3018C34.042 26.623 32.8539 26.648 31.8056 26.6705C31.3929 26.6795 30.9783 26.6883 30.5774 26.7127C29.6955 26.7664 28.7849 26.8067 27.7943 26.8366C27.0299 26.8591 26.277 26.9354 25.5488 27.0089C24.7284 27.0916 23.9536 27.1697 23.215 27.1697Z" fill="black"/>
<path d="M23.2145 24.5747C23.148 24.5747 23.0843 24.5741 23.0226 24.5722C22.7926 24.5665 22.6028 24.3907 22.5791 24.1623C22.5711 24.0862 22.5638 24.002 22.5571 23.909C22.5555 23.8898 22.5555 23.8706 22.5565 23.8517C22.5614 23.766 22.5638 23.68 22.5638 23.5942L22.5614 23.4392C22.5592 23.3648 22.5553 23.2886 22.5501 23.2141C22.5339 22.9944 22.6767 22.7943 22.8893 22.7379C23.1715 22.6635 23.4735 22.5903 23.7893 22.5139C24.6588 22.3041 25.6398 22.067 26.6681 21.6867L26.7417 21.6592C27.1389 21.4606 32.874 18.5964 34.3784 17.8441C34.5275 17.7697 34.7053 17.7821 34.843 17.8768C34.9802 17.9713 35.055 18.1333 35.0382 18.2993L34.9964 18.7187C34.9417 19.2641 34.8854 19.8246 34.821 20.3871C34.6169 22.1677 34.1199 23.4029 33.7182 23.8373C33.6495 23.9118 33.558 23.9612 33.458 23.978C33.0345 24.049 32.199 24.0665 31.7499 24.0762C31.3146 24.0854 30.8695 24.0951 30.4195 24.1226C29.5662 24.1745 28.6819 24.2134 27.7161 24.2428C26.8622 24.2681 26.0644 24.3486 25.2932 24.4264C24.5312 24.5033 23.8213 24.5747 23.2145 24.5747ZM23.4784 23.5319C23.4787 23.5579 23.479 23.5814 23.479 23.5942C23.479 23.6143 23.479 23.6348 23.4787 23.655C23.9851 23.6385 24.5735 23.5793 25.1907 23.517C25.9885 23.4365 26.8024 23.3542 27.6889 23.3279C28.645 23.2992 29.5202 23.2602 30.364 23.209C30.8317 23.1806 31.2862 23.1708 31.7255 23.1613C32.0693 23.154 32.7249 23.14 33.1301 23.0982C33.3258 22.7791 33.7279 21.8868 33.9119 20.2831C33.9598 19.8636 34.0035 19.4457 34.0449 19.0339C31.8469 20.1321 27.1288 22.4887 27.1288 22.4887C27.1145 22.496 27.0996 22.5024 27.0843 22.5082L26.9869 22.5445C25.9071 22.9441 24.8982 23.1879 24.008 23.4026C23.8256 23.4469 23.6486 23.4896 23.4784 23.5319Z" fill="black"/>
<path d="M29.3789 58.0665C13.6342 58.0665 0.825195 45.2572 0.825195 29.5126C0.825195 13.768 13.6342 0.958984 29.3789 0.958984C45.1235 0.958984 57.9325 13.768 57.9325 29.5126C57.9325 45.2572 45.1235 58.0665 29.3789 58.0665ZM29.3789 1.87415C14.1391 1.87415 1.74039 14.2726 1.74039 29.5126C1.74039 44.7526 14.1391 57.1513 29.3789 57.1513C44.619 57.1513 57.0174 44.7526 57.0174 29.5126C57.0174 14.2726 44.619 1.87415 29.3789 1.87415Z" fill="black"/>
<path d="M48.4419 47.4037C48.3727 47.4037 48.3028 47.3879 48.2369 47.3549C43.2479 44.8488 40.1484 39.8265 40.1484 34.247C40.1484 26.4813 46.2159 20.0526 53.9614 19.6109C54.2091 19.599 54.43 19.7897 54.4443 20.0416C54.4587 20.2939 54.2655 20.5102 54.0133 20.5245C46.7518 20.9385 41.0637 26.9663 41.0637 34.247C41.0637 39.4782 43.9697 44.1874 48.6475 46.537C48.8733 46.6505 48.9645 46.9257 48.8513 47.1514C48.7708 47.3113 48.6094 47.4037 48.4419 47.4037Z" fill="black"/>
<path d="M50.778 45.6761C50.7188 45.6761 50.6584 45.6645 50.6001 45.6398C46.0315 43.7076 43.0791 39.2536 43.0791 34.2933C43.0791 27.6356 48.4927 22.1124 55.1468 21.9815C55.3842 21.977 55.6084 22.1771 55.6136 22.43C55.6181 22.6826 55.4174 22.8916 55.1648 22.8965C49.0056 23.0178 43.9942 28.1301 43.9942 34.2933C43.9942 38.8855 46.7271 43.008 50.9565 44.7972C51.1895 44.8955 51.2982 45.1639 51.2 45.3967C51.1261 45.5715 50.9565 45.6761 50.778 45.6761Z" fill="black"/>
<path d="M47.073 11.5184C46.804 11.5184 46.5321 11.5065 46.2658 11.4836C46.0138 11.4617 45.8278 11.2399 45.8494 10.9882C45.871 10.7362 46.0946 10.5504 46.3445 10.5718C47.0175 10.6298 47.709 10.6062 48.3741 10.5038C48.6224 10.4638 48.8576 10.6365 48.896 10.886C48.9344 11.1358 48.7637 11.3695 48.5135 11.4083C48.0406 11.4812 47.5559 11.5184 47.073 11.5184Z" fill="black"/>
<path d="M41.483 9.55893C41.3829 9.55893 41.282 9.52594 41.1977 9.45883C39.6065 8.18705 38.4534 6.3844 37.9503 4.38291C37.889 4.13788 38.0379 3.88929 38.2828 3.8277C38.5271 3.76514 38.7767 3.91489 38.8384 4.16019C39.2923 5.96826 40.3332 7.5961 41.7691 8.74375C41.9665 8.90155 41.9986 9.18946 41.8408 9.38684C41.7506 9.50003 41.6175 9.55893 41.483 9.55893Z" fill="black"/>
<path d="M47.073 16.1887C46.1239 16.1887 45.1742 16.0926 44.2374 15.8998C43.9897 15.8485 43.8304 15.6066 43.8817 15.3592C43.9323 15.1117 44.1739 14.9528 44.4219 15.0032C46.7529 15.4836 49.1733 15.3213 51.4201 14.5336C51.6587 14.4501 51.9195 14.576 52.0034 14.8143C52.0867 15.0529 51.9613 15.314 51.7228 15.3976C50.2224 15.9232 48.6495 16.1887 47.073 16.1887Z" fill="black"/>
<path d="M35.2524 9.30953C35.0928 9.30953 34.9379 9.22591 34.8536 9.07711C33.8333 7.27505 33.2072 5.22808 33.0434 3.15792C33.0236 2.90627 33.2115 2.68569 33.4635 2.66588C33.7103 2.64327 33.936 2.83394 33.9559 3.08593C34.1093 5.0237 34.6948 6.9392 35.6502 8.62618C35.7749 8.84612 35.6975 9.12527 35.4775 9.24975C35.4064 9.2903 35.329 9.30953 35.2524 9.30953Z" fill="black"/>
<path d="M47.06 18.5207C45.9889 18.5207 44.916 18.4157 43.8556 18.2043C43.6076 18.1549 43.4468 17.9139 43.4962 17.6662C43.5454 17.4182 43.7891 17.2583 44.0344 17.3069C46.9182 17.8813 49.8999 17.6237 52.6582 16.561C52.8931 16.4704 53.1589 16.5868 53.2498 16.823C53.3407 17.0587 53.2232 17.3236 52.9872 17.4146C51.0814 18.1494 49.0738 18.5207 47.06 18.5207Z" fill="black"/>
<path d="M32.7524 9.62315C32.5837 9.62315 32.4214 9.52922 32.3418 9.36751C31.3375 7.32936 30.7725 5.14482 30.6627 2.87483C30.6504 2.62224 30.8448 2.40779 31.0977 2.39558C31.3488 2.37822 31.5645 2.57802 31.5767 2.83031C31.6807 4.97462 32.2142 7.03773 33.1627 8.96306C33.2743 9.18965 33.1813 9.46422 32.9543 9.57585C32.8897 9.60789 32.8204 9.62315 32.7524 9.62315Z" fill="black"/>
<path d="M46.1664 9.12096C46.1454 9.12096 46.124 9.11977 46.1027 9.11672C45.1309 8.98125 44.2119 8.6512 43.3696 8.1353C42.3528 7.51265 41.5053 6.63289 40.9184 5.59053C40.7943 5.37023 40.8723 5.09108 41.0923 4.96724C41.3125 4.84334 41.5914 4.92061 41.7156 5.14144C42.2262 6.04811 42.9636 6.81349 43.8473 7.35494C44.5819 7.80461 45.383 8.0923 46.2289 8.21007C46.4791 8.24516 46.6539 8.4764 46.6188 8.72655C46.5871 8.95568 46.3909 9.12096 46.1664 9.12096Z" fill="black"/>
<path d="M47.0736 13.8538C46.7994 13.8538 46.5214 13.8441 46.2478 13.8245C45.9955 13.8069 45.8055 13.5882 45.8234 13.3361C45.8415 13.0838 46.0627 12.8916 46.3121 12.9118C47.5977 13.0021 48.8896 12.8633 50.1127 12.5051C50.3543 12.4335 50.6093 12.5732 50.6804 12.8157C50.7511 13.0582 50.6124 13.3126 50.3698 13.3834C49.3037 13.6955 48.1944 13.8538 47.0736 13.8538Z" fill="black"/>
<path d="M38.1221 9.43331C37.9843 9.43331 37.8479 9.37139 37.7579 9.25325C36.4974 7.59984 35.6914 5.62795 35.4266 3.55043C35.3945 3.29967 35.5722 3.07055 35.8229 3.03884C36.0731 3.0071 36.3028 3.18404 36.3348 3.43477C36.5788 5.35277 37.3229 7.17275 38.4855 8.69835C38.6389 8.8994 38.6002 9.18648 38.3992 9.33959C38.3165 9.40279 38.2189 9.43331 38.1221 9.43331Z" fill="black"/>
<path d="M52.2393 43.3352C52.1795 43.3352 52.1188 43.3233 52.0602 43.2983C48.2686 41.6826 45.8184 38.093 45.8184 34.1531C45.8184 28.9026 50.1423 24.511 55.6624 24.1553C55.9187 24.1387 56.1323 24.3303 56.1487 24.5823C56.1646 24.8349 55.9733 25.0524 55.7213 25.0685C50.6817 25.3935 46.7335 29.384 46.7335 34.1531C46.7335 37.7257 48.9654 40.9846 52.419 42.4563C52.6518 42.5554 52.7598 42.8242 52.6606 43.0567C52.5865 43.2305 52.4171 43.3352 52.2393 43.3352Z" fill="black"/>
<path d="M53.6494 40.5497C53.5952 40.5497 53.5399 40.54 53.4859 40.5195C50.7751 39.4832 49.0234 37.0208 49.0234 34.2466C49.0234 30.519 52.2187 27.4863 56.1461 27.4863C56.3987 27.4863 56.6037 27.6911 56.6037 27.9439C56.6037 28.1969 56.3987 28.4015 56.1461 28.4015C52.7233 28.4015 49.9387 31.0236 49.9387 34.2466C49.9387 36.6383 51.4597 38.7649 53.8129 39.6648C54.0491 39.7548 54.1675 40.0193 54.0771 40.2554C54.0073 40.4378 53.8337 40.5497 53.6494 40.5497Z" fill="black"/>
<path d="M3.12943 26.4494C2.93021 26.4494 2.74716 26.3185 2.68953 26.1175C2.62027 25.8747 2.76091 25.6212 3.00403 25.5516C8.20174 24.0647 12.0553 19.6495 12.821 14.303C12.8567 14.0525 13.0898 13.8786 13.339 13.915C13.5891 13.9507 13.7627 14.1825 13.7267 14.4327C12.9098 20.1358 8.79965 24.8456 3.25542 26.4317C3.21332 26.4436 3.17122 26.4494 3.12943 26.4494Z" fill="black"/>
<path d="M3.81754 22.4396C3.64673 22.4396 3.4829 22.3438 3.40418 22.1794C3.29528 21.9512 3.39168 21.6782 3.61986 21.569C6.82825 20.0361 9.04024 16.8921 9.3929 13.3643C9.41793 13.1129 9.64002 12.9287 9.8938 12.9546C10.1452 12.9799 10.3285 13.2042 10.3032 13.4555C9.91941 17.2993 7.50945 20.7246 4.0143 22.3951C3.95084 22.4253 3.88344 22.4396 3.81754 22.4396Z" fill="black"/>
<path d="M54.4424 38.2084C54.3831 38.2084 54.3224 38.1968 54.2645 38.1721C52.8094 37.5571 51.8691 36.1389 51.8691 34.5592C51.8691 32.397 53.6285 30.6377 55.7908 30.6377C56.0433 30.6377 56.2483 30.8423 56.2483 31.0952C56.2483 31.3481 56.0433 31.5529 55.7908 31.5529C54.133 31.5529 52.7843 32.9016 52.7843 34.5592C52.7843 35.7704 53.5055 36.8576 54.6208 37.3296C54.8539 37.4278 54.9625 37.6963 54.8643 37.929C54.7904 38.1035 54.6208 38.2084 54.4424 38.2084Z" fill="black"/>
<path d="M9.02246 46.8407C8.87329 46.8407 8.72684 46.7678 8.63898 46.6335C8.5008 46.4218 8.5603 46.1384 8.7717 45.9999C14.6732 42.1418 16.6859 34.2431 13.3544 28.0182C12.5063 26.4341 11.3815 25.0552 10.0103 23.9197C9.81592 23.7584 9.78879 23.4698 9.94986 23.2751C10.1112 23.0808 10.3992 23.053 10.5945 23.2147C12.0569 24.4264 13.2571 25.8971 14.1613 27.5863C15.9022 30.8389 16.3531 34.5964 15.4315 38.1659C14.5154 41.7141 12.3281 44.7684 9.27292 46.7659C9.19541 46.8166 9.10849 46.8407 9.02246 46.8407Z" fill="black"/>
<path d="M7.45988 44.9377C7.31497 44.9377 7.1722 44.8691 7.08343 44.741C6.93946 44.5329 6.9913 44.248 7.19935 44.104C11.9578 40.8097 13.4837 34.4714 10.7482 29.3606C9.94856 27.867 8.8601 26.601 7.51264 25.598C7.30975 25.4469 7.26766 25.1602 7.4187 24.9576C7.56971 24.7551 7.85678 24.7133 8.059 24.8636C9.51539 25.9479 10.6917 27.3155 11.5551 28.9283C14.5099 34.4497 12.8614 41.2971 7.72009 44.8566C7.64077 44.9115 7.54988 44.9377 7.45988 44.9377Z" fill="black"/>
<path d="M6.21782 42.9944C6.08693 42.9944 5.95699 42.9386 5.86638 42.8303C5.70439 42.6366 5.73 42.3479 5.92372 42.186C9.35845 39.3129 10.3987 34.5142 8.39812 30.776C7.62294 29.3275 6.44997 28.1292 5.00551 27.3108C4.78554 27.1861 4.70836 26.9069 4.83312 26.6869C4.95763 26.4672 5.23766 26.3903 5.45668 26.5142C7.05184 27.4184 8.3481 28.7427 9.205 30.344C11.4091 34.4627 10.2764 39.7378 6.51131 42.8876C6.42525 42.9593 6.32122 42.9944 6.21782 42.9944Z" fill="black"/>
<path d="M4.57395 40.0334C4.45377 40.0334 4.33324 39.9861 4.24329 39.8922C4.06878 39.7097 4.07486 39.4199 4.25762 39.2451C6.22008 37.3681 6.74299 34.4736 5.52971 32.2067C4.86681 30.9675 3.75211 30.0236 2.39092 29.5487C2.15238 29.4654 2.02639 29.2045 2.10965 28.966C2.19297 28.7274 2.4547 28.6018 2.69233 28.6847C4.27103 29.2354 5.56511 30.333 6.33629 31.7747C7.74328 34.4025 7.1484 37.7463 4.89029 39.9065C4.80155 39.9913 4.68773 40.0334 4.57395 40.0334Z" fill="black"/>
<path d="M3.42551 36.4675C3.36783 36.4675 3.30893 36.4564 3.2522 36.4333C3.01856 36.3372 2.90659 36.0699 3.00266 35.836C3.34525 35.0019 3.29798 34.0681 2.87302 33.2737C2.72904 33.0053 2.54718 32.7612 2.33182 32.5492C2.15186 32.372 2.14942 32.0822 2.32697 31.9022C2.50391 31.7222 2.79401 31.7197 2.974 31.8973C3.25525 32.1743 3.49259 32.4922 3.6799 32.8421C4.23422 33.8781 4.29584 35.0959 3.84922 36.1837C3.77661 36.3604 3.60578 36.4675 3.42551 36.4675Z" fill="black"/>
<path d="M17.8473 14.0067C14.9083 14.0067 11.9813 13.1321 9.49776 11.4192C9.28972 11.2758 9.23723 10.9909 9.38064 10.7828C9.52401 10.5745 9.80923 10.5226 10.0173 10.666C14.0002 13.4125 19.1997 13.8615 23.5877 11.838C26.1671 10.6489 28.2827 8.72762 29.7061 6.28218C29.8336 6.06319 30.1143 5.99001 30.3321 6.1169C30.5505 6.24379 30.6243 6.52419 30.4975 6.7422C28.9785 9.35146 26.722 11.4006 23.9709 12.6693C22.0274 13.5653 19.9343 14.0067 17.8473 14.0067Z" fill="black"/>
<path d="M17.624 11.1318C15.6188 11.1318 13.6194 10.634 11.7808 9.64375C11.5584 9.52385 11.4748 9.24632 11.595 9.02357C11.7146 8.80119 11.9931 8.71818 12.2146 8.83784C15.4037 10.5556 19.117 10.6727 22.4025 9.15745C25.0785 7.92381 27.1486 5.73503 28.2307 2.99491C28.3238 2.75965 28.5902 2.64412 28.8244 2.73741C29.0596 2.83015 29.1749 3.0959 29.0822 3.33079C27.9129 6.29109 25.6767 8.65565 22.7854 9.98878C21.131 10.7518 19.3753 11.1318 17.624 11.1318Z" fill="black"/>
<path d="M17.4983 8.43977C16.3531 8.43977 15.1981 8.23658 14.0782 7.82899C13.8409 7.74232 13.7186 7.47969 13.8052 7.24238C13.8915 7.00471 14.1542 6.8827 14.3918 6.96907C16.6307 7.7845 19.0233 7.69905 21.1288 6.72834C22.7484 5.98158 24.088 4.76161 25.0026 3.20112C25.1307 2.9828 25.4107 2.9098 25.6286 3.03736C25.8466 3.16517 25.9199 3.44557 25.792 3.66365C24.7826 5.38667 23.3027 6.73384 21.512 7.55964C20.2414 8.1454 18.8769 8.43977 17.4983 8.43977Z" fill="black"/>
<path d="M18.3788 5.55281C18.1543 5.55281 17.9581 5.3875 17.9263 5.15843C17.8913 4.90822 18.0661 4.67702 18.3162 4.64195C18.8534 4.56718 19.3763 4.4134 19.8711 4.18556C20.2711 4.00099 20.6484 3.76945 20.9925 3.49702C21.1902 3.34083 21.4782 3.37352 21.635 3.57176C21.7921 3.77003 21.7582 4.05803 21.5603 4.21489C21.1594 4.53181 20.7201 4.80177 20.2543 5.01655C19.6781 5.28224 19.0685 5.46132 18.4425 5.54857C18.4212 5.55162 18.3998 5.55281 18.3788 5.55281Z" fill="black"/>
<path d="M29.3789 58.0665C13.6342 58.0665 0.825195 45.2572 0.825195 29.5126C0.825195 13.768 13.6342 0.958984 29.3789 0.958984C45.1235 0.958984 57.9325 13.768 57.9325 29.5126C57.9325 45.2572 45.1235 58.0665 29.3789 58.0665ZM29.3789 1.87415C14.1391 1.87415 1.74039 14.2726 1.74039 29.5126C1.74039 44.7526 14.1391 57.1513 29.3789 57.1513C44.619 57.1513 57.0174 44.7526 57.0174 29.5126C57.0174 14.2726 44.619 1.87415 29.3789 1.87415Z" fill="black"/>
</svg>
