<svg width="32" height="40" viewBox="0 0 32 40" fill="none" xmlns="http://www.w3.org/2000/svg">
<path d="M30.851 28.2614L23.4177 23.6187V12.8446C23.4177 12.6463 23.3584 12.4514 23.2472 12.286L15.3436 0.525063C15.0973 0.159828 14.6411 -0.00380677 14.2201 0.12632C13.7985 0.254189 13.5101 0.643471 13.5101 1.08411V6.28745C11.566 6.36787 6.50854 6.99784 5.11621 11.3143C5.08325 11.4137 5.06763 11.5171 5.06763 11.6215V23.8567L3.87317 24.9239C3.6604 25.1138 3.53796 25.3858 3.53796 25.6717V29.7927C1.85474 30.5171 0.679688 32.1227 0.679688 33.9869V38.9171C0.679688 39.47 1.12769 39.9185 1.68103 39.9185H4.53931H9.38965H14.5115H22.4163H30.3204C30.8737 39.9185 31.3217 39.47 31.3217 38.9171V29.1108C31.3217 28.7651 31.1436 28.4439 30.851 28.2614ZM7.07092 11.7879C8.12476 8.87824 11.9398 8.37617 13.5101 8.29517V16.3166L7.07092 22.0684V11.7879ZM13.5101 37.9152H10.391V33.9869C10.391 31.4486 8.21631 29.3839 5.54114 29.38V26.1196L13.5101 19.0024V37.9152ZM4.53931 37.9152H2.68237V33.9869C2.68237 32.5516 3.96179 31.3832 5.53503 31.3832C7.1084 31.3832 8.38831 32.5516 8.38831 33.9869V37.9152H4.53931ZM15.5135 16.7651V4.36964L21.4148 13.15V24.1744V37.9152H15.5135V16.7651ZM29.319 37.9152H23.4177V25.9811L29.319 29.6659V37.9152Z" fill="white"/>
</svg>
