<svg width="27" height="27" viewBox="0 0 27 27" fill="none" xmlns="http://www.w3.org/2000/svg">
<path d="M13.1254 0C5.88791 0 0 5.88723 0 13.1231C0 20.3607 5.88791 26.2461 13.1254 26.2461C20.3619 26.2461 26.2487 20.3607 26.2487 13.1231C26.2487 5.88723 20.3619 0 13.1254 0ZM13.1046 24.6537C6.78022 24.6537 1.65201 19.5263 1.65201 13.2003C1.65201 9.77496 3.15721 6.70594 5.53974 4.60636L12.196 4.60474C12.7906 4.60636 13.3565 4.71994 13.8688 4.94508C14.3854 5.17332 14.8396 5.47896 15.2177 5.85941C15.5971 6.2377 15.9029 6.69136 16.1306 7.20728C16.3571 7.7217 16.4709 8.28462 16.4709 8.88089C16.4709 9.47689 16.3571 10.0407 16.1306 10.5536C15.9039 11.0702 15.5971 11.5235 15.2177 11.9028C14.8396 12.2812 14.3854 12.5876 13.8688 12.8183C13.3571 13.0418 12.7921 13.1557 12.196 13.1557H10.9951C10.9559 13.1572 10.9189 13.1614 10.8911 13.1657C10.7124 13.1899 10.5538 13.266 10.4235 13.3969C10.2943 13.5279 10.217 13.6878 10.1948 13.8647C10.1768 13.9528 10.1768 14.0414 10.1932 14.1162C10.2128 14.2648 10.2721 14.4019 10.3525 14.4891L15.7685 24.3391C14.9128 24.5415 14.0225 24.6537 13.1046 24.6537ZM17.4024 23.6759L12.4446 14.6559C13.1974 14.6328 13.9048 14.4764 14.5445 14.1932C15.2568 13.8827 15.8902 13.4525 16.4257 12.9162C16.9612 12.3806 17.3912 11.7472 17.7021 11.0375C18.0151 10.3217 18.1748 9.54334 18.1748 8.72504C18.1748 7.90862 18.0151 7.13056 17.7021 6.41503C17.389 5.70342 16.9606 5.07622 16.4235 4.54762C15.8875 4.02103 15.2568 3.59601 14.5445 3.2847C13.8757 2.99217 13.1392 2.83591 12.3849 2.82159L7.99343 2.81876C9.54131 2.03732 11.2902 1.59312 13.1429 1.59312C19.4678 1.59312 24.5978 6.7204 24.5978 13.046C24.5978 17.8651 21.6178 21.9857 17.4024 23.6759Z" fill="#696969"/>
</svg>
