<svg width="28" height="29" viewBox="0 0 28 29" fill="none" xmlns="http://www.w3.org/2000/svg">
<path d="M14.3501 9.83658C13.3753 9.83658 12.5688 9.02368 12.5523 8.02438C12.544 7.04172 13.3421 6.23291 14.3314 6.22461C15.3298 6.22461 16.1143 7.01343 16.1143 8.02057C16.1225 9.00677 15.3364 9.82007 14.3619 9.83658H14.3501Z" fill="#696969"/>
<path d="M13.7417 21.8635C13.4816 21.8635 13.1428 21.8544 12.8303 21.7844C11.7244 21.5546 11.1069 20.6487 11.2877 19.5291C11.4727 18.3674 11.6777 17.1963 11.8759 16.0638C11.9465 15.6608 12.017 15.2578 12.0869 14.8539C12.1135 14.6979 12.142 14.5429 12.1706 14.388C12.2278 14.0776 12.287 13.7568 12.3283 13.4359C12.3597 13.2501 12.3523 13.0392 12.3059 12.7916C12.2181 12.3234 11.9441 12.0585 11.4683 11.9818L11.4525 11.9795C11.377 11.9706 11.3066 11.9669 11.2384 11.9634C11.1523 11.9589 11.0707 11.9547 11.0066 11.9398C10.8461 11.8917 10.65 11.8319 10.5431 11.7517C10.5206 11.7348 10.5116 11.7177 10.5141 11.6963C10.5159 11.6808 10.5253 11.6522 10.5688 11.6331L10.5776 11.6292L10.5862 11.6249C10.6854 11.5753 10.8282 11.5444 10.9588 11.5444C11.1747 11.5414 11.4059 11.54 11.671 11.54C11.9092 11.54 12.1475 11.5412 12.3846 11.5422C12.6207 11.5433 12.8557 11.5444 13.0885 11.5444H15.2181C15.489 11.5444 15.636 11.6136 15.6879 11.9915C15.7299 12.298 15.6562 12.6138 15.5781 12.9481C15.5476 13.0791 15.5159 13.2147 15.4905 13.353C15.3549 14.1201 15.2118 14.895 15.0734 15.6443C14.9463 16.3326 14.8149 17.0442 14.6903 17.7441C14.6016 18.2371 14.5097 18.7474 14.4291 19.2616L14.4278 19.2701C14.404 19.449 14.4131 19.6296 14.4253 19.8143L14.4262 19.8275L14.428 19.8406C14.4738 20.1714 14.6736 20.9409 15.537 20.9409C15.6716 20.9409 15.8177 20.9207 15.9715 20.881C16.156 20.8325 16.3146 20.7473 16.4545 20.6721C16.4966 20.6495 16.5387 20.6268 16.5815 20.6053C16.6569 20.5696 16.7292 20.5305 16.7992 20.4927C16.8892 20.444 16.9745 20.3978 17.0559 20.3646C17.0357 20.4561 16.9709 20.5704 16.8868 20.662C16.119 21.4477 15.2636 21.838 14.2717 21.8555L14.1654 21.8576C14.025 21.8605 13.8833 21.8635 13.7417 21.8635Z" fill="#696969"/>
<path d="M3.60716 28.1284C2.64794 28.1225 2.07158 27.8985 1.84745 27.4434C1.75561 27.2563 1.65292 26.8731 2.00021 26.416L3.55425 24.341C3.76456 24.07 3.87681 23.9109 3.93629 23.7533L4.01949 23.5327L3.85626 23.3627C1.36952 20.7725 0 17.3759 0 13.7984C0 6.18994 6.18994 0 13.7984 0C21.4012 0 27.5865 6.18994 27.5865 13.7984C27.5865 21.4012 21.4012 27.5865 13.7984 27.5865C12.3058 27.5865 10.8397 27.348 9.44069 26.8775L9.34175 26.8443L9.23981 26.8672C9.15491 26.8861 9.08197 26.9118 9.02271 26.9436C8.49037 27.1924 7.9966 27.3902 7.46992 27.5656C7.29878 27.6194 7.13557 27.6617 6.96278 27.7066L6.72041 27.7708C5.85012 28.0083 4.84254 28.1284 3.72285 28.1284H3.60716ZM5.13737 24.1108C5.00082 24.5024 4.79456 24.7855 4.55891 25.0887L3.22266 26.8878L3.98249 26.874C4.88424 26.8579 5.69272 26.7535 6.38544 26.5641L6.65756 26.4921C6.79575 26.4568 6.93872 26.4205 7.08415 26.3742C7.55722 26.216 7.99995 26.0399 8.44305 25.8342L8.45651 25.8279L8.46944 25.8206C8.67563 25.704 8.97711 25.6231 9.31949 25.5924L9.55011 25.5898L9.64958 25.6252C10.9775 26.0957 12.3733 26.3342 13.7984 26.3342C20.7107 26.3342 26.3342 20.7107 26.3342 13.7984C26.3342 6.88042 20.7107 1.25234 13.7984 1.25234C6.88049 1.25234 1.25233 6.88042 1.25233 13.7984C1.25233 17.1364 2.55639 20.2849 4.92415 22.6636L5.00031 22.7401L5.04656 22.8369C5.23483 23.2338 5.26637 23.6745 5.13737 24.1108Z" fill="#696969"/>
</svg>
