<svg width="27" height="27" viewBox="0 0 27 27" fill="none" xmlns="http://www.w3.org/2000/svg">
<path d="M13.663 26.5078C6.50201 26.5089 0.667664 20.6732 0.666504 13.5079C0.665161 6.34357 6.49512 0.511782 13.6624 0.507814C20.821 0.503908 26.6605 6.34381 26.6608 13.5067C26.6609 20.6692 20.8249 26.5067 13.663 26.5078ZM3.09845 13.4822C3.07678 19.2954 7.81927 24.0506 13.661 24.0731C19.4367 24.0953 24.2034 19.3668 24.2221 13.5465C24.2409 7.70819 19.5491 2.95774 13.6802 2.94672C7.84979 2.93585 3.14325 7.62692 3.09845 13.4822Z" fill="white"/>
<path d="M16.0077 17.0426C16.0663 17.5371 16.0394 17.9328 15.6778 18.254C15.2275 18.6541 14.8271 19.1145 14.3549 19.4846C13.6723 20.0199 12.8694 20.2724 11.9973 20.2907C11.5835 20.2994 11.2004 20.1918 10.8444 19.9892C10.2382 19.644 10.0507 19.1324 10.2912 18.4813C11.0644 16.3882 11.8402 14.2959 12.6148 12.2032C12.6428 12.1278 12.6663 12.0506 12.6977 11.9767C12.7586 11.834 12.7729 11.676 12.6322 11.5992C12.5245 11.5404 12.346 11.5078 12.2463 11.5578C12.0074 11.6776 11.7773 11.8319 11.5782 12.0107C11.2191 12.3335 10.8828 12.6818 10.5423 13.0249C10.4364 13.1316 10.3481 13.2559 10.2105 13.3488C10.1612 12.9768 10.0663 12.6366 10.3729 12.3177C11.2518 11.4033 12.2441 10.6714 13.4609 10.2742C13.9592 10.1115 14.4587 10.0586 14.9697 10.2399C15.7978 10.534 16.1379 11.2449 15.8326 12.0661C15.0548 14.1576 14.2784 16.2496 13.5016 18.3415C13.4911 18.3697 13.4865 18.4005 13.4737 18.4276C13.4078 18.5656 13.378 18.7238 13.5185 18.8075C13.6252 18.8711 13.8072 18.9142 13.9051 18.8654C14.1621 18.7372 14.415 18.5797 14.6268 18.387C15.0871 17.9682 15.5208 17.52 16.0077 17.0426Z" fill="white"/>
<path d="M15.5929 6.37012C16.0839 6.37167 16.4798 6.46698 16.8266 6.7189C17.5634 7.25403 17.5616 8.26453 16.8252 8.79938C16.179 9.26871 15.1388 9.26395 14.4949 8.7887C13.7959 8.27267 13.772 7.30814 14.4502 6.76413C14.8018 6.48199 15.2154 6.37357 15.5929 6.37012Z" fill="white"/>
</svg>
