<svg width="28" height="29" viewBox="0 0 28 29" fill="none" xmlns="http://www.w3.org/2000/svg">
<path d="M14.3496 9.83658C13.3748 9.83658 12.5683 9.02368 12.5518 8.02438C12.5435 7.04172 13.3416 6.23291 14.3309 6.22461C15.3293 6.22461 16.1138 7.01343 16.1138 8.02057C16.122 9.00677 15.3359 9.82007 14.3614 9.83658H14.3496Z" fill="#0FAEEF"/>
<path d="M13.7407 21.8635C13.4806 21.8635 13.1418 21.8544 12.8294 21.7844C11.7234 21.5546 11.1059 20.6487 11.2868 19.5291C11.4717 18.3674 11.6767 17.1963 11.8749 16.0638C11.9455 15.6608 12.016 15.2578 12.086 14.8539C12.1125 14.6979 12.141 14.5429 12.1697 14.388C12.2269 14.0776 12.286 13.7568 12.3273 13.4359C12.3587 13.2501 12.3514 13.0392 12.3049 12.7916C12.2171 12.3234 11.9432 12.0585 11.4673 11.9818L11.4515 11.9795C11.376 11.9706 11.3056 11.9669 11.2374 11.9634C11.1513 11.9589 11.0697 11.9547 11.0056 11.9398C10.8451 11.8917 10.649 11.8319 10.5422 11.7517C10.5196 11.7348 10.5106 11.7177 10.5131 11.6963C10.5149 11.6808 10.5243 11.6522 10.5678 11.6331L10.5766 11.6292L10.5852 11.6249C10.6844 11.5753 10.8272 11.5444 10.9578 11.5444C11.1737 11.5414 11.4049 11.54 11.67 11.54C11.9083 11.54 12.1465 11.5412 12.3836 11.5422C12.6197 11.5433 12.8547 11.5444 13.0875 11.5444H15.2171C15.488 11.5444 15.635 11.6136 15.6869 11.9915C15.7289 12.298 15.6553 12.6138 15.5771 12.9481C15.5466 13.0791 15.515 13.2147 15.4895 13.353C15.3539 14.1201 15.2108 14.895 15.0725 15.6443C14.9453 16.3326 14.814 17.0442 14.6893 17.7441C14.6006 18.2371 14.5087 18.7474 14.4281 19.2616L14.4268 19.2701C14.403 19.449 14.4121 19.6296 14.4244 19.8143L14.4252 19.8275L14.427 19.8406C14.4729 20.1714 14.6726 20.9409 15.5361 20.9409C15.6706 20.9409 15.8167 20.9207 15.9705 20.881C16.155 20.8325 16.3136 20.7473 16.4536 20.6721C16.4957 20.6495 16.5377 20.6268 16.5806 20.6053C16.6559 20.5696 16.7282 20.5305 16.7982 20.4927C16.8882 20.444 16.9736 20.3978 17.0549 20.3646C17.0347 20.4561 16.9699 20.5704 16.8859 20.662C16.118 21.4477 15.2626 21.838 14.2707 21.8555L14.1644 21.8576C14.024 21.8605 13.8823 21.8635 13.7407 21.8635Z" fill="#0FAEEF"/>
<path d="M3.60716 28.1284C2.64794 28.1225 2.07158 27.8985 1.84745 27.4434C1.75561 27.2563 1.65292 26.8731 2.00021 26.416L3.55425 24.341C3.76456 24.07 3.87681 23.9109 3.93629 23.7533L4.01949 23.5327L3.85626 23.3627C1.36952 20.7725 0 17.3759 0 13.7984C0 6.18994 6.18994 0 13.7984 0C21.4012 0 27.5865 6.18994 27.5865 13.7984C27.5865 21.4012 21.4012 27.5865 13.7984 27.5865C12.3058 27.5865 10.8397 27.348 9.44069 26.8775L9.34175 26.8443L9.23981 26.8672C9.15491 26.8861 9.08197 26.9118 9.02271 26.9436C8.49037 27.1924 7.9966 27.3902 7.46992 27.5656C7.29878 27.6194 7.13557 27.6617 6.96278 27.7066L6.72041 27.7708C5.85012 28.0083 4.84254 28.1284 3.72285 28.1284H3.60716ZM5.13737 24.1108C5.00082 24.5024 4.79456 24.7855 4.55891 25.0887L3.22266 26.8878L3.98249 26.874C4.88424 26.8579 5.69272 26.7535 6.38544 26.5641L6.65756 26.4921C6.79575 26.4568 6.93872 26.4205 7.08415 26.3742C7.55722 26.216 7.99995 26.0399 8.44305 25.8342L8.45651 25.8279L8.46944 25.8206C8.67563 25.704 8.97711 25.6231 9.31949 25.5924L9.55011 25.5898L9.64958 25.6252C10.9775 26.0957 12.3733 26.3342 13.7984 26.3342C20.7107 26.3342 26.3342 20.7107 26.3342 13.7984C26.3342 6.88042 20.7107 1.25234 13.7984 1.25234C6.88049 1.25234 1.25233 6.88042 1.25233 13.7984C1.25233 17.1364 2.55639 20.2849 4.92415 22.6636L5.00031 22.7401L5.04656 22.8369C5.23483 23.2338 5.26637 23.6745 5.13737 24.1108Z" fill="#0FAEEF"/>
</svg>
