<svg width="28" height="29" viewBox="0 0 28 29" fill="none" xmlns="http://www.w3.org/2000/svg">
<path d="M20.8389 11.377C20.8046 10.9335 20.7443 10.4843 20.6274 10.0566C20.3835 9.16409 19.8171 8.53176 18.9335 8.22958C18.567 8.10409 18.179 8.02059 17.7939 7.97549C17.3237 7.92043 16.8461 7.91012 16.3718 7.90798C14.8353 7.90102 13.2981 7.89565 11.7618 7.91293C11.177 7.91958 10.5874 7.9537 10.0092 8.03701C8.43196 8.26437 7.61202 9.35604 7.43758 10.6241C7.38057 11.0382 7.34065 11.4577 7.33431 11.8753C7.31941 12.853 7.3293 13.8311 7.3293 14.809C7.3293 15.7869 7.31539 16.7651 7.33467 17.7427C7.34419 18.2158 7.3962 18.6904 7.46309 19.1593C7.61629 20.2309 8.41146 21.3379 9.90999 21.5697C10.6306 21.6814 11.3541 21.7231 12.0804 21.7278C13.4773 21.7367 14.8745 21.7321 16.2714 21.7284C16.9707 21.7265 17.6676 21.6854 18.3546 21.549C19.4526 21.3312 20.236 20.7324 20.5942 19.6451C20.6724 19.4078 20.7373 19.1603 20.764 18.9129C20.823 18.3579 20.8823 17.8002 20.8903 17.243C20.9099 15.902 20.9061 14.5605 20.8995 13.219C20.8967 12.6049 20.8857 11.989 20.8389 11.377ZM18.3613 15.4453C18.0324 17.7153 16.124 19.3116 13.8302 19.1484C11.4086 18.9763 9.76729 16.9379 9.81221 14.7934C9.83785 13.1966 10.5015 11.9563 11.8553 11.0843C13.2564 10.1814 15.651 10.117 17.2137 11.8169C18.1611 12.8468 18.5588 14.0814 18.3613 15.4453ZM18.5162 11.3133C17.9569 11.2873 17.5495 10.844 17.5401 10.2801C17.5301 9.67794 18.0698 9.25045 18.5308 9.27157C19.1114 9.29824 19.5736 9.77651 19.5617 10.3551C19.5509 10.888 19.059 11.3386 18.5162 11.3133Z" fill="white"/>
<path d="M26.9327 9.41193C24.838 4.32184 19.9002 0.769348 14.0955 0.737305C11.1746 0.737671 8.31551 1.69214 6.08577 3.29688C3.72347 4.99677 2.045 7.21213 1.04646 9.93689C0.120195 12.4642 -0.0582719 15.0671 0.491044 17.6919C1.24397 21.2862 3.10994 24.2015 6.10799 26.3372C9.42659 28.7016 13.1175 29.446 17.0975 28.6022C20.0011 27.9866 22.4388 26.5225 24.4095 24.2993C26.314 22.151 27.4781 19.6585 27.8631 16.8055C28.2078 14.2568 27.9107 11.7891 26.9327 9.41193ZM22.4227 18.2898C22.4207 18.9648 22.2972 19.6263 22.0601 20.2549C21.484 21.7814 20.3888 22.7254 18.7904 23.0738C18.1602 23.211 17.5179 23.2473 16.8763 23.25C15.0902 23.2577 13.3043 23.2551 11.5184 23.2498C11.1278 23.2486 10.7371 23.2277 10.3472 23.2018C9.816 23.1665 9.29378 23.0703 8.79451 22.8813C7.29915 22.3148 6.36336 21.2502 5.98982 19.6953C5.89217 19.2885 5.82186 18.8792 5.81819 18.4554C5.80769 17.2276 5.77644 16.0001 5.75374 14.7831C5.7784 13.5162 5.7972 12.2604 5.82845 11.0051C5.84529 10.3289 6.00838 9.6828 6.27303 9.06049C6.69686 8.06351 7.41267 7.35153 8.38924 6.90134C8.95003 6.64267 9.54134 6.5032 10.1615 6.44412C11.4974 6.31656 12.8365 6.34207 14.1754 6.3331C14.7335 6.32944 15.2921 6.35153 15.8494 6.33438C16.6619 6.30917 17.4674 6.39053 18.2706 6.47861C20.5748 6.7316 21.9732 8.38199 22.2782 10.2632C22.3636 10.7891 22.4261 11.3116 22.4263 11.8424C22.4273 13.9915 22.4293 16.1407 22.4227 18.2898Z" fill="white"/>
<path d="M13.6534 12.0522C12.4858 12.2903 11.7231 13.0108 11.429 14.1767C10.9998 15.88 12.304 17.5715 14.0406 17.5851C15.1861 17.6116 16.1469 16.9484 16.6001 15.8958C17.0747 14.7926 16.885 13.7565 16.0739 12.8744C15.4284 12.1726 14.5988 11.859 13.6534 12.0522Z" fill="white"/>
</svg>
