<svg width="28" height="36" viewBox="0 0 28 36" fill="none" xmlns="http://www.w3.org/2000/svg">
<path d="M14.0127 35.6795C12.6931 33.3968 11.4334 31.3087 10.2705 29.1681C9.65982 28.0442 8.8837 27.282 7.69223 26.703C2.39517 24.1283 -0.712251 18.1407 0.131499 12.4191C1.04165 6.24722 5.68588 1.48092 11.7403 0.505089C18.7989 -0.632545 25.4879 3.59615 27.466 10.4467C29.4048 17.1609 25.9895 24.3101 19.5267 27.1469C19.0671 27.3488 18.6206 27.7699 18.36 28.2041C16.9167 30.6093 15.5328 33.0502 14.0127 35.6795ZM14.0135 3.98367C8.27951 3.98464 3.63211 8.62661 3.6719 14.3131C3.71188 20.0193 8.4053 24.6857 14.0595 24.641C19.7124 24.5962 24.3159 19.9779 24.352 14.3157C24.3882 8.62582 19.7421 3.98275 14.0135 3.98367Z" fill="#0FAEEF"/>
<path d="M14.0197 16.5419C16.4561 14.6257 18.8311 12.7578 21.3649 10.7651V18.444H6.63574V10.7446C9.17188 12.7357 11.5697 14.6184 14.0197 16.5419Z" fill="#0FAEEF"/>
<path d="M7.64648 10.1528H20.37C18.1469 11.9174 16.1552 13.4983 14.0243 15.1895C11.9844 13.5785 9.95044 11.9723 7.64648 10.1528Z" fill="#0FAEEF"/>
</svg>
