<svg width="19" height="14" viewBox="0 0 19 14" fill="none" xmlns="http://www.w3.org/2000/svg">
<path d="M0.19771 4.28418C0.26198 4.31897 0.303995 4.33905 0.343348 4.36343C1.30652 4.95883 2.26933 5.55487 3.23226 6.15057C4.84344 7.14737 6.45468 8.14401 8.0658 9.14081C8.29019 9.27963 8.51448 9.41855 8.73831 9.55832C8.88069 9.64728 9.03283 9.70432 9.20223 9.71259C9.39561 9.72189 9.57124 9.67001 9.7351 9.56946C10.6566 9.00421 11.5786 8.43988 12.5001 7.87451C13.8526 7.04474 15.2047 6.21429 16.557 5.38431C17.0942 5.05457 17.6315 4.72507 18.1691 4.396C18.2086 4.37183 18.2508 4.35202 18.2897 4.33127C18.3459 4.3786 18.3285 4.43365 18.3286 4.48203C18.3296 5.03531 18.3291 5.58868 18.3284 6.14212C18.3272 7.09488 18.3259 8.04764 18.3242 9.00046C18.322 10.1877 18.3176 11.375 18.3183 12.5624C18.3186 12.859 18.2475 13.1283 18.0617 13.362C17.82 13.666 17.4999 13.8146 17.1147 13.8159C16.3854 13.8184 15.6562 13.8153 14.9269 13.8138C11.2292 13.8064 7.53161 13.799 3.83399 13.791C3.02044 13.7892 2.20693 13.7838 1.39341 13.7829C1.14087 13.7826 0.90568 13.7278 0.697008 13.5827C0.376337 13.3599 0.190111 13.0538 0.174952 12.6619C0.161936 12.3252 0.171053 11.9877 0.171328 11.6506C0.172518 10.2507 0.173479 8.85077 0.175684 7.45084C0.176867 6.67029 0.180216 5.88977 0.182734 5.10916C0.183459 4.88565 0.184115 4.66214 0.185984 4.43869C0.18635 4.39587 0.192316 4.35315 0.19771 4.28418Z" fill="white"/>
<path d="M9.25607 0.834279C11.2203 0.834279 13.1846 0.833638 15.1488 0.834646C15.8084 0.834951 16.468 0.837697 17.1276 0.842275C17.569 0.845266 17.9093 1.03679 18.1472 1.4077C18.2822 1.61825 18.325 1.85405 18.3285 2.1003C18.3295 2.174 18.2898 2.21288 18.2331 2.24712C18.0198 2.37581 17.8072 2.50579 17.5947 2.63595C15.3981 3.98198 13.2015 5.32805 11.0051 6.67434C10.4614 7.0075 9.91821 7.34136 9.37481 7.67495C9.35918 7.68456 9.34264 7.69283 9.32804 7.70376C9.27379 7.74416 9.22376 7.73925 9.16683 7.70302C8.95962 7.57134 8.75022 7.44317 8.54145 7.31383C6.51635 6.05977 4.49142 4.80553 2.46603 3.55187C1.75244 3.11028 1.03774 2.67046 0.323557 2.22979C0.301737 2.21636 0.280535 2.20177 0.258265 2.18914C0.212511 2.16314 0.194964 2.12472 0.191668 2.07192C0.157129 1.51961 0.530016 1.00008 1.06977 0.86501C1.19264 0.834218 1.32324 0.822469 1.45032 0.822408C2.98947 0.821523 4.52861 0.825002 6.06777 0.826314C7.13053 0.827199 8.1933 0.826497 9.25607 0.826497V0.834279Z" fill="white"/>
</svg>
