<svg width="14" height="23" viewBox="0 0 14 23" fill="none" xmlns="http://www.w3.org/2000/svg">
<path d="M11.861 0H2.52008C1.62027 0 0.886719 0.733078 0.886719 1.63292V20.6153C0.886719 21.5152 1.62027 22.2483 2.52008 22.2483H11.861C12.7627 22.2483 13.4939 21.5152 13.4939 20.6153V1.63292C13.4939 0.733078 12.7627 0 11.861 0ZM1.62964 2.96559H12.7538V17.0577H1.62964V2.96559ZM2.52008 0.742439H11.861C12.3532 0.742439 12.7538 1.14247 12.7538 1.63292V2.22501H1.62964V1.63292C1.62964 1.14247 2.02969 0.742439 2.52008 0.742439ZM11.861 21.5058H2.52008C2.02969 21.5058 1.62964 21.1058 1.62964 20.6153V17.7978H12.7538V20.6153C12.7538 21.1058 12.3532 21.5058 11.861 21.5058Z" fill="white"/>
</svg>
