<svg width="25" height="25" viewBox="0 0 25 25" fill="none" xmlns="http://www.w3.org/2000/svg">
<path d="M13.2922 0C12.9255 0 12.5587 0 12.1919 0C12.1387 0.00758362 12.0857 0.0194702 12.0322 0.0221558C11.1687 0.065155 10.3175 0.196106 9.4884 0.437119C5.96436 1.46159 3.37268 3.61864 1.7229 6.89412C1.08313 8.16432 0.707642 9.51872 0.561279 10.9347C0.53479 11.1905 0.512451 11.4466 0.488281 11.7026V12.8028C0.495728 12.8514 0.50769 12.8997 0.51001 12.9485C0.542236 13.6405 0.636963 14.3247 0.797607 14.9976C1.50476 17.9616 3.08569 20.3539 5.53748 22.161C7.20081 23.387 9.06995 24.1221 11.1163 24.3994C12.0022 24.5194 12.8922 24.5374 13.7847 24.4605C14.7844 24.3744 15.7596 24.1756 16.7072 23.8485C18.8337 23.1143 20.6321 21.8918 22.0856 20.1755C23.807 18.1429 24.7611 15.7893 24.9652 13.1352C25.0548 11.97 24.9701 10.8138 24.7222 9.6706C24.252 7.50255 23.2644 5.60049 21.7672 3.96651C20.5187 2.60394 19.0331 1.57637 17.3186 0.883926C16.2715 0.461029 15.186 0.188004 14.0619 0.0728302C13.8055 0.0465851 13.5488 0.0241699 13.2922 0ZM18.6027 18.8857L18.5969 18.886C18.5969 18.965 18.6024 19.0445 18.5955 19.1229C18.5886 19.2011 18.5754 19.2799 18.5547 19.3556C18.3643 20.0492 17.5818 20.5185 16.7693 20.1985C15.5015 19.6991 14.2246 19.2229 12.95 18.7409C12.8909 18.7185 12.8093 18.7155 12.751 18.7373C12.132 18.9678 11.5155 19.2053 10.8983 19.4408C10.2189 19.6999 9.54224 19.9664 8.8595 20.2161C7.94604 20.5501 7.04248 19.8816 7.08862 18.9108C7.10974 18.4657 7.14368 18.0213 7.17175 17.5765C7.22839 16.6746 7.28271 15.7725 7.34448 14.8709C7.35278 14.7485 7.3186 14.6605 7.24292 14.5678C6.37634 13.5064 5.51184 12.4433 4.65002 11.3781C4.01868 10.5978 4.38037 9.49944 5.35242 9.25688C6.67859 8.92588 8.00745 8.6054 9.33398 8.27586C9.39807 8.25993 9.47156 8.21307 9.50635 8.15868C9.87866 7.57687 10.2439 6.99056 10.6113 6.40561C10.9875 5.80656 11.3624 5.20667 11.7408 4.60902C11.9688 4.2491 12.2958 4.03656 12.7219 4.00157C13.2723 3.95639 13.6896 4.18617 13.981 4.65048C14.7108 5.81358 15.4408 6.97662 16.1681 8.14132C16.2183 8.22166 16.2773 8.26296 16.3701 8.28557C17.6777 8.60437 18.9835 8.93127 20.2917 9.24819C21.3145 9.49596 21.6908 10.5828 21.0288 11.3987C20.2206 12.3948 19.4161 13.3942 18.5977 14.3819C18.4177 14.5989 18.2872 14.8047 18.3651 15.0955C18.3809 15.1543 18.3701 15.22 18.374 15.2823C18.45 16.4835 18.5264 17.6846 18.6027 18.8857Z" fill="#FEFEFE"/>
</svg>
