<svg width="25" height="21" viewBox="0 0 25 21" fill="none" xmlns="http://www.w3.org/2000/svg">
<path d="M12.6732 20.9969C9.81128 20.9967 6.94934 21.0024 4.08753 20.9944C2.43213 20.9898 0.936342 19.6522 0.726198 18.0086C0.701356 17.8146 0.687379 17.6177 0.687257 17.4222C0.685182 12.9296 0.685426 8.43693 0.685792 3.94434C0.685915 2.22709 1.83032 0.814531 3.51264 0.461672C3.69714 0.422953 3.88898 0.402285 4.07739 0.40217C9.19214 0.398985 14.3068 0.395876 19.4216 0.401732C21.078 0.403662 22.5747 1.74482 22.7786 3.3877C22.7986 3.54869 22.8571 3.65115 23.0003 3.74433C24.0858 4.44973 24.6534 5.45474 24.6561 6.75184C24.6635 10.3341 24.6597 13.9164 24.6581 17.4987C24.6574 19.4234 23.109 20.9886 21.1803 20.9948C18.3445 21.0038 15.5089 20.9971 12.6732 20.9969ZM11.7684 19.1059C14.2509 19.1059 16.7332 19.1079 19.2155 19.1049C20.2529 19.1037 20.9249 18.4284 20.9252 17.3942C20.9261 12.9273 20.9257 8.46029 20.9244 3.99331C20.9244 3.86295 20.9238 3.72936 20.8972 3.60276C20.7274 2.7916 20.0944 2.29171 19.2269 2.29136C14.2491 2.28935 9.27124 2.28935 4.29352 2.29132C3.26019 2.29171 2.58258 2.96913 2.58203 4.00157C2.58008 8.4685 2.57996 12.9355 2.58545 17.4024C2.58569 17.6146 2.61707 17.8366 2.68445 18.037C2.9115 18.7131 3.51563 19.1048 4.30176 19.1053C6.79059 19.1068 9.27954 19.1058 11.7684 19.1059Z" fill="white"/>
<path d="M19.8194 13.0682C19.8194 14.2469 19.8197 15.4256 19.8192 16.6043C19.8191 17.1127 19.6283 17.303 19.1203 17.3031C16.8023 17.3033 14.4842 17.3033 12.1661 17.3031C11.6567 17.303 11.4622 17.1112 11.4621 16.6073C11.4618 14.2433 11.4618 11.8794 11.4621 9.5155C11.4621 9.01119 11.6595 8.81371 12.163 8.81368C14.4812 8.81341 16.7992 8.81341 19.1174 8.81368C19.6246 8.81371 19.8191 9.00716 19.8192 9.5125C19.8197 10.6978 19.8194 11.883 19.8194 13.0682Z" fill="white"/>
<path d="M13.8844 5.35917C13.7324 5.80563 13.5965 6.20371 13.4612 6.60196C13.3981 6.78749 13.3415 6.97545 13.2723 7.15863C13.1851 7.38965 13.0126 7.50791 12.7801 7.51064C12.5394 7.51341 12.3538 7.39543 12.2709 7.15424C11.9039 6.08522 11.5395 5.01516 11.183 3.94256C11.0838 3.64388 11.2217 3.3877 11.4981 3.29962C11.7947 3.20501 12.0641 3.33756 12.1681 3.64048C12.3399 4.14103 12.5047 4.64399 12.673 5.14579C12.6995 5.22521 12.728 5.30402 12.7749 5.43821C12.9066 5.04887 13.021 4.71182 13.1346 4.3744C13.2137 4.13902 13.29 3.90269 13.3699 3.6676C13.4621 3.39617 13.6263 3.27119 13.8856 3.27072C14.1462 3.27027 14.3174 3.39703 14.4063 3.66239C14.5784 4.17666 14.7482 4.69177 14.9198 5.20617C14.9397 5.26547 14.966 5.32258 15.0083 5.42783C15.1293 5.06954 15.2355 4.75721 15.3401 4.44436C15.4292 4.17797 15.5136 3.90997 15.6057 3.64463C15.711 3.34155 15.9764 3.20637 16.273 3.2981C16.5567 3.38587 16.6932 3.64822 16.5899 3.95776C16.2341 5.02364 15.8719 6.0875 15.5062 7.15007C15.4221 7.39446 15.2403 7.51181 14.9999 7.51067C14.7597 7.50949 14.5823 7.38864 14.4978 7.14473C14.3182 6.62601 14.1472 6.10436 13.9719 5.58413C13.9521 5.52522 13.9271 5.46812 13.8844 5.35917Z" fill="white"/>
<path d="M7.26466 14.0067C6.47889 14.0067 5.69313 14.0111 4.90761 14.005C4.47816 14.0017 4.13649 13.7399 4.00953 13.3399C3.88673 12.9526 4.01076 12.5314 4.36036 12.3007C4.51588 12.1982 4.72145 12.1212 4.90516 12.1196C6.47633 12.1057 8.04786 12.1085 9.61928 12.1133C10.147 12.1148 10.5546 12.5305 10.5582 13.0479C10.5619 13.5807 10.1622 13.9989 9.62172 14.0046C8.83607 14.0128 8.05043 14.0067 7.26466 14.0067Z" fill="white"/>
<path d="M7.26479 8.95047C8.03091 8.95047 8.79702 8.94431 9.56301 8.95248C10.1511 8.95877 10.5554 9.34772 10.5583 9.88785C10.5612 10.4339 10.1476 10.8432 9.57998 10.8445C8.30972 10.8474 7.03945 10.8454 5.76907 10.8455C5.48757 10.8455 5.20596 10.8486 4.92434 10.8446C4.39394 10.837 3.9811 10.4402 3.9623 9.9245C3.94375 9.41187 4.33425 8.97299 4.86868 8.96045C5.66689 8.94171 6.46597 8.9556 7.26479 8.9556V8.95047Z" fill="white"/>
<path d="M7.26776 17.1713C6.5083 17.1712 5.74878 17.1703 4.98926 17.1716C4.59168 17.1723 4.27112 17.0283 4.07874 16.6684C3.73969 16.0338 4.17261 15.2977 4.90204 15.2839C5.65473 15.2697 6.40784 15.28 7.16083 15.2799C7.97925 15.2798 8.79767 15.2758 9.61603 15.2822C10.0333 15.2855 10.3657 15.5205 10.4991 15.8817C10.6391 16.2605 10.537 16.6728 10.236 16.9373C10.0331 17.1156 9.78992 17.1721 9.52667 17.1717C8.77368 17.1705 8.02075 17.1713 7.26776 17.1713Z" fill="white"/>
<path d="M5.04776 5.30236C5.04287 5.40779 5.03769 5.46984 5.03762 5.53187C5.03689 5.99663 5.03939 6.46143 5.03634 6.92618C5.03421 7.28119 4.82492 7.51206 4.51455 7.51084C4.20974 7.50965 4.00827 7.28875 4.00723 6.93886C4.00454 5.90462 4.00497 4.87034 4.00723 3.8361C4.00772 3.54318 4.12008 3.3739 4.34628 3.30174C4.60836 3.21814 4.86465 3.29379 5.02584 3.51417C5.45077 4.09497 5.87179 4.67863 6.29458 5.26104C6.33871 5.32185 6.38369 5.38211 6.4747 5.42883C6.4747 5.36082 6.47451 5.29287 6.4747 5.22491C6.47555 4.74052 6.46951 4.25599 6.48019 3.77183C6.48593 3.50744 6.62643 3.34671 6.86032 3.28904C7.0834 3.23407 7.31387 3.31387 7.42111 3.50961C7.47189 3.60237 7.49881 3.7201 7.49935 3.82675C7.50509 4.8675 7.50473 5.90833 7.50149 6.94912C7.5007 7.23532 7.38113 7.40718 7.15463 7.48081C6.88906 7.5672 6.64907 7.49311 6.48019 7.26241C6.0317 6.65015 5.58639 6.03562 5.13967 5.4221C5.11831 5.39274 5.09549 5.36441 5.04776 5.30236Z" fill="white"/>
<path d="M8.99067 4.2958V4.83067C9.12629 4.83067 9.25452 4.83056 9.38257 4.83072C9.67047 4.83107 9.95862 4.82591 10.2465 4.83361C10.5305 4.84121 10.7255 5.03717 10.7407 5.3139C10.7557 5.58546 10.576 5.82204 10.2965 5.84087C9.94471 5.86457 9.59034 5.85218 9.23713 5.85514C9.16065 5.85576 9.08399 5.85521 8.99512 5.85521V6.51471C9.07337 6.51818 9.14313 6.52372 9.21296 6.52395C9.65143 6.52521 10.09 6.52092 10.5284 6.52736C10.8106 6.53153 11.0174 6.74004 11.0215 7.00631C11.0256 7.26436 10.8342 7.49797 10.5637 7.50316C9.85053 7.51685 9.13691 7.51638 8.42389 7.50406C8.15296 7.49939 7.96326 7.29325 7.96137 7.01212C7.9538 5.93233 7.95368 4.85237 7.96076 3.77258C7.96265 3.47419 8.16016 3.27842 8.45838 3.27446C9.1258 3.26561 9.79358 3.26478 10.461 3.27501C10.7684 3.27969 10.9552 3.49536 10.9507 3.79693C10.9463 4.09671 10.7512 4.29094 10.4385 4.29443C10.0328 4.29896 9.6269 4.29568 9.22113 4.2958C9.15088 4.2958 9.08045 4.2958 8.99067 4.2958Z" fill="white"/>
<path d="M18.3866 7.51777C17.7337 7.49311 17.2788 7.33562 16.8867 7.01082C16.61 6.78151 16.5671 6.49862 16.7677 6.25838C16.9796 6.00419 17.2581 5.99396 17.5406 6.22251C17.8404 6.46508 18.182 6.54763 18.5518 6.43302C18.6428 6.40481 18.765 6.30532 18.7726 6.22867C18.7799 6.15491 18.6737 6.03032 18.5893 5.99424C18.3137 5.87664 18.0228 5.79533 17.7423 5.68884C17.357 5.54268 17.0286 5.32373 16.8847 4.91244C16.6604 4.27066 16.9544 3.62736 17.5954 3.39906C18.2038 3.18237 18.8055 3.23001 19.377 3.53897C19.6532 3.68828 19.7393 3.96065 19.6077 4.21855C19.4699 4.48832 19.1956 4.57937 18.9108 4.44143C18.6295 4.3052 18.3379 4.25776 18.0358 4.33944C17.9655 4.35843 17.8675 4.42991 17.8609 4.48631C17.8544 4.54358 17.9321 4.64125 17.9959 4.67C18.1856 4.75531 18.3899 4.80754 18.5822 4.88736C18.8224 4.98703 19.0783 5.06976 19.2894 5.21495C20.0851 5.76199 19.9769 6.93232 19.0934 7.32259C18.83 7.43892 18.533 7.47884 18.3866 7.51777Z" fill="white"/>
</svg>
