<svg width="20" height="14" viewBox="0 0 20 14" fill="none" xmlns="http://www.w3.org/2000/svg">
<path d="M4.73499 10.4277C7.33679 7.19476 9.84601 4.07687 12.4079 0.893555C12.9081 1.28574 13.3408 1.62485 13.8304 2.0087C10.8402 5.7308 7.90222 9.38763 5.02258 12.9721C3.45172 11.3918 1.91754 9.84857 0.296875 8.2182C0.533447 7.96628 0.904236 7.57123 1.36066 7.08493C2.49445 8.20816 3.57428 9.2778 4.73499 10.4277Z" fill="#AFAFAF"/>
<path d="M18.0465 0.878906C18.5398 1.27661 18.9702 1.62366 19.4541 2.01376C16.4663 5.73239 13.5266 9.39133 10.5839 13.054C9.81989 12.2432 9.10168 11.481 8.31641 10.6478C8.5683 10.3357 8.91199 9.90973 9.28705 9.44501C9.67535 9.77737 9.99939 10.0546 10.3903 10.3893C12.9453 7.21558 15.4735 4.07498 18.0465 0.878906Z" fill="#AFAFAF"/>
</svg>
