<svg width="24" height="27" viewBox="0 0 24 27" fill="none" xmlns="http://www.w3.org/2000/svg">
<path d="M10.2941 4.24571C9.38607 2.6262 9.44771 1.49833 10.4779 0.608377C11.3869 -0.176841 12.6905 -0.206443 13.6417 0.545633C14.2147 0.998636 14.5172 1.60246 14.5678 2.32749C14.6182 3.05094 14.3458 3.67106 13.8644 4.24192C13.9961 4.2916 14.0759 4.3289 14.1596 4.35233C16.5526 5.02067 18.0526 6.62296 18.7381 8.94761C19.0775 10.0983 19.2137 11.3164 19.3635 12.5138C19.5598 14.0834 19.8765 15.6187 20.3921 17.1135C20.7748 18.2229 21.4145 19.1539 22.307 19.9168C22.9651 20.4794 23.2489 21.2097 23.213 22.0677C23.1824 22.8018 22.7493 23.2813 22.0142 23.3763C21.7313 23.4128 21.4428 23.4164 21.1567 23.4168C19.2817 23.4194 17.4067 23.4248 15.5318 23.4096C15.153 23.4065 14.9914 23.516 14.921 23.9125C14.6678 25.3393 13.4813 26.297 12.0502 26.2821C10.6792 26.268 9.50447 25.2771 9.27126 23.893C9.20772 23.5162 9.05721 23.4084 8.68929 23.4114C6.78835 23.4263 4.88735 23.417 2.98629 23.4162C2.89516 23.4162 2.80391 23.4176 2.71291 23.4159C1.27651 23.3884 0.672199 22.5915 1.08992 21.2054C1.20589 20.8205 1.39833 20.3832 1.69515 20.1408C3.35872 18.7821 4.02718 16.9133 4.4211 14.9196C4.69808 13.5179 4.85506 12.0922 5.05526 10.6758C5.21517 9.54459 5.51686 8.46238 6.07857 7.45902C6.94106 5.91825 8.21614 4.89646 9.90517 4.3881C10.0049 4.35819 10.1051 4.32981 10.2043 4.2982C10.2281 4.29057 10.2486 4.27274 10.2941 4.24571Z" fill="#0FAEEF"/>
</svg>
