<svg width="27" height="26" viewBox="0 0 27 26" fill="none" xmlns="http://www.w3.org/2000/svg">
<path d="M3.1952 6.44331C3.26747 6.9566 3.34583 7.82839 3.52552 8.67871C3.6504 9.26934 3.49378 9.70994 3.10035 10.1134C2.49122 10.7382 1.87361 11.3548 1.27491 11.9893C0.654428 12.647 0.649545 13.103 1.25306 13.7893C1.57081 14.1507 1.87464 14.5491 2.26228 14.8197C3.45301 15.6512 3.63526 16.8023 3.42103 18.1089C3.33216 18.6515 3.21449 19.1905 3.1526 19.736C3.05628 20.5846 3.30885 20.921 4.15083 21.0736C4.7367 21.1798 5.33204 21.2325 5.92048 21.3259C7.10237 21.5132 7.91175 22.1984 8.43824 23.2475C8.60267 23.5751 8.75636 23.9081 8.91834 24.237C9.5669 25.5542 9.9297 25.6742 11.2124 24.9947C11.4758 24.8552 11.7382 24.7133 11.9964 24.5646C13.2601 23.8364 14.521 23.8511 15.7849 24.5657C16.164 24.78 16.5429 24.9976 16.9362 25.1834C17.8219 25.6021 18.1889 25.4786 18.6645 24.6035C18.8939 24.1813 19.0914 23.7417 19.3025 23.3096C19.9317 22.0213 20.9667 21.3451 22.3912 21.2255C22.869 21.1854 23.3488 21.1112 23.8147 20.9987C24.5656 20.8173 24.7941 20.4678 24.6857 19.7017C24.612 19.1805 24.5149 18.6609 24.3953 18.1483C24.0958 16.8648 24.4851 15.7972 25.3858 14.8853C25.676 14.5914 25.9924 14.3236 26.2864 14.0332C27.2325 13.0987 27.2363 12.6737 26.3065 11.7486C26.03 11.4734 25.7362 11.2156 25.4542 10.9457C24.4205 9.95655 24.0191 8.79342 24.4574 7.38684C24.5381 7.12769 24.5543 6.84774 24.593 6.57635C24.8067 5.07566 24.5877 4.77445 23.0713 4.69438C21.067 4.58853 19.6044 3.76729 18.9435 1.77581C18.858 1.51834 18.7098 1.27814 18.5682 1.04349C18.1504 0.351053 17.7494 0.226927 17.0133 0.573676C16.3293 0.895827 15.6264 1.19143 14.9835 1.58347C14.2264 2.04515 13.5458 2.02829 12.7937 1.58116C12.1456 1.1959 11.4479 0.891851 10.7638 0.569771C10.0255 0.222242 9.60835 0.340262 9.21229 1.04011C8.91993 1.55667 8.65601 2.093 8.42439 2.63958C7.91493 3.84193 7.02137 4.4561 5.72346 4.53866C5.20081 4.57192 4.67524 4.64884 4.16505 4.76643C3.22645 4.98277 3.11927 5.15159 3.1952 6.44331ZM22.6403 18.8615C22.6596 19.2985 22.3435 19.446 21.8914 19.4385C19.772 19.4034 18.3796 20.3846 17.6738 22.3902C17.3626 23.2745 17.1611 23.3175 16.3793 22.7802C15.5024 22.1777 14.5443 21.7187 13.4864 21.9515C12.7033 22.1238 11.9674 22.5442 11.2354 22.9046C10.5618 23.2363 10.4255 23.2304 10.1818 22.5259C9.47852 20.4923 8.10658 19.4079 5.91468 19.4102C5.16969 19.4111 5.01344 19.1852 5.22718 18.4658C5.83082 16.4341 5.38355 14.7625 3.61457 13.4971C3.0091 13.0639 3.00868 12.6914 3.62843 12.252C5.41108 10.9885 5.81593 9.30107 5.24983 7.27868C5.02308 6.46873 5.12074 6.35411 5.95509 6.34055C8.06318 6.30627 9.34419 5.40772 10.0879 3.44162C10.4427 2.50349 10.6412 2.43943 11.4782 2.993C13.2432 4.16053 14.5718 4.16408 16.3203 3.00596C17.182 2.43524 17.3363 2.47783 17.7004 3.4342C18.1885 4.71653 18.9479 5.74172 20.3351 6.12027C20.8375 6.25739 21.3718 6.29377 21.8949 6.3353C22.5679 6.38876 22.7504 6.60552 22.5999 7.26335C22.5642 7.41924 22.5092 7.57056 22.4688 7.72549C22.0097 9.48472 22.4855 10.9361 23.903 12.0775C24.8585 12.847 24.8573 12.9947 23.8845 13.754C22.7063 14.6737 22.1416 15.8586 22.3471 17.362C22.4119 17.8364 22.5295 18.3036 22.6403 18.8615Z" fill="#FDFDFD"/>
<path d="M17.7043 17.6479C18.4122 17.6579 18.7779 17.0688 18.5229 16.5891C18.4387 16.4306 18.3198 16.2839 18.1923 16.156C15.6842 13.6378 13.1735 11.1222 10.6588 8.6105C10.5158 8.46771 10.346 8.28742 10.1678 8.25991C9.92171 8.22193 9.58114 8.22878 9.41958 8.37237C9.2629 8.51157 9.18258 8.8782 9.2474 9.09036C9.33504 9.37714 9.56271 9.64233 9.78323 9.86413C12.192 12.2871 14.6088 14.7021 17.0311 17.1117C17.2653 17.3448 17.5504 17.5268 17.7043 17.6479Z" fill="#FDFDFD"/>
<path d="M16.8779 12.1286C18.0809 12.1273 19.1586 11.0876 19.1624 9.92456C19.1664 8.7375 18.0418 7.61194 16.874 7.63411C15.6788 7.65683 14.6416 8.70761 14.6438 9.89346C14.646 11.1047 15.6708 12.1299 16.8779 12.1286ZM16.1591 10.0384C16.1439 9.45021 16.3933 9.18584 16.8458 9.15631C17.2977 9.1268 17.6091 9.36264 17.6316 9.82553C17.6546 10.3011 17.4063 10.6183 16.902 10.6297C16.4424 10.6402 16.1818 10.3956 16.1591 10.0384Z" fill="#FDFDFD"/>
<path d="M8.67119 15.8544C8.66313 17.0634 9.68871 18.1061 10.8904 18.1106C12.1112 18.1152 13.1221 17.1121 13.1313 15.8872C13.1407 14.6372 12.1684 13.6472 10.9278 13.6436C9.69933 13.64 8.67937 14.6393 8.67119 15.8544ZM11.0588 16.7183C10.4324 16.5693 10.1845 16.3394 10.1991 15.8568C10.2138 15.3729 10.4942 15.1459 10.9413 15.1431C11.4155 15.1401 11.7063 15.4413 11.6122 15.8849C11.5479 16.1882 11.2514 16.4422 11.0588 16.7183Z" fill="#FDFDFD"/>
</svg>
