<svg width="25" height="34" viewBox="0 0 25 34" fill="none" xmlns="http://www.w3.org/2000/svg">
<path d="M13.4868 28.6493C13.6903 28.2345 13.8752 27.846 14.0702 27.4625C15.2413 25.1575 16.5569 22.9407 18.1244 20.8802C19.2239 19.4351 20.4246 18.0855 21.887 16.9911C22.5079 16.5265 23.1667 16.1255 23.8906 15.8391C23.9215 15.8268 23.9534 15.8171 24.0142 15.7959C23.9933 16.1185 23.9729 16.4216 23.954 16.7249C23.8738 18.0262 23.8086 19.3278 23.9415 20.6295C23.9634 20.8438 24.0005 21.0577 24.0474 21.2681C24.1238 21.6137 24.2318 21.9484 24.4719 22.2103C22.5868 23.2498 21.0255 24.6843 19.5276 26.1916C17.389 28.3434 15.5327 30.7193 13.9661 33.3193C13.9374 33.3669 13.9069 33.4135 13.8533 33.4988C13.598 33.2334 13.3549 32.9789 13.1099 32.7262C12.5432 32.1417 11.9655 31.5677 11.4108 30.9722C10.1212 29.5876 8.6261 28.4798 6.9519 27.6069C6.55481 27.3999 6.16016 27.1883 5.74512 26.9686C7.42468 25.8912 9.08765 24.8245 10.7622 23.7504C11.6715 25.3855 12.5712 27.0028 13.4868 28.6493Z" fill="#FEFEFE"/>
<path d="M17.7869 8.87935H4.06389C4.05986 8.826 4.05339 8.77705 4.05314 8.72812C4.05278 8.09058 4.05119 7.453 4.05339 6.81544C4.05497 6.3503 4.35893 6.04816 4.82389 6.04776C5.92253 6.04677 7.02092 6.04744 8.11979 6.04744C8.18132 6.04744 8.24296 6.04744 8.32597 6.04744V5.85434C8.32597 4.71582 8.32573 3.57733 8.32597 2.43884C8.32609 1.02364 9.35099 0.00038144 10.771 0.00297543C11.1905 0.00372311 11.6111 -0.0275574 12.0242 0.0969085C13.0328 0.400833 13.7212 1.30899 13.7228 2.35963C13.7245 3.52092 13.7232 4.68219 13.7232 5.84346C13.7232 5.905 13.7232 5.96655 13.7232 6.04744H13.9184C14.9488 6.04744 15.9793 6.04709 17.0096 6.04761C17.493 6.04781 17.7912 6.33739 17.7936 6.81633C17.797 7.45956 17.7946 8.10283 17.7944 8.74608C17.7944 8.78505 17.7901 8.82399 17.7869 8.87935ZM12.0563 3.897C12.0616 3.35291 11.6353 2.91208 11.0983 2.90594C10.5574 2.89967 10.1104 3.32941 10.1027 3.86275C10.0949 4.41216 10.5268 4.85567 11.0735 4.86008C11.6181 4.86446 12.0512 4.43997 12.0563 3.897Z" fill="#FEFEFE"/>
<path d="M9.65393 31.6446C9.55298 31.6499 9.49902 31.6553 9.44519 31.6553C6.98035 31.6557 4.51538 31.6565 2.05042 31.655C1.41699 31.6547 0.862427 31.47 0.468018 30.9395C0.311401 30.7288 0.22644 30.4908 0.225952 30.2255C0.225952 30.1572 0.224243 30.0889 0.224243 30.0206C0.224121 21.59 0.224121 13.1593 0.224121 4.72871C0.224121 3.76287 0.860474 3.08685 1.83057 3.07798C3.67468 3.06107 5.51917 3.06984 7.36353 3.06838C7.39124 3.06835 7.41907 3.07402 7.45825 3.07825V4.7537C7.39246 4.7537 7.32678 4.7537 7.26111 4.7537C5.94604 4.7537 4.6311 4.7534 3.31616 4.75387C2.90564 4.75405 2.52747 4.85655 2.20959 5.12706C1.92749 5.36712 1.76587 5.66874 1.76599 6.04777C1.76672 7.3229 1.76611 8.598 1.76611 9.87316C1.76599 16.0894 1.77515 22.3057 1.75623 28.5218C1.75342 29.454 2.51941 29.952 3.18591 29.9551C4.52368 29.9613 5.86145 29.956 7.19922 29.9616C7.29456 29.962 7.40186 29.9929 7.48315 30.0429C8.20166 30.4841 8.88843 30.9694 9.5188 31.5315C9.55176 31.5608 9.5863 31.5881 9.65393 31.6446Z" fill="#FEFEFE"/>
<path d="M20.11 16.3781V16.1508C20.11 12.8617 20.0884 9.57222 20.1224 6.2834C20.1332 5.24 19.3502 4.75249 18.5885 4.75307C17.3707 4.754 16.153 4.75327 14.9352 4.75327C14.8676 4.75327 14.8002 4.75327 14.7195 4.75327V3.08564C14.7457 3.08035 14.7772 3.06836 14.8087 3.06836C16.5614 3.06959 18.3143 3.06508 20.0668 3.07735C20.7594 3.08216 21.4028 3.549 21.5863 4.14626C21.6241 4.26908 21.6461 4.40208 21.6461 4.53044C21.6494 8.00172 21.6494 11.473 21.6447 14.9443C21.6444 15.0149 21.5977 15.105 21.5433 15.1528C21.1121 15.5321 20.6737 15.9034 20.2374 16.2769C20.2047 16.3048 20.17 16.3304 20.11 16.3781Z" fill="#FEFEFE"/>
<path d="M21.6489 26.7295V26.9357C21.6489 27.9651 21.6489 28.9944 21.6489 30.0238C21.6489 30.8468 21.1859 31.4245 20.3796 31.5952C20.214 31.6303 20.0423 31.6522 19.8732 31.6533C18.9917 31.6589 18.1102 31.656 17.2286 31.6557C17.1969 31.6557 17.165 31.6518 17.1016 31.6476C17.2089 31.5045 17.2963 31.3817 17.39 31.2638C17.6973 30.8765 18.0101 30.4934 18.3133 30.1028C18.3985 29.993 18.4902 29.9512 18.6292 29.9545C18.9926 29.9631 19.3241 29.8535 19.6125 29.6304C19.9373 29.379 20.1372 29.0466 20.1024 28.6332C20.071 28.259 20.1847 27.9897 20.4743 27.7541C20.8488 27.4496 21.197 27.1128 21.5569 26.7905C21.5763 26.7733 21.6002 26.7614 21.6489 26.7295Z" fill="#FEFEFE"/>
<path d="M17.5775 17.3799V18.0182H4.46821C4.46333 17.9703 4.45576 17.9265 4.4554 17.8826C4.45393 17.7186 4.45491 17.5546 4.45491 17.3799H17.5775Z" fill="#FEFEFE"/>
<path d="M4.46387 16.0835V15.4541H17.5697V16.0835H4.46387Z" fill="#FEFEFE"/>
<path d="M4.46387 19.9387V19.3115H17.5692V19.9387H4.46387Z" fill="#FEFEFE"/>
<path d="M4.46387 12.7023V12.0713H9.11194V12.7023H4.46387Z" fill="#FEFEFE"/>
<path d="M9.11475 13.5654V14.1976H4.46704V13.5654H9.11475Z" fill="#FEFEFE"/>
</svg>
