<svg width="37" height="48" viewBox="0 0 37 48" fill="none" xmlns="http://www.w3.org/2000/svg">
<path d="M25.1555 14.3987C24.1323 14.3987 23.296 13.5615 23.296 12.5386V0.838867H5.09033C2.53333 0.838867 0.441406 2.93103 0.441406 5.48767V42.6669C0.441406 45.2235 2.53333 47.316 5.09033 47.316H32.2068C34.7638 47.316 36.8557 45.2235 36.8557 42.6669V14.3987H25.1555Z" fill="#CF4646"/>
<path d="M25.0227 14.3854H36.8545L23.3086 0.838867V12.6688C23.3732 13.5861 24.105 14.3191 25.0227 14.3854Z" fill="white"/>
<path d="M36.855 24.033V14.4512H25.1133L36.855 24.033Z" fill="#B83E3E"/>
<path d="M7.97205 37.207C8.60938 37.207 9.08411 37.7069 9.08411 38.3691C9.08411 39.0193 8.60938 39.5194 7.97205 39.5194C7.33447 39.5194 6.85938 39.0193 6.85938 38.3691C6.85938 37.7069 7.33447 37.207 7.97205 37.207Z" fill="white"/>
<path d="M12.4977 39.8571V41.6694H10.6602V33.1697H12.1602L12.2852 33.7817H12.3351C12.823 33.3444 13.4478 33.0195 14.0975 33.0195C15.5978 33.0195 16.5225 34.2579 16.5225 36.17C16.5225 38.2948 15.2474 39.5195 13.9102 39.5195C13.3727 39.5195 12.8727 39.2819 12.4353 38.8693L12.4977 39.8571ZM13.485 38.0197C14.1226 38.0197 14.635 37.4694 14.635 36.1948C14.635 35.0824 14.2977 34.5198 13.5602 34.5198C13.1852 34.5198 12.8605 34.6947 12.4977 35.0824V37.6195C12.823 37.9198 13.1729 38.0197 13.485 38.0197Z" fill="white"/>
<path d="M20.0706 33.0198C20.7579 33.0198 21.1705 33.2699 21.5953 33.6699L21.5204 32.7205V30.6074H23.3577V39.37H21.8577L21.733 38.7572H21.683C21.2456 39.1947 20.6331 39.52 20.033 39.52C18.4956 39.52 17.4961 38.2948 17.4961 36.27C17.4961 34.2452 18.7584 33.0198 20.0706 33.0198ZM20.5077 38.0197C20.9078 38.0197 21.2202 37.87 21.5204 37.4578V34.9202C21.1953 34.6199 20.8331 34.5197 20.4954 34.5197C19.9081 34.5197 19.3832 35.0702 19.3832 36.2449C19.3832 37.4697 19.7957 38.0197 20.5077 38.0197Z" fill="white"/>
<path d="M28.4847 32.0325C28.272 31.957 28.0474 31.9077 27.8472 31.9077C27.3973 31.9077 27.1346 32.1572 27.1346 32.7952V33.1699H28.2472V34.6077H27.1346V39.3699H25.2975V34.6077H24.4727V33.2446L25.2975 33.1826V32.8446C25.2975 31.5326 25.9098 30.457 27.5848 30.457C28.0973 30.457 28.5471 30.5825 28.8221 30.6824L28.4847 32.0325Z" fill="white"/>
</svg>
