<svg width="56" height="46" viewBox="0 0 56 46" fill="none" xmlns="http://www.w3.org/2000/svg">
<path d="M5.00688 8.03198C5.00688 7.51211 5.05425 7.08685 4.99687 6.67609C4.87968 5.8277 5.26506 5.27057 5.87285 4.73285C11.5943 -0.328736 19.9965 -0.473161 25.8517 4.41055C25.9311 4.47671 26.0153 4.5368 26.1204 4.61749C26.6247 4.23971 27.1124 3.84921 27.6244 3.49472C33.4755 -0.551179 41.5059 0.0877066 46.6713 4.9866C47.1027 5.39569 47.3204 5.82095 47.2743 6.41736C47.2344 6.93295 47.266 7.45425 47.266 8.03354C47.6349 8.03354 47.9433 8.03165 48.2521 8.03372C49.9736 8.04602 51.289 9.33783 51.2902 11.0445C51.295 17.7539 51.293 24.4634 51.2915 31.1729C51.2912 31.9599 50.9153 32.4222 50.2879 32.4249C49.6635 32.4276 49.2839 31.9626 49.2835 31.1752C49.282 24.6964 49.2561 18.2174 49.3014 11.7389C49.3133 10.0747 48.5688 9.89285 47.266 10.1094V10.8342C47.266 17.5227 47.2637 24.2112 47.2707 30.8996C47.2712 31.3636 47.2455 31.8376 46.7789 32.0261C46.4853 32.1447 46.0159 32.1881 45.793 32.0296C45.5226 31.8368 45.2879 31.3989 45.2809 31.0621C45.236 28.8824 45.2569 26.7015 45.2569 24.5208C45.2568 18.692 45.2526 12.8631 45.2651 7.03445C45.2662 6.6207 45.1484 6.35095 44.8262 6.08072C39.6719 1.76215 32.638 1.77968 27.5164 6.15625C27.3257 6.31903 27.1567 6.63132 27.1561 6.87424C27.1385 16.1417 27.1416 25.409 27.1424 34.6765C27.1424 34.7389 27.1535 34.8014 27.1662 34.9415C27.3456 34.8375 27.5 34.7577 27.6449 34.6629C31.5395 32.1085 35.7431 31.4277 40.2494 32.5818C40.3705 32.6129 40.4925 32.649 40.6077 32.6973C41.1393 32.9197 41.3857 33.4518 41.2084 33.9832C41.0473 34.466 40.5467 34.7084 39.9986 34.6248C38.6999 34.4268 37.3984 34.1053 36.0968 34.0984C32.7142 34.0804 29.7598 35.2966 27.2524 37.5703C26.2585 38.4713 26.0245 38.484 25.0505 37.5846C19.9335 32.8591 12.0151 32.9113 6.97185 37.6994C6.77763 37.8837 6.56584 38.0872 6.32365 38.1763C5.60136 38.4417 5.00688 37.8941 5.00688 36.9932C5.00664 28.2918 5.00688 19.5905 5.00688 10.8891C5.00688 10.639 5.00688 10.3888 5.00688 10.0538C4.61491 10.0538 4.24382 10.0153 3.88384 10.0623C3.27605 10.1417 2.99211 10.5807 2.99211 11.3664C2.99077 17.1533 2.99077 22.9403 2.99077 28.7271C2.99077 32.1031 2.98943 35.4791 2.99211 38.8551C2.99272 39.9091 3.32951 40.2406 4.3864 40.2406C16.4603 40.2412 28.5341 40.2415 40.6082 40.2422C40.8177 40.2422 41.0307 40.2257 41.2365 40.2549C41.7195 40.3231 42.1237 40.7985 42.0798 41.275C42.0332 41.7827 41.7596 42.1351 41.2394 42.2363C41.0569 42.2719 40.8631 42.2501 40.6746 42.2501C28.5171 42.2506 16.3591 42.2511 4.2011 42.25C2.22368 42.2497 0.982102 41.0142 0.981736 39.0421C0.979783 29.7746 0.980515 20.5072 0.981125 11.2397C0.981492 9.27481 2.22929 8.03342 4.20329 8.03198C4.44975 8.03186 4.69585 8.03198 5.00688 8.03198ZM7.01531 34.9406C13.0813 31.0635 19.081 31.0601 25.1318 34.9426C25.1318 34.7413 25.1318 34.601 25.1318 34.4608C25.1318 25.2783 25.1347 16.0957 25.115 6.9133C25.1148 6.65262 24.9397 6.31576 24.7367 6.14307C19.6091 1.77585 12.5905 1.77029 7.42876 6.09671C7.12651 6.35034 7.00481 6.59921 7.00652 6.99533C7.0208 11.1463 7.01531 15.2972 7.01531 19.4483C7.01494 24.5842 7.01531 29.72 7.01531 34.9406Z" fill="#1B3E69"/>
<path d="M52.8575 39.1026C53.5732 39.7918 54.2461 40.4195 54.8955 41.0704C55.5068 41.6831 55.5001 42.1841 54.8884 42.8052C54.05 43.6566 53.2068 44.5032 52.355 45.3411C51.7356 45.9501 51.2232 45.9575 50.6134 45.3507C49.9613 44.7025 49.3352 44.0279 48.625 43.2891C47.9295 44.014 47.3008 44.6527 46.6921 45.3107C46.3512 45.6793 45.9638 45.8955 45.4668 45.7376C44.9958 45.5879 44.8318 45.2044 44.7391 44.734C44.0654 41.308 43.3701 37.8862 42.6825 34.4632C42.497 33.5411 43.0876 32.9514 44.0095 33.1365C47.4526 33.8272 50.8989 34.5039 54.3343 35.231C54.6848 35.3052 55.0769 35.6223 55.2593 35.9371C55.4787 36.3161 55.2784 36.7365 54.9403 37.0588C54.2732 37.6952 53.623 38.3491 52.8575 39.1026ZM52.8744 41.9105C52.1898 41.2282 51.5172 40.5714 50.8602 39.8994C50.3084 39.3347 50.3086 38.8324 50.8629 38.2601C51.2956 37.8135 51.7522 37.3905 52.2856 36.8719C49.7776 36.3704 47.4167 35.8981 44.9477 35.4041C45.4437 37.8816 45.9162 40.2399 46.3918 42.6147C46.4952 42.5709 46.5411 42.5645 46.5677 42.5385C46.9416 42.1719 47.3122 41.8016 47.6849 41.4341C48.3947 40.7341 48.8546 40.728 49.549 41.4192C50.1828 42.0502 50.8104 42.6881 51.4367 43.3187C51.9395 42.8259 52.3855 42.3897 52.8744 41.9105Z" fill="#1B3E69"/>
<path d="M36.1614 10.0418C34.5498 10.0418 32.9384 10.0451 31.3269 10.0404C30.5782 10.0381 30.1599 9.66773 30.1641 9.03239C30.1679 8.4015 30.5878 8.03538 31.338 8.03468C34.5819 8.03129 37.8256 8.0315 41.0696 8.03477C41.8151 8.03556 42.2354 8.40803 42.2325 9.04276C42.2296 9.67243 41.8068 10.0386 41.0587 10.0405C39.4262 10.0446 37.7939 10.0418 36.1614 10.0418Z" fill="#1B3E69"/>
<path d="M36.1969 16.0823C34.5851 16.082 32.9735 16.0839 31.362 16.0811C30.5761 16.0798 30.1469 15.7031 30.1646 15.0426C30.1811 14.4173 30.6001 14.074 31.3661 14.0735C34.5895 14.0711 37.8127 14.0704 41.0359 14.0728C41.7985 14.0735 42.2193 14.423 42.2348 15.0477C42.2511 15.7059 41.8212 16.08 41.0317 16.0816C39.42 16.0846 37.8085 16.0824 36.1969 16.0823Z" fill="#1B3E69"/>
<path d="M36.1944 22.1195C34.5826 22.1195 32.9711 22.1219 31.3595 22.1185C30.5957 22.1168 30.1791 21.7711 30.1645 21.1425C30.1492 20.4827 30.5742 20.1127 31.3686 20.1122C34.5917 20.1097 37.8146 20.1097 41.0376 20.1123C41.8017 20.1127 42.2183 20.4594 42.2328 21.088C42.2482 21.7475 41.8224 22.1168 41.0286 22.1185C39.417 22.1219 37.8057 22.1195 36.1944 22.1195Z" fill="#1B3E69"/>
<path d="M36.1917 28.1603C34.58 28.1607 32.9684 28.1636 31.3568 28.1595C30.5983 28.1575 30.1764 27.8037 30.1643 27.1781C30.1516 26.5167 30.5756 26.1513 31.3738 26.1507C34.597 26.1488 37.8203 26.149 41.0437 26.1512C41.7989 26.1517 42.2211 26.5053 42.2344 27.1333C42.2483 27.7937 41.825 28.1576 41.0266 28.159C39.4149 28.1617 37.8034 28.1597 36.1917 28.1603Z" fill="#1B3E69"/>
<path d="M16.1027 10.0417C14.4706 10.0419 12.8379 10.0451 11.2056 10.0403C10.4562 10.0382 10.0368 9.66988 10.0391 9.03606C10.0411 8.40337 10.4595 8.03557 11.209 8.03472C14.4533 8.03115 17.697 8.03164 20.9409 8.03478C21.6875 8.03557 22.1083 8.4059 22.1074 9.03908C22.1067 9.67061 21.6848 10.0385 20.9371 10.0405C19.3256 10.0448 17.7141 10.0417 16.1027 10.0417Z" fill="#1B3E69"/>
<path d="M16.0447 16.0825C14.4329 16.0823 12.8212 16.0847 11.2094 16.0812C10.4644 16.0795 10.0415 15.7114 10.0391 15.0787C10.0366 14.4445 10.4567 14.0747 11.2048 14.074C14.4489 14.0709 17.6931 14.0702 20.9373 14.0734C21.6838 14.0742 22.1082 14.4459 22.1091 15.0748C22.1104 15.7064 21.686 16.0793 20.9424 16.0814C19.3095 16.0856 17.677 16.0827 16.0447 16.0825Z" fill="#1B3E69"/>
<path d="M16.1374 20.1111C17.7281 20.1111 19.3184 20.1088 20.9089 20.1123C21.7048 20.114 22.126 20.4828 22.108 21.147C22.091 21.7726 21.6719 22.1179 20.9077 22.1184C17.6845 22.1208 14.4615 22.1208 11.2388 22.1184C10.4452 22.1177 10.0217 21.7455 10.0396 21.0835C10.0566 20.4578 10.4753 20.1136 11.2403 20.1122C12.8727 20.1089 14.5049 20.1111 16.1374 20.1111Z" fill="#1B3E69"/>
<path d="M16.1409 26.1494C17.7315 26.1496 19.3226 26.1478 20.9131 26.1504C21.6719 26.1516 22.0933 26.5 22.1097 27.1269C22.127 27.7867 21.7007 28.1577 20.9074 28.1581C17.684 28.1607 14.4609 28.1614 11.2376 28.1588C10.4756 28.1581 10.0547 27.8078 10.0395 27.1831C10.0236 26.5246 10.4533 26.1516 11.2432 26.1499C12.876 26.1471 14.5084 26.1491 16.1409 26.1494Z" fill="#1B3E69"/>
</svg>
