<svg width="21" height="18" viewBox="0 0 21 18" fill="none" xmlns="http://www.w3.org/2000/svg">
<path d="M16.2975 13.1628C17.2157 13.1628 18.0693 13.1509 18.9225 13.1667C19.5393 13.1781 19.9613 12.8845 20.1625 12.34C20.3652 11.7913 20.5345 11.2182 20.6212 10.6411C20.8556 9.08064 20.8269 7.52266 20.305 6.01387C19.9899 5.10322 19.6439 4.8672 18.7586 4.86665C13.3439 4.86329 7.92919 4.87159 2.5146 4.85646C1.78156 4.85438 1.27087 5.14576 1.07702 5.82283C0.853405 6.60401 0.661373 7.40858 0.587177 8.21504C0.464428 9.54945 0.505993 10.8975 1.0579 12.1472C1.22519 12.5262 1.60855 13.031 1.94358 13.0729C2.93116 13.1964 3.94416 13.117 5.01224 13.117V10.6209H16.2975V13.1628Z" fill="white"/>
<path d="M6.07458 11.4111C5.62103 13.5165 5.16841 15.6176 4.70801 17.755H16.5855C16.124 15.616 15.671 13.5158 15.2194 11.4226H14.403C14.8068 13.3193 15.198 15.1575 15.5955 17.0242H5.69374C6.09863 15.1318 6.49171 13.2944 6.89462 11.4111H6.07458Z" fill="white"/>
<path d="M6.90219 0.7509H14.4066V4.32693H15.0457V0.151367H6.24609V4.30838H6.90219V0.7509Z" fill="white"/>
<path d="M7.31511 15.4848L7.18262 15.6835C7.32382 15.7695 7.46454 15.9292 7.6064 15.9304C9.64809 15.9465 11.69 15.9447 13.7318 15.9326C13.8425 15.9321 13.9526 15.8046 14.0629 15.7363C13.9488 15.6525 13.8352 15.4962 13.7206 15.4956C11.5855 15.4809 9.45023 15.4848 7.31511 15.4848Z" fill="white"/>
<path d="M7.54459 14.1396L7.44531 14.2766C7.55927 14.3734 7.67236 14.5532 7.78723 14.5543C9.69141 14.5716 11.596 14.5715 13.5003 14.5543C13.6162 14.5531 13.7306 14.3766 13.8457 14.2816L13.7474 14.1396H7.54459Z" fill="white"/>
<path d="M7.77124 12.7646L7.66602 12.8972C7.78087 12.9956 7.89478 13.1784 8.01068 13.1797C9.76483 13.1977 11.5192 13.1974 13.2734 13.1797C13.3902 13.1785 13.5052 13.0025 13.6211 12.9078L13.5237 12.7646H7.77124Z" fill="white"/>
<path d="M16.2975 13.1628V10.6209H5.01224V13.117C3.94416 13.117 2.93116 13.1964 1.94358 13.0729C1.60855 13.031 1.22519 12.5262 1.0579 12.1472C0.505993 10.8975 0.464428 9.54945 0.587177 8.21504C0.661373 7.40858 0.853405 6.60401 1.07702 5.82283C1.27087 5.14576 1.78156 4.85438 2.5146 4.85646C7.92919 4.87159 13.3439 4.86329 18.7586 4.86665C19.6439 4.8672 19.9899 5.10322 20.305 6.01387C20.8269 7.52266 20.8556 9.08064 20.6212 10.6411C20.5345 11.2182 20.3652 11.7913 20.1625 12.34C19.9613 12.8845 19.5393 13.1781 18.9225 13.1667C18.0693 13.1509 17.2157 13.1628 16.2975 13.1628ZM3.06685 5.97779C2.60712 5.97493 2.23246 6.33546 2.22216 6.79097C2.21197 7.23957 2.58101 7.63575 3.02665 7.65449C3.49566 7.67421 3.90467 7.2754 3.90123 6.80171C3.8979 6.34578 3.52818 5.98072 3.06685 5.97779Z" fill="white"/>
<path d="M6.07458 11.4111H6.89462C6.49171 13.2944 6.09863 15.1318 5.69374 17.0242H15.5955C15.198 15.1575 14.8068 13.3193 14.403 11.4226H15.2194C15.671 13.5158 16.124 15.616 16.5855 17.755H4.70801C5.16841 15.6176 5.62103 13.5165 6.07458 11.4111Z" fill="white"/>
<path d="M6.90219 0.7509V4.30838H6.24609V0.151367H15.0457V4.32693H14.4066V0.7509H6.90219Z" fill="white"/>
<path d="M7.31511 15.4848C9.45023 15.4848 11.5855 15.4809 13.7206 15.4956C13.8352 15.4962 13.9488 15.6525 14.0629 15.7363C13.9526 15.8046 13.8425 15.9321 13.7318 15.9326C11.69 15.9447 9.64809 15.9465 7.6064 15.9304C7.46454 15.9292 7.32382 15.7695 7.18262 15.6835L7.31511 15.4848Z" fill="white"/>
<path d="M7.54459 14.1396H13.7474L13.8457 14.2816C13.7306 14.3766 13.6162 14.5531 13.5003 14.5543C11.596 14.5715 9.69141 14.5716 7.78723 14.5543C7.67236 14.5532 7.55927 14.3734 7.44531 14.2766L7.54459 14.1396Z" fill="white"/>
<path d="M7.77124 12.7646H13.5237L13.6211 12.9078C13.5052 13.0025 13.3902 13.1785 13.2734 13.1797C11.5192 13.1974 9.76483 13.1977 8.01068 13.1797C7.89478 13.1784 7.78087 12.9956 7.66602 12.8972L7.77124 12.7646Z" fill="white"/>
<path d="M3.06657 5.97853C3.5279 5.98155 3.89762 6.34657 3.90093 6.80251C3.90438 7.27623 3.49537 7.67503 3.02636 7.65532C2.58074 7.63655 2.21169 7.24037 2.22189 6.79173C2.23217 6.33629 2.60683 5.97569 3.06657 5.97853Z" fill="white"/>
</svg>
