<svg width="29" height="28" viewBox="0 0 29 28" fill="none" xmlns="http://www.w3.org/2000/svg">
<path fill-rule="evenodd" clip-rule="evenodd" d="M14.0807 17.322C11.2526 17.322 8.96024 15.0629 8.96024 12.2759C8.96024 9.48924 11.2526 7.2301 14.0807 7.2301C16.9085 7.2301 19.2008 9.48924 19.2008 12.2759C19.2008 15.0629 16.9085 17.322 14.0807 17.322ZM14.0805 27.7524C21.857 27.7524 28.161 21.5399 28.161 13.8762C28.161 6.21257 21.857 0 14.0805 0C6.30402 0 0 6.21257 0 13.8762C0 21.5399 6.30402 27.7524 14.0805 27.7524ZM5.91821 23.5477C7.22937 20.3748 10.3897 18.1379 14.0807 18.1379C17.7714 18.1379 20.9319 20.3747 22.2429 23.5476C25.055 21.2402 26.8454 17.7645 26.8454 13.8762C26.8454 6.92865 21.1304 1.29652 14.0805 1.29652C7.03064 1.29652 1.31561 6.92865 1.31561 13.8762C1.31561 17.7645 3.10597 21.2403 5.91821 23.5477Z" fill="#696969"/>
</svg>
