<svg width="24" height="23" viewBox="0 0 24 23" fill="none" xmlns="http://www.w3.org/2000/svg">
<path d="M12.9532 22.5815C13.1711 22.5522 13.3887 22.521 13.6069 22.4938C14.5961 22.3702 15.5516 22.1256 16.4769 21.7487C17.2756 21.4233 18.0253 21.0148 18.7193 20.5073C19.0924 20.2344 19.4456 19.9338 19.7999 19.6364C20.6131 18.9535 21.2478 18.1178 21.81 17.2268C22.3653 16.3466 22.7987 15.4054 23.0488 14.3931C23.2106 13.7383 23.3648 13.0748 23.4353 12.406C23.5006 11.7865 23.462 11.1548 23.4478 10.5288C23.4245 9.49585 23.1889 8.50085 22.8458 7.53223C22.4465 6.40479 21.9127 5.34387 21.1401 4.42297C20.6861 3.88184 20.2242 3.33813 19.7037 2.86365C18.8204 2.05847 17.8161 1.42566 16.7124 0.947754C15.9096 0.60022 15.0815 0.34729 14.2269 0.185791C13.7874 0.102783 13.3348 0.0900879 12.8884 0.0428467C12.8355 0.0372314 12.7846 0.0146484 12.7327 0C12.3798 0 12.0271 0 11.6743 0C11.6151 0.0146484 11.5562 0.0405273 11.4967 0.0423584C10.6842 0.0693359 9.88447 0.194946 9.1147 0.446411C8.45417 0.662109 7.79988 0.910034 7.16902 1.20056C6.32747 1.58813 5.57051 2.11755 4.86702 2.724C4.06331 3.41675 3.36311 4.19897 2.77705 5.08252C1.98054 6.28333 1.44294 7.59644 1.14314 9.00171C1.03804 9.49438 1.00435 10.0038 0.960645 10.5074C0.926465 10.8995 0.900952 11.2958 0.917554 11.6881C0.971021 12.9565 1.20784 14.1906 1.67354 15.3762C2.01179 16.2374 2.42927 17.0573 2.98469 17.7992C3.27485 18.1868 3.58577 18.5592 3.89961 18.928C4.5677 19.7133 5.38215 20.3242 6.24214 20.8821C6.9106 21.3158 7.62056 21.6702 8.37532 21.9091C9.11226 22.1423 9.87153 22.3075 10.6248 22.486C10.8273 22.5339 11.0443 22.5195 11.2541 22.5388C11.3214 22.5449 11.3872 22.5668 11.4537 22.5815H12.9532ZM5.32405 18.3506C2.74312 15.949 1.21443 11.5028 3.2707 7.07483C4.22834 5.01257 5.76851 3.46729 7.80049 2.453C9.69465 1.50757 11.708 1.19507 13.8066 1.54541C15.7227 1.86523 17.4171 2.67603 18.8449 3.98474C20.7982 5.7749 21.8778 8.01855 22.0687 10.6614C22.1889 12.327 21.8774 13.931 21.1682 15.4487C20.677 16.5 20.0313 17.4436 19.184 18.2675C17.9869 14.8116 15.0664 13.2986 12.658 13.2495C9.0146 13.1754 6.63167 15.019 5.32405 18.3506Z" fill="white"/>
<path d="M16.4815 7.85204C16.5345 5.49535 14.5769 3.58141 12.2088 3.62071C9.94404 3.65831 8.02106 5.47691 8.06318 7.95201C8.09931 10.076 9.87751 12.2065 12.6118 12.0423C14.5852 11.9241 16.5336 10.1659 16.4815 7.85204Z" fill="white"/>
</svg>
