<svg width="42" height="27" viewBox="0 0 42 27" fill="none" xmlns="http://www.w3.org/2000/svg">
<path d="M4.21094 14.512V21.989C4.21094 22.1442 4.33667 22.2699 4.49188 22.2699H5.85162C6.00665 22.2699 6.13251 22.1443 6.13251 21.9891V14.512C6.13251 14.3446 5.99683 14.209 5.82965 14.209H4.51385C4.3465 14.209 4.21094 14.3446 4.21094 14.512Z" fill="#405D81"/>
<path d="M6.13251 11.3907V4.84937C6.13251 4.69421 6.00665 4.56836 5.85162 4.56836H4.49188C4.33667 4.56836 4.21094 4.69421 4.21094 4.84937V11.3907C4.21094 11.5551 4.34418 11.6882 4.50848 11.6882H5.8349C5.99921 11.6882 6.13251 11.5551 6.13251 11.3907Z" fill="#405D81"/>
<path d="M7.84399 11.6882C8.0083 11.6882 8.14154 11.5551 8.14154 11.3907V4.84937C8.14154 4.69421 8.01581 4.56836 7.8606 4.56836H7.46161C7.3064 4.56836 7.18066 4.69421 7.18066 4.84937V11.3907C7.18066 11.5551 7.31384 11.6882 7.47821 11.6882H7.84399Z" fill="#405D81"/>
<path d="M7.48352 14.209C7.31628 14.209 7.18066 14.3446 7.18066 14.512V21.989C7.18066 22.1442 7.3064 22.2699 7.46161 22.2699H7.8606C8.01581 22.2699 8.14154 22.1442 8.14154 21.989V14.512C8.14154 14.3446 8.00592 14.209 7.83862 14.209H7.48352Z" fill="#405D81"/>
<rect x="11.082" y="4.56836" width="1" height="7.11981" fill="#405D81"/>
<rect x="11.082" y="14.209" width="1" height="8.06095" fill="#405D81"/>
<path d="M12.467 11.3907V4.84937C12.467 4.69421 12.3412 4.56836 12.1861 4.56836H10.5641C10.409 4.56836 10.2832 4.69421 10.2832 4.84937V11.3907C10.2832 11.5551 10.4164 11.6882 10.5808 11.6882H12.1694C12.3337 11.6882 12.467 11.5551 12.467 11.3907Z" fill="#405D81"/>
<path d="M10.2832 14.512V21.989C10.2832 22.1442 10.409 22.2699 10.5641 22.2699H12.186C12.3412 22.2699 12.467 22.1442 12.467 21.989V14.512C12.467 14.3446 12.3314 14.209 12.1641 14.209H10.5861C10.4188 14.209 10.2832 14.3446 10.2832 14.512Z" fill="#405D81"/>
<path d="M14.035 11.3907V4.84937C14.035 4.69421 13.9094 4.56836 13.7542 4.56836H13.1803C13.0252 4.56836 12.8994 4.69421 12.8994 4.84937V11.3907C12.8994 11.5551 13.0326 11.6882 13.1969 11.6882H13.7375C13.9019 11.6882 14.035 11.5551 14.035 11.3907Z" fill="#405D81"/>
<path d="M12.8994 14.512V21.989C12.8994 22.1442 13.0252 22.2699 13.1803 22.2699H13.7542C13.9094 22.2699 14.035 22.1443 14.035 21.9891V14.512C14.035 14.3446 13.8995 14.209 13.7322 14.209H13.2023C13.035 14.209 12.8994 14.3446 12.8994 14.512Z" fill="#405D81"/>
<path d="M17.8323 11.3907V4.84937C17.8323 4.69421 17.7064 4.56836 17.5513 4.56836H15.3181C15.1628 4.56836 15.0371 4.69421 15.0371 4.84937V11.3907C15.0371 11.5551 15.1704 11.6882 15.3347 11.6882H17.5347C17.6989 11.6882 17.8323 11.5551 17.8323 11.3907Z" fill="#405D81"/>
<path d="M15.0371 14.512V21.989C15.0371 22.1442 15.1628 22.2699 15.3181 22.2699H17.5513C17.7064 22.2699 17.8323 22.1443 17.8323 21.9891V14.512C17.8323 14.3446 17.6967 14.209 17.5292 14.209H15.3401C15.1727 14.209 15.0371 14.3446 15.0371 14.512Z" fill="#405D81"/>
<rect x="18.4961" y="4.56836" width="1" height="7.11981" fill="#405D81"/>
<rect x="18.4961" y="14.209" width="1" height="8.06095" fill="#405D81"/>
<path d="M22.1469 11.3907V4.84937C22.1469 4.69421 22.021 4.56836 21.8661 4.56836H20.7682C20.613 4.56836 20.4873 4.69421 20.4873 4.84937V11.3907C20.4873 11.5551 20.6206 11.6882 20.7848 11.6882H21.8492C22.0137 11.6882 22.1469 11.5551 22.1469 11.3907Z" fill="#405D81"/>
<path d="M20.4873 14.512V21.989C20.4873 22.1442 20.613 22.2699 20.7682 22.2699H21.8661C22.021 22.2699 22.1469 22.1443 22.1469 21.9891V14.512C22.1469 14.3446 22.0111 14.209 21.844 14.209H20.7903C20.6229 14.209 20.4873 14.3446 20.4873 14.512Z" fill="#405D81"/>
<path d="M26.098 11.3907V4.84937C26.098 4.69421 25.9724 4.56836 25.8171 4.56836H23.3218C23.1667 4.56836 23.041 4.69421 23.041 4.84924V11.3907C23.041 11.5551 23.1742 11.6882 23.3385 11.6882H25.8003C25.9648 11.6882 26.098 11.5551 26.098 11.3907Z" fill="#405D81"/>
<path d="M23.041 14.512V21.989C23.041 22.1442 23.1667 22.2699 23.3219 22.2699H25.8171C25.9724 22.2699 26.098 22.1443 26.098 21.9891V14.512C26.098 14.3446 25.9623 14.209 25.7952 14.209H23.3439C23.1766 14.209 23.041 14.3446 23.041 14.512Z" fill="#405D81"/>
<rect x="27.7236" y="4.56836" width="1" height="7.11981" fill="#405D81"/>
<rect x="27.7236" y="14.209" width="1" height="8.06095" fill="#405D81"/>
<path d="M31.0486 11.3907V4.84937C31.0486 4.69421 30.9229 4.56836 30.7676 4.56836H29.5825C29.4275 4.56836 29.3018 4.69421 29.3018 4.84924V11.3907C29.3018 11.5551 29.4351 11.6882 29.5992 11.6882H30.751C30.9153 11.6882 31.0486 11.5551 31.0486 11.3907Z" fill="#405D81"/>
<path d="M29.3018 14.512V21.989C29.3018 22.1442 29.4275 22.2699 29.5826 22.2699H30.7678C30.9229 22.2699 31.0486 22.1443 31.0486 21.9893V14.512C31.0486 14.3446 30.9128 14.209 30.7457 14.209H29.6044C29.4375 14.209 29.3018 14.3446 29.3018 14.512Z" fill="#405D81"/>
<path d="M30.3049 11.3907V4.84937C30.3049 4.69421 30.1792 4.56836 30.0239 4.56836H29.3628C29.208 4.56836 29.082 4.69421 29.082 4.84937V11.3907C29.082 11.5551 29.2153 11.6882 29.3799 11.6882H30.0076C30.1719 11.6882 30.3049 11.5551 30.3049 11.3907Z" fill="#405D81"/>
<path d="M29.082 14.512V21.989C29.082 22.1442 29.208 22.2699 29.3628 22.2699H30.0239C30.1792 22.2699 30.3049 22.1443 30.3049 21.9891V14.512C30.3049 14.3446 30.1694 14.209 30.002 14.209H29.3848C29.218 14.209 29.082 14.3446 29.082 14.512Z" fill="#405D81"/>
<path d="M35.2678 11.3907V4.84937C35.2678 4.69421 35.1423 4.56836 34.9871 4.56836H33.365C33.2097 4.56836 33.084 4.69421 33.084 4.84937V11.3907C33.084 11.5551 33.2173 11.6882 33.3816 11.6882H34.9702C35.1345 11.6882 35.2678 11.5551 35.2678 11.3907Z" fill="#405D81"/>
<path d="M33.084 14.512V21.989C33.084 22.1442 33.2097 22.2699 33.365 22.2699H34.9868C35.1423 22.2699 35.2678 22.1442 35.2678 21.989V14.512C35.2678 14.3446 35.1321 14.209 34.9646 14.209H33.387C33.2197 14.209 33.084 14.3446 33.084 14.512Z" fill="#405D81"/>
<path d="M36.7529 11.6882V4.84937C36.7529 4.69421 36.6272 4.56836 36.4722 4.56836H36.2478C36.0928 4.56836 35.9668 4.69421 35.9668 4.84937V11.6882H36.7529Z" fill="#405D81"/>
<path d="M35.9668 14.209V21.989C35.9668 22.1442 36.0928 22.2699 36.2478 22.2699H36.4722C36.6272 22.2699 36.7529 22.1442 36.7529 21.989V14.209H35.9668Z" fill="#405D81"/>
<path d="M38.5 11.3907V4.84937C38.5 4.69421 38.3743 4.56836 38.219 4.56836H37.5581C37.4033 4.56836 37.2773 4.69421 37.2773 4.84937V11.3907C37.2773 11.5551 37.4106 11.6882 37.575 11.6882H38.2024C38.3669 11.6882 38.5 11.5551 38.5 11.3907Z" fill="#405D81"/>
<path d="M37.2773 14.512V21.989C37.2773 22.1442 37.4033 22.2699 37.5581 22.2699H38.219C38.3743 22.2699 38.5 22.1443 38.5 21.9891V14.512C38.5 14.3446 38.3647 14.209 38.197 14.209H37.5801C37.4131 14.209 37.2773 14.3446 37.2773 14.512Z" fill="#405D81"/>
<path d="M27.4524 11.3907V4.84937C27.4524 4.69421 27.3265 4.56836 27.1715 4.56836H26.5105C26.3552 4.56836 26.2295 4.69421 26.2295 4.84937V11.3907C26.2295 11.5551 26.3627 11.6882 26.5272 11.6882H27.1548C27.3191 11.6882 27.4524 11.5551 27.4524 11.3907Z" fill="#405D81"/>
<path d="M26.2295 14.512V21.9891C26.2295 22.1443 26.3552 22.2699 26.5105 22.2699H27.1715C27.3265 22.2699 27.4524 22.1443 27.4524 21.9893V14.512C27.4524 14.3446 27.3168 14.209 27.1495 14.209H26.5325C26.3651 14.209 26.2295 14.3446 26.2295 14.512Z" fill="#405D81"/>
<path d="M1.55359 5.21887C1.27917 5.21887 1.05664 4.99658 1.05664 4.72192V2.18433C1.05664 1.28943 1.78485 0.561523 2.67969 0.561523H5.8038C6.07819 0.561523 6.30069 0.783691 6.30069 1.05835C6.30069 1.33313 6.07819 1.55542 5.8038 1.55542H2.67969C2.33273 1.55542 2.05054 1.8374 2.05054 2.18433V4.72192C2.05054 4.99658 1.82803 5.21887 1.55359 5.21887Z" fill="#405D81"/>
<path d="M5.8038 26.0396H2.67969C1.78485 26.0396 1.05664 25.3113 1.05664 24.4163V21.8788C1.05664 21.604 1.27917 21.3818 1.55359 21.3818C1.82803 21.3818 2.05054 21.604 2.05054 21.8788V24.4163C2.05054 24.7634 2.33273 25.0455 2.67969 25.0455H5.8038C6.07819 25.0455 6.30069 25.2681 6.30069 25.5427C6.30069 25.8175 6.07819 26.0396 5.8038 26.0396Z" fill="#405D81"/>
<path d="M40.0312 26.0396H36.9021C36.6279 26.0396 36.4053 25.8175 36.4053 25.5427C36.4053 25.2681 36.6279 25.0455 36.9021 25.0455H40.0312C40.3782 25.0455 40.6604 24.7634 40.6604 24.4163V21.8788C40.6604 21.604 40.8828 21.3818 41.1575 21.3818C41.4319 21.3818 41.6541 21.604 41.6541 21.8788V24.4163C41.6541 25.3113 40.926 26.0396 40.0312 26.0396Z" fill="#405D81"/>
<path d="M41.1575 5.21887C40.8828 5.21887 40.6604 4.99658 40.6604 4.72192V2.18433C40.6604 1.8374 40.3782 1.55542 40.0312 1.55542H36.9021C36.6279 1.55542 36.4053 1.33313 36.4053 1.05835C36.4053 0.783691 36.6279 0.561523 36.9021 0.561523H40.0312C40.926 0.561523 41.6541 1.28943 41.6541 2.18433V4.72192C41.6541 4.99658 41.4319 5.21887 41.1575 5.21887Z" fill="#405D81"/>
<path d="M41.417 13.5869H0.998016C0.722992 13.5869 0.5 13.3381 0.5 13.0306C0.5 12.7233 0.722992 12.4746 0.998016 12.4746H41.417C41.692 12.4746 41.915 12.7233 41.915 13.0306C41.915 13.3381 41.692 13.5869 41.417 13.5869Z" fill="#FE0000"/>
</svg>
