<svg width="44" height="31" viewBox="0 0 44 31" fill="none" xmlns="http://www.w3.org/2000/svg">
<path d="M15.0303 1.54297C7.28137 1.54297 1 7.82483 1 15.5737C1 18.3021 1.77917 20.8487 3.12671 23.003L1.91345 28.6393L6.63538 26.8166C8.97668 28.5673 11.882 29.604 15.0303 29.604C22.7792 29.604 29.061 23.3227 29.061 15.5737C29.061 7.82483 22.7792 1.54297 15.0303 1.54297Z" stroke="white" stroke-width="2"/>
<path d="M33.8633 14.918C34.6165 14.918 35.2274 15.528 35.2274 16.2816C35.2274 17.0348 34.6165 17.6453 33.8633 17.6453C33.1101 17.6453 32.499 17.0348 32.499 16.2816C32.499 15.528 33.1101 14.918 33.8633 14.918Z" fill="#F8F8F8"/>
<path d="M35.7255 25.57H32.0371V24.0336H32.5496V19.8329H32.0371V18.2959H32.583H35.2131V24.0336H35.7255V25.57Z" fill="#F8F8F8"/>
<path d="M15.844 22.8412C15.5354 23.1159 15.1776 23.2533 14.7728 23.2533C14.3535 23.2533 13.9873 23.1175 13.675 22.8459C13.3623 22.5749 13.2061 22.1952 13.2061 21.7079C13.2061 21.2749 13.3574 20.9104 13.6594 20.6153C13.9618 20.3197 14.3325 20.1719 14.7728 20.1719C15.2053 20.1719 15.5693 20.3197 15.865 20.6153C16.1599 20.9104 16.3079 21.2749 16.3079 21.7079C16.3079 22.1889 16.1538 22.5665 15.844 22.8412Z" fill="#F8F8F8"/>
<path d="M19.7809 13.6287C19.5438 14.0685 19.2623 14.4476 18.9359 14.7678C18.6095 15.0869 18.0239 15.6243 17.179 16.3805C16.9456 16.5931 16.7581 16.7806 16.6169 16.942C16.4766 17.1034 16.3716 17.2512 16.3032 17.3849C16.2341 17.5186 16.1809 17.6528 16.1433 17.787C16.1052 17.9207 16.0488 18.1829 15.973 18.5193C15.9021 18.9094 16.0477 19.1914 15.8101 19.3966H13.543C13.2991 19.089 13.4792 18.6608 13.4792 18.2001C13.4792 17.6225 13.5685 17.1096 13.7471 16.6871C13.9263 16.2646 14.1628 15.887 14.4585 15.5679C14.7535 15.2483 15.1521 14.8654 15.6539 14.4251C16.0931 14.0408 16.4111 13.7488 16.6071 13.553C16.8025 13.3571 16.9675 13.1388 17.1017 12.898C17.2354 12.6578 17.3027 12.3961 17.3027 12.1147C17.3027 11.5652 17.098 11.1009 16.6897 10.7233C16.2806 10.3452 15.7532 10.1561 15.1077 10.1561C14.3519 10.1561 13.7952 10.3468 13.438 10.728C13.0808 11.1093 12.5312 12.4129 12.5312 12.4129L9.86816 12.4536C9.86816 12.4536 10.0411 10.9751 10.46 10.3055C10.8789 9.63541 11.4905 9.08081 12.2947 8.64105C13.0985 8.20129 14.0359 7.98145 15.1077 7.98145C16.1035 7.98145 16.9832 8.16577 17.7456 8.53296C18.5081 8.90063 19.0973 9.40045 19.5129 10.0324C19.9287 10.6643 20.1366 11.3516 20.1366 12.0938C20.1366 12.6776 20.0181 13.1889 19.7809 13.6287Z" fill="#F8F8F8"/>
<path d="M42.9995 20.4588C43.0361 14.9066 38.8177 10.3775 33.5773 10.343C32.399 10.3352 31.2699 10.5566 30.2271 10.965C30.6698 12.4279 30.9048 13.9895 30.8944 15.6101C30.8651 20.0306 29.0173 23.9873 26.1094 26.6911C27.834 28.9661 30.4751 30.4373 33.4446 30.4566C35.5735 30.4707 37.5439 29.785 39.1348 28.5038L42.3201 29.8241L41.5256 25.7766C42.447 24.238 42.9866 22.4142 42.9995 20.4588Z" stroke="white"/>
</svg>
