<svg width="25" height="25" viewBox="0 0 25 25" fill="none" xmlns="http://www.w3.org/2000/svg">
<g clip-path="url(#clip0_1_777)">
<path d="M23.1632 24.9604C22.7351 24.8558 22.3797 24.5563 22.0609 24.2351C20.1656 22.325 18.2618 20.4232 16.3615 18.5179C16.2993 18.4555 16.2443 18.386 16.1812 18.3144C13.6653 20.0632 10.9327 20.6435 7.96993 19.9186C5.52486 19.3203 3.60128 17.9335 2.1661 15.8666C-0.600685 11.8819 0.0553205 6.31866 3.68081 2.99357C7.31936 -0.343588 12.897 -0.47003 16.6697 2.68055C20.5061 5.88445 21.5379 11.6628 18.3372 16.1482C18.4661 16.2665 18.6054 16.3851 18.7343 16.5142C20.6476 18.4292 22.5576 20.3476 24.4739 22.2595C24.8151 22.5999 25.0322 23.058 24.9962 23.5469C24.9423 24.2764 24.353 24.9231 23.6204 24.9931C23.4589 25.0086 23.307 24.9955 23.1632 24.9604ZM3.30117 10.308C3.30257 14.2092 6.43459 17.3492 10.3476 17.3725C14.2166 17.3954 17.4 14.2121 17.4029 10.3175C17.4058 6.40539 14.2354 3.22672 10.3448 3.24091C6.44265 3.25519 3.29989 6.40844 3.30117 10.308Z" fill="#0FAEEF"/>
</g>
<defs>
<clipPath id="clip0_1_777">
<rect width="24.5425" height="24.5982" fill="white" transform="translate(0.45752 0.401367)"/>
</clipPath>
</defs>
</svg>
