<svg width="42" height="36" viewBox="0 0 42 36" fill="none" xmlns="http://www.w3.org/2000/svg">
<path fill-rule="evenodd" clip-rule="evenodd" d="M6.35266 22.5934C8.1781 27.9062 12.8899 31.8772 18.6163 32.6333C18.9911 31.9159 19.7422 31.4261 20.6078 31.4261C21.8486 31.4261 22.854 32.4319 22.854 33.6728C22.854 34.9127 21.8486 35.9185 20.6078 35.9185C19.6406 35.9185 18.8162 35.3076 18.4998 34.4505C11.8174 33.6175 6.34778 28.8804 4.4447 22.5934H3.68713H2.14734C0.966553 22.5934 0 21.6268 0 20.4462V14.9424C0 13.7618 0.966553 12.7957 2.14734 12.7957H3.68713C5.80908 5.45267 12.5811 0.0820312 20.6078 0.0820312C28.6345 0.0820312 35.4069 5.45267 37.5289 12.7957H39.0682C40.2494 12.7957 41.2161 13.7618 41.2161 14.9424V20.4462C41.2161 21.6268 40.2494 22.5934 39.0682 22.5934H37.5289H36.3931H35.4958H34.8633C35.3909 21.0571 35.6782 19.4092 35.6782 17.6945C35.6782 9.37137 28.931 2.62418 20.6078 2.62418C12.285 2.62418 5.53796 9.37137 5.53796 17.6945C5.53796 19.4092 5.82483 21.0571 6.35266 22.5934Z" fill="white"/>
<path fill-rule="evenodd" clip-rule="evenodd" d="M20.6088 28.1319C14.8442 28.1319 10.1714 23.4586 10.1714 17.6942C10.1714 11.9296 14.8442 7.25684 20.6088 7.25684C26.3733 7.25684 31.046 11.9296 31.046 17.6942C31.046 17.774 31.0449 17.8539 31.043 17.9338L31.041 18.0076C31.0389 18.0684 31.0365 18.1292 31.0339 18.19L31.0314 18.2508C31.0269 18.3292 31.0225 18.407 31.0164 18.4849L31.0118 18.5422C31.0063 18.603 31.0013 18.6638 30.9952 18.7245L30.9877 18.7999C30.9812 18.8597 30.9741 18.92 30.9673 18.9793L30.9601 19.0391C30.9504 19.1134 30.9399 19.1883 30.929 19.2621L30.9175 19.3345C30.9089 19.3897 30.8997 19.4445 30.8898 19.4992L30.8767 19.5746C30.8651 19.6369 30.8535 19.6987 30.8409 19.7605L30.8319 19.8057C30.8169 19.8785 30.8014 19.9509 30.7848 20.0233L30.7662 20.1021C30.7545 20.1513 30.743 20.2001 30.7303 20.2493L30.7094 20.3332C30.6908 20.403 30.6721 20.4719 30.6526 20.5412L30.6366 20.596C30.6205 20.6517 30.6044 20.7065 30.5873 20.7612L30.5618 20.8441C30.5468 20.8918 30.531 20.9396 30.515 20.9873L30.4899 21.0637C30.4667 21.1305 30.4437 21.1974 30.4196 21.2631L30.3893 21.3441C30.3733 21.3872 30.3567 21.4305 30.3402 21.4737L30.3044 21.5641C30.2874 21.6068 30.2699 21.649 30.2522 21.6917L30.212 21.7881C30.1879 21.8444 30.1635 21.9007 30.1382 21.9565L30.094 22.0544L30.0443 22.1609L29.9976 22.2579C29.9789 22.2961 29.9598 22.3338 29.9407 22.3719C29.9152 22.4222 29.8895 22.4734 29.8629 22.5237C29.8448 22.5583 29.8267 22.5925 29.8085 22.6267C29.7897 22.6628 29.7694 22.6985 29.7498 22.7342L29.7057 22.8135C29.6844 22.8507 29.6635 22.8879 29.6418 22.9251L29.6072 22.9834C29.5645 23.0562 29.5206 23.1286 29.4766 23.1999L29.4374 23.2627C29.4122 23.3024 29.3867 23.3421 29.3611 23.3813L29.3258 23.435C29.2454 23.5571 29.1626 23.6767 29.077 23.7952L29.9442 27.0296L26.7094 26.163C26.1627 26.5569 25.577 26.899 24.959 27.1834C23.6346 27.7918 22.1611 28.1319 20.6088 28.1319ZM32.9199 30.0053L31.3416 24.1153L31.3524 24.0967L31.4087 24.0022C31.4427 23.9439 31.4766 23.8842 31.5103 23.8249L31.5565 23.7424C31.5861 23.6892 31.6152 23.635 31.6443 23.5812L31.7017 23.4727C31.7294 23.4194 31.7568 23.3657 31.7841 23.3124C31.8041 23.2718 31.8247 23.231 31.8442 23.1903C31.8689 23.1406 31.8931 23.0904 31.9167 23.0411C31.9371 22.9964 31.9584 22.9512 31.9789 22.9065C31.9991 22.8633 32.0186 22.8201 32.0382 22.7764C32.0603 22.7266 32.0825 22.6759 32.1041 22.6257C32.1232 22.5815 32.1418 22.5372 32.1604 22.493C32.1804 22.4438 32.2006 22.3946 32.2206 22.3448C32.2375 22.3016 32.2549 22.2584 32.2714 22.2152C32.293 22.1599 32.3141 22.1042 32.3346 22.0489L32.3738 21.9429C32.3964 21.8801 32.4186 21.8168 32.4407 21.7535L32.4708 21.665C32.4935 21.5978 32.5151 21.5294 32.5366 21.4611L32.5642 21.3731C32.5863 21.3013 32.608 21.2285 32.6292 21.1562L32.6487 21.0858C32.6703 21.0095 32.6908 20.9326 32.7109 20.8557L32.729 20.7859C32.7491 20.708 32.7683 20.6296 32.7864 20.5512L32.8008 20.49C32.8195 20.4081 32.837 20.3262 32.8541 20.2438L32.8667 20.1835C32.8838 20.0976 32.9003 20.0117 32.9159 19.9263L32.9226 19.8876C32.9391 19.7962 32.9541 19.7037 32.9689 19.6118L32.9727 19.5816C32.9868 19.4882 33.0004 19.3947 33.0125 19.3008L33.0164 19.2682C33.0278 19.1747 33.0385 19.0812 33.0486 18.9868L33.052 18.9526C33.0616 18.8567 33.0701 18.7597 33.0771 18.6632L33.0786 18.6452C33.0862 18.5447 33.0927 18.4447 33.0978 18.3437L33.0988 18.3282C33.1039 18.2267 33.1079 18.1252 33.1104 18.0232V18.0172V18.0127C33.1134 17.9067 33.1147 17.8006 33.1147 17.6942C33.1147 10.7872 27.5157 5.18848 20.6088 5.18848C13.7019 5.18848 8.10254 10.7872 8.10254 17.6942C8.10254 24.6011 13.7019 30.2003 20.6088 30.2003C22.1387 30.2003 23.6041 29.925 24.959 29.4221C25.0177 29.3999 25.077 29.3779 25.1357 29.3547L25.2543 29.308C25.3107 29.2854 25.3665 29.2623 25.4222 29.2397L25.5328 29.193C25.5861 29.1699 25.6387 29.1467 25.6914 29.1231C25.7351 29.104 25.7784 29.0845 25.821 29.0648C25.8708 29.0417 25.9211 29.0186 25.9705 28.995L26.0964 28.9342C26.1421 28.9116 26.1879 28.889 26.2325 28.8659C26.2788 28.8433 26.3245 28.8202 26.3702 28.7961C26.4133 28.7735 26.4565 28.7509 26.4998 28.7277C26.5476 28.7021 26.5953 28.676 26.6426 28.6498L26.7621 28.5831C26.8118 28.5549 26.8616 28.5268 26.9113 28.4977C26.9454 28.4771 26.9802 28.457 27.0148 28.4363L27.0298 28.4268L32.9199 30.0053Z" fill="white"/>
<path fill-rule="evenodd" clip-rule="evenodd" d="M14.871 15.5264C16.0677 15.5264 17.0383 16.497 17.0383 17.6937C17.0383 18.8909 16.0677 19.8615 14.871 19.8615C13.6738 19.8615 12.7031 18.8909 12.7031 17.6937C12.7031 16.497 13.6738 15.5264 14.871 15.5264ZM26.3452 15.5264C27.5424 15.5264 28.5125 16.497 28.5125 17.6937C28.5125 18.8909 27.5424 19.8615 26.3452 19.8615C25.1484 19.8615 24.1779 18.8909 24.1779 17.6937C24.1779 16.497 25.1484 15.5264 26.3452 15.5264ZM20.6078 15.5264C21.8051 15.5264 22.7751 16.497 22.7751 17.6937C22.7751 18.8909 21.8051 19.8615 20.6078 19.8615C19.411 19.8615 18.4404 18.8909 18.4404 17.6937C18.4404 16.497 19.411 15.5264 20.6078 15.5264Z" fill="white"/>
</svg>
