<svg width="24" height="30" viewBox="0 0 24 30" fill="none" xmlns="http://www.w3.org/2000/svg">
<path d="M12.0267 29.7408C9.33875 29.7148 6.73694 29.4617 4.2168 28.6394C3.36499 28.3615 2.54871 28.0041 1.81336 27.4811C1.021 26.9174 0.619632 26.2088 0.696902 25.1799C0.968387 21.5636 3.66602 18.5015 7.24195 17.8412C7.36341 17.8187 7.52796 17.859 7.63037 17.9304C8.85779 18.7865 10.2174 19.1947 11.7113 19.2298C13.2459 19.2658 14.7125 19.0252 15.9954 18.1501C16.4595 17.8336 16.8554 17.829 17.3514 17.9625C20.7372 18.8738 23.1799 21.9434 23.3104 25.4387C23.337 26.1552 23.0825 26.7083 22.5684 27.1689C21.7561 27.8963 20.7766 28.3128 19.7589 28.6457C17.2295 29.4729 14.6167 29.7183 12.0267 29.7408Z" fill="#0FAEEF"/>
<path d="M12.5478 17.7484C12.0866 17.7189 11.6183 17.7312 11.1658 17.6521C9.7587 17.4057 8.64725 16.6421 7.74563 15.565C6.56961 14.1604 5.92032 12.5463 5.9523 10.6987C6.00955 7.36604 8.85391 4.68558 12.1836 4.8046C16.3483 4.95343 19.0482 8.96863 17.6853 13.0085C17.5116 13.5233 17.2543 14.0128 17.0016 14.4962C16.9296 14.6343 16.7483 14.7303 16.5976 14.8077C16.4734 14.8714 16.3191 14.8748 16.1802 14.9122C15.9018 14.9871 15.659 14.9675 15.3932 14.8045C14.9168 14.5122 13.1914 14.5355 12.6912 14.7952C11.6695 15.3254 11.4936 16.6997 12.3496 17.4683C12.4193 17.531 12.4917 17.5909 12.5628 17.652L12.5478 17.7484Z" fill="#0FAEEF"/>
<path d="M2.01211 12.4921C2.01211 12.0117 2.0159 11.5312 2.01126 11.0508C2.00552 10.4768 2.2399 10.036 2.70889 9.70484C2.79385 9.64487 2.87076 9.51584 2.87881 9.41294C3.267 4.43693 7.40359 0.734991 12.3915 0.908178C16.6 1.0542 20.2793 4.26368 20.9961 8.41428C21.0205 8.55613 21.05 8.6981 21.0602 8.84122C21.0917 9.27866 21.1278 9.67475 21.5705 9.96461C21.9052 10.1836 21.9939 10.6088 21.9918 11.0232C21.9872 12.0033 21.9949 12.9834 21.9888 13.9634C21.9815 15.121 20.8651 15.8428 19.8018 15.3798C19.6751 15.3246 19.5794 15.2805 19.4379 15.3777C18.3169 16.1476 17.0487 16.4923 15.716 16.653C15.5821 16.6691 15.4341 16.7486 15.3356 16.8434C15.1308 17.0401 14.9081 17.1628 14.6211 17.1616C14.2368 17.1598 13.8523 17.1665 13.4682 17.1592C12.9329 17.1489 12.5395 16.7642 12.5359 16.2592C12.5325 15.7609 12.9284 15.3651 13.4597 15.3516C13.8438 15.3419 14.2327 15.3154 14.611 15.3629C14.8511 15.393 15.0761 15.5446 15.3075 15.6423C15.3893 15.6768 15.4741 15.7505 15.5511 15.7428C16.6721 15.6307 17.7371 15.3356 18.7148 14.7572C18.9063 14.6439 19.0208 14.5458 18.9359 14.2856C18.8733 14.0927 18.9057 13.8671 18.9051 13.6561C18.9027 12.7913 18.9103 11.9265 18.9019 11.0618C18.8963 10.4871 19.1231 10.0482 19.5868 9.70881C19.6725 9.64606 19.7249 9.46729 19.7123 9.35071C19.4263 6.71964 18.1608 4.6836 15.8797 3.3505C11.0136 0.506658 4.82889 3.70228 4.28482 9.30961C4.26455 9.51749 4.29702 9.65427 4.49051 9.78422C4.88919 10.0518 5.09353 10.4538 5.09707 10.9354C5.10476 11.9827 5.11221 13.0303 5.09353 14.0773C5.07876 14.8985 4.40152 15.5108 3.55703 15.5086C2.70816 15.5064 2.04764 14.9026 2.01895 14.0773C2.00052 13.5495 2.01553 13.0206 2.01553 12.4921H2.01211Z" fill="#0FAEEF"/>
</svg>
