<svg width="19" height="19" viewBox="0 0 19 19" fill="none" xmlns="http://www.w3.org/2000/svg">
<path d="M9.52655 0.211965C14.4561 0.228322 18.429 4.23491 18.4135 9.17424C18.3981 14.039 14.3423 18.0579 9.47235 18.0342C4.52374 18.0102 0.562925 13.9769 0.593931 8.99309C0.623838 4.14959 4.64606 0.195607 9.52655 0.211965ZM3.23248 4.76177C2.47625 5.88555 2.00689 7.07915 1.91522 8.44426H4.59356C4.72442 7.45232 4.84869 6.5086 4.97137 5.57769C4.39081 5.30523 3.84601 5.04961 3.23248 4.76177ZM14.0303 5.57744C14.1552 6.54509 14.2787 7.50322 14.4004 8.44585H17.0729C16.996 7.05132 16.5106 5.86382 15.758 4.76372C15.1827 5.0346 14.6403 5.29009 14.0303 5.57744ZM14.4105 9.78277C14.2819 10.6828 14.1534 11.5455 14.0428 12.4102C14.03 12.5109 14.0872 12.6854 14.1623 12.7217C14.6923 12.9786 15.2357 13.2083 15.7802 13.4491C16.5228 12.3021 17.0137 11.138 17.0692 9.78277H14.4105ZM3.242 13.4627C3.76727 13.219 4.24688 13.0165 4.70367 12.7714C4.82684 12.7054 4.96771 12.5001 4.95294 12.3761C4.85003 11.5151 4.70855 10.6586 4.57977 9.80352H1.89679C2.03937 11.1565 2.45965 12.3541 3.242 13.4627ZM6.19574 5.96685C6.09173 6.82488 5.9953 7.62041 5.89508 8.44768H8.82916V6.31572C7.96087 6.20061 7.13873 6.09173 6.19574 5.96685ZM5.88312 9.7813C5.99872 10.6563 6.10589 11.4681 6.21173 12.2692C7.16961 12.1437 7.99237 12.0358 8.83307 11.9257V9.7813H5.88312ZM10.1749 8.44378H13.1089C12.996 7.57879 12.8908 6.77312 12.7855 5.96697C11.8419 6.09502 11.0239 6.20598 10.1749 6.3211V8.44378ZM13.1031 9.79693H10.1668V11.9114C11.0241 12.0269 11.8627 12.1399 12.7933 12.2651C12.8959 11.4479 12.996 10.6497 13.1031 9.79693ZM8.8454 5.03411V1.63445C7.57294 2.32122 7.08551 3.46892 6.57647 4.72588C7.36432 4.83294 8.07586 4.92962 8.8454 5.03411ZM8.83148 16.6166V13.205C8.06671 13.3071 7.35516 13.402 6.58795 13.5044C7.0711 14.7715 7.59491 15.8785 8.83148 16.6166ZM12.4173 4.72612C11.9033 3.46038 11.4225 2.31487 10.19 1.65508V5.03521C10.9423 4.93084 11.6382 4.83428 12.4173 4.72612ZM10.1694 16.6253C11.4085 15.8597 11.9422 14.7631 12.4097 13.4959C11.6286 13.3984 10.9188 13.3095 10.1694 13.2157V16.6253ZM12.7167 15.9312L12.8023 16.0717C13.5014 15.5745 14.2006 15.0772 15.0086 14.5026C14.4399 14.2468 14.0547 14.0738 13.6788 13.9047L12.7167 15.9312ZM5.31769 4.32769C5.66449 3.59295 5.97625 2.93279 6.2879 2.27276L6.19085 2.16607C5.49664 2.65508 4.8023 3.14422 3.99579 3.71233L5.31769 4.32769ZM3.98724 14.5079C4.80194 15.0804 5.5086 15.5771 6.21527 16.0737L6.29461 15.9581C5.9776 15.2908 5.66046 14.6238 5.32062 13.9091C4.92828 14.0853 4.54156 14.259 3.98724 14.5079ZM12.8023 2.1668L12.7208 2.30376C13.0307 2.95745 13.3405 3.61101 13.6779 4.32268C14.0715 4.14263 14.4545 3.96758 15.0062 3.7155C14.1887 3.14104 13.4954 2.65386 12.8023 2.1668Z" fill="white"/>
</svg>
