<svg width="28" height="29" viewBox="0 0 28 29" fill="none" xmlns="http://www.w3.org/2000/svg">
<path d="M17.8299 9.39693C16.2935 8.33736 14.5899 8.0035 12.7661 8.39449C11.1034 8.75087 9.7798 9.65126 8.81117 11.0455C7.90749 12.3459 7.54292 13.799 7.69051 15.3782C7.79024 16.4455 8.15566 17.4178 8.72518 18.3216C8.78523 18.417 8.80403 18.5697 8.77901 18.6819C8.70455 19.0157 8.59804 19.3424 8.50569 19.6724C8.41359 20.0008 8.32356 20.3297 8.217 20.7154C8.36446 20.682 8.4554 20.664 8.545 20.6411C9.12373 20.4921 9.70387 20.3473 10.2802 20.1896C10.4469 20.1442 10.5798 20.1577 10.7307 20.2512C11.686 20.8429 12.7292 21.1758 13.8512 21.2142C15.7056 21.2776 17.3386 20.6898 18.6565 19.3797C20.3758 17.6704 20.9751 15.5931 20.4469 13.2249C20.087 11.6124 19.1859 10.3325 17.8299 9.39693ZM18.1175 16.8162C17.9292 18.1688 16.7743 18.6264 15.8021 18.4402C14.8571 18.2594 14.0037 17.8458 13.22 17.2988C12.1594 16.5582 11.2931 15.6287 10.6544 14.5005C10.2911 13.8586 10.0904 13.17 10.235 12.4224C10.3368 11.8951 10.6447 11.4879 11.0629 11.1763C11.2003 11.0738 11.4134 11.0723 11.5921 11.0246C11.9972 10.938 12.1865 11.1984 12.3138 11.5492C12.4754 11.9938 12.6778 12.4241 12.8692 12.8575C12.9526 13.0463 12.9336 13.2045 12.7905 13.3581C12.6265 13.5339 12.4789 13.7248 12.3154 13.9014C12.1865 14.0409 12.1807 14.1754 12.2746 14.3365C12.8436 15.3137 13.6475 16.0303 14.6763 16.49C15.2105 16.7287 15.1479 16.7511 15.5099 16.2821C15.6435 16.1089 15.7783 15.9366 15.9113 15.763C16.0199 15.6211 16.1535 15.5865 16.3163 15.6619C16.8522 15.9095 17.3875 16.1586 17.9249 16.4026C18.1126 16.4879 18.1435 16.6294 18.1175 16.8162Z" fill="white"/>
<path d="M27.8139 12.5771C27.2746 9.24786 25.7469 6.46274 23.2352 4.22858C20.6215 1.90338 17.5371 0.773072 14.9357 0.737427C11.5304 0.727051 9.18734 1.37708 7.02242 2.64832C5.46248 3.56433 4.13582 4.75836 3.05233 6.20615C1.29659 8.55246 0.352009 11.196 0.241108 14.129C0.187397 15.5597 0.326252 16.9736 0.698627 18.3575C1.45986 21.1894 2.93221 23.596 5.16164 25.4962C8.40779 28.2625 12.1781 29.327 16.3939 28.7073C18.2067 28.4409 19.904 27.7938 21.4564 26.8032C23.5744 25.4513 25.2235 23.662 26.3954 21.4393C27.0507 20.1962 27.5135 18.8801 27.7631 17.4968C28.0581 15.862 28.0806 14.2241 27.8139 12.5771ZM21.9458 15.2253C21.7717 17.748 20.6383 19.7778 18.5477 21.1811C16.0414 22.863 13.3693 23.0119 10.6338 21.7207C10.4079 21.6141 10.2154 21.5836 9.97206 21.6491C8.84603 21.9524 7.71498 22.2362 6.58565 22.5266C6.50954 22.5462 6.43227 22.5618 6.30886 22.5898C6.33852 22.4657 6.35421 22.3886 6.37575 22.3131C6.69503 21.1761 7.01931 20.0406 7.329 18.9013C7.36104 18.7835 7.34426 18.6232 7.28792 18.5149C5.98983 16.0227 5.94796 13.5028 7.26631 11.0323C8.48049 8.7576 10.4204 7.38052 12.9834 7.00851C15.8542 6.59183 18.2688 7.53561 20.1493 9.73218C21.4917 11.3 22.0882 13.1611 21.9458 15.2253Z" fill="white"/>
</svg>
