<svg width="29" height="29" viewBox="0 0 29 29" fill="none" xmlns="http://www.w3.org/2000/svg">
<path d="M13.3135 17.2117C14.6505 16.3898 15.9674 15.58 17.316 14.7512C15.9663 13.9216 14.6489 13.112 13.3135 12.291V17.2117Z" fill="white"/>
<path d="M28.5485 12.5771C28.0095 9.24786 26.4814 6.46274 23.9698 4.22858C21.356 1.90338 18.2717 0.773072 15.6707 0.737427C12.2649 0.727051 9.92199 1.37708 7.75707 2.64832C6.19695 3.56433 4.87042 4.75836 3.78704 6.20615C2.0313 8.55246 1.08648 11.196 0.976006 14.129C0.922173 15.5597 1.06121 16.9736 1.43316 18.3575C2.19463 21.1894 3.66668 23.596 5.89636 25.4962C9.14245 28.2625 12.9129 29.327 17.1285 28.7073C18.9412 28.4409 20.6386 27.7938 22.191 26.8032C24.3091 25.4513 25.9581 23.662 27.1299 21.4393C27.7855 20.1962 28.248 18.8801 28.4977 17.4968C28.7928 15.862 28.8154 14.2241 28.5485 12.5771ZM22.6542 17.716C22.6236 17.9681 22.5819 18.2214 22.5146 18.4657C22.2732 19.3396 21.6669 19.8547 20.7992 19.9917C19.9939 20.1187 19.1733 20.165 18.3574 20.1989C17.1578 20.2489 15.9565 20.2563 14.8592 20.2795C13.6503 20.258 12.5449 20.2585 11.4413 20.2121C10.6039 20.1769 9.76281 20.1269 8.93548 20.0029C7.86425 19.8421 7.20617 19.1476 7.07317 18.079C6.97088 17.2544 6.90484 16.4224 6.88018 15.592C6.85369 14.7128 6.87261 13.8304 6.91503 12.9516C6.94372 12.3553 7.01342 11.7563 7.12377 11.1696C7.30425 10.2115 7.95568 9.66772 8.87682 9.51294C9.67986 9.37817 10.5023 9.32416 11.3179 9.30524C13.1183 9.26379 14.9199 9.24097 16.7205 9.26099C17.9249 9.27448 19.1287 9.36133 20.3309 9.44482C20.6907 9.46991 21.0646 9.54431 21.3956 9.68292C22.0898 9.97321 22.4594 10.5497 22.5561 11.2797C22.659 12.0564 22.7421 12.8375 22.7917 13.6193C22.8779 14.9878 22.8207 16.3548 22.6542 17.716Z" fill="white"/>
</svg>
